#N canvas 40 30 1900 1780 12;
#X text 30 20 Original epic hybrid orchestra cue using tonejs-instruments samples;
#X text 30 42 Craft target: modern blockbuster energy \, low ostinato \, brass swells \, layered build;
#X text 30 64 No copied themes. 32 bar loop with sections: intro \, build \, pressure \, full peak;
#X obj 30 105 bng 30 250 50 0 empty empty START 38 15 0 12 #fcfcfc #000000 #000000;
#X obj 190 105 bng 30 250 50 0 empty empty STOP 38 15 0 12 #fcfcfc #000000 #000000;
#X floatatom 30 170 6 0 0 0 BPM - -;
#X floatatom 120 170 6 0 0 0 MASTER - -;
#X floatatom 230 170 6 0 0 0 REVERB - -;
#X floatatom 340 170 6 0 0 0 ENERGY - -;
#X obj 30 204 s \$0-bpm;
#X obj 120 204 s \$0-master;
#X obj 230 204 s \$0-reverb;
#X obj 340 204 s \$0-energy;
#X obj 530 105 loadbang;
#X msg 530 145 120;
#X msg 600 145 0.30;
#X msg 680 145 0.30;
#X msg 760 145 1;
#X text 30 258 Transport: 8th note clock. 256 steps equals 32 bars at 120 BPM;
#X obj 30 295 t b b b;
#X obj 190 295 t b b;
#X msg 30 340 1;
#X msg 190 340 0;
#X msg 95 340 0;
#X msg 320 295 \; pd dsp 1;
#X msg 320 340 stop;
#X obj 455 340 s \$0-stopread;
#X obj 30 390 metro 250;
#X obj 30 435 f 0;
#X obj 30 480 t f f f f;
#X obj 210 480 + 1;
#X obj 270 480 mod 256;
#X floatatom 30 530 5 0 0 0 STEP256 - -;
#X obj 125 530 / 8;
#X obj 125 570 int;
#X floatatom 125 610 5 0 0 0 BAR - -;
#X obj 30 570 s \$0-step256;
#X obj 125 650 s \$0-bar;
#X obj 350 390 r \$0-bpm;
#X obj 350 432 t b f;
#X msg 350 474 30000;
#X obj 435 474 /;
#X obj 435 516 s \$0-stepms;
#X obj 120 390 r \$0-stepms;
#X text 650 235 Automatic layer balance by section;
#X obj 650 275 r \$0-step256;
#X obj 650 315 sel 0 64 128 192 224 248;
#X msg 650 360 0.30 600;
#X msg 760 360 0.50 900;
#X msg 870 360 0.72 900;
#X msg 980 360 0.95 900;
#X msg 1090 360 1.12 600;
#X msg 1200 360 0.42 1200;
#X obj 650 410 s \$0-build;
#X text 30 720 Low foundation: contrabass and tuba roots over 32 bars;
#X obj 30 756 r \$0-step256;
#X obj 30 796 sel 0 8 16 24 32 40 48 56 64 72 80 88 96 104 112 120 128 136 144 152 160 168 176 184 192 200 208 216 224 232 240 248;
#X obj 550 796 s \$0-lowRoot;
#X msg 125 838 open tonejs-instruments/samples/contrabass/D2.wav \, 1;
#X msg 290 838 open tonejs-instruments/samples/contrabass/D2.wav \, 1;
#X msg 455 838 open tonejs-instruments/samples/contrabass/As1.wav \, 1;
#X msg 620 838 open tonejs-instruments/samples/tuba/F1.wav \, 1;
#X msg 125 868 open tonejs-instruments/samples/contrabass/G1.wav \, 1;
#X msg 290 868 open tonejs-instruments/samples/contrabass/D2.wav \, 1;
#X msg 455 868 open tonejs-instruments/samples/contrabass/As1.wav \, 1;
#X msg 620 868 open tonejs-instruments/samples/contrabass/C2.wav \, 1;
#X msg 125 898 open tonejs-instruments/samples/contrabass/D2.wav \, 1;
#X msg 290 898 open tonejs-instruments/samples/contrabass/D2.wav \, 1;
#X msg 455 898 open tonejs-instruments/samples/contrabass/As1.wav \, 1;
#X msg 620 898 open tonejs-instruments/samples/tuba/F1.wav \, 1;
#X msg 125 928 open tonejs-instruments/samples/contrabass/G1.wav \, 1;
#X msg 290 928 open tonejs-instruments/samples/french-horn/A1.wav \, 1;
#X msg 455 928 open tonejs-instruments/samples/contrabass/As1.wav \, 1;
#X msg 620 928 open tonejs-instruments/samples/contrabass/C2.wav \, 1;
#X msg 125 958 open tonejs-instruments/samples/contrabass/D2.wav \, 1;
#X msg 290 958 open tonejs-instruments/samples/tuba/F1.wav \, 1;
#X msg 455 958 open tonejs-instruments/samples/contrabass/As1.wav \, 1;
#X msg 620 958 open tonejs-instruments/samples/contrabass/C2.wav \, 1;
#X msg 125 988 open tonejs-instruments/samples/contrabass/D2.wav \, 1;
#X msg 290 988 open tonejs-instruments/samples/tuba/F1.wav \, 1;
#X msg 455 988 open tonejs-instruments/samples/contrabass/G1.wav \, 1;
#X msg 620 988 open tonejs-instruments/samples/french-horn/A1.wav \, 1;
#X msg 125 1018 open tonejs-instruments/samples/contrabass/D2.wav \, 1;
#X msg 290 1018 open tonejs-instruments/samples/tuba/F1.wav \, 1;
#X msg 455 1018 open tonejs-instruments/samples/contrabass/As1.wav \, 1;
#X msg 620 1018 open tonejs-instruments/samples/contrabass/C2.wav \, 1;
#X msg 125 1048 open tonejs-instruments/samples/contrabass/D2.wav \, 1;
#X msg 290 1048 open tonejs-instruments/samples/contrabass/As1.wav \, 1;
#X msg 455 1048 open tonejs-instruments/samples/contrabass/C2.wav \, 1;
#X msg 620 1048 open tonejs-instruments/samples/contrabass/D2.wav \, 1;
#X text 760 720 Cinematic low impacts: piano floor hits;
#X obj 760 756 r \$0-step256;
#X obj 760 796 sel 0 32 64 96 128 160 192 208 224 240 248;
#X obj 1280 796 s \$0-impactPiano;
#X msg 855 838 open tonejs-instruments/samples/piano/D1.wav \, 1;
#X msg 1020 838 open tonejs-instruments/samples/piano/D1.wav \, 1;
#X msg 1185 838 open tonejs-instruments/samples/piano/As1.wav \, 1;
#X msg 855 868 open tonejs-instruments/samples/piano/F1.wav \, 1;
#X msg 1020 868 open tonejs-instruments/samples/piano/D1.wav \, 1;
#X msg 1185 868 open tonejs-instruments/samples/piano/F1.wav \, 1;
#X msg 855 898 open tonejs-instruments/samples/piano/D1.wav \, 1;
#X msg 1020 898 open tonejs-instruments/samples/piano/As1.wav \, 1;
#X msg 1185 898 open tonejs-instruments/samples/piano/C2.wav \, 1;
#X msg 855 928 open tonejs-instruments/samples/piano/D1.wav \, 1;
#X msg 1020 928 open tonejs-instruments/samples/piano/D1.wav \, 1;
#X text 1230 720 Cinematic low impacts: tuba layer;
#X obj 1230 756 r \$0-step256;
#X obj 1230 796 sel 0 32 64 96 128 160 192 208 224 240 248;
#X obj 1750 796 s \$0-impactTuba;
#X msg 1325 838 open tonejs-instruments/samples/tuba/D3.wav \, 1;
#X msg 1490 838 open tonejs-instruments/samples/tuba/D3.wav \, 1;
#X msg 1655 838 open tonejs-instruments/samples/tuba/As1.wav \, 1;
#X msg 1325 868 open tonejs-instruments/samples/tuba/F1.wav \, 1;
#X msg 1490 868 open tonejs-instruments/samples/tuba/D3.wav \, 1;
#X msg 1655 868 open tonejs-instruments/samples/tuba/F2.wav \, 1;
#X msg 1325 898 open tonejs-instruments/samples/tuba/D3.wav \, 1;
#X msg 1490 898 open tonejs-instruments/samples/tuba/As1.wav \, 1;
#X msg 1655 898 open tonejs-instruments/samples/tuba/F2.wav \, 1;
#X msg 1325 928 open tonejs-instruments/samples/tuba/D3.wav \, 1;
#X msg 1490 928 open tonejs-instruments/samples/tuba/D3.wav \, 1;
#X text 30 990 Cinematic low impacts: contrabass layer;
#X obj 30 1026 r \$0-step256;
#X obj 30 1066 sel 0 32 64 96 128 160 192 208 224 240 248;
#X obj 550 1066 s \$0-impactBass;
#X msg 125 1108 open tonejs-instruments/samples/contrabass/D2.wav \, 1;
#X msg 290 1108 open tonejs-instruments/samples/contrabass/D2.wav \, 1;
#X msg 455 1108 open tonejs-instruments/samples/contrabass/As1.wav \, 1;
#X msg 125 1138 open tonejs-instruments/samples/tuba/F1.wav \, 1;
#X msg 290 1138 open tonejs-instruments/samples/contrabass/D2.wav \, 1;
#X msg 455 1138 open tonejs-instruments/samples/tuba/F1.wav \, 1;
#X msg 125 1168 open tonejs-instruments/samples/contrabass/D2.wav \, 1;
#X msg 290 1168 open tonejs-instruments/samples/contrabass/As1.wav \, 1;
#X msg 455 1168 open tonejs-instruments/samples/contrabass/C2.wav \, 1;
#X msg 125 1198 open tonejs-instruments/samples/contrabass/D2.wav \, 1;
#X msg 290 1198 open tonejs-instruments/samples/contrabass/D2.wav \, 1;
#X text 500 990 Cello ostinato A: quarter-note motor throughout;
#X obj 500 1026 r \$0-step256;
#X obj 500 1066 sel 0 2 4 6 8 10 12 14 16 18 20 22 24 26 28 30 32 34 36 38 40 42 44 46 48 50 52 54 56 58 60 62 64 66 68 70 72 74 76 78 80 82 84 86 88 90 92 94 96 98 100 102 104 106 108 110 112 114 116 118 120 122 124 126 128 130 132 134 136 138 140 142 144 146 148 150 152 154 156 158 160 162 164 166 168 170 172 174 176 178 180 182 184 186 188 190 192 194 196 198 200 202 204 206 208 210 212 214 216 218 220 222 224 226 228 230 232 234 236 238 240 242 244 246 248 250 252 254;
#X obj 1020 1066 s \$0-celloOstA;
#X msg 595 1108 open tonejs-instruments/samples/cello/D2.wav \, 1;
#X msg 760 1108 open tonejs-instruments/samples/cello/A2.wav \, 1;
#X msg 925 1108 open tonejs-instruments/samples/cello/D3.wav \, 1;
#X msg 1090 1108 open tonejs-instruments/samples/cello/A2.wav \, 1;
#X msg 1255 1108 open tonejs-instruments/samples/cello/F2.wav \, 1;
#X msg 595 1138 open tonejs-instruments/samples/cello/A2.wav \, 1;
#X msg 760 1138 open tonejs-instruments/samples/cello/G2.wav \, 1;
#X msg 925 1138 open tonejs-instruments/samples/cello/A2.wav \, 1;
#X msg 1090 1138 open tonejs-instruments/samples/cello/D2.wav \, 1;
#X msg 1255 1138 open tonejs-instruments/samples/cello/A2.wav \, 1;
#X msg 595 1168 open tonejs-instruments/samples/cello/D3.wav \, 1;
#X msg 760 1168 open tonejs-instruments/samples/cello/A2.wav \, 1;
#X msg 925 1168 open tonejs-instruments/samples/cello/F2.wav \, 1;
#X msg 1090 1168 open tonejs-instruments/samples/cello/A2.wav \, 1;
#X msg 1255 1168 open tonejs-instruments/samples/cello/G2.wav \, 1;
#X msg 595 1198 open tonejs-instruments/samples/cello/A2.wav \, 1;
#X msg 760 1198 open tonejs-instruments/samples/cello/D2.wav \, 1;
#X msg 925 1198 open tonejs-instruments/samples/cello/A2.wav \, 1;
#X msg 1090 1198 open tonejs-instruments/samples/cello/D3.wav \, 1;
#X msg 1255 1198 open tonejs-instruments/samples/cello/A2.wav \, 1;
#X msg 595 1228 open tonejs-instruments/samples/cello/F2.wav \, 1;
#X msg 760 1228 open tonejs-instruments/samples/cello/A2.wav \, 1;
#X msg 925 1228 open tonejs-instruments/samples/cello/G2.wav \, 1;
#X msg 1090 1228 open tonejs-instruments/samples/cello/A2.wav \, 1;
#X msg 1255 1228 open tonejs-instruments/samples/cello/D2.wav \, 1;
#X msg 595 1258 open tonejs-instruments/samples/cello/A2.wav \, 1;
#X msg 760 1258 open tonejs-instruments/samples/cello/D3.wav \, 1;
#X msg 925 1258 open tonejs-instruments/samples/cello/A2.wav \, 1;
#X msg 1090 1258 open tonejs-instruments/samples/cello/F2.wav \, 1;
#X msg 1255 1258 open tonejs-instruments/samples/cello/A2.wav \, 1;
#X msg 595 1288 open tonejs-instruments/samples/cello/G2.wav \, 1;
#X msg 760 1288 open tonejs-instruments/samples/cello/A2.wav \, 1;
#X msg 925 1288 open tonejs-instruments/samples/cello/D2.wav \, 1;
#X msg 1090 1288 open tonejs-instruments/samples/cello/A2.wav \, 1;
#X msg 1255 1288 open tonejs-instruments/samples/cello/D3.wav \, 1;
#X msg 595 1318 open tonejs-instruments/samples/cello/A2.wav \, 1;
#X msg 760 1318 open tonejs-instruments/samples/cello/F2.wav \, 1;
#X msg 925 1318 open tonejs-instruments/samples/cello/A2.wav \, 1;
#X msg 1090 1318 open tonejs-instruments/samples/cello/G2.wav \, 1;
#X msg 1255 1318 open tonejs-instruments/samples/cello/A2.wav \, 1;
#X msg 595 1348 open tonejs-instruments/samples/cello/D2.wav \, 1;
#X msg 760 1348 open tonejs-instruments/samples/cello/A2.wav \, 1;
#X msg 925 1348 open tonejs-instruments/samples/cello/D3.wav \, 1;
#X msg 1090 1348 open tonejs-instruments/samples/cello/A2.wav \, 1;
#X msg 1255 1348 open tonejs-instruments/samples/cello/F2.wav \, 1;
#X msg 595 1378 open tonejs-instruments/samples/cello/A2.wav \, 1;
#X msg 760 1378 open tonejs-instruments/samples/cello/G2.wav \, 1;
#X msg 925 1378 open tonejs-instruments/samples/cello/A2.wav \, 1;
#X msg 1090 1378 open tonejs-instruments/samples/cello/D2.wav \, 1;
#X msg 1255 1378 open tonejs-instruments/samples/cello/A2.wav \, 1;
#X msg 595 1408 open tonejs-instruments/samples/cello/D3.wav \, 1;
#X msg 760 1408 open tonejs-instruments/samples/cello/A2.wav \, 1;
#X msg 925 1408 open tonejs-instruments/samples/cello/F2.wav \, 1;
#X msg 1090 1408 open tonejs-instruments/samples/cello/A2.wav \, 1;
#X msg 1255 1408 open tonejs-instruments/samples/cello/G2.wav \, 1;
#X msg 595 1438 open tonejs-instruments/samples/cello/A2.wav \, 1;
#X msg 760 1438 open tonejs-instruments/samples/cello/D2.wav \, 1;
#X msg 925 1438 open tonejs-instruments/samples/cello/A2.wav \, 1;
#X msg 1090 1438 open tonejs-instruments/samples/cello/D3.wav \, 1;
#X msg 1255 1438 open tonejs-instruments/samples/cello/A2.wav \, 1;
#X msg 595 1468 open tonejs-instruments/samples/cello/F2.wav \, 1;
#X msg 760 1468 open tonejs-instruments/samples/cello/A2.wav \, 1;
#X msg 925 1468 open tonejs-instruments/samples/cello/G2.wav \, 1;
#X msg 1090 1468 open tonejs-instruments/samples/cello/A2.wav \, 1;
#X msg 1255 1468 open tonejs-instruments/samples/cello/D2.wav \, 1;
#X msg 595 1498 open tonejs-instruments/samples/cello/A2.wav \, 1;
#X msg 760 1498 open tonejs-instruments/samples/cello/D3.wav \, 1;
#X msg 925 1498 open tonejs-instruments/samples/cello/A2.wav \, 1;
#X msg 1090 1498 open tonejs-instruments/samples/cello/F2.wav \, 1;
#X msg 1255 1498 open tonejs-instruments/samples/cello/A2.wav \, 1;
#X msg 595 1528 open tonejs-instruments/samples/cello/G2.wav \, 1;
#X msg 760 1528 open tonejs-instruments/samples/cello/A2.wav \, 1;
#X msg 925 1528 open tonejs-instruments/samples/cello/D2.wav \, 1;
#X msg 1090 1528 open tonejs-instruments/samples/cello/A2.wav \, 1;
#X msg 1255 1528 open tonejs-instruments/samples/cello/D3.wav \, 1;
#X msg 595 1558 open tonejs-instruments/samples/cello/A2.wav \, 1;
#X msg 760 1558 open tonejs-instruments/samples/cello/F2.wav \, 1;
#X msg 925 1558 open tonejs-instruments/samples/cello/A2.wav \, 1;
#X msg 1090 1558 open tonejs-instruments/samples/cello/G2.wav \, 1;
#X msg 1255 1558 open tonejs-instruments/samples/cello/A2.wav \, 1;
#X msg 595 1588 open tonejs-instruments/samples/cello/D2.wav \, 1;
#X msg 760 1588 open tonejs-instruments/samples/cello/A2.wav \, 1;
#X msg 925 1588 open tonejs-instruments/samples/cello/D3.wav \, 1;
#X msg 1090 1588 open tonejs-instruments/samples/cello/A2.wav \, 1;
#X msg 1255 1588 open tonejs-instruments/samples/cello/F2.wav \, 1;
#X msg 595 1618 open tonejs-instruments/samples/cello/A2.wav \, 1;
#X msg 760 1618 open tonejs-instruments/samples/cello/G2.wav \, 1;
#X msg 925 1618 open tonejs-instruments/samples/cello/A2.wav \, 1;
#X msg 1090 1618 open tonejs-instruments/samples/cello/D2.wav \, 1;
#X msg 1255 1618 open tonejs-instruments/samples/cello/A2.wav \, 1;
#X msg 595 1648 open tonejs-instruments/samples/cello/D3.wav \, 1;
#X msg 760 1648 open tonejs-instruments/samples/cello/A2.wav \, 1;
#X msg 925 1648 open tonejs-instruments/samples/cello/F2.wav \, 1;
#X msg 1090 1648 open tonejs-instruments/samples/cello/A2.wav \, 1;
#X msg 1255 1648 open tonejs-instruments/samples/cello/G2.wav \, 1;
#X msg 595 1678 open tonejs-instruments/samples/cello/A2.wav \, 1;
#X msg 760 1678 open tonejs-instruments/samples/cello/D2.wav \, 1;
#X msg 925 1678 open tonejs-instruments/samples/cello/A2.wav \, 1;
#X msg 1090 1678 open tonejs-instruments/samples/cello/D3.wav \, 1;
#X msg 1255 1678 open tonejs-instruments/samples/cello/A2.wav \, 1;
#X msg 595 1708 open tonejs-instruments/samples/cello/F2.wav \, 1;
#X msg 760 1708 open tonejs-instruments/samples/cello/A2.wav \, 1;
#X msg 925 1708 open tonejs-instruments/samples/cello/G2.wav \, 1;
#X msg 1090 1708 open tonejs-instruments/samples/cello/A2.wav \, 1;
#X msg 1255 1708 open tonejs-instruments/samples/cello/D2.wav \, 1;
#X msg 595 1738 open tonejs-instruments/samples/cello/A2.wav \, 1;
#X msg 760 1738 open tonejs-instruments/samples/cello/D3.wav \, 1;
#X msg 925 1738 open tonejs-instruments/samples/cello/A2.wav \, 1;
#X msg 1090 1738 open tonejs-instruments/samples/cello/F2.wav \, 1;
#X msg 1255 1738 open tonejs-instruments/samples/cello/A2.wav \, 1;
#X msg 595 1768 open tonejs-instruments/samples/cello/G2.wav \, 1;
#X msg 760 1768 open tonejs-instruments/samples/cello/A2.wav \, 1;
#X msg 925 1768 open tonejs-instruments/samples/cello/D2.wav \, 1;
#X msg 1090 1768 open tonejs-instruments/samples/cello/A2.wav \, 1;
#X msg 1255 1768 open tonejs-instruments/samples/cello/D3.wav \, 1;
#X msg 595 1798 open tonejs-instruments/samples/cello/A2.wav \, 1;
#X msg 760 1798 open tonejs-instruments/samples/cello/F2.wav \, 1;
#X msg 925 1798 open tonejs-instruments/samples/cello/A2.wav \, 1;
#X msg 1090 1798 open tonejs-instruments/samples/cello/G2.wav \, 1;
#X msg 1255 1798 open tonejs-instruments/samples/cello/A2.wav \, 1;
#X msg 595 1828 open tonejs-instruments/samples/cello/D2.wav \, 1;
#X msg 760 1828 open tonejs-instruments/samples/cello/A2.wav \, 1;
#X msg 925 1828 open tonejs-instruments/samples/cello/D3.wav \, 1;
#X msg 1090 1828 open tonejs-instruments/samples/cello/A2.wav \, 1;
#X msg 1255 1828 open tonejs-instruments/samples/cello/F2.wav \, 1;
#X msg 595 1858 open tonejs-instruments/samples/cello/A2.wav \, 1;
#X msg 760 1858 open tonejs-instruments/samples/cello/G2.wav \, 1;
#X msg 925 1858 open tonejs-instruments/samples/cello/A2.wav \, 1;
#X text 1090 990 Cello ostinato B: offbeat doubling from pressure section;
#X obj 1090 1026 r \$0-step256;
#X obj 1090 1066 sel 129 131 133 135 137 139 141 143 145 147 149 151 153 155 157 159 161 163 165 167 169 171 173 175 177 179 181 183 185 187 189 191 193 195 197 199 201 203 205 207 209 211 213 215 217 219 221 223 225 227 229 231 233 235 237 239 241 243 245 247 249 251 253 255;
#X obj 1610 1066 s \$0-celloOstB;
#X msg 1185 1108 open tonejs-instruments/samples/cello/A2.wav \, 1;
#X msg 1350 1108 open tonejs-instruments/samples/cello/F2.wav \, 1;
#X msg 1515 1108 open tonejs-instruments/samples/cello/A2.wav \, 1;
#X msg 1680 1108 open tonejs-instruments/samples/cello/G2.wav \, 1;
#X msg 1845 1108 open tonejs-instruments/samples/cello/A2.wav \, 1;
#X msg 1185 1138 open tonejs-instruments/samples/cello/D2.wav \, 1;
#X msg 1350 1138 open tonejs-instruments/samples/cello/A2.wav \, 1;
#X msg 1515 1138 open tonejs-instruments/samples/cello/D3.wav \, 1;
#X msg 1680 1138 open tonejs-instruments/samples/cello/A2.wav \, 1;
#X msg 1845 1138 open tonejs-instruments/samples/cello/F2.wav \, 1;
#X msg 1185 1168 open tonejs-instruments/samples/cello/A2.wav \, 1;
#X msg 1350 1168 open tonejs-instruments/samples/cello/G2.wav \, 1;
#X msg 1515 1168 open tonejs-instruments/samples/cello/A2.wav \, 1;
#X msg 1680 1168 open tonejs-instruments/samples/cello/D2.wav \, 1;
#X msg 1845 1168 open tonejs-instruments/samples/cello/A2.wav \, 1;
#X msg 1185 1198 open tonejs-instruments/samples/cello/D3.wav \, 1;
#X msg 1350 1198 open tonejs-instruments/samples/cello/A2.wav \, 1;
#X msg 1515 1198 open tonejs-instruments/samples/cello/F2.wav \, 1;
#X msg 1680 1198 open tonejs-instruments/samples/cello/A2.wav \, 1;
#X msg 1845 1198 open tonejs-instruments/samples/cello/G2.wav \, 1;
#X msg 1185 1228 open tonejs-instruments/samples/cello/A2.wav \, 1;
#X msg 1350 1228 open tonejs-instruments/samples/cello/D2.wav \, 1;
#X msg 1515 1228 open tonejs-instruments/samples/cello/A2.wav \, 1;
#X msg 1680 1228 open tonejs-instruments/samples/cello/D3.wav \, 1;
#X msg 1845 1228 open tonejs-instruments/samples/cello/A2.wav \, 1;
#X msg 1185 1258 open tonejs-instruments/samples/cello/F2.wav \, 1;
#X msg 1350 1258 open tonejs-instruments/samples/cello/A2.wav \, 1;
#X msg 1515 1258 open tonejs-instruments/samples/cello/G2.wav \, 1;
#X msg 1680 1258 open tonejs-instruments/samples/cello/A2.wav \, 1;
#X msg 1845 1258 open tonejs-instruments/samples/cello/D2.wav \, 1;
#X msg 1185 1288 open tonejs-instruments/samples/cello/A2.wav \, 1;
#X msg 1350 1288 open tonejs-instruments/samples/cello/D3.wav \, 1;
#X msg 1515 1288 open tonejs-instruments/samples/cello/A2.wav \, 1;
#X msg 1680 1288 open tonejs-instruments/samples/cello/F2.wav \, 1;
#X msg 1845 1288 open tonejs-instruments/samples/cello/A2.wav \, 1;
#X msg 1185 1318 open tonejs-instruments/samples/cello/G2.wav \, 1;
#X msg 1350 1318 open tonejs-instruments/samples/cello/A2.wav \, 1;
#X msg 1515 1318 open tonejs-instruments/samples/cello/D2.wav \, 1;
#X msg 1680 1318 open tonejs-instruments/samples/cello/A2.wav \, 1;
#X msg 1845 1318 open tonejs-instruments/samples/cello/D3.wav \, 1;
#X msg 1185 1348 open tonejs-instruments/samples/cello/A2.wav \, 1;
#X msg 1350 1348 open tonejs-instruments/samples/cello/F2.wav \, 1;
#X msg 1515 1348 open tonejs-instruments/samples/cello/A2.wav \, 1;
#X msg 1680 1348 open tonejs-instruments/samples/cello/G2.wav \, 1;
#X msg 1845 1348 open tonejs-instruments/samples/cello/A2.wav \, 1;
#X msg 1185 1378 open tonejs-instruments/samples/cello/D2.wav \, 1;
#X msg 1350 1378 open tonejs-instruments/samples/cello/A2.wav \, 1;
#X msg 1515 1378 open tonejs-instruments/samples/cello/D3.wav \, 1;
#X msg 1680 1378 open tonejs-instruments/samples/cello/A2.wav \, 1;
#X msg 1845 1378 open tonejs-instruments/samples/cello/F2.wav \, 1;
#X msg 1185 1408 open tonejs-instruments/samples/cello/A2.wav \, 1;
#X msg 1350 1408 open tonejs-instruments/samples/cello/G2.wav \, 1;
#X msg 1515 1408 open tonejs-instruments/samples/cello/A2.wav \, 1;
#X msg 1680 1408 open tonejs-instruments/samples/cello/D2.wav \, 1;
#X msg 1845 1408 open tonejs-instruments/samples/cello/A2.wav \, 1;
#X msg 1185 1438 open tonejs-instruments/samples/cello/D3.wav \, 1;
#X msg 1350 1438 open tonejs-instruments/samples/cello/A2.wav \, 1;
#X msg 1515 1438 open tonejs-instruments/samples/cello/F2.wav \, 1;
#X msg 1680 1438 open tonejs-instruments/samples/cello/A2.wav \, 1;
#X msg 1845 1438 open tonejs-instruments/samples/cello/G2.wav \, 1;
#X msg 1185 1468 open tonejs-instruments/samples/cello/A2.wav \, 1;
#X msg 1350 1468 open tonejs-instruments/samples/cello/D2.wav \, 1;
#X msg 1515 1468 open tonejs-instruments/samples/cello/A2.wav \, 1;
#X msg 1680 1468 open tonejs-instruments/samples/cello/D3.wav \, 1;
#X text 30 1330 Harp arpeggio: from shimmer into constant drive;
#X obj 30 1366 r \$0-step256;
#X obj 30 1406 sel 64 66 68 70 72 74 76 78 80 82 84 86 88 90 92 94 96 98 100 102 104 106 108 110 112 114 116 118 120 122 124 126 128 129 130 131 132 133 134 135 136 137 138 139 140 141 142 143 144 145 146 147 148 149 150 151 152 153 154 155 156 157 158 159 160 161 162 163 164 165 166 167 168 169 170 171 172 173 174 175 176 177 178 179 180 181 182 183 184 185 186 187 188 189 190 191 192 193 194 195 196 197 198 199 200 201 202 203 204 205 206 207 208 209 210 211 212 213 214 215 216 217 218 219 220 221 222 223 224 225 226 227 228 229 230 231 232 233 234 235 236 237 238 239 240 241 242 243 244 245 246 247 248 249 250 251 252 253 254 255;
#X obj 550 1406 s \$0-harpRun;
#X msg 125 1448 open tonejs-instruments/samples/harp/D2.wav \, 1;
#X msg 290 1448 open tonejs-instruments/samples/harp/F2.wav \, 1;
#X msg 455 1448 open tonejs-instruments/samples/harp/A2.wav \, 1;
#X msg 620 1448 open tonejs-instruments/samples/harp/C3.wav \, 1;
#X msg 785 1448 open tonejs-instruments/samples/harp/D4.wav \, 1;
#X msg 125 1478 open tonejs-instruments/samples/harp/F4.wav \, 1;
#X msg 290 1478 open tonejs-instruments/samples/harp/A4.wav \, 1;
#X msg 455 1478 open tonejs-instruments/samples/harp/C5.wav \, 1;
#X msg 620 1478 open tonejs-instruments/samples/harp/D2.wav \, 1;
#X msg 785 1478 open tonejs-instruments/samples/harp/F2.wav \, 1;
#X msg 125 1508 open tonejs-instruments/samples/harp/A2.wav \, 1;
#X msg 290 1508 open tonejs-instruments/samples/harp/C3.wav \, 1;
#X msg 455 1508 open tonejs-instruments/samples/harp/D4.wav \, 1;
#X msg 620 1508 open tonejs-instruments/samples/harp/F4.wav \, 1;
#X msg 785 1508 open tonejs-instruments/samples/harp/A4.wav \, 1;
#X msg 125 1538 open tonejs-instruments/samples/harp/C5.wav \, 1;
#X msg 290 1538 open tonejs-instruments/samples/harp/D2.wav \, 1;
#X msg 455 1538 open tonejs-instruments/samples/harp/F2.wav \, 1;
#X msg 620 1538 open tonejs-instruments/samples/harp/A2.wav \, 1;
#X msg 785 1538 open tonejs-instruments/samples/harp/C3.wav \, 1;
#X msg 125 1568 open tonejs-instruments/samples/harp/D4.wav \, 1;
#X msg 290 1568 open tonejs-instruments/samples/harp/F4.wav \, 1;
#X msg 455 1568 open tonejs-instruments/samples/harp/A4.wav \, 1;
#X msg 620 1568 open tonejs-instruments/samples/harp/C5.wav \, 1;
#X msg 785 1568 open tonejs-instruments/samples/harp/D2.wav \, 1;
#X msg 125 1598 open tonejs-instruments/samples/harp/F2.wav \, 1;
#X msg 290 1598 open tonejs-instruments/samples/harp/A2.wav \, 1;
#X msg 455 1598 open tonejs-instruments/samples/harp/C3.wav \, 1;
#X msg 620 1598 open tonejs-instruments/samples/harp/D4.wav \, 1;
#X msg 785 1598 open tonejs-instruments/samples/harp/F4.wav \, 1;
#X msg 125 1628 open tonejs-instruments/samples/harp/A4.wav \, 1;
#X msg 290 1628 open tonejs-instruments/samples/harp/C5.wav \, 1;
#X msg 455 1628 open tonejs-instruments/samples/harp/D2.wav \, 1;
#X msg 620 1628 open tonejs-instruments/samples/harp/F2.wav \, 1;
#X msg 785 1628 open tonejs-instruments/samples/harp/A2.wav \, 1;
#X msg 125 1658 open tonejs-instruments/samples/harp/C3.wav \, 1;
#X msg 290 1658 open tonejs-instruments/samples/harp/D4.wav \, 1;
#X msg 455 1658 open tonejs-instruments/samples/harp/F4.wav \, 1;
#X msg 620 1658 open tonejs-instruments/samples/harp/A4.wav \, 1;
#X msg 785 1658 open tonejs-instruments/samples/harp/C5.wav \, 1;
#X msg 125 1688 open tonejs-instruments/samples/harp/D2.wav \, 1;
#X msg 290 1688 open tonejs-instruments/samples/harp/F2.wav \, 1;
#X msg 455 1688 open tonejs-instruments/samples/harp/A2.wav \, 1;
#X msg 620 1688 open tonejs-instruments/samples/harp/C3.wav \, 1;
#X msg 785 1688 open tonejs-instruments/samples/harp/D4.wav \, 1;
#X msg 125 1718 open tonejs-instruments/samples/harp/F4.wav \, 1;
#X msg 290 1718 open tonejs-instruments/samples/harp/A4.wav \, 1;
#X msg 455 1718 open tonejs-instruments/samples/harp/C5.wav \, 1;
#X msg 620 1718 open tonejs-instruments/samples/harp/D2.wav \, 1;
#X msg 785 1718 open tonejs-instruments/samples/harp/F2.wav \, 1;
#X msg 125 1748 open tonejs-instruments/samples/harp/A2.wav \, 1;
#X msg 290 1748 open tonejs-instruments/samples/harp/C3.wav \, 1;
#X msg 455 1748 open tonejs-instruments/samples/harp/D4.wav \, 1;
#X msg 620 1748 open tonejs-instruments/samples/harp/F4.wav \, 1;
#X msg 785 1748 open tonejs-instruments/samples/harp/A4.wav \, 1;
#X msg 125 1778 open tonejs-instruments/samples/harp/C5.wav \, 1;
#X msg 290 1778 open tonejs-instruments/samples/harp/D2.wav \, 1;
#X msg 455 1778 open tonejs-instruments/samples/harp/F2.wav \, 1;
#X msg 620 1778 open tonejs-instruments/samples/harp/A2.wav \, 1;
#X msg 785 1778 open tonejs-instruments/samples/harp/C3.wav \, 1;
#X msg 125 1808 open tonejs-instruments/samples/harp/D4.wav \, 1;
#X msg 290 1808 open tonejs-instruments/samples/harp/F4.wav \, 1;
#X msg 455 1808 open tonejs-instruments/samples/harp/A4.wav \, 1;
#X msg 620 1808 open tonejs-instruments/samples/harp/C5.wav \, 1;
#X msg 785 1808 open tonejs-instruments/samples/harp/D2.wav \, 1;
#X msg 125 1838 open tonejs-instruments/samples/harp/F2.wav \, 1;
#X msg 290 1838 open tonejs-instruments/samples/harp/A2.wav \, 1;
#X msg 455 1838 open tonejs-instruments/samples/harp/C3.wav \, 1;
#X msg 620 1838 open tonejs-instruments/samples/harp/D4.wav \, 1;
#X msg 785 1838 open tonejs-instruments/samples/harp/F4.wav \, 1;
#X msg 125 1868 open tonejs-instruments/samples/harp/A4.wav \, 1;
#X msg 290 1868 open tonejs-instruments/samples/harp/C5.wav \, 1;
#X msg 455 1868 open tonejs-instruments/samples/harp/D2.wav \, 1;
#X msg 620 1868 open tonejs-instruments/samples/harp/F2.wav \, 1;
#X msg 785 1868 open tonejs-instruments/samples/harp/A2.wav \, 1;
#X msg 125 1898 open tonejs-instruments/samples/harp/C3.wav \, 1;
#X msg 290 1898 open tonejs-instruments/samples/harp/D4.wav \, 1;
#X msg 455 1898 open tonejs-instruments/samples/harp/F4.wav \, 1;
#X msg 620 1898 open tonejs-instruments/samples/harp/A4.wav \, 1;
#X msg 785 1898 open tonejs-instruments/samples/harp/C5.wav \, 1;
#X msg 125 1928 open tonejs-instruments/samples/harp/D2.wav \, 1;
#X msg 290 1928 open tonejs-instruments/samples/harp/F2.wav \, 1;
#X msg 455 1928 open tonejs-instruments/samples/harp/A2.wav \, 1;
#X msg 620 1928 open tonejs-instruments/samples/harp/C3.wav \, 1;
#X msg 785 1928 open tonejs-instruments/samples/harp/D4.wav \, 1;
#X msg 125 1958 open tonejs-instruments/samples/harp/F4.wav \, 1;
#X msg 290 1958 open tonejs-instruments/samples/harp/A4.wav \, 1;
#X msg 455 1958 open tonejs-instruments/samples/harp/C5.wav \, 1;
#X msg 620 1958 open tonejs-instruments/samples/harp/D2.wav \, 1;
#X msg 785 1958 open tonejs-instruments/samples/harp/F2.wav \, 1;
#X msg 125 1988 open tonejs-instruments/samples/harp/A2.wav \, 1;
#X msg 290 1988 open tonejs-instruments/samples/harp/C3.wav \, 1;
#X msg 455 1988 open tonejs-instruments/samples/harp/D4.wav \, 1;
#X msg 620 1988 open tonejs-instruments/samples/harp/F4.wav \, 1;
#X msg 785 1988 open tonejs-instruments/samples/harp/A4.wav \, 1;
#X msg 125 2018 open tonejs-instruments/samples/harp/C5.wav \, 1;
#X msg 290 2018 open tonejs-instruments/samples/harp/D2.wav \, 1;
#X msg 455 2018 open tonejs-instruments/samples/harp/F2.wav \, 1;
#X msg 620 2018 open tonejs-instruments/samples/harp/A2.wav \, 1;
#X msg 785 2018 open tonejs-instruments/samples/harp/C3.wav \, 1;
#X msg 125 2048 open tonejs-instruments/samples/harp/D4.wav \, 1;
#X msg 290 2048 open tonejs-instruments/samples/harp/F4.wav \, 1;
#X msg 455 2048 open tonejs-instruments/samples/harp/A4.wav \, 1;
#X msg 620 2048 open tonejs-instruments/samples/harp/C5.wav \, 1;
#X msg 785 2048 open tonejs-instruments/samples/harp/D2.wav \, 1;
#X msg 125 2078 open tonejs-instruments/samples/harp/F2.wav \, 1;
#X msg 290 2078 open tonejs-instruments/samples/harp/A2.wav \, 1;
#X msg 455 2078 open tonejs-instruments/samples/harp/C3.wav \, 1;
#X msg 620 2078 open tonejs-instruments/samples/harp/D4.wav \, 1;
#X msg 785 2078 open tonejs-instruments/samples/harp/F4.wav \, 1;
#X msg 125 2108 open tonejs-instruments/samples/harp/A4.wav \, 1;
#X msg 290 2108 open tonejs-instruments/samples/harp/C5.wav \, 1;
#X msg 455 2108 open tonejs-instruments/samples/harp/D2.wav \, 1;
#X msg 620 2108 open tonejs-instruments/samples/harp/F2.wav \, 1;
#X msg 785 2108 open tonejs-instruments/samples/harp/A2.wav \, 1;
#X msg 125 2138 open tonejs-instruments/samples/harp/C3.wav \, 1;
#X msg 290 2138 open tonejs-instruments/samples/harp/D4.wav \, 1;
#X msg 455 2138 open tonejs-instruments/samples/harp/F4.wav \, 1;
#X msg 620 2138 open tonejs-instruments/samples/harp/A4.wav \, 1;
#X msg 785 2138 open tonejs-instruments/samples/harp/C5.wav \, 1;
#X msg 125 2168 open tonejs-instruments/samples/harp/D2.wav \, 1;
#X msg 290 2168 open tonejs-instruments/samples/harp/F2.wav \, 1;
#X msg 455 2168 open tonejs-instruments/samples/harp/A2.wav \, 1;
#X msg 620 2168 open tonejs-instruments/samples/harp/C3.wav \, 1;
#X msg 785 2168 open tonejs-instruments/samples/harp/D4.wav \, 1;
#X msg 125 2198 open tonejs-instruments/samples/harp/F4.wav \, 1;
#X msg 290 2198 open tonejs-instruments/samples/harp/A4.wav \, 1;
#X msg 455 2198 open tonejs-instruments/samples/harp/C5.wav \, 1;
#X msg 620 2198 open tonejs-instruments/samples/harp/D2.wav \, 1;
#X msg 785 2198 open tonejs-instruments/samples/harp/F2.wav \, 1;
#X msg 125 2228 open tonejs-instruments/samples/harp/A2.wav \, 1;
#X msg 290 2228 open tonejs-instruments/samples/harp/C3.wav \, 1;
#X msg 455 2228 open tonejs-instruments/samples/harp/D4.wav \, 1;
#X msg 620 2228 open tonejs-instruments/samples/harp/F4.wav \, 1;
#X msg 785 2228 open tonejs-instruments/samples/harp/A4.wav \, 1;
#X msg 125 2258 open tonejs-instruments/samples/harp/C5.wav \, 1;
#X msg 290 2258 open tonejs-instruments/samples/harp/D2.wav \, 1;
#X msg 455 2258 open tonejs-instruments/samples/harp/F2.wav \, 1;
#X msg 620 2258 open tonejs-instruments/samples/harp/A2.wav \, 1;
#X msg 785 2258 open tonejs-instruments/samples/harp/C3.wav \, 1;
#X msg 125 2288 open tonejs-instruments/samples/harp/D4.wav \, 1;
#X msg 290 2288 open tonejs-instruments/samples/harp/F4.wav \, 1;
#X msg 455 2288 open tonejs-instruments/samples/harp/A4.wav \, 1;
#X msg 620 2288 open tonejs-instruments/samples/harp/C5.wav \, 1;
#X msg 785 2288 open tonejs-instruments/samples/harp/D2.wav \, 1;
#X msg 125 2318 open tonejs-instruments/samples/harp/F2.wav \, 1;
#X msg 290 2318 open tonejs-instruments/samples/harp/A2.wav \, 1;
#X msg 455 2318 open tonejs-instruments/samples/harp/C3.wav \, 1;
#X msg 620 2318 open tonejs-instruments/samples/harp/D4.wav \, 1;
#X msg 785 2318 open tonejs-instruments/samples/harp/F4.wav \, 1;
#X msg 125 2348 open tonejs-instruments/samples/harp/A4.wav \, 1;
#X msg 290 2348 open tonejs-instruments/samples/harp/C5.wav \, 1;
#X msg 455 2348 open tonejs-instruments/samples/harp/D2.wav \, 1;
#X msg 620 2348 open tonejs-instruments/samples/harp/F2.wav \, 1;
#X msg 785 2348 open tonejs-instruments/samples/harp/A2.wav \, 1;
#X msg 125 2378 open tonejs-instruments/samples/harp/C3.wav \, 1;
#X msg 290 2378 open tonejs-instruments/samples/harp/D4.wav \, 1;
#X msg 455 2378 open tonejs-instruments/samples/harp/F4.wav \, 1;
#X msg 620 2378 open tonejs-instruments/samples/harp/A4.wav \, 1;
#X msg 785 2378 open tonejs-instruments/samples/harp/C5.wav \, 1;
#X text 760 1330 Violin pad 1: wide emotional upper sustain points;
#X obj 760 1366 r \$0-step256;
#X obj 760 1406 sel 0 16 32 48 64 80 96 112 128 144 160 176 192 208 224 240;
#X obj 1280 1406 s \$0-vlnPad1;
#X msg 855 1448 open tonejs-instruments/samples/violin/A3.wav \, 1;
#X msg 1020 1448 open tonejs-instruments/samples/violin/A4.wav \, 1;
#X msg 1185 1448 open tonejs-instruments/samples/violin/C4.wav \, 1;
#X msg 1350 1448 open tonejs-instruments/samples/violin/A4.wav \, 1;
#X msg 855 1478 open tonejs-instruments/samples/violin/E4.wav \, 1;
#X msg 1020 1478 open tonejs-instruments/samples/violin/A4.wav \, 1;
#X msg 1185 1478 open tonejs-instruments/samples/violin/C5.wav \, 1;
#X msg 1350 1478 open tonejs-instruments/samples/violin/G4.wav \, 1;
#X msg 855 1508 open tonejs-instruments/samples/violin/A5.wav \, 1;
#X msg 1020 1508 open tonejs-instruments/samples/violin/C5.wav \, 1;
#X msg 1185 1508 open tonejs-instruments/samples/violin/E5.wav \, 1;
#X msg 1350 1508 open tonejs-instruments/samples/violin/G5.wav \, 1;
#X msg 855 1538 open tonejs-instruments/samples/violin/A5.wav \, 1;
#X msg 1020 1538 open tonejs-instruments/samples/violin/G5.wav \, 1;
#X msg 1185 1538 open tonejs-instruments/samples/violin/C6.wav \, 1;
#X msg 1350 1538 open tonejs-instruments/samples/violin/A5.wav \, 1;
#X text 1230 1330 Violin pad 2: divisi color and peak octave;
#X obj 1230 1366 r \$0-step256;
#X obj 1230 1406 sel 0 16 32 48 64 80 96 112 128 144 160 176 192 208 224 240;
#X obj 1750 1406 s \$0-vlnPad2;
#X msg 1325 1448 open tonejs-instruments/samples/violin/E4.wav \, 1;
#X msg 1490 1448 open tonejs-instruments/samples/violin/C5.wav \, 1;
#X msg 1655 1448 open tonejs-instruments/samples/violin/A4.wav \, 1;
#X msg 1820 1448 open tonejs-instruments/samples/violin/C5.wav \, 1;
#X msg 1325 1478 open tonejs-instruments/samples/violin/G4.wav \, 1;
#X msg 1490 1478 open tonejs-instruments/samples/violin/E5.wav \, 1;
#X msg 1655 1478 open tonejs-instruments/samples/violin/A4.wav \, 1;
#X msg 1820 1478 open tonejs-instruments/samples/violin/E5.wav \, 1;
#X msg 1325 1508 open tonejs-instruments/samples/violin/C6.wav \, 1;
#X msg 1490 1508 open tonejs-instruments/samples/violin/E5.wav \, 1;
#X msg 1655 1508 open tonejs-instruments/samples/violin/G5.wav \, 1;
#X msg 1820 1508 open tonejs-instruments/samples/violin/E5.wav \, 1;
#X msg 1325 1538 open tonejs-instruments/samples/violin/C6.wav \, 1;
#X msg 1490 1538 open tonejs-instruments/samples/violin/A5.wav \, 1;
#X msg 1655 1538 open tonejs-instruments/samples/violin/E6.wav \, 1;
#X msg 1820 1538 open tonejs-instruments/samples/violin/C6.wav \, 1;
#X text 30 1610 Low brass: tuba foundation stabs;
#X obj 30 1646 r \$0-step256;
#X obj 30 1686 sel 96 112 128 144 160 176 192 208 224 240 224 232 240 248;
#X obj 550 1686 s \$0-brassLow;
#X msg 125 1728 open tonejs-instruments/samples/tuba/D3.wav \, 1;
#X msg 290 1728 open tonejs-instruments/samples/tuba/F1.wav \, 1;
#X msg 455 1728 open tonejs-instruments/samples/tuba/As1.wav \, 1;
#X msg 620 1728 open tonejs-instruments/samples/tuba/F2.wav \, 1;
#X msg 125 1758 open tonejs-instruments/samples/tuba/D3.wav \, 1;
#X msg 290 1758 open tonejs-instruments/samples/tuba/F2.wav \, 1;
#X msg 455 1758 open tonejs-instruments/samples/tuba/As1.wav \, 1;
#X msg 620 1758 open tonejs-instruments/samples/tuba/F2.wav \, 1;
#X msg 125 1788 open tonejs-instruments/samples/tuba/D3.wav \, 1;
#X msg 290 1788 open tonejs-instruments/samples/tuba/F2.wav \, 1;
#X msg 455 1788 open tonejs-instruments/samples/tuba/As1.wav \, 1;
#X msg 620 1788 open tonejs-instruments/samples/tuba/F2.wav \, 1;
#X msg 125 1818 open tonejs-instruments/samples/tuba/D3.wav \, 1;
#X msg 290 1818 open tonejs-instruments/samples/tuba/As1.wav \, 1;
#X text 500 1610 Horn theme: original rising minor-call motif;
#X obj 500 1646 r \$0-step256;
#X obj 500 1686 sel 96 104 112 120 128 136 144 152 160 168 176 184 192 200 208 216 224 232 240 248;
#X obj 1020 1686 s \$0-hornTheme;
#X msg 595 1728 open tonejs-instruments/samples/french-horn/D5.wav \, 1;
#X msg 760 1728 open tonejs-instruments/samples/french-horn/F5.wav \, 1;
#X msg 925 1728 open tonejs-instruments/samples/french-horn/A3.wav \, 1;
#X msg 1090 1728 open tonejs-instruments/samples/french-horn/F5.wav \, 1;
#X msg 595 1758 open tonejs-instruments/samples/french-horn/D5.wav \, 1;
#X msg 760 1758 open tonejs-instruments/samples/french-horn/F3.wav \, 1;
#X msg 925 1758 open tonejs-instruments/samples/french-horn/D5.wav \, 1;
#X msg 1090 1758 open tonejs-instruments/samples/french-horn/F5.wav \, 1;
#X msg 595 1788 open tonejs-instruments/samples/french-horn/D5.wav \, 1;
#X msg 760 1788 open tonejs-instruments/samples/french-horn/F5.wav \, 1;
#X msg 925 1788 open tonejs-instruments/samples/french-horn/A3.wav \, 1;
#X msg 1090 1788 open tonejs-instruments/samples/french-horn/D5.wav \, 1;
#X msg 595 1818 open tonejs-instruments/samples/french-horn/F5.wav \, 1;
#X msg 760 1818 open tonejs-instruments/samples/french-horn/D5.wav \, 1;
#X msg 925 1818 open tonejs-instruments/samples/french-horn/F5.wav \, 1;
#X msg 1090 1818 open tonejs-instruments/samples/french-horn/A3.wav \, 1;
#X msg 595 1848 open tonejs-instruments/samples/french-horn/D5.wav \, 1;
#X msg 760 1848 open tonejs-instruments/samples/french-horn/F5.wav \, 1;
#X msg 925 1848 open tonejs-instruments/samples/french-horn/D5.wav \, 1;
#X msg 1090 1848 open tonejs-instruments/samples/french-horn/F5.wav \, 1;
#X text 1000 1610 Trombone power chords: low-mid brass thickness;
#X obj 1000 1646 r \$0-step256;
#X obj 1000 1686 sel 128 136 144 152 160 168 176 184 192 200 208 216 224 232 240 248;
#X obj 1520 1686 s \$0-tromboneChords;
#X msg 1095 1728 open tonejs-instruments/samples/trombone/D3.wav \, 1;
#X msg 1260 1728 open tonejs-instruments/samples/trombone/F3.wav \, 1;
#X msg 1425 1728 open tonejs-instruments/samples/trombone/As2.wav \, 1;
#X msg 1590 1728 open tonejs-instruments/samples/trombone/C3.wav \, 1;
#X msg 1095 1758 open tonejs-instruments/samples/trombone/D4.wav \, 1;
#X msg 1260 1758 open tonejs-instruments/samples/trombone/F4.wav \, 1;
#X msg 1425 1758 open tonejs-instruments/samples/trombone/As3.wav \, 1;
#X msg 1590 1758 open tonejs-instruments/samples/trombone/C4.wav \, 1;
#X msg 1095 1788 open tonejs-instruments/samples/trombone/D4.wav \, 1;
#X msg 1260 1788 open tonejs-instruments/samples/trombone/F4.wav \, 1;
#X msg 1425 1788 open tonejs-instruments/samples/trombone/As3.wav \, 1;
#X msg 1590 1788 open tonejs-instruments/samples/trombone/C4.wav \, 1;
#X msg 1095 1818 open tonejs-instruments/samples/trombone/D4.wav \, 1;
#X msg 1260 1818 open tonejs-instruments/samples/trombone/F4.wav \, 1;
#X msg 1425 1818 open tonejs-instruments/samples/trombone/As3.wav \, 1;
#X msg 1590 1818 open tonejs-instruments/samples/trombone/D4.wav \, 1;
#X text 1450 1610 Trumpet octave lift: final third of the cue;
#X obj 1450 1646 r \$0-step256;
#X obj 1450 1686 sel 160 168 176 184 192 200 208 216 224 232 240 248;
#X obj 1840 1686 s \$0-trumpetLift;
#X msg 1545 1728 open tonejs-instruments/samples/trumpet/D5.wav \, 1;
#X msg 1710 1728 open tonejs-instruments/samples/trumpet/F5.wav \, 1;
#X msg 1875 1728 open tonejs-instruments/samples/trumpet/A5.wav \, 1;
#X msg 1545 1758 open tonejs-instruments/samples/trumpet/F5.wav \, 1;
#X msg 1710 1758 open tonejs-instruments/samples/trumpet/D5.wav \, 1;
#X msg 1875 1758 open tonejs-instruments/samples/trumpet/G4.wav \, 1;
#X msg 1545 1788 open tonejs-instruments/samples/trumpet/F5.wav \, 1;
#X msg 1710 1788 open tonejs-instruments/samples/trumpet/A5.wav \, 1;
#X msg 1875 1788 open tonejs-instruments/samples/trumpet/C6.wav \, 1;
#X msg 1545 1818 open tonejs-instruments/samples/trumpet/A5.wav \, 1;
#X msg 1710 1818 open tonejs-instruments/samples/trumpet/F5.wav \, 1;
#X msg 1875 1818 open tonejs-instruments/samples/trumpet/D5.wav \, 1;
#X text 30 1900 Woodwinds: flute and clarinet aerial counterline;
#X obj 30 1936 r \$0-step256;
#X obj 30 1976 sel 64 72 80 88 96 104 112 120 144 152 160 168 176 184 200 208 216 224 232 240 248;
#X obj 550 1976 s \$0-windsLine;
#X msg 125 2018 open tonejs-instruments/samples/flute/A4.wav \, 1;
#X msg 290 2018 open tonejs-instruments/samples/clarinet/D5.wav \, 1;
#X msg 455 2018 open tonejs-instruments/samples/flute/C5.wav \, 1;
#X msg 620 2018 open tonejs-instruments/samples/clarinet/F5.wav \, 1;
#X msg 125 2048 open tonejs-instruments/samples/flute/E5.wav \, 1;
#X msg 290 2048 open tonejs-instruments/samples/clarinet/As4.wav \, 1;
#X msg 455 2048 open tonejs-instruments/samples/flute/A5.wav \, 1;
#X msg 620 2048 open tonejs-instruments/samples/clarinet/D6.wav \, 1;
#X msg 125 2078 open tonejs-instruments/samples/flute/C6.wav \, 1;
#X msg 290 2078 open tonejs-instruments/samples/clarinet/F5.wav \, 1;
#X msg 455 2078 open tonejs-instruments/samples/flute/E6.wav \, 1;
#X msg 620 2078 open tonejs-instruments/samples/clarinet/D6.wav \, 1;
#X msg 125 2108 open tonejs-instruments/samples/flute/A5.wav \, 1;
#X msg 290 2108 open tonejs-instruments/samples/clarinet/As5.wav \, 1;
#X msg 455 2108 open tonejs-instruments/samples/flute/C7.wav \, 1;
#X msg 620 2108 open tonejs-instruments/samples/clarinet/F5.wav \, 1;
#X msg 125 2138 open tonejs-instruments/samples/flute/E6.wav \, 1;
#X msg 290 2138 open tonejs-instruments/samples/clarinet/D6.wav \, 1;
#X msg 455 2138 open tonejs-instruments/samples/flute/A6.wav \, 1;
#X msg 620 2138 open tonejs-instruments/samples/clarinet/As5.wav \, 1;
#X msg 125 2168 open tonejs-instruments/samples/flute/C7.wav \, 1;
#X text 760 1900 Xylophone sparkle: high accents at peaks;
#X obj 760 1936 r \$0-step256;
#X obj 760 1976 sel 112 120 176 184 192 200 208 216 224 232 240 244 248 252;
#X obj 1280 1976 s \$0-xyloSpark;
#X msg 855 2018 open tonejs-instruments/samples/xylophone/C5.wav \, 1;
#X msg 1020 2018 open tonejs-instruments/samples/xylophone/G5.wav \, 1;
#X msg 1185 2018 open tonejs-instruments/samples/xylophone/C6.wav \, 1;
#X msg 1350 2018 open tonejs-instruments/samples/xylophone/G6.wav \, 1;
#X msg 855 2048 open tonejs-instruments/samples/xylophone/C6.wav \, 1;
#X msg 1020 2048 open tonejs-instruments/samples/xylophone/G6.wav \, 1;
#X msg 1185 2048 open tonejs-instruments/samples/xylophone/C7.wav \, 1;
#X msg 1350 2048 open tonejs-instruments/samples/xylophone/G6.wav \, 1;
#X msg 855 2078 open tonejs-instruments/samples/xylophone/C7.wav \, 1;
#X msg 1020 2078 open tonejs-instruments/samples/xylophone/G7.wav \, 1;
#X msg 1185 2078 open tonejs-instruments/samples/xylophone/C8.wav \, 1;
#X msg 1350 2078 open tonejs-instruments/samples/xylophone/G7.wav \, 1;
#X msg 855 2108 open tonejs-instruments/samples/xylophone/C8.wav \, 1;
#X msg 1020 2108 open tonejs-instruments/samples/xylophone/C7.wav \, 1;
#X text 1230 1900 Bassoon support: dark moving inner voice;
#X obj 1230 1936 r \$0-step256;
#X obj 1230 1976 sel 32 48 64 80 96 112 128 144 160 176 192 208 224 240;
#X obj 1750 1976 s \$0-bassoonInner;
#X msg 1325 2018 open tonejs-instruments/samples/bassoon/G2.wav \, 1;
#X msg 1490 2018 open tonejs-instruments/samples/bassoon/A2.wav \, 1;
#X msg 1655 2018 open tonejs-instruments/samples/bassoon/C3.wav \, 1;
#X msg 1325 2048 open tonejs-instruments/samples/bassoon/E4.wav \, 1;
#X msg 1490 2048 open tonejs-instruments/samples/bassoon/G3.wav \, 1;
#X msg 1655 2048 open tonejs-instruments/samples/bassoon/A3.wav \, 1;
#X msg 1325 2078 open tonejs-instruments/samples/bassoon/C4.wav \, 1;
#X msg 1490 2078 open tonejs-instruments/samples/bassoon/E4.wav \, 1;
#X msg 1655 2078 open tonejs-instruments/samples/bassoon/G4.wav \, 1;
#X msg 1325 2108 open tonejs-instruments/samples/bassoon/A4.wav \, 1;
#X msg 1490 2108 open tonejs-instruments/samples/bassoon/C5.wav \, 1;
#X msg 1655 2108 open tonejs-instruments/samples/bassoon/G4.wav \, 1;
#X msg 1325 2138 open tonejs-instruments/samples/bassoon/E4.wav \, 1;
#X msg 1490 2138 open tonejs-instruments/samples/bassoon/A4.wav \, 1;
#X text 30 2180 Sample players grouped by orchestral bus;
#X text 30 2220 Low root player;
#X obj 30 2256 r \$0-lowRoot;
#X obj 30 2288 r \$0-stopread;
#X obj 165 2256 readsf~ 1;
#X obj 280 2256 lop~ 3600;
#X obj 395 2238 *~ 0.2;
#X obj 395 2278 *~ 0.18;
#X obj 505 2238 throw~ \$0-lowL;
#X obj 505 2278 throw~ \$0-lowR;
#X text 570 2220 Impact piano player;
#X obj 570 2256 r \$0-impactPiano;
#X obj 570 2288 r \$0-stopread;
#X obj 705 2256 readsf~ 1;
#X obj 820 2256 lop~ 2800;
#X obj 935 2238 *~ 0.24;
#X obj 935 2278 *~ 0.22;
#X obj 1045 2238 throw~ \$0-percL;
#X obj 1045 2278 throw~ \$0-percR;
#X text 1110 2220 Impact tuba player;
#X obj 1110 2256 r \$0-impactTuba;
#X obj 1110 2288 r \$0-stopread;
#X obj 1245 2256 readsf~ 1;
#X obj 1360 2256 lop~ 2600;
#X obj 1475 2238 *~ 0.22;
#X obj 1475 2278 *~ 0.24;
#X obj 1585 2238 throw~ \$0-percL;
#X obj 1585 2278 throw~ \$0-percR;
#X text 30 2340 Impact bass player;
#X obj 30 2376 r \$0-impactBass;
#X obj 30 2408 r \$0-stopread;
#X obj 165 2376 readsf~ 1;
#X obj 280 2376 lop~ 2400;
#X obj 395 2358 *~ 0.2;
#X obj 395 2398 *~ 0.2;
#X obj 505 2358 throw~ \$0-percL;
#X obj 505 2398 throw~ \$0-percR;
#X text 570 2340 Cello ostinato A player;
#X obj 570 2376 r \$0-celloOstA;
#X obj 570 2408 r \$0-stopread;
#X obj 705 2376 readsf~ 1;
#X obj 820 2376 lop~ 5200;
#X obj 935 2358 *~ 0.13;
#X obj 935 2398 *~ 0.11;
#X obj 1045 2358 throw~ \$0-stringsL;
#X obj 1045 2398 throw~ \$0-stringsR;
#X text 1110 2340 Cello ostinato B player;
#X obj 1110 2376 r \$0-celloOstB;
#X obj 1110 2408 r \$0-stopread;
#X obj 1245 2376 readsf~ 1;
#X obj 1360 2376 lop~ 5200;
#X obj 1475 2358 *~ 0.1;
#X obj 1475 2398 *~ 0.13;
#X obj 1585 2358 throw~ \$0-stringsL;
#X obj 1585 2398 throw~ \$0-stringsR;
#X text 30 2460 Harp run player;
#X obj 30 2496 r \$0-harpRun;
#X obj 30 2528 r \$0-stopread;
#X obj 165 2496 readsf~ 1;
#X obj 280 2496 lop~ 9000;
#X obj 395 2478 *~ 0.12;
#X obj 395 2518 *~ 0.15;
#X obj 505 2478 throw~ \$0-harpL;
#X obj 505 2518 throw~ \$0-harpR;
#X text 570 2460 Violin pad 1 player;
#X obj 570 2496 r \$0-vlnPad1;
#X obj 570 2528 r \$0-stopread;
#X obj 705 2496 readsf~ 1;
#X obj 820 2496 lop~ 6500;
#X obj 935 2478 *~ 0.1;
#X obj 935 2518 *~ 0.15;
#X obj 1045 2478 throw~ \$0-stringsL;
#X obj 1045 2518 throw~ \$0-stringsR;
#X text 1110 2460 Violin pad 2 player;
#X obj 1110 2496 r \$0-vlnPad2;
#X obj 1110 2528 r \$0-stopread;
#X obj 1245 2496 readsf~ 1;
#X obj 1360 2496 lop~ 6500;
#X obj 1475 2478 *~ 0.14;
#X obj 1475 2518 *~ 0.1;
#X obj 1585 2478 throw~ \$0-stringsL;
#X obj 1585 2518 throw~ \$0-stringsR;
#X text 30 2580 Low brass player;
#X obj 30 2616 r \$0-brassLow;
#X obj 30 2648 r \$0-stopread;
#X obj 165 2616 readsf~ 1;
#X obj 280 2616 lop~ 4000;
#X obj 395 2598 *~ 0.2;
#X obj 395 2638 *~ 0.18;
#X obj 505 2598 throw~ \$0-brassL;
#X obj 505 2638 throw~ \$0-brassR;
#X text 570 2580 Horn theme player;
#X obj 570 2616 r \$0-hornTheme;
#X obj 570 2648 r \$0-stopread;
#X obj 705 2616 readsf~ 1;
#X obj 820 2616 lop~ 5200;
#X obj 935 2598 *~ 0.15;
#X obj 935 2638 *~ 0.17;
#X obj 1045 2598 throw~ \$0-brassL;
#X obj 1045 2638 throw~ \$0-brassR;
#X text 1110 2580 Trombone chord player;
#X obj 1110 2616 r \$0-tromboneChords;
#X obj 1110 2648 r \$0-stopread;
#X obj 1245 2616 readsf~ 1;
#X obj 1360 2616 lop~ 4800;
#X obj 1475 2598 *~ 0.16;
#X obj 1475 2638 *~ 0.15;
#X obj 1585 2598 throw~ \$0-brassL;
#X obj 1585 2638 throw~ \$0-brassR;
#X text 30 2700 Trumpet lift player;
#X obj 30 2736 r \$0-trumpetLift;
#X obj 30 2768 r \$0-stopread;
#X obj 165 2736 readsf~ 1;
#X obj 280 2736 lop~ 6500;
#X obj 395 2718 *~ 0.11;
#X obj 395 2758 *~ 0.15;
#X obj 505 2718 throw~ \$0-brassL;
#X obj 505 2758 throw~ \$0-brassR;
#X text 570 2700 Woodwind line player;
#X obj 570 2736 r \$0-windsLine;
#X obj 570 2768 r \$0-stopread;
#X obj 705 2736 readsf~ 1;
#X obj 820 2736 lop~ 8500;
#X obj 935 2718 *~ 0.09;
#X obj 935 2758 *~ 0.12;
#X obj 1045 2718 throw~ \$0-windsL;
#X obj 1045 2758 throw~ \$0-windsR;
#X text 1110 2700 Xylophone sparkle player;
#X obj 1110 2736 r \$0-xyloSpark;
#X obj 1110 2768 r \$0-stopread;
#X obj 1245 2736 readsf~ 1;
#X obj 1360 2736 lop~ 11000;
#X obj 1475 2718 *~ 0.08;
#X obj 1475 2758 *~ 0.1;
#X obj 1585 2718 throw~ \$0-harpL;
#X obj 1585 2758 throw~ \$0-harpR;
#X text 30 2820 Bassoon inner player;
#X obj 30 2856 r \$0-bassoonInner;
#X obj 30 2888 r \$0-stopread;
#X obj 165 2856 readsf~ 1;
#X obj 280 2856 lop~ 4200;
#X obj 395 2838 *~ 0.11;
#X obj 395 2878 *~ 0.09;
#X obj 505 2838 throw~ \$0-windsL;
#X obj 505 2878 throw~ \$0-windsR;
#X text 30 2965 Mixer: automatic build plus master and reverb control;
#X obj 30 3005 r \$0-build;
#X obj 130 3005 line~;
#X obj 230 3005 r \$0-energy;
#X obj 330 3005 pack f 120;
#X obj 430 3005 line~;
#X obj 530 3005 r \$0-reverb;
#X obj 630 3005 pack f 180;
#X obj 730 3005 line~;
#X obj 830 3005 r \$0-master;
#X obj 930 3005 pack f 120;
#X obj 1030 3005 line~;
#X text 30 3070 low bus;
#X obj 30 3104 catch~ \$0-lowL;
#X obj 30 3144 catch~ \$0-lowR;
#X obj 175 3104 *~;
#X obj 175 3144 *~;
#X obj 265 3104 *~;
#X obj 265 3144 *~;
#X text 390 3070 perc bus;
#X obj 390 3104 catch~ \$0-percL;
#X obj 390 3144 catch~ \$0-percR;
#X obj 535 3104 *~;
#X obj 535 3144 *~;
#X obj 625 3104 *~;
#X obj 625 3144 *~;
#X text 750 3070 strings bus;
#X obj 750 3104 catch~ \$0-stringsL;
#X obj 750 3144 catch~ \$0-stringsR;
#X obj 895 3104 *~;
#X obj 895 3144 *~;
#X obj 985 3104 *~;
#X obj 985 3144 *~;
#X text 30 3185 brass bus;
#X obj 30 3219 catch~ \$0-brassL;
#X obj 30 3259 catch~ \$0-brassR;
#X obj 175 3219 *~;
#X obj 175 3259 *~;
#X obj 265 3219 *~;
#X obj 265 3259 *~;
#X text 390 3185 winds bus;
#X obj 390 3219 catch~ \$0-windsL;
#X obj 390 3259 catch~ \$0-windsR;
#X obj 535 3219 *~;
#X obj 535 3259 *~;
#X obj 625 3219 *~;
#X obj 625 3259 *~;
#X text 750 3185 harp bus;
#X obj 750 3219 catch~ \$0-harpL;
#X obj 750 3259 catch~ \$0-harpR;
#X obj 895 3219 *~;
#X obj 895 3259 *~;
#X obj 985 3219 *~;
#X obj 985 3259 *~;
#X obj 1160 3110 +~;
#X obj 1160 3150 +~;
#X obj 1280 3110 +~;
#X obj 1280 3150 +~;
#X obj 1400 3110 +~;
#X obj 1400 3150 +~;
#X obj 1520 3110 +~;
#X obj 1520 3150 +~;
#X obj 1640 3110 +~;
#X obj 1640 3150 +~;
#X obj 1160 3225 clip~ -0.95 0.95;
#X obj 1160 3265 clip~ -0.95 0.95;
#X obj 1300 3225 delwrite~ \$0-epicHallL 2400;
#X obj 1300 3265 delwrite~ \$0-epicHallR 2400;
#X obj 1440 3225 delread~ \$0-epicHallL 720;
#X obj 1440 3265 delread~ \$0-epicHallR 940;
#X obj 1580 3225 delread~ \$0-epicHallR 1270;
#X obj 1580 3265 delread~ \$0-epicHallL 1510;
#X obj 1720 3225 +~;
#X obj 1720 3265 +~;
#X obj 1840 3225 *~;
#X obj 1840 3265 *~;
#X obj 1160 3335 +~;
#X obj 1160 3375 +~;
#X obj 1300 3335 clip~ -0.9 0.9;
#X obj 1300 3375 clip~ -0.9 0.9;
#X obj 1440 3335 *~;
#X obj 1440 3375 *~;
#X obj 1580 3355 dac~;
#X msg 860 145 bang;
#X connect 5 0 9 0;
#X connect 6 0 10 0;
#X connect 7 0 11 0;
#X connect 8 0 12 0;
#X connect 13 0 14 0;
#X connect 14 0 5 0;
#X connect 13 0 15 0;
#X connect 15 0 6 0;
#X connect 13 0 16 0;
#X connect 16 0 7 0;
#X connect 13 0 17 0;
#X connect 17 0 8 0;
#X connect 3 0 19 0;
#X connect 4 0 20 0;
#X connect 19 2 24 0;
#X connect 19 1 23 0;
#X connect 19 0 21 0;
#X connect 20 1 25 0;
#X connect 25 0 26 0;
#X connect 20 0 22 0;
#X connect 21 0 27 0;
#X connect 22 0 27 0;
#X connect 23 0 28 1;
#X connect 27 0 28 0;
#X connect 28 0 29 0;
#X connect 29 3 30 0;
#X connect 30 0 31 0;
#X connect 31 0 28 1;
#X connect 29 0 32 0;
#X connect 29 1 33 0;
#X connect 32 0 36 0;
#X connect 33 0 34 0;
#X connect 34 0 35 0;
#X connect 35 0 37 0;
#X connect 38 0 39 0;
#X connect 39 0 40 0;
#X connect 39 1 41 1;
#X connect 40 0 41 0;
#X connect 41 0 42 0;
#X connect 43 0 27 1;
#X connect 45 0 46 0;
#X connect 46 0 47 0;
#X connect 47 0 53 0;
#X connect 46 1 48 0;
#X connect 48 0 53 0;
#X connect 46 2 49 0;
#X connect 49 0 53 0;
#X connect 46 3 50 0;
#X connect 50 0 53 0;
#X connect 46 4 51 0;
#X connect 51 0 53 0;
#X connect 46 5 52 0;
#X connect 52 0 53 0;
#X connect 55 0 56 0;
#X connect 56 0 58 0;
#X connect 58 0 57 0;
#X connect 56 1 59 0;
#X connect 59 0 57 0;
#X connect 56 2 60 0;
#X connect 60 0 57 0;
#X connect 56 3 61 0;
#X connect 61 0 57 0;
#X connect 56 4 62 0;
#X connect 62 0 57 0;
#X connect 56 5 63 0;
#X connect 63 0 57 0;
#X connect 56 6 64 0;
#X connect 64 0 57 0;
#X connect 56 7 65 0;
#X connect 65 0 57 0;
#X connect 56 8 66 0;
#X connect 66 0 57 0;
#X connect 56 9 67 0;
#X connect 67 0 57 0;
#X connect 56 10 68 0;
#X connect 68 0 57 0;
#X connect 56 11 69 0;
#X connect 69 0 57 0;
#X connect 56 12 70 0;
#X connect 70 0 57 0;
#X connect 56 13 71 0;
#X connect 71 0 57 0;
#X connect 56 14 72 0;
#X connect 72 0 57 0;
#X connect 56 15 73 0;
#X connect 73 0 57 0;
#X connect 56 16 74 0;
#X connect 74 0 57 0;
#X connect 56 17 75 0;
#X connect 75 0 57 0;
#X connect 56 18 76 0;
#X connect 76 0 57 0;
#X connect 56 19 77 0;
#X connect 77 0 57 0;
#X connect 56 20 78 0;
#X connect 78 0 57 0;
#X connect 56 21 79 0;
#X connect 79 0 57 0;
#X connect 56 22 80 0;
#X connect 80 0 57 0;
#X connect 56 23 81 0;
#X connect 81 0 57 0;
#X connect 56 24 82 0;
#X connect 82 0 57 0;
#X connect 56 25 83 0;
#X connect 83 0 57 0;
#X connect 56 26 84 0;
#X connect 84 0 57 0;
#X connect 56 27 85 0;
#X connect 85 0 57 0;
#X connect 56 28 86 0;
#X connect 86 0 57 0;
#X connect 56 29 87 0;
#X connect 87 0 57 0;
#X connect 56 30 88 0;
#X connect 88 0 57 0;
#X connect 56 31 89 0;
#X connect 89 0 57 0;
#X connect 91 0 92 0;
#X connect 92 0 94 0;
#X connect 94 0 93 0;
#X connect 92 1 95 0;
#X connect 95 0 93 0;
#X connect 92 2 96 0;
#X connect 96 0 93 0;
#X connect 92 3 97 0;
#X connect 97 0 93 0;
#X connect 92 4 98 0;
#X connect 98 0 93 0;
#X connect 92 5 99 0;
#X connect 99 0 93 0;
#X connect 92 6 100 0;
#X connect 100 0 93 0;
#X connect 92 7 101 0;
#X connect 101 0 93 0;
#X connect 92 8 102 0;
#X connect 102 0 93 0;
#X connect 92 9 103 0;
#X connect 103 0 93 0;
#X connect 92 10 104 0;
#X connect 104 0 93 0;
#X connect 106 0 107 0;
#X connect 107 0 109 0;
#X connect 109 0 108 0;
#X connect 107 1 110 0;
#X connect 110 0 108 0;
#X connect 107 2 111 0;
#X connect 111 0 108 0;
#X connect 107 3 112 0;
#X connect 112 0 108 0;
#X connect 107 4 113 0;
#X connect 113 0 108 0;
#X connect 107 5 114 0;
#X connect 114 0 108 0;
#X connect 107 6 115 0;
#X connect 115 0 108 0;
#X connect 107 7 116 0;
#X connect 116 0 108 0;
#X connect 107 8 117 0;
#X connect 117 0 108 0;
#X connect 107 9 118 0;
#X connect 118 0 108 0;
#X connect 107 10 119 0;
#X connect 119 0 108 0;
#X connect 121 0 122 0;
#X connect 122 0 124 0;
#X connect 124 0 123 0;
#X connect 122 1 125 0;
#X connect 125 0 123 0;
#X connect 122 2 126 0;
#X connect 126 0 123 0;
#X connect 122 3 127 0;
#X connect 127 0 123 0;
#X connect 122 4 128 0;
#X connect 128 0 123 0;
#X connect 122 5 129 0;
#X connect 129 0 123 0;
#X connect 122 6 130 0;
#X connect 130 0 123 0;
#X connect 122 7 131 0;
#X connect 131 0 123 0;
#X connect 122 8 132 0;
#X connect 132 0 123 0;
#X connect 122 9 133 0;
#X connect 133 0 123 0;
#X connect 122 10 134 0;
#X connect 134 0 123 0;
#X connect 136 0 137 0;
#X connect 137 0 139 0;
#X connect 139 0 138 0;
#X connect 137 1 140 0;
#X connect 140 0 138 0;
#X connect 137 2 141 0;
#X connect 141 0 138 0;
#X connect 137 3 142 0;
#X connect 142 0 138 0;
#X connect 137 4 143 0;
#X connect 143 0 138 0;
#X connect 137 5 144 0;
#X connect 144 0 138 0;
#X connect 137 6 145 0;
#X connect 145 0 138 0;
#X connect 137 7 146 0;
#X connect 146 0 138 0;
#X connect 137 8 147 0;
#X connect 147 0 138 0;
#X connect 137 9 148 0;
#X connect 148 0 138 0;
#X connect 137 10 149 0;
#X connect 149 0 138 0;
#X connect 137 11 150 0;
#X connect 150 0 138 0;
#X connect 137 12 151 0;
#X connect 151 0 138 0;
#X connect 137 13 152 0;
#X connect 152 0 138 0;
#X connect 137 14 153 0;
#X connect 153 0 138 0;
#X connect 137 15 154 0;
#X connect 154 0 138 0;
#X connect 137 16 155 0;
#X connect 155 0 138 0;
#X connect 137 17 156 0;
#X connect 156 0 138 0;
#X connect 137 18 157 0;
#X connect 157 0 138 0;
#X connect 137 19 158 0;
#X connect 158 0 138 0;
#X connect 137 20 159 0;
#X connect 159 0 138 0;
#X connect 137 21 160 0;
#X connect 160 0 138 0;
#X connect 137 22 161 0;
#X connect 161 0 138 0;
#X connect 137 23 162 0;
#X connect 162 0 138 0;
#X connect 137 24 163 0;
#X connect 163 0 138 0;
#X connect 137 25 164 0;
#X connect 164 0 138 0;
#X connect 137 26 165 0;
#X connect 165 0 138 0;
#X connect 137 27 166 0;
#X connect 166 0 138 0;
#X connect 137 28 167 0;
#X connect 167 0 138 0;
#X connect 137 29 168 0;
#X connect 168 0 138 0;
#X connect 137 30 169 0;
#X connect 169 0 138 0;
#X connect 137 31 170 0;
#X connect 170 0 138 0;
#X connect 137 32 171 0;
#X connect 171 0 138 0;
#X connect 137 33 172 0;
#X connect 172 0 138 0;
#X connect 137 34 173 0;
#X connect 173 0 138 0;
#X connect 137 35 174 0;
#X connect 174 0 138 0;
#X connect 137 36 175 0;
#X connect 175 0 138 0;
#X connect 137 37 176 0;
#X connect 176 0 138 0;
#X connect 137 38 177 0;
#X connect 177 0 138 0;
#X connect 137 39 178 0;
#X connect 178 0 138 0;
#X connect 137 40 179 0;
#X connect 179 0 138 0;
#X connect 137 41 180 0;
#X connect 180 0 138 0;
#X connect 137 42 181 0;
#X connect 181 0 138 0;
#X connect 137 43 182 0;
#X connect 182 0 138 0;
#X connect 137 44 183 0;
#X connect 183 0 138 0;
#X connect 137 45 184 0;
#X connect 184 0 138 0;
#X connect 137 46 185 0;
#X connect 185 0 138 0;
#X connect 137 47 186 0;
#X connect 186 0 138 0;
#X connect 137 48 187 0;
#X connect 187 0 138 0;
#X connect 137 49 188 0;
#X connect 188 0 138 0;
#X connect 137 50 189 0;
#X connect 189 0 138 0;
#X connect 137 51 190 0;
#X connect 190 0 138 0;
#X connect 137 52 191 0;
#X connect 191 0 138 0;
#X connect 137 53 192 0;
#X connect 192 0 138 0;
#X connect 137 54 193 0;
#X connect 193 0 138 0;
#X connect 137 55 194 0;
#X connect 194 0 138 0;
#X connect 137 56 195 0;
#X connect 195 0 138 0;
#X connect 137 57 196 0;
#X connect 196 0 138 0;
#X connect 137 58 197 0;
#X connect 197 0 138 0;
#X connect 137 59 198 0;
#X connect 198 0 138 0;
#X connect 137 60 199 0;
#X connect 199 0 138 0;
#X connect 137 61 200 0;
#X connect 200 0 138 0;
#X connect 137 62 201 0;
#X connect 201 0 138 0;
#X connect 137 63 202 0;
#X connect 202 0 138 0;
#X connect 137 64 203 0;
#X connect 203 0 138 0;
#X connect 137 65 204 0;
#X connect 204 0 138 0;
#X connect 137 66 205 0;
#X connect 205 0 138 0;
#X connect 137 67 206 0;
#X connect 206 0 138 0;
#X connect 137 68 207 0;
#X connect 207 0 138 0;
#X connect 137 69 208 0;
#X connect 208 0 138 0;
#X connect 137 70 209 0;
#X connect 209 0 138 0;
#X connect 137 71 210 0;
#X connect 210 0 138 0;
#X connect 137 72 211 0;
#X connect 211 0 138 0;
#X connect 137 73 212 0;
#X connect 212 0 138 0;
#X connect 137 74 213 0;
#X connect 213 0 138 0;
#X connect 137 75 214 0;
#X connect 214 0 138 0;
#X connect 137 76 215 0;
#X connect 215 0 138 0;
#X connect 137 77 216 0;
#X connect 216 0 138 0;
#X connect 137 78 217 0;
#X connect 217 0 138 0;
#X connect 137 79 218 0;
#X connect 218 0 138 0;
#X connect 137 80 219 0;
#X connect 219 0 138 0;
#X connect 137 81 220 0;
#X connect 220 0 138 0;
#X connect 137 82 221 0;
#X connect 221 0 138 0;
#X connect 137 83 222 0;
#X connect 222 0 138 0;
#X connect 137 84 223 0;
#X connect 223 0 138 0;
#X connect 137 85 224 0;
#X connect 224 0 138 0;
#X connect 137 86 225 0;
#X connect 225 0 138 0;
#X connect 137 87 226 0;
#X connect 226 0 138 0;
#X connect 137 88 227 0;
#X connect 227 0 138 0;
#X connect 137 89 228 0;
#X connect 228 0 138 0;
#X connect 137 90 229 0;
#X connect 229 0 138 0;
#X connect 137 91 230 0;
#X connect 230 0 138 0;
#X connect 137 92 231 0;
#X connect 231 0 138 0;
#X connect 137 93 232 0;
#X connect 232 0 138 0;
#X connect 137 94 233 0;
#X connect 233 0 138 0;
#X connect 137 95 234 0;
#X connect 234 0 138 0;
#X connect 137 96 235 0;
#X connect 235 0 138 0;
#X connect 137 97 236 0;
#X connect 236 0 138 0;
#X connect 137 98 237 0;
#X connect 237 0 138 0;
#X connect 137 99 238 0;
#X connect 238 0 138 0;
#X connect 137 100 239 0;
#X connect 239 0 138 0;
#X connect 137 101 240 0;
#X connect 240 0 138 0;
#X connect 137 102 241 0;
#X connect 241 0 138 0;
#X connect 137 103 242 0;
#X connect 242 0 138 0;
#X connect 137 104 243 0;
#X connect 243 0 138 0;
#X connect 137 105 244 0;
#X connect 244 0 138 0;
#X connect 137 106 245 0;
#X connect 245 0 138 0;
#X connect 137 107 246 0;
#X connect 246 0 138 0;
#X connect 137 108 247 0;
#X connect 247 0 138 0;
#X connect 137 109 248 0;
#X connect 248 0 138 0;
#X connect 137 110 249 0;
#X connect 249 0 138 0;
#X connect 137 111 250 0;
#X connect 250 0 138 0;
#X connect 137 112 251 0;
#X connect 251 0 138 0;
#X connect 137 113 252 0;
#X connect 252 0 138 0;
#X connect 137 114 253 0;
#X connect 253 0 138 0;
#X connect 137 115 254 0;
#X connect 254 0 138 0;
#X connect 137 116 255 0;
#X connect 255 0 138 0;
#X connect 137 117 256 0;
#X connect 256 0 138 0;
#X connect 137 118 257 0;
#X connect 257 0 138 0;
#X connect 137 119 258 0;
#X connect 258 0 138 0;
#X connect 137 120 259 0;
#X connect 259 0 138 0;
#X connect 137 121 260 0;
#X connect 260 0 138 0;
#X connect 137 122 261 0;
#X connect 261 0 138 0;
#X connect 137 123 262 0;
#X connect 262 0 138 0;
#X connect 137 124 263 0;
#X connect 263 0 138 0;
#X connect 137 125 264 0;
#X connect 264 0 138 0;
#X connect 137 126 265 0;
#X connect 265 0 138 0;
#X connect 137 127 266 0;
#X connect 266 0 138 0;
#X connect 268 0 269 0;
#X connect 269 0 271 0;
#X connect 271 0 270 0;
#X connect 269 1 272 0;
#X connect 272 0 270 0;
#X connect 269 2 273 0;
#X connect 273 0 270 0;
#X connect 269 3 274 0;
#X connect 274 0 270 0;
#X connect 269 4 275 0;
#X connect 275 0 270 0;
#X connect 269 5 276 0;
#X connect 276 0 270 0;
#X connect 269 6 277 0;
#X connect 277 0 270 0;
#X connect 269 7 278 0;
#X connect 278 0 270 0;
#X connect 269 8 279 0;
#X connect 279 0 270 0;
#X connect 269 9 280 0;
#X connect 280 0 270 0;
#X connect 269 10 281 0;
#X connect 281 0 270 0;
#X connect 269 11 282 0;
#X connect 282 0 270 0;
#X connect 269 12 283 0;
#X connect 283 0 270 0;
#X connect 269 13 284 0;
#X connect 284 0 270 0;
#X connect 269 14 285 0;
#X connect 285 0 270 0;
#X connect 269 15 286 0;
#X connect 286 0 270 0;
#X connect 269 16 287 0;
#X connect 287 0 270 0;
#X connect 269 17 288 0;
#X connect 288 0 270 0;
#X connect 269 18 289 0;
#X connect 289 0 270 0;
#X connect 269 19 290 0;
#X connect 290 0 270 0;
#X connect 269 20 291 0;
#X connect 291 0 270 0;
#X connect 269 21 292 0;
#X connect 292 0 270 0;
#X connect 269 22 293 0;
#X connect 293 0 270 0;
#X connect 269 23 294 0;
#X connect 294 0 270 0;
#X connect 269 24 295 0;
#X connect 295 0 270 0;
#X connect 269 25 296 0;
#X connect 296 0 270 0;
#X connect 269 26 297 0;
#X connect 297 0 270 0;
#X connect 269 27 298 0;
#X connect 298 0 270 0;
#X connect 269 28 299 0;
#X connect 299 0 270 0;
#X connect 269 29 300 0;
#X connect 300 0 270 0;
#X connect 269 30 301 0;
#X connect 301 0 270 0;
#X connect 269 31 302 0;
#X connect 302 0 270 0;
#X connect 269 32 303 0;
#X connect 303 0 270 0;
#X connect 269 33 304 0;
#X connect 304 0 270 0;
#X connect 269 34 305 0;
#X connect 305 0 270 0;
#X connect 269 35 306 0;
#X connect 306 0 270 0;
#X connect 269 36 307 0;
#X connect 307 0 270 0;
#X connect 269 37 308 0;
#X connect 308 0 270 0;
#X connect 269 38 309 0;
#X connect 309 0 270 0;
#X connect 269 39 310 0;
#X connect 310 0 270 0;
#X connect 269 40 311 0;
#X connect 311 0 270 0;
#X connect 269 41 312 0;
#X connect 312 0 270 0;
#X connect 269 42 313 0;
#X connect 313 0 270 0;
#X connect 269 43 314 0;
#X connect 314 0 270 0;
#X connect 269 44 315 0;
#X connect 315 0 270 0;
#X connect 269 45 316 0;
#X connect 316 0 270 0;
#X connect 269 46 317 0;
#X connect 317 0 270 0;
#X connect 269 47 318 0;
#X connect 318 0 270 0;
#X connect 269 48 319 0;
#X connect 319 0 270 0;
#X connect 269 49 320 0;
#X connect 320 0 270 0;
#X connect 269 50 321 0;
#X connect 321 0 270 0;
#X connect 269 51 322 0;
#X connect 322 0 270 0;
#X connect 269 52 323 0;
#X connect 323 0 270 0;
#X connect 269 53 324 0;
#X connect 324 0 270 0;
#X connect 269 54 325 0;
#X connect 325 0 270 0;
#X connect 269 55 326 0;
#X connect 326 0 270 0;
#X connect 269 56 327 0;
#X connect 327 0 270 0;
#X connect 269 57 328 0;
#X connect 328 0 270 0;
#X connect 269 58 329 0;
#X connect 329 0 270 0;
#X connect 269 59 330 0;
#X connect 330 0 270 0;
#X connect 269 60 331 0;
#X connect 331 0 270 0;
#X connect 269 61 332 0;
#X connect 332 0 270 0;
#X connect 269 62 333 0;
#X connect 333 0 270 0;
#X connect 269 63 334 0;
#X connect 334 0 270 0;
#X connect 336 0 337 0;
#X connect 337 0 339 0;
#X connect 339 0 338 0;
#X connect 337 1 340 0;
#X connect 340 0 338 0;
#X connect 337 2 341 0;
#X connect 341 0 338 0;
#X connect 337 3 342 0;
#X connect 342 0 338 0;
#X connect 337 4 343 0;
#X connect 343 0 338 0;
#X connect 337 5 344 0;
#X connect 344 0 338 0;
#X connect 337 6 345 0;
#X connect 345 0 338 0;
#X connect 337 7 346 0;
#X connect 346 0 338 0;
#X connect 337 8 347 0;
#X connect 347 0 338 0;
#X connect 337 9 348 0;
#X connect 348 0 338 0;
#X connect 337 10 349 0;
#X connect 349 0 338 0;
#X connect 337 11 350 0;
#X connect 350 0 338 0;
#X connect 337 12 351 0;
#X connect 351 0 338 0;
#X connect 337 13 352 0;
#X connect 352 0 338 0;
#X connect 337 14 353 0;
#X connect 353 0 338 0;
#X connect 337 15 354 0;
#X connect 354 0 338 0;
#X connect 337 16 355 0;
#X connect 355 0 338 0;
#X connect 337 17 356 0;
#X connect 356 0 338 0;
#X connect 337 18 357 0;
#X connect 357 0 338 0;
#X connect 337 19 358 0;
#X connect 358 0 338 0;
#X connect 337 20 359 0;
#X connect 359 0 338 0;
#X connect 337 21 360 0;
#X connect 360 0 338 0;
#X connect 337 22 361 0;
#X connect 361 0 338 0;
#X connect 337 23 362 0;
#X connect 362 0 338 0;
#X connect 337 24 363 0;
#X connect 363 0 338 0;
#X connect 337 25 364 0;
#X connect 364 0 338 0;
#X connect 337 26 365 0;
#X connect 365 0 338 0;
#X connect 337 27 366 0;
#X connect 366 0 338 0;
#X connect 337 28 367 0;
#X connect 367 0 338 0;
#X connect 337 29 368 0;
#X connect 368 0 338 0;
#X connect 337 30 369 0;
#X connect 369 0 338 0;
#X connect 337 31 370 0;
#X connect 370 0 338 0;
#X connect 337 32 371 0;
#X connect 371 0 338 0;
#X connect 337 33 372 0;
#X connect 372 0 338 0;
#X connect 337 34 373 0;
#X connect 373 0 338 0;
#X connect 337 35 374 0;
#X connect 374 0 338 0;
#X connect 337 36 375 0;
#X connect 375 0 338 0;
#X connect 337 37 376 0;
#X connect 376 0 338 0;
#X connect 337 38 377 0;
#X connect 377 0 338 0;
#X connect 337 39 378 0;
#X connect 378 0 338 0;
#X connect 337 40 379 0;
#X connect 379 0 338 0;
#X connect 337 41 380 0;
#X connect 380 0 338 0;
#X connect 337 42 381 0;
#X connect 381 0 338 0;
#X connect 337 43 382 0;
#X connect 382 0 338 0;
#X connect 337 44 383 0;
#X connect 383 0 338 0;
#X connect 337 45 384 0;
#X connect 384 0 338 0;
#X connect 337 46 385 0;
#X connect 385 0 338 0;
#X connect 337 47 386 0;
#X connect 386 0 338 0;
#X connect 337 48 387 0;
#X connect 387 0 338 0;
#X connect 337 49 388 0;
#X connect 388 0 338 0;
#X connect 337 50 389 0;
#X connect 389 0 338 0;
#X connect 337 51 390 0;
#X connect 390 0 338 0;
#X connect 337 52 391 0;
#X connect 391 0 338 0;
#X connect 337 53 392 0;
#X connect 392 0 338 0;
#X connect 337 54 393 0;
#X connect 393 0 338 0;
#X connect 337 55 394 0;
#X connect 394 0 338 0;
#X connect 337 56 395 0;
#X connect 395 0 338 0;
#X connect 337 57 396 0;
#X connect 396 0 338 0;
#X connect 337 58 397 0;
#X connect 397 0 338 0;
#X connect 337 59 398 0;
#X connect 398 0 338 0;
#X connect 337 60 399 0;
#X connect 399 0 338 0;
#X connect 337 61 400 0;
#X connect 400 0 338 0;
#X connect 337 62 401 0;
#X connect 401 0 338 0;
#X connect 337 63 402 0;
#X connect 402 0 338 0;
#X connect 337 64 403 0;
#X connect 403 0 338 0;
#X connect 337 65 404 0;
#X connect 404 0 338 0;
#X connect 337 66 405 0;
#X connect 405 0 338 0;
#X connect 337 67 406 0;
#X connect 406 0 338 0;
#X connect 337 68 407 0;
#X connect 407 0 338 0;
#X connect 337 69 408 0;
#X connect 408 0 338 0;
#X connect 337 70 409 0;
#X connect 409 0 338 0;
#X connect 337 71 410 0;
#X connect 410 0 338 0;
#X connect 337 72 411 0;
#X connect 411 0 338 0;
#X connect 337 73 412 0;
#X connect 412 0 338 0;
#X connect 337 74 413 0;
#X connect 413 0 338 0;
#X connect 337 75 414 0;
#X connect 414 0 338 0;
#X connect 337 76 415 0;
#X connect 415 0 338 0;
#X connect 337 77 416 0;
#X connect 416 0 338 0;
#X connect 337 78 417 0;
#X connect 417 0 338 0;
#X connect 337 79 418 0;
#X connect 418 0 338 0;
#X connect 337 80 419 0;
#X connect 419 0 338 0;
#X connect 337 81 420 0;
#X connect 420 0 338 0;
#X connect 337 82 421 0;
#X connect 421 0 338 0;
#X connect 337 83 422 0;
#X connect 422 0 338 0;
#X connect 337 84 423 0;
#X connect 423 0 338 0;
#X connect 337 85 424 0;
#X connect 424 0 338 0;
#X connect 337 86 425 0;
#X connect 425 0 338 0;
#X connect 337 87 426 0;
#X connect 426 0 338 0;
#X connect 337 88 427 0;
#X connect 427 0 338 0;
#X connect 337 89 428 0;
#X connect 428 0 338 0;
#X connect 337 90 429 0;
#X connect 429 0 338 0;
#X connect 337 91 430 0;
#X connect 430 0 338 0;
#X connect 337 92 431 0;
#X connect 431 0 338 0;
#X connect 337 93 432 0;
#X connect 432 0 338 0;
#X connect 337 94 433 0;
#X connect 433 0 338 0;
#X connect 337 95 434 0;
#X connect 434 0 338 0;
#X connect 337 96 435 0;
#X connect 435 0 338 0;
#X connect 337 97 436 0;
#X connect 436 0 338 0;
#X connect 337 98 437 0;
#X connect 437 0 338 0;
#X connect 337 99 438 0;
#X connect 438 0 338 0;
#X connect 337 100 439 0;
#X connect 439 0 338 0;
#X connect 337 101 440 0;
#X connect 440 0 338 0;
#X connect 337 102 441 0;
#X connect 441 0 338 0;
#X connect 337 103 442 0;
#X connect 442 0 338 0;
#X connect 337 104 443 0;
#X connect 443 0 338 0;
#X connect 337 105 444 0;
#X connect 444 0 338 0;
#X connect 337 106 445 0;
#X connect 445 0 338 0;
#X connect 337 107 446 0;
#X connect 446 0 338 0;
#X connect 337 108 447 0;
#X connect 447 0 338 0;
#X connect 337 109 448 0;
#X connect 448 0 338 0;
#X connect 337 110 449 0;
#X connect 449 0 338 0;
#X connect 337 111 450 0;
#X connect 450 0 338 0;
#X connect 337 112 451 0;
#X connect 451 0 338 0;
#X connect 337 113 452 0;
#X connect 452 0 338 0;
#X connect 337 114 453 0;
#X connect 453 0 338 0;
#X connect 337 115 454 0;
#X connect 454 0 338 0;
#X connect 337 116 455 0;
#X connect 455 0 338 0;
#X connect 337 117 456 0;
#X connect 456 0 338 0;
#X connect 337 118 457 0;
#X connect 457 0 338 0;
#X connect 337 119 458 0;
#X connect 458 0 338 0;
#X connect 337 120 459 0;
#X connect 459 0 338 0;
#X connect 337 121 460 0;
#X connect 460 0 338 0;
#X connect 337 122 461 0;
#X connect 461 0 338 0;
#X connect 337 123 462 0;
#X connect 462 0 338 0;
#X connect 337 124 463 0;
#X connect 463 0 338 0;
#X connect 337 125 464 0;
#X connect 464 0 338 0;
#X connect 337 126 465 0;
#X connect 465 0 338 0;
#X connect 337 127 466 0;
#X connect 466 0 338 0;
#X connect 337 128 467 0;
#X connect 467 0 338 0;
#X connect 337 129 468 0;
#X connect 468 0 338 0;
#X connect 337 130 469 0;
#X connect 469 0 338 0;
#X connect 337 131 470 0;
#X connect 470 0 338 0;
#X connect 337 132 471 0;
#X connect 471 0 338 0;
#X connect 337 133 472 0;
#X connect 472 0 338 0;
#X connect 337 134 473 0;
#X connect 473 0 338 0;
#X connect 337 135 474 0;
#X connect 474 0 338 0;
#X connect 337 136 475 0;
#X connect 475 0 338 0;
#X connect 337 137 476 0;
#X connect 476 0 338 0;
#X connect 337 138 477 0;
#X connect 477 0 338 0;
#X connect 337 139 478 0;
#X connect 478 0 338 0;
#X connect 337 140 479 0;
#X connect 479 0 338 0;
#X connect 337 141 480 0;
#X connect 480 0 338 0;
#X connect 337 142 481 0;
#X connect 481 0 338 0;
#X connect 337 143 482 0;
#X connect 482 0 338 0;
#X connect 337 144 483 0;
#X connect 483 0 338 0;
#X connect 337 145 484 0;
#X connect 484 0 338 0;
#X connect 337 146 485 0;
#X connect 485 0 338 0;
#X connect 337 147 486 0;
#X connect 486 0 338 0;
#X connect 337 148 487 0;
#X connect 487 0 338 0;
#X connect 337 149 488 0;
#X connect 488 0 338 0;
#X connect 337 150 489 0;
#X connect 489 0 338 0;
#X connect 337 151 490 0;
#X connect 490 0 338 0;
#X connect 337 152 491 0;
#X connect 491 0 338 0;
#X connect 337 153 492 0;
#X connect 492 0 338 0;
#X connect 337 154 493 0;
#X connect 493 0 338 0;
#X connect 337 155 494 0;
#X connect 494 0 338 0;
#X connect 337 156 495 0;
#X connect 495 0 338 0;
#X connect 337 157 496 0;
#X connect 496 0 338 0;
#X connect 337 158 497 0;
#X connect 497 0 338 0;
#X connect 337 159 498 0;
#X connect 498 0 338 0;
#X connect 500 0 501 0;
#X connect 501 0 503 0;
#X connect 503 0 502 0;
#X connect 501 1 504 0;
#X connect 504 0 502 0;
#X connect 501 2 505 0;
#X connect 505 0 502 0;
#X connect 501 3 506 0;
#X connect 506 0 502 0;
#X connect 501 4 507 0;
#X connect 507 0 502 0;
#X connect 501 5 508 0;
#X connect 508 0 502 0;
#X connect 501 6 509 0;
#X connect 509 0 502 0;
#X connect 501 7 510 0;
#X connect 510 0 502 0;
#X connect 501 8 511 0;
#X connect 511 0 502 0;
#X connect 501 9 512 0;
#X connect 512 0 502 0;
#X connect 501 10 513 0;
#X connect 513 0 502 0;
#X connect 501 11 514 0;
#X connect 514 0 502 0;
#X connect 501 12 515 0;
#X connect 515 0 502 0;
#X connect 501 13 516 0;
#X connect 516 0 502 0;
#X connect 501 14 517 0;
#X connect 517 0 502 0;
#X connect 501 15 518 0;
#X connect 518 0 502 0;
#X connect 520 0 521 0;
#X connect 521 0 523 0;
#X connect 523 0 522 0;
#X connect 521 1 524 0;
#X connect 524 0 522 0;
#X connect 521 2 525 0;
#X connect 525 0 522 0;
#X connect 521 3 526 0;
#X connect 526 0 522 0;
#X connect 521 4 527 0;
#X connect 527 0 522 0;
#X connect 521 5 528 0;
#X connect 528 0 522 0;
#X connect 521 6 529 0;
#X connect 529 0 522 0;
#X connect 521 7 530 0;
#X connect 530 0 522 0;
#X connect 521 8 531 0;
#X connect 531 0 522 0;
#X connect 521 9 532 0;
#X connect 532 0 522 0;
#X connect 521 10 533 0;
#X connect 533 0 522 0;
#X connect 521 11 534 0;
#X connect 534 0 522 0;
#X connect 521 12 535 0;
#X connect 535 0 522 0;
#X connect 521 13 536 0;
#X connect 536 0 522 0;
#X connect 521 14 537 0;
#X connect 537 0 522 0;
#X connect 521 15 538 0;
#X connect 538 0 522 0;
#X connect 540 0 541 0;
#X connect 541 0 543 0;
#X connect 543 0 542 0;
#X connect 541 1 544 0;
#X connect 544 0 542 0;
#X connect 541 2 545 0;
#X connect 545 0 542 0;
#X connect 541 3 546 0;
#X connect 546 0 542 0;
#X connect 541 4 547 0;
#X connect 547 0 542 0;
#X connect 541 5 548 0;
#X connect 548 0 542 0;
#X connect 541 6 549 0;
#X connect 549 0 542 0;
#X connect 541 7 550 0;
#X connect 550 0 542 0;
#X connect 541 8 551 0;
#X connect 551 0 542 0;
#X connect 541 9 552 0;
#X connect 552 0 542 0;
#X connect 541 10 553 0;
#X connect 553 0 542 0;
#X connect 541 11 554 0;
#X connect 554 0 542 0;
#X connect 541 12 555 0;
#X connect 555 0 542 0;
#X connect 541 13 556 0;
#X connect 556 0 542 0;
#X connect 558 0 559 0;
#X connect 559 0 561 0;
#X connect 561 0 560 0;
#X connect 559 1 562 0;
#X connect 562 0 560 0;
#X connect 559 2 563 0;
#X connect 563 0 560 0;
#X connect 559 3 564 0;
#X connect 564 0 560 0;
#X connect 559 4 565 0;
#X connect 565 0 560 0;
#X connect 559 5 566 0;
#X connect 566 0 560 0;
#X connect 559 6 567 0;
#X connect 567 0 560 0;
#X connect 559 7 568 0;
#X connect 568 0 560 0;
#X connect 559 8 569 0;
#X connect 569 0 560 0;
#X connect 559 9 570 0;
#X connect 570 0 560 0;
#X connect 559 10 571 0;
#X connect 571 0 560 0;
#X connect 559 11 572 0;
#X connect 572 0 560 0;
#X connect 559 12 573 0;
#X connect 573 0 560 0;
#X connect 559 13 574 0;
#X connect 574 0 560 0;
#X connect 559 14 575 0;
#X connect 575 0 560 0;
#X connect 559 15 576 0;
#X connect 576 0 560 0;
#X connect 559 16 577 0;
#X connect 577 0 560 0;
#X connect 559 17 578 0;
#X connect 578 0 560 0;
#X connect 559 18 579 0;
#X connect 579 0 560 0;
#X connect 559 19 580 0;
#X connect 580 0 560 0;
#X connect 582 0 583 0;
#X connect 583 0 585 0;
#X connect 585 0 584 0;
#X connect 583 1 586 0;
#X connect 586 0 584 0;
#X connect 583 2 587 0;
#X connect 587 0 584 0;
#X connect 583 3 588 0;
#X connect 588 0 584 0;
#X connect 583 4 589 0;
#X connect 589 0 584 0;
#X connect 583 5 590 0;
#X connect 590 0 584 0;
#X connect 583 6 591 0;
#X connect 591 0 584 0;
#X connect 583 7 592 0;
#X connect 592 0 584 0;
#X connect 583 8 593 0;
#X connect 593 0 584 0;
#X connect 583 9 594 0;
#X connect 594 0 584 0;
#X connect 583 10 595 0;
#X connect 595 0 584 0;
#X connect 583 11 596 0;
#X connect 596 0 584 0;
#X connect 583 12 597 0;
#X connect 597 0 584 0;
#X connect 583 13 598 0;
#X connect 598 0 584 0;
#X connect 583 14 599 0;
#X connect 599 0 584 0;
#X connect 583 15 600 0;
#X connect 600 0 584 0;
#X connect 602 0 603 0;
#X connect 603 0 605 0;
#X connect 605 0 604 0;
#X connect 603 1 606 0;
#X connect 606 0 604 0;
#X connect 603 2 607 0;
#X connect 607 0 604 0;
#X connect 603 3 608 0;
#X connect 608 0 604 0;
#X connect 603 4 609 0;
#X connect 609 0 604 0;
#X connect 603 5 610 0;
#X connect 610 0 604 0;
#X connect 603 6 611 0;
#X connect 611 0 604 0;
#X connect 603 7 612 0;
#X connect 612 0 604 0;
#X connect 603 8 613 0;
#X connect 613 0 604 0;
#X connect 603 9 614 0;
#X connect 614 0 604 0;
#X connect 603 10 615 0;
#X connect 615 0 604 0;
#X connect 603 11 616 0;
#X connect 616 0 604 0;
#X connect 618 0 619 0;
#X connect 619 0 621 0;
#X connect 621 0 620 0;
#X connect 619 1 622 0;
#X connect 622 0 620 0;
#X connect 619 2 623 0;
#X connect 623 0 620 0;
#X connect 619 3 624 0;
#X connect 624 0 620 0;
#X connect 619 4 625 0;
#X connect 625 0 620 0;
#X connect 619 5 626 0;
#X connect 626 0 620 0;
#X connect 619 6 627 0;
#X connect 627 0 620 0;
#X connect 619 7 628 0;
#X connect 628 0 620 0;
#X connect 619 8 629 0;
#X connect 629 0 620 0;
#X connect 619 9 630 0;
#X connect 630 0 620 0;
#X connect 619 10 631 0;
#X connect 631 0 620 0;
#X connect 619 11 632 0;
#X connect 632 0 620 0;
#X connect 619 12 633 0;
#X connect 633 0 620 0;
#X connect 619 13 634 0;
#X connect 634 0 620 0;
#X connect 619 14 635 0;
#X connect 635 0 620 0;
#X connect 619 15 636 0;
#X connect 636 0 620 0;
#X connect 619 16 637 0;
#X connect 637 0 620 0;
#X connect 619 17 638 0;
#X connect 638 0 620 0;
#X connect 619 18 639 0;
#X connect 639 0 620 0;
#X connect 619 19 640 0;
#X connect 640 0 620 0;
#X connect 619 20 641 0;
#X connect 641 0 620 0;
#X connect 643 0 644 0;
#X connect 644 0 646 0;
#X connect 646 0 645 0;
#X connect 644 1 647 0;
#X connect 647 0 645 0;
#X connect 644 2 648 0;
#X connect 648 0 645 0;
#X connect 644 3 649 0;
#X connect 649 0 645 0;
#X connect 644 4 650 0;
#X connect 650 0 645 0;
#X connect 644 5 651 0;
#X connect 651 0 645 0;
#X connect 644 6 652 0;
#X connect 652 0 645 0;
#X connect 644 7 653 0;
#X connect 653 0 645 0;
#X connect 644 8 654 0;
#X connect 654 0 645 0;
#X connect 644 9 655 0;
#X connect 655 0 645 0;
#X connect 644 10 656 0;
#X connect 656 0 645 0;
#X connect 644 11 657 0;
#X connect 657 0 645 0;
#X connect 644 12 658 0;
#X connect 658 0 645 0;
#X connect 644 13 659 0;
#X connect 659 0 645 0;
#X connect 661 0 662 0;
#X connect 662 0 664 0;
#X connect 664 0 663 0;
#X connect 662 1 665 0;
#X connect 665 0 663 0;
#X connect 662 2 666 0;
#X connect 666 0 663 0;
#X connect 662 3 667 0;
#X connect 667 0 663 0;
#X connect 662 4 668 0;
#X connect 668 0 663 0;
#X connect 662 5 669 0;
#X connect 669 0 663 0;
#X connect 662 6 670 0;
#X connect 670 0 663 0;
#X connect 662 7 671 0;
#X connect 671 0 663 0;
#X connect 662 8 672 0;
#X connect 672 0 663 0;
#X connect 662 9 673 0;
#X connect 673 0 663 0;
#X connect 662 10 674 0;
#X connect 674 0 663 0;
#X connect 662 11 675 0;
#X connect 675 0 663 0;
#X connect 662 12 676 0;
#X connect 676 0 663 0;
#X connect 662 13 677 0;
#X connect 677 0 663 0;
#X connect 680 0 682 0;
#X connect 681 0 682 0;
#X connect 682 0 683 0;
#X connect 683 0 684 0;
#X connect 683 0 685 0;
#X connect 684 0 686 0;
#X connect 685 0 687 0;
#X connect 689 0 691 0;
#X connect 690 0 691 0;
#X connect 691 0 692 0;
#X connect 692 0 693 0;
#X connect 692 0 694 0;
#X connect 693 0 695 0;
#X connect 694 0 696 0;
#X connect 698 0 700 0;
#X connect 699 0 700 0;
#X connect 700 0 701 0;
#X connect 701 0 702 0;
#X connect 701 0 703 0;
#X connect 702 0 704 0;
#X connect 703 0 705 0;
#X connect 707 0 709 0;
#X connect 708 0 709 0;
#X connect 709 0 710 0;
#X connect 710 0 711 0;
#X connect 710 0 712 0;
#X connect 711 0 713 0;
#X connect 712 0 714 0;
#X connect 716 0 718 0;
#X connect 717 0 718 0;
#X connect 718 0 719 0;
#X connect 719 0 720 0;
#X connect 719 0 721 0;
#X connect 720 0 722 0;
#X connect 721 0 723 0;
#X connect 725 0 727 0;
#X connect 726 0 727 0;
#X connect 727 0 728 0;
#X connect 728 0 729 0;
#X connect 728 0 730 0;
#X connect 729 0 731 0;
#X connect 730 0 732 0;
#X connect 734 0 736 0;
#X connect 735 0 736 0;
#X connect 736 0 737 0;
#X connect 737 0 738 0;
#X connect 737 0 739 0;
#X connect 738 0 740 0;
#X connect 739 0 741 0;
#X connect 743 0 745 0;
#X connect 744 0 745 0;
#X connect 745 0 746 0;
#X connect 746 0 747 0;
#X connect 746 0 748 0;
#X connect 747 0 749 0;
#X connect 748 0 750 0;
#X connect 752 0 754 0;
#X connect 753 0 754 0;
#X connect 754 0 755 0;
#X connect 755 0 756 0;
#X connect 755 0 757 0;
#X connect 756 0 758 0;
#X connect 757 0 759 0;
#X connect 761 0 763 0;
#X connect 762 0 763 0;
#X connect 763 0 764 0;
#X connect 764 0 765 0;
#X connect 764 0 766 0;
#X connect 765 0 767 0;
#X connect 766 0 768 0;
#X connect 770 0 772 0;
#X connect 771 0 772 0;
#X connect 772 0 773 0;
#X connect 773 0 774 0;
#X connect 773 0 775 0;
#X connect 774 0 776 0;
#X connect 775 0 777 0;
#X connect 779 0 781 0;
#X connect 780 0 781 0;
#X connect 781 0 782 0;
#X connect 782 0 783 0;
#X connect 782 0 784 0;
#X connect 783 0 785 0;
#X connect 784 0 786 0;
#X connect 788 0 790 0;
#X connect 789 0 790 0;
#X connect 790 0 791 0;
#X connect 791 0 792 0;
#X connect 791 0 793 0;
#X connect 792 0 794 0;
#X connect 793 0 795 0;
#X connect 797 0 799 0;
#X connect 798 0 799 0;
#X connect 799 0 800 0;
#X connect 800 0 801 0;
#X connect 800 0 802 0;
#X connect 801 0 803 0;
#X connect 802 0 804 0;
#X connect 806 0 808 0;
#X connect 807 0 808 0;
#X connect 808 0 809 0;
#X connect 809 0 810 0;
#X connect 809 0 811 0;
#X connect 810 0 812 0;
#X connect 811 0 813 0;
#X connect 815 0 817 0;
#X connect 816 0 817 0;
#X connect 817 0 818 0;
#X connect 818 0 819 0;
#X connect 818 0 820 0;
#X connect 819 0 821 0;
#X connect 820 0 822 0;
#X connect 824 0 825 0;
#X connect 826 0 827 0;
#X connect 827 0 828 0;
#X connect 829 0 830 0;
#X connect 830 0 831 0;
#X connect 832 0 833 0;
#X connect 833 0 834 0;
#X connect 836 0 838 0;
#X connect 837 0 839 0;
#X connect 838 0 840 0;
#X connect 839 0 841 0;
#X connect 825 0 838 1;
#X connect 825 0 839 1;
#X connect 828 0 840 1;
#X connect 828 0 841 1;
#X connect 843 0 845 0;
#X connect 844 0 846 0;
#X connect 845 0 847 0;
#X connect 846 0 848 0;
#X connect 825 0 845 1;
#X connect 825 0 846 1;
#X connect 828 0 847 1;
#X connect 828 0 848 1;
#X connect 850 0 852 0;
#X connect 851 0 853 0;
#X connect 852 0 854 0;
#X connect 853 0 855 0;
#X connect 825 0 852 1;
#X connect 825 0 853 1;
#X connect 828 0 854 1;
#X connect 828 0 855 1;
#X connect 857 0 859 0;
#X connect 858 0 860 0;
#X connect 859 0 861 0;
#X connect 860 0 862 0;
#X connect 825 0 859 1;
#X connect 825 0 860 1;
#X connect 828 0 861 1;
#X connect 828 0 862 1;
#X connect 864 0 866 0;
#X connect 865 0 867 0;
#X connect 866 0 868 0;
#X connect 867 0 869 0;
#X connect 825 0 866 1;
#X connect 825 0 867 1;
#X connect 828 0 868 1;
#X connect 828 0 869 1;
#X connect 871 0 873 0;
#X connect 872 0 874 0;
#X connect 873 0 875 0;
#X connect 874 0 876 0;
#X connect 825 0 873 1;
#X connect 825 0 874 1;
#X connect 828 0 875 1;
#X connect 828 0 876 1;
#X connect 840 0 877 0;
#X connect 847 0 877 1;
#X connect 841 0 878 0;
#X connect 848 0 878 1;
#X connect 877 0 879 0;
#X connect 854 0 879 1;
#X connect 878 0 880 0;
#X connect 855 0 880 1;
#X connect 879 0 881 0;
#X connect 861 0 881 1;
#X connect 880 0 882 0;
#X connect 862 0 882 1;
#X connect 881 0 883 0;
#X connect 868 0 883 1;
#X connect 882 0 884 0;
#X connect 869 0 884 1;
#X connect 883 0 885 0;
#X connect 875 0 885 1;
#X connect 884 0 886 0;
#X connect 876 0 886 1;
#X connect 885 0 887 0;
#X connect 886 0 888 0;
#X connect 887 0 889 0;
#X connect 888 0 890 0;
#X connect 891 0 895 0;
#X connect 893 0 895 1;
#X connect 892 0 896 0;
#X connect 894 0 896 1;
#X connect 895 0 897 0;
#X connect 896 0 898 0;
#X connect 831 0 897 1;
#X connect 831 0 898 1;
#X connect 887 0 899 0;
#X connect 897 0 899 1;
#X connect 888 0 900 0;
#X connect 898 0 900 1;
#X connect 899 0 901 0;
#X connect 900 0 902 0;
#X connect 901 0 903 0;
#X connect 902 0 904 0;
#X connect 834 0 903 1;
#X connect 834 0 904 1;
#X connect 903 0 905 0;
#X connect 904 0 905 1;
#X connect 13 0 906 0;
#X connect 906 0 19 0;
