#N canvas 0 30 1920 1022 12;
#X text 28 20 Just The Two Of Us phonk-jazz progression test - Pd Vanilla;
#X text 28 42 96 BPM \, full chart sequence \, extended jazz voicings \, KUSA NAGI phonk samples.;
#X text 30 78 Transport: loadbang turns DSP on and starts the full-form sequencer.;
#X text 30 98 Click 0 to stop \, 1 to restart. Chord slots follow the supplied chart.;
#X obj 30 128 loadbang;
#X msg 30 160 \; pd dsp 1;
#X msg 138 160 1;
#X msg 194 160 0;
#X obj 138 196 metro 156.25;
#X obj 138 232 f 0;
#X obj 198 232 + 1;
#X obj 258 232 mod 1920;
#X obj 138 268 s j2_step_global;
#X obj 342 232 mod 16;
#X obj 342 268 s j2_step16;
#X obj 520 268 s j2_step_view;
#X text 780 78 Current form position;
#X symbolatom 780 108 20 0 0 0 j2_section_name - - 0;
#X symbolatom 1034 108 16 0 0 0 j2_chord_name - - 0;
#X floatatom 1250 108 6 0 0 0 j2_step_view - - 0;
#X text 780 148 No melody or lyrics are encoded here \; this is a chord-form and texture test.;
#X text 1260 78 KUSA NAGI sample loader: flat symlink names avoid spaces in Pd paths;
#X obj 1690 106 soundfiler;
#X msg 1260 106 read -resize samples/kusa_nagi_phonk_v1_pd_ready/kick_1.wav j2_kick;
#X obj 1830 106 table j2_kick 44100;
#X text 2068 106 kick;
#X msg 1260 131 read -resize samples/kusa_nagi_phonk_v1_pd_ready/808_1.wav j2_808;
#X obj 1830 131 table j2_808 44100;
#X text 2068 131 808;
#X msg 1260 156 read -resize samples/kusa_nagi_phonk_v1_pd_ready/snare_3.wav j2_snare;
#X obj 1830 156 table j2_snare 44100;
#X text 2068 156 snare;
#X msg 1260 181 read -resize samples/kusa_nagi_phonk_v1_pd_ready/clap_2.wav j2_clap;
#X obj 1830 181 table j2_clap 44100;
#X text 2068 181 clap;
#X msg 1260 206 read -resize samples/kusa_nagi_phonk_v1_pd_ready/hh_8.wav j2_hat;
#X obj 1830 206 table j2_hat 44100;
#X text 2068 206 hat;
#X msg 1260 231 read -resize samples/kusa_nagi_phonk_v1_pd_ready/open_hat_4.wav j2_open_hat;
#X obj 1830 231 table j2_open_hat 44100;
#X text 2068 231 open_hat;
#X msg 1260 256 read -resize samples/kusa_nagi_phonk_v1_pd_ready/crash_1.wav j2_crash;
#X obj 1830 256 table j2_crash 44100;
#X text 2068 256 crash;
#X msg 1260 281 read -resize samples/kusa_nagi_phonk_v1_pd_ready/cowbell_1.wav j2_cowbell_a;
#X obj 1830 281 table j2_cowbell_a 44100;
#X text 2068 281 cowbell_a;
#X msg 1260 306 read -resize samples/kusa_nagi_phonk_v1_pd_ready/cowbell_2.wav j2_cowbell_b;
#X obj 1830 306 table j2_cowbell_b 44100;
#X text 2068 306 cowbell_b;
#X msg 1260 331 read -resize samples/kusa_nagi_phonk_v1_pd_ready/chime_1.wav j2_chime;
#X obj 1830 331 table j2_chime 44100;
#X text 2068 331 chime;
#X msg 1260 356 read -resize samples/kusa_nagi_phonk_v1_pd_ready/soft_chord_gsharp_minor.wav j2_soft_chord;
#X obj 1830 356 table j2_soft_chord 44100;
#X text 2068 356 soft_chord;
#X text 30 430 Sample chord pad: soft phonk house Gsharp minor shot \, pitch-following each root;
#X obj 30 460 r j2_chord;
#X obj 30 494 unpack f f f f f f;
#X obj 322 528 s j2_root_midi;
#X obj 30 562 sel 35 36 38 40 41 43 44 45 46;
#X obj 450 606 vline~;
#X obj 450 640 tabread4~ j2_soft_chord;
#X msg 450 562 0 0 \, 0.85 18 \, 0.56 1250 45 \, 0 650 1900;
#X obj 642 562 vline~;
#X obj 450 674 *~;
#X obj 540 674 hip~ 85;
#X obj 640 674 lop~ 6200;
#X msg 30 606 1 \, 132296 5045.4;
#X msg 170 606 1 \, 132296 4762.2;
#X msg 310 606 1 \, 132296 4242.6;
#X msg 30 640 1 \, 132296 3779.8;
#X msg 170 640 1 \, 132296 3567.6;
#X msg 310 640 1 \, 132296 3178.4;
#X msg 30 674 1 \, 132296 3000;
#X msg 170 674 1 \, 132296 2831.6;
#X msg 310 674 1 \, 132296 2672.7;
#X obj 836 674 throw~ j2_mix;
#X obj 836 708 throw~ j2_fx;
#X text 1030 430 Bass: root/fifth/octave follows each scheduled chord root;
#X obj 1306 460 r j2_root_midi;
#X obj 1306 496 f;
#X obj 1396 460 + 7;
#X obj 1396 496 f;
#X obj 1486 460 + 12;
#X obj 1486 496 f;
#X obj 1030 460 r j2_step16;
#X obj 1030 494 sel 0 8;
#X obj 1030 528 sel 6 14;
#X obj 1030 562 sel 11;
#X obj 1306 550 mtof;
#X obj 1306 582 pack f 18;
#X obj 1306 614 line~;
#X obj 1306 646 osc~;
#X obj 1404 646 phasor~;
#X obj 1404 678 -~ 0.5;
#X obj 1404 710 lop~ 360;
#X obj 1306 744 *~ 0.76;
#X obj 1404 744 *~ 0.24;
#X obj 1358 780 +~;
#X msg 1602 550 0.92 5 \, 0.66 96 8 \, 0 190 120;
#X obj 1602 584 vline~;
#X obj 1448 816 *~;
#X obj 1538 816 lop~ 260;
#X obj 1628 816 *~ 0.36;
#X obj 1724 816 throw~ j2_mix;
#X obj 1628 850 *~ 0.02;
#X obj 1724 850 throw~ j2_fx;
#X text 30 1040 Main melody synth: prominent Pd Vanilla guide-tone line;
#X obj 314 1070 r j2_chord;
#X obj 314 1104 unpack f f f f f f;
#X obj 314 1140 f;
#X obj 384 1140 f;
#X obj 454 1140 f;
#X obj 524 1140 f;
#X obj 594 1140 f;
#X obj 30 1070 r j2_step16;
#X obj 30 1104 sel 2 6 10 14;
#X obj 314 1194 mtof;
#X obj 314 1226 pack f 20;
#X obj 314 1258 line~;
#X obj 314 1290 osc~;
#X obj 404 1290 phasor~;
#X obj 404 1322 -~ 0.5;
#X obj 404 1354 *~ 0.36;
#X obj 314 1354 *~ 0.82;
#X obj 360 1390 +~;
#X obj 360 1422 hip~ 420;
#X obj 360 1454 lop~ 5200;
#X msg 610 1194 0.88 4 \, 0.42 170 8 \, 0 260 180;
#X obj 610 1228 vline~;
#X obj 468 1490 *~;
#X obj 558 1490 *~ 0.32;
#X obj 654 1490 throw~ j2_mix;
#X obj 558 1524 *~ 0.18;
#X obj 654 1524 throw~ j2_fx;
#X text 30 1580 KUSA NAGI phonk one-shots: groove is restrained so the jazz changes remain clear;
#X text 30 1620 Kick sample: boom-bap/phonk pocket;
#X obj 30 1650 r j2_step16;
#X obj 30 1684 sel 0 6 10 15;
#X obj 312 1718 tabplay~ j2_kick;
#X obj 434 1718 *~ 0.54;
#X obj 530 1718 throw~ j2_mix;
#X text 650 1620 808 sample transient: layered under the synth bass;
#X obj 650 1650 r j2_step16;
#X obj 650 1684 sel 0 8;
#X obj 932 1718 tabplay~ j2_808;
#X obj 1054 1718 *~ 0.1;
#X obj 1150 1718 throw~ j2_mix;
#X text 1270 1620 Snare sample: backbeat;
#X obj 1270 1650 r j2_step16;
#X obj 1270 1684 sel 4 12;
#X obj 1552 1718 tabplay~ j2_snare;
#X obj 1674 1718 *~ 0.35;
#X obj 1770 1718 throw~ j2_mix;
#X obj 1674 1752 *~ 0.04;
#X obj 1770 1752 throw~ j2_fx;
#X text 30 1800 Clap sample: slight slap after snare;
#X obj 30 1830 r j2_step16;
#X obj 30 1864 sel 4 12;
#X obj 312 1898 tabplay~ j2_clap;
#X obj 312 1864 delay 16;
#X obj 434 1898 *~ 0.22;
#X obj 530 1898 throw~ j2_mix;
#X obj 434 1932 *~ 0.06;
#X obj 530 1932 throw~ j2_fx;
#X text 650 1800 Closed hat sample: light 8th grid with small skips;
#X obj 650 1830 r j2_step16;
#X obj 650 1864 sel 0 2 4 6 8 10 12 14;
#X obj 932 1898 tabplay~ j2_hat;
#X obj 816 1898 random 100;
#X obj 816 1930 moses 92;
#X obj 932 1930 t b;
#X obj 1054 1898 *~ 0.14;
#X obj 1150 1898 throw~ j2_mix;
#X obj 1054 1932 *~ 0.015;
#X obj 1150 1932 throw~ j2_fx;
#X text 1270 1800 Open hat sample: phrase lift;
#X obj 1270 1830 r j2_step16;
#X obj 1270 1864 sel 14;
#X obj 1552 1898 tabplay~ j2_open_hat;
#X obj 1674 1898 *~ 0.16;
#X obj 1770 1898 throw~ j2_mix;
#X obj 1674 1932 *~ 0.07;
#X obj 1770 1932 throw~ j2_fx;
#X text 30 1980 Cowbell sample A: phonk color \, quiet and syncopated;
#X obj 30 2010 r j2_step16;
#X obj 30 2044 sel 3 11 15;
#X obj 312 2078 tabplay~ j2_cowbell_a;
#X obj 196 2078 random 100;
#X obj 196 2110 moses 64;
#X obj 312 2110 t b;
#X obj 434 2078 *~ 0.1;
#X obj 530 2078 throw~ j2_mix;
#X obj 434 2112 *~ 0.08;
#X obj 530 2112 throw~ j2_fx;
#X text 650 1980 Cowbell sample B: alternate answer;
#X obj 650 2010 r j2_step16;
#X obj 650 2044 sel 7;
#X obj 932 2078 tabplay~ j2_cowbell_b;
#X obj 816 2078 random 100;
#X obj 816 2110 moses 50;
#X obj 932 2110 t b;
#X obj 1054 2078 *~ 0.075;
#X obj 1150 2078 throw~ j2_mix;
#X obj 1054 2112 *~ 0.08;
#X obj 1150 2112 throw~ j2_fx;
#X text 1270 1980 Chime sample: section punctuation;
#X obj 1270 2010 r j2_step16;
#X obj 1270 2044 sel 1 13;
#X obj 1552 2078 tabplay~ j2_chime;
#X obj 1436 2078 random 100;
#X obj 1436 2110 moses 38;
#X obj 1552 2110 t b;
#X obj 1674 2078 *~ 0.055;
#X obj 1770 2078 throw~ j2_mix;
#X obj 1674 2112 *~ 0.13;
#X obj 1770 2112 throw~ j2_fx;
#X text 30 2160 Crash sample: section boundaries;
#X obj 30 2190 r j2_step_global;
#X obj 30 2224 sel 0 256 512 768 1024 1408 1664;
#X obj 312 2258 tabplay~ j2_crash;
#X obj 434 2258 *~ 0.16;
#X obj 530 2258 throw~ j2_mix;
#X obj 434 2292 *~ 0.12;
#X obj 530 2292 throw~ j2_fx;
#X text 30 2440 Delay return: feed-forward only \, no feedback loop;
#X obj 30 2470 catch~ j2_fx;
#X obj 30 2504 delwrite~ j2_delay 1000;
#X obj 282 2470 delread~ j2_delay 312;
#X obj 282 2504 *~ 0.22;
#X obj 282 2540 delread~ j2_delay 625;
#X obj 282 2574 *~ 0.12;
#X obj 412 2540 +~;
#X obj 516 2540 throw~ j2_mix;
#X text 750 2440 Master: bus catch \, cleanup \, clip \, safe attenuation \, stereo dac;
#X obj 750 2470 catch~ j2_mix;
#X obj 750 2504 hip~ 28;
#X obj 850 2504 clip~ -0.9 0.9;
#X obj 966 2504 *~ 0.14;
#X obj 1070 2504 dac~;
#X text 30 2720 Chord scheduler: chart sequence with jazz extensions for the Pd synth voices;
#X obj 30 2750 r j2_step_global;
#X obj 30 2784 sel 0 16 32 48 56 64 80 96 128 144 160 176 184 192 208 224 256 272 288 304 312 320 336 352 384 400 416 432 440 448 464 480 512 528 544 560 568 576 592 608 640 656 672 688 696 704 720 736 768 784 800 816 824 832 848 864 896 912 928 944 952 960 976 992 1024 1040 1056 1072 1088 1104 1120 1136 1152 1168 1184 1200 1216 1232 1248 1264 1280 1296 1312 1328 1336 1344 1360 1376 1408 1424 1440 1456 1464 1472 1488 1504 1536 1552 1568 1584 1592 1600 1616 1632 1664 1680 1696 1712 1720 1728 1744 1760 1792 1808 1824 1840 1848 1856 1872 1888;
#X obj 468 2784 s j2_chord;
#X obj 468 2818 s j2_chord_name;
#X obj 468 2852 s j2_section_name;
#X msg 30 2840 60 64 67 71 74 36;
#X msg 550 2840 symbol Cmaj9;
#X msg 1040 2840 symbol Intro;
#X text 1510 2840 Intro;
#X msg 138 2840 59 63 66 69 72 35;
#X msg 666 2840 symbol B7b9;
#X msg 1190 2840 symbol Intro;
#X msg 246 2840 52 55 59 62 66 40;
#X msg 782 2840 symbol Em9;
#X msg 1340 2840 symbol Intro;
#X msg 354 2840 50 53 57 60 64 38;
#X msg 898 2840 symbol Dm9;
#X msg 1040 2840 symbol Intro;
#X msg 30 2864 55 59 62 65 69 43;
#X msg 550 2864 symbol G13;
#X msg 1190 2864 symbol Intro;
#X msg 138 2864 60 64 67 71 74 36;
#X msg 666 2864 symbol Cmaj9;
#X msg 1340 2864 symbol Intro;
#X msg 246 2864 59 63 66 69 72 35;
#X msg 782 2864 symbol B7b9;
#X msg 1040 2864 symbol Intro;
#X msg 354 2864 52 55 59 62 66 40;
#X msg 898 2864 symbol Em9;
#X msg 1190 2864 symbol Intro;
#X msg 30 2888 60 64 67 71 74 36;
#X msg 550 2888 symbol Cmaj9;
#X msg 1340 2888 symbol Intro;
#X msg 138 2888 59 63 66 69 72 35;
#X msg 666 2888 symbol B7b9;
#X msg 1040 2888 symbol Intro;
#X msg 246 2888 52 55 59 62 66 40;
#X msg 782 2888 symbol Em9;
#X msg 1190 2888 symbol Intro;
#X msg 354 2888 50 53 57 60 64 38;
#X msg 898 2888 symbol Dm9;
#X msg 1340 2888 symbol Intro;
#X msg 30 2912 55 59 62 65 69 43;
#X msg 550 2912 symbol G13;
#X msg 1040 2912 symbol Intro;
#X msg 138 2912 60 64 67 71 74 36;
#X msg 666 2912 symbol Cmaj9;
#X msg 1190 2912 symbol Intro;
#X msg 246 2912 59 63 66 69 72 35;
#X msg 782 2912 symbol B7b9;
#X msg 1340 2912 symbol Intro;
#X msg 354 2912 52 55 59 62 66 40;
#X msg 898 2912 symbol Em9;
#X msg 1040 2912 symbol Intro;
#X msg 30 2936 60 64 67 71 74 36;
#X msg 550 2936 symbol Cmaj9;
#X msg 1190 2936 symbol Verse_1;
#X text 1510 2936 Verse_1;
#X msg 138 2936 59 63 66 69 72 35;
#X msg 666 2936 symbol B7b9;
#X msg 1340 2936 symbol Verse_1;
#X msg 246 2936 52 55 59 62 66 40;
#X msg 782 2936 symbol Em9;
#X msg 1040 2936 symbol Verse_1;
#X msg 354 2936 50 53 57 60 64 38;
#X msg 898 2936 symbol Dm9;
#X msg 1190 2936 symbol Verse_1;
#X msg 30 2960 55 59 62 65 69 43;
#X msg 550 2960 symbol G13;
#X msg 1340 2960 symbol Verse_1;
#X msg 138 2960 60 64 67 71 74 36;
#X msg 666 2960 symbol Cmaj9;
#X msg 1040 2960 symbol Verse_1;
#X msg 246 2960 59 63 66 69 72 35;
#X msg 782 2960 symbol B7b9;
#X msg 1190 2960 symbol Verse_1;
#X msg 354 2960 52 55 59 62 66 40;
#X msg 898 2960 symbol Em9;
#X msg 1340 2960 symbol Verse_1;
#X msg 30 2984 60 64 67 71 74 36;
#X msg 550 2984 symbol Cmaj9;
#X msg 1040 2984 symbol Verse_1;
#X msg 138 2984 59 63 66 69 72 35;
#X msg 666 2984 symbol B7b9;
#X msg 1190 2984 symbol Verse_1;
#X msg 246 2984 52 55 59 62 66 40;
#X msg 782 2984 symbol Em9;
#X msg 1340 2984 symbol Verse_1;
#X msg 354 2984 50 53 57 60 64 38;
#X msg 898 2984 symbol Dm9;
#X msg 1040 2984 symbol Verse_1;
#X msg 30 3008 55 59 62 65 69 43;
#X msg 550 3008 symbol G13;
#X msg 1190 3008 symbol Verse_1;
#X msg 138 3008 60 64 67 71 74 36;
#X msg 666 3008 symbol Cmaj9;
#X msg 1340 3008 symbol Verse_1;
#X msg 246 3008 59 63 66 69 72 35;
#X msg 782 3008 symbol B7b9;
#X msg 1040 3008 symbol Verse_1;
#X msg 354 3008 52 55 59 62 66 40;
#X msg 898 3008 symbol Em9;
#X msg 1190 3008 symbol Verse_1;
#X msg 30 3032 60 64 67 71 74 36;
#X msg 550 3032 symbol Cmaj9;
#X msg 1340 3032 symbol Chorus_1;
#X text 1510 3032 Chorus_1;
#X msg 138 3032 59 63 66 69 72 35;
#X msg 666 3032 symbol B7b9;
#X msg 1040 3032 symbol Chorus_1;
#X msg 246 3032 52 55 59 62 66 40;
#X msg 782 3032 symbol Em9;
#X msg 1190 3032 symbol Chorus_1;
#X msg 354 3032 50 53 57 60 64 38;
#X msg 898 3032 symbol Dm9;
#X msg 1340 3032 symbol Chorus_1;
#X msg 30 3056 55 59 62 65 69 43;
#X msg 550 3056 symbol G13;
#X msg 1040 3056 symbol Chorus_1;
#X msg 138 3056 60 64 67 71 74 36;
#X msg 666 3056 symbol Cmaj9;
#X msg 1190 3056 symbol Chorus_1;
#X msg 246 3056 59 63 66 69 72 35;
#X msg 782 3056 symbol B7b9;
#X msg 1340 3056 symbol Chorus_1;
#X msg 354 3056 52 55 59 62 66 40;
#X msg 898 3056 symbol Em9;
#X msg 1040 3056 symbol Chorus_1;
#X msg 30 3080 60 64 67 71 74 36;
#X msg 550 3080 symbol Cmaj9;
#X msg 1190 3080 symbol Chorus_1;
#X msg 138 3080 59 63 66 69 72 35;
#X msg 666 3080 symbol B7b9;
#X msg 1340 3080 symbol Chorus_1;
#X msg 246 3080 52 55 59 62 66 40;
#X msg 782 3080 symbol Em9;
#X msg 1040 3080 symbol Chorus_1;
#X msg 354 3080 50 53 57 60 64 38;
#X msg 898 3080 symbol Dm9;
#X msg 1190 3080 symbol Chorus_1;
#X msg 30 3104 55 59 62 65 69 43;
#X msg 550 3104 symbol G13;
#X msg 1340 3104 symbol Chorus_1;
#X msg 138 3104 60 64 67 71 74 36;
#X msg 666 3104 symbol Cmaj9;
#X msg 1040 3104 symbol Chorus_1;
#X msg 246 3104 59 63 66 69 72 35;
#X msg 782 3104 symbol B7b9;
#X msg 1190 3104 symbol Chorus_1;
#X msg 354 3104 52 55 59 62 66 40;
#X msg 898 3104 symbol Em9;
#X msg 1340 3104 symbol Chorus_1;
#X msg 30 3128 60 64 67 71 74 36;
#X msg 550 3128 symbol Cmaj9;
#X msg 1040 3128 symbol Verse_2;
#X text 1510 3128 Verse_2;
#X msg 138 3128 59 63 66 69 72 35;
#X msg 666 3128 symbol B7b9;
#X msg 1190 3128 symbol Verse_2;
#X msg 246 3128 52 55 59 62 66 40;
#X msg 782 3128 symbol Em9;
#X msg 1340 3128 symbol Verse_2;
#X msg 354 3128 50 53 57 60 64 38;
#X msg 898 3128 symbol Dm9;
#X msg 1040 3128 symbol Verse_2;
#X msg 30 3152 55 59 62 65 69 43;
#X msg 550 3152 symbol G13;
#X msg 1190 3152 symbol Verse_2;
#X msg 138 3152 60 64 67 71 74 36;
#X msg 666 3152 symbol Cmaj9;
#X msg 1340 3152 symbol Verse_2;
#X msg 246 3152 59 63 66 69 72 35;
#X msg 782 3152 symbol B7b9;
#X msg 1040 3152 symbol Verse_2;
#X msg 354 3152 52 55 59 62 66 40;
#X msg 898 3152 symbol Em9;
#X msg 1190 3152 symbol Verse_2;
#X msg 30 3176 60 64 67 71 74 36;
#X msg 550 3176 symbol Cmaj9;
#X msg 1340 3176 symbol Verse_2;
#X msg 138 3176 59 63 66 69 72 35;
#X msg 666 3176 symbol B7b9;
#X msg 1040 3176 symbol Verse_2;
#X msg 246 3176 52 55 59 62 66 40;
#X msg 782 3176 symbol Em9;
#X msg 1190 3176 symbol Verse_2;
#X msg 354 3176 50 53 57 60 64 38;
#X msg 898 3176 symbol Dm9;
#X msg 1340 3176 symbol Verse_2;
#X msg 30 3200 55 59 62 65 69 43;
#X msg 550 3200 symbol G13;
#X msg 1040 3200 symbol Verse_2;
#X msg 138 3200 60 64 67 71 74 36;
#X msg 666 3200 symbol Cmaj9;
#X msg 1190 3200 symbol Verse_2;
#X msg 246 3200 59 63 66 69 72 35;
#X msg 782 3200 symbol B7b9;
#X msg 1340 3200 symbol Verse_2;
#X msg 354 3200 52 55 59 62 66 40;
#X msg 898 3200 symbol Em9;
#X msg 1040 3200 symbol Verse_2;
#X msg 30 3224 60 64 67 71 74 36;
#X msg 550 3224 symbol Cmaj9;
#X msg 1190 3224 symbol Chromatic_Chorus;
#X text 1510 3224 Chromatic_Chorus;
#X msg 138 3224 59 63 66 69 72 35;
#X msg 666 3224 symbol B7b9;
#X msg 1340 3224 symbol Chromatic_Chorus;
#X msg 246 3224 58 62 65 69 72 46;
#X msg 782 3224 symbol Bbmaj9;
#X msg 1040 3224 symbol Chromatic_Chorus;
#X msg 354 3224 57 61 64 67 70 45;
#X msg 898 3224 symbol A7b9;
#X msg 1190 3224 symbol Chromatic_Chorus;
#X msg 30 3248 56 60 63 67 70 44;
#X msg 550 3248 symbol Gsharp_Abmaj9;
#X msg 1340 3248 symbol Chromatic_Chorus;
#X msg 138 3248 55 59 62 65 69 43;
#X msg 666 3248 symbol G13;
#X msg 1040 3248 symbol Chromatic_Chorus;
#X msg 246 3248 60 64 67 71 74 36;
#X msg 782 3248 symbol Cmaj9;
#X msg 1190 3248 symbol Chromatic_Chorus;
#X msg 354 3248 53 57 60 64 67 41;
#X msg 898 3248 symbol Fmaj9;
#X msg 1340 3248 symbol Chromatic_Chorus;
#X msg 30 3272 60 64 67 71 74 36;
#X msg 550 3272 symbol Cmaj9;
#X msg 1040 3272 symbol Chromatic_Chorus;
#X msg 138 3272 59 63 66 69 72 35;
#X msg 666 3272 symbol B7b9;
#X msg 1190 3272 symbol Chromatic_Chorus;
#X msg 246 3272 58 62 65 69 72 46;
#X msg 782 3272 symbol Bbmaj9;
#X msg 1340 3272 symbol Chromatic_Chorus;
#X msg 354 3272 57 61 64 67 70 45;
#X msg 898 3272 symbol A7b9;
#X msg 1040 3272 symbol Chromatic_Chorus;
#X msg 30 3296 56 60 63 67 70 44;
#X msg 550 3296 symbol Gsharp_Abmaj9;
#X msg 1190 3296 symbol Chromatic_Chorus;
#X msg 138 3296 55 59 62 65 69 43;
#X msg 666 3296 symbol G13;
#X msg 1340 3296 symbol Chromatic_Chorus;
#X msg 246 3296 60 64 67 71 74 36;
#X msg 782 3296 symbol Cmaj9;
#X msg 1040 3296 symbol Chromatic_Chorus;
#X msg 354 3296 53 57 60 64 67 41;
#X msg 898 3296 symbol Fmaj9;
#X msg 1190 3296 symbol Chromatic_Chorus;
#X msg 30 3320 60 64 67 71 74 36;
#X msg 550 3320 symbol Cmaj9;
#X msg 1340 3320 symbol Chromatic_Chorus;
#X msg 138 3320 59 63 66 69 72 35;
#X msg 666 3320 symbol B7b9;
#X msg 1040 3320 symbol Chromatic_Chorus;
#X msg 246 3320 52 55 59 62 66 40;
#X msg 782 3320 symbol Em9;
#X msg 1190 3320 symbol Chromatic_Chorus;
#X msg 354 3320 50 53 57 60 64 38;
#X msg 898 3320 symbol Dm9;
#X msg 1340 3320 symbol Chromatic_Chorus;
#X msg 30 3344 55 59 62 65 69 43;
#X msg 550 3344 symbol G13;
#X msg 1040 3344 symbol Chromatic_Chorus;
#X msg 138 3344 60 64 67 71 74 36;
#X msg 666 3344 symbol Cmaj9;
#X msg 1190 3344 symbol Chromatic_Chorus;
#X msg 246 3344 59 63 66 69 72 35;
#X msg 782 3344 symbol B7b9;
#X msg 1340 3344 symbol Chromatic_Chorus;
#X msg 354 3344 52 55 59 62 66 40;
#X msg 898 3344 symbol Em9;
#X msg 1040 3344 symbol Chromatic_Chorus;
#X msg 30 3368 60 64 67 71 74 36;
#X msg 550 3368 symbol Cmaj9;
#X msg 1190 3368 symbol Verse_3;
#X text 1510 3368 Verse_3;
#X msg 138 3368 59 63 66 69 72 35;
#X msg 666 3368 symbol B7b9;
#X msg 1340 3368 symbol Verse_3;
#X msg 246 3368 52 55 59 62 66 40;
#X msg 782 3368 symbol Em9;
#X msg 1040 3368 symbol Verse_3;
#X msg 354 3368 50 53 57 60 64 38;
#X msg 898 3368 symbol Dm9;
#X msg 1190 3368 symbol Verse_3;
#X msg 30 3392 55 59 62 65 69 43;
#X msg 550 3392 symbol G13;
#X msg 1340 3392 symbol Verse_3;
#X msg 138 3392 60 64 67 71 74 36;
#X msg 666 3392 symbol Cmaj9;
#X msg 1040 3392 symbol Verse_3;
#X msg 246 3392 59 63 66 69 72 35;
#X msg 782 3392 symbol B7b9;
#X msg 1190 3392 symbol Verse_3;
#X msg 354 3392 52 55 59 62 66 40;
#X msg 898 3392 symbol Em9;
#X msg 1340 3392 symbol Verse_3;
#X msg 30 3416 60 64 67 71 74 36;
#X msg 550 3416 symbol Cmaj9;
#X msg 1040 3416 symbol Verse_3;
#X msg 138 3416 59 63 66 69 72 35;
#X msg 666 3416 symbol B7b9;
#X msg 1190 3416 symbol Verse_3;
#X msg 246 3416 52 55 59 62 66 40;
#X msg 782 3416 symbol Em9;
#X msg 1340 3416 symbol Verse_3;
#X msg 354 3416 50 53 57 60 64 38;
#X msg 898 3416 symbol Dm9;
#X msg 1040 3416 symbol Verse_3;
#X msg 30 3440 55 59 62 65 69 43;
#X msg 550 3440 symbol G13;
#X msg 1190 3440 symbol Verse_3;
#X msg 138 3440 60 64 67 71 74 36;
#X msg 666 3440 symbol Cmaj9;
#X msg 1340 3440 symbol Verse_3;
#X msg 246 3440 59 63 66 69 72 35;
#X msg 782 3440 symbol B7b9;
#X msg 1040 3440 symbol Verse_3;
#X msg 354 3440 52 55 59 62 66 40;
#X msg 898 3440 symbol Em9;
#X msg 1190 3440 symbol Verse_3;
#X msg 30 3464 60 64 67 71 74 36;
#X msg 550 3464 symbol Cmaj9;
#X msg 1340 3464 symbol Final_Chorus;
#X text 1510 3464 Final_Chorus;
#X msg 138 3464 59 63 66 69 72 35;
#X msg 666 3464 symbol B7b9;
#X msg 1040 3464 symbol Final_Chorus;
#X msg 246 3464 52 55 59 62 66 40;
#X msg 782 3464 symbol Em9;
#X msg 1190 3464 symbol Final_Chorus;
#X msg 354 3464 50 53 57 60 64 38;
#X msg 898 3464 symbol Dm9;
#X msg 1340 3464 symbol Final_Chorus;
#X msg 30 3488 55 59 62 65 69 43;
#X msg 550 3488 symbol G13;
#X msg 1040 3488 symbol Final_Chorus;
#X msg 138 3488 60 64 67 71 74 36;
#X msg 666 3488 symbol Cmaj9;
#X msg 1190 3488 symbol Final_Chorus;
#X msg 246 3488 59 63 66 69 72 35;
#X msg 782 3488 symbol B7b9;
#X msg 1340 3488 symbol Final_Chorus;
#X msg 354 3488 52 55 59 62 66 40;
#X msg 898 3488 symbol Em9;
#X msg 1040 3488 symbol Final_Chorus;
#X msg 30 3512 60 64 67 71 74 36;
#X msg 550 3512 symbol Cmaj9;
#X msg 1190 3512 symbol Final_Chorus;
#X msg 138 3512 59 63 66 69 72 35;
#X msg 666 3512 symbol B7b9;
#X msg 1340 3512 symbol Final_Chorus;
#X msg 246 3512 52 55 59 62 66 40;
#X msg 782 3512 symbol Em9;
#X msg 1040 3512 symbol Final_Chorus;
#X msg 354 3512 50 53 57 60 64 38;
#X msg 898 3512 symbol Dm9;
#X msg 1190 3512 symbol Final_Chorus;
#X msg 30 3536 55 59 62 65 69 43;
#X msg 550 3536 symbol G13;
#X msg 1340 3536 symbol Final_Chorus;
#X msg 138 3536 60 64 67 71 74 36;
#X msg 666 3536 symbol Cmaj9;
#X msg 1040 3536 symbol Final_Chorus;
#X msg 246 3536 59 63 66 69 72 35;
#X msg 782 3536 symbol B7b9;
#X msg 1190 3536 symbol Final_Chorus;
#X msg 354 3536 52 55 59 62 66 40;
#X msg 898 3536 symbol Em9;
#X msg 1340 3536 symbol Final_Chorus;
#X obj 740 674 *~ 1.36;
#X obj 740 708 *~ 1.16;
#X connect 4 0 5 0;
#X connect 4 0 6 0;
#X connect 4 0 23 0;
#X connect 4 0 26 0;
#X connect 4 0 29 0;
#X connect 4 0 32 0;
#X connect 4 0 35 0;
#X connect 4 0 38 0;
#X connect 4 0 41 0;
#X connect 4 0 44 0;
#X connect 4 0 47 0;
#X connect 4 0 50 0;
#X connect 4 0 53 0;
#X connect 6 0 8 0;
#X connect 7 0 8 0;
#X connect 8 0 9 0;
#X connect 9 0 12 0;
#X connect 9 0 13 0;
#X connect 9 0 15 0;
#X connect 9 0 10 0;
#X connect 10 0 11 0;
#X connect 11 0 9 1;
#X connect 13 0 14 0;
#X connect 23 0 22 0;
#X connect 26 0 22 0;
#X connect 29 0 22 0;
#X connect 32 0 22 0;
#X connect 35 0 22 0;
#X connect 38 0 22 0;
#X connect 41 0 22 0;
#X connect 44 0 22 0;
#X connect 47 0 22 0;
#X connect 50 0 22 0;
#X connect 53 0 22 0;
#X connect 57 0 58 0;
#X connect 58 5 59 0;
#X connect 58 5 60 0;
#X connect 60 0 63 0;
#X connect 60 0 68 0;
#X connect 60 1 63 0;
#X connect 60 1 69 0;
#X connect 60 2 63 0;
#X connect 60 2 70 0;
#X connect 60 3 63 0;
#X connect 60 3 71 0;
#X connect 60 4 63 0;
#X connect 60 4 72 0;
#X connect 60 5 63 0;
#X connect 60 5 73 0;
#X connect 60 6 63 0;
#X connect 60 6 74 0;
#X connect 60 7 63 0;
#X connect 60 7 75 0;
#X connect 60 8 63 0;
#X connect 60 8 76 0;
#X connect 61 0 62 0;
#X connect 62 0 65 0;
#X connect 63 0 64 0;
#X connect 64 0 65 1;
#X connect 65 0 66 0;
#X connect 66 0 67 0;
#X connect 67 0 614 0;
#X connect 67 0 615 0;
#X connect 68 0 61 0;
#X connect 69 0 61 0;
#X connect 70 0 61 0;
#X connect 71 0 61 0;
#X connect 72 0 61 0;
#X connect 73 0 61 0;
#X connect 74 0 61 0;
#X connect 75 0 61 0;
#X connect 76 0 61 0;
#X connect 80 0 81 1;
#X connect 80 0 82 0;
#X connect 80 0 84 0;
#X connect 81 0 90 0;
#X connect 82 0 83 1;
#X connect 83 0 90 0;
#X connect 84 0 85 1;
#X connect 85 0 90 0;
#X connect 86 0 87 0;
#X connect 86 0 88 0;
#X connect 86 0 89 0;
#X connect 87 0 81 0;
#X connect 87 0 100 0;
#X connect 87 1 81 0;
#X connect 87 1 100 0;
#X connect 88 0 85 0;
#X connect 88 0 100 0;
#X connect 88 1 85 0;
#X connect 88 1 100 0;
#X connect 89 0 83 0;
#X connect 89 0 100 0;
#X connect 90 0 91 0;
#X connect 91 0 92 0;
#X connect 92 0 93 0;
#X connect 92 0 94 0;
#X connect 93 0 97 0;
#X connect 94 0 95 0;
#X connect 95 0 96 0;
#X connect 96 0 98 0;
#X connect 97 0 99 0;
#X connect 98 0 99 1;
#X connect 99 0 102 0;
#X connect 100 0 101 0;
#X connect 101 0 102 1;
#X connect 102 0 103 0;
#X connect 103 0 104 0;
#X connect 103 0 106 0;
#X connect 104 0 105 0;
#X connect 106 0 107 0;
#X connect 110 0 111 1;
#X connect 110 1 112 1;
#X connect 110 2 113 1;
#X connect 110 3 114 1;
#X connect 110 4 115 1;
#X connect 112 0 118 0;
#X connect 113 0 118 0;
#X connect 114 0 118 0;
#X connect 115 0 118 0;
#X connect 117 0 112 0;
#X connect 117 0 129 0;
#X connect 117 1 114 0;
#X connect 117 1 129 0;
#X connect 117 2 115 0;
#X connect 117 2 129 0;
#X connect 117 3 113 0;
#X connect 117 3 129 0;
#X connect 118 0 119 0;
#X connect 119 0 120 0;
#X connect 120 0 121 0;
#X connect 120 0 122 0;
#X connect 121 0 125 0;
#X connect 122 0 123 0;
#X connect 123 0 124 0;
#X connect 124 0 126 1;
#X connect 125 0 126 0;
#X connect 126 0 127 0;
#X connect 127 0 128 0;
#X connect 128 0 131 0;
#X connect 129 0 130 0;
#X connect 130 0 131 1;
#X connect 131 0 132 0;
#X connect 131 0 134 0;
#X connect 132 0 133 0;
#X connect 134 0 135 0;
#X connect 138 0 139 0;
#X connect 139 0 140 0;
#X connect 139 1 140 0;
#X connect 139 2 140 0;
#X connect 139 3 140 0;
#X connect 140 0 141 0;
#X connect 141 0 142 0;
#X connect 144 0 145 0;
#X connect 145 0 146 0;
#X connect 145 1 146 0;
#X connect 146 0 147 0;
#X connect 147 0 148 0;
#X connect 150 0 151 0;
#X connect 151 0 152 0;
#X connect 151 1 152 0;
#X connect 152 0 153 0;
#X connect 152 0 155 0;
#X connect 153 0 154 0;
#X connect 155 0 156 0;
#X connect 158 0 159 0;
#X connect 159 0 161 0;
#X connect 159 1 161 0;
#X connect 160 0 162 0;
#X connect 160 0 164 0;
#X connect 161 0 160 0;
#X connect 162 0 163 0;
#X connect 164 0 165 0;
#X connect 167 0 168 0;
#X connect 168 0 170 0;
#X connect 168 1 170 0;
#X connect 168 2 170 0;
#X connect 168 3 170 0;
#X connect 168 4 170 0;
#X connect 168 5 170 0;
#X connect 168 6 170 0;
#X connect 168 7 170 0;
#X connect 169 0 173 0;
#X connect 169 0 175 0;
#X connect 170 0 171 0;
#X connect 171 0 172 0;
#X connect 172 0 169 0;
#X connect 173 0 174 0;
#X connect 175 0 176 0;
#X connect 178 0 179 0;
#X connect 179 0 180 0;
#X connect 180 0 181 0;
#X connect 180 0 183 0;
#X connect 181 0 182 0;
#X connect 183 0 184 0;
#X connect 186 0 187 0;
#X connect 187 0 189 0;
#X connect 187 1 189 0;
#X connect 187 2 189 0;
#X connect 188 0 192 0;
#X connect 188 0 194 0;
#X connect 189 0 190 0;
#X connect 190 0 191 0;
#X connect 191 0 188 0;
#X connect 192 0 193 0;
#X connect 194 0 195 0;
#X connect 197 0 198 0;
#X connect 198 0 200 0;
#X connect 199 0 203 0;
#X connect 199 0 205 0;
#X connect 200 0 201 0;
#X connect 201 0 202 0;
#X connect 202 0 199 0;
#X connect 203 0 204 0;
#X connect 205 0 206 0;
#X connect 208 0 209 0;
#X connect 209 0 211 0;
#X connect 209 1 211 0;
#X connect 210 0 214 0;
#X connect 210 0 216 0;
#X connect 211 0 212 0;
#X connect 212 0 213 0;
#X connect 213 0 210 0;
#X connect 214 0 215 0;
#X connect 216 0 217 0;
#X connect 219 0 220 0;
#X connect 220 0 221 0;
#X connect 220 1 221 0;
#X connect 220 2 221 0;
#X connect 220 3 221 0;
#X connect 220 4 221 0;
#X connect 220 5 221 0;
#X connect 220 6 221 0;
#X connect 221 0 222 0;
#X connect 221 0 224 0;
#X connect 222 0 223 0;
#X connect 224 0 225 0;
#X connect 227 0 228 0;
#X connect 229 0 230 0;
#X connect 230 0 233 0;
#X connect 231 0 232 0;
#X connect 232 0 233 1;
#X connect 233 0 234 0;
#X connect 236 0 237 0;
#X connect 237 0 238 0;
#X connect 238 0 239 0;
#X connect 239 0 240 0;
#X connect 239 0 240 1;
#X connect 242 0 243 0;
#X connect 243 0 247 0;
#X connect 243 0 248 0;
#X connect 243 0 249 0;
#X connect 243 1 251 0;
#X connect 243 1 252 0;
#X connect 243 1 253 0;
#X connect 243 2 254 0;
#X connect 243 2 255 0;
#X connect 243 2 256 0;
#X connect 243 3 257 0;
#X connect 243 3 258 0;
#X connect 243 3 259 0;
#X connect 243 4 260 0;
#X connect 243 4 261 0;
#X connect 243 4 262 0;
#X connect 243 5 263 0;
#X connect 243 5 264 0;
#X connect 243 5 265 0;
#X connect 243 6 266 0;
#X connect 243 6 267 0;
#X connect 243 6 268 0;
#X connect 243 7 269 0;
#X connect 243 7 270 0;
#X connect 243 7 271 0;
#X connect 243 8 272 0;
#X connect 243 8 273 0;
#X connect 243 8 274 0;
#X connect 243 9 275 0;
#X connect 243 9 276 0;
#X connect 243 9 277 0;
#X connect 243 10 278 0;
#X connect 243 10 279 0;
#X connect 243 10 280 0;
#X connect 243 11 281 0;
#X connect 243 11 282 0;
#X connect 243 11 283 0;
#X connect 243 12 284 0;
#X connect 243 12 285 0;
#X connect 243 12 286 0;
#X connect 243 13 287 0;
#X connect 243 13 288 0;
#X connect 243 13 289 0;
#X connect 243 14 290 0;
#X connect 243 14 291 0;
#X connect 243 14 292 0;
#X connect 243 15 293 0;
#X connect 243 15 294 0;
#X connect 243 15 295 0;
#X connect 243 16 296 0;
#X connect 243 16 297 0;
#X connect 243 16 298 0;
#X connect 243 17 300 0;
#X connect 243 17 301 0;
#X connect 243 17 302 0;
#X connect 243 18 303 0;
#X connect 243 18 304 0;
#X connect 243 18 305 0;
#X connect 243 19 306 0;
#X connect 243 19 307 0;
#X connect 243 19 308 0;
#X connect 243 20 309 0;
#X connect 243 20 310 0;
#X connect 243 20 311 0;
#X connect 243 21 312 0;
#X connect 243 21 313 0;
#X connect 243 21 314 0;
#X connect 243 22 315 0;
#X connect 243 22 316 0;
#X connect 243 22 317 0;
#X connect 243 23 318 0;
#X connect 243 23 319 0;
#X connect 243 23 320 0;
#X connect 243 24 321 0;
#X connect 243 24 322 0;
#X connect 243 24 323 0;
#X connect 243 25 324 0;
#X connect 243 25 325 0;
#X connect 243 25 326 0;
#X connect 243 26 327 0;
#X connect 243 26 328 0;
#X connect 243 26 329 0;
#X connect 243 27 330 0;
#X connect 243 27 331 0;
#X connect 243 27 332 0;
#X connect 243 28 333 0;
#X connect 243 28 334 0;
#X connect 243 28 335 0;
#X connect 243 29 336 0;
#X connect 243 29 337 0;
#X connect 243 29 338 0;
#X connect 243 30 339 0;
#X connect 243 30 340 0;
#X connect 243 30 341 0;
#X connect 243 31 342 0;
#X connect 243 31 343 0;
#X connect 243 31 344 0;
#X connect 243 32 345 0;
#X connect 243 32 346 0;
#X connect 243 32 347 0;
#X connect 243 33 349 0;
#X connect 243 33 350 0;
#X connect 243 33 351 0;
#X connect 243 34 352 0;
#X connect 243 34 353 0;
#X connect 243 34 354 0;
#X connect 243 35 355 0;
#X connect 243 35 356 0;
#X connect 243 35 357 0;
#X connect 243 36 358 0;
#X connect 243 36 359 0;
#X connect 243 36 360 0;
#X connect 243 37 361 0;
#X connect 243 37 362 0;
#X connect 243 37 363 0;
#X connect 243 38 364 0;
#X connect 243 38 365 0;
#X connect 243 38 366 0;
#X connect 243 39 367 0;
#X connect 243 39 368 0;
#X connect 243 39 369 0;
#X connect 243 40 370 0;
#X connect 243 40 371 0;
#X connect 243 40 372 0;
#X connect 243 41 373 0;
#X connect 243 41 374 0;
#X connect 243 41 375 0;
#X connect 243 42 376 0;
#X connect 243 42 377 0;
#X connect 243 42 378 0;
#X connect 243 43 379 0;
#X connect 243 43 380 0;
#X connect 243 43 381 0;
#X connect 243 44 382 0;
#X connect 243 44 383 0;
#X connect 243 44 384 0;
#X connect 243 45 385 0;
#X connect 243 45 386 0;
#X connect 243 45 387 0;
#X connect 243 46 388 0;
#X connect 243 46 389 0;
#X connect 243 46 390 0;
#X connect 243 47 391 0;
#X connect 243 47 392 0;
#X connect 243 47 393 0;
#X connect 243 48 394 0;
#X connect 243 48 395 0;
#X connect 243 48 396 0;
#X connect 243 49 398 0;
#X connect 243 49 399 0;
#X connect 243 49 400 0;
#X connect 243 50 401 0;
#X connect 243 50 402 0;
#X connect 243 50 403 0;
#X connect 243 51 404 0;
#X connect 243 51 405 0;
#X connect 243 51 406 0;
#X connect 243 52 407 0;
#X connect 243 52 408 0;
#X connect 243 52 409 0;
#X connect 243 53 410 0;
#X connect 243 53 411 0;
#X connect 243 53 412 0;
#X connect 243 54 413 0;
#X connect 243 54 414 0;
#X connect 243 54 415 0;
#X connect 243 55 416 0;
#X connect 243 55 417 0;
#X connect 243 55 418 0;
#X connect 243 56 419 0;
#X connect 243 56 420 0;
#X connect 243 56 421 0;
#X connect 243 57 422 0;
#X connect 243 57 423 0;
#X connect 243 57 424 0;
#X connect 243 58 425 0;
#X connect 243 58 426 0;
#X connect 243 58 427 0;
#X connect 243 59 428 0;
#X connect 243 59 429 0;
#X connect 243 59 430 0;
#X connect 243 60 431 0;
#X connect 243 60 432 0;
#X connect 243 60 433 0;
#X connect 243 61 434 0;
#X connect 243 61 435 0;
#X connect 243 61 436 0;
#X connect 243 62 437 0;
#X connect 243 62 438 0;
#X connect 243 62 439 0;
#X connect 243 63 440 0;
#X connect 243 63 441 0;
#X connect 243 63 442 0;
#X connect 243 64 443 0;
#X connect 243 64 444 0;
#X connect 243 64 445 0;
#X connect 243 65 447 0;
#X connect 243 65 448 0;
#X connect 243 65 449 0;
#X connect 243 66 450 0;
#X connect 243 66 451 0;
#X connect 243 66 452 0;
#X connect 243 67 453 0;
#X connect 243 67 454 0;
#X connect 243 67 455 0;
#X connect 243 68 456 0;
#X connect 243 68 457 0;
#X connect 243 68 458 0;
#X connect 243 69 459 0;
#X connect 243 69 460 0;
#X connect 243 69 461 0;
#X connect 243 70 462 0;
#X connect 243 70 463 0;
#X connect 243 70 464 0;
#X connect 243 71 465 0;
#X connect 243 71 466 0;
#X connect 243 71 467 0;
#X connect 243 72 468 0;
#X connect 243 72 469 0;
#X connect 243 72 470 0;
#X connect 243 73 471 0;
#X connect 243 73 472 0;
#X connect 243 73 473 0;
#X connect 243 74 474 0;
#X connect 243 74 475 0;
#X connect 243 74 476 0;
#X connect 243 75 477 0;
#X connect 243 75 478 0;
#X connect 243 75 479 0;
#X connect 243 76 480 0;
#X connect 243 76 481 0;
#X connect 243 76 482 0;
#X connect 243 77 483 0;
#X connect 243 77 484 0;
#X connect 243 77 485 0;
#X connect 243 78 486 0;
#X connect 243 78 487 0;
#X connect 243 78 488 0;
#X connect 243 79 489 0;
#X connect 243 79 490 0;
#X connect 243 79 491 0;
#X connect 243 80 492 0;
#X connect 243 80 493 0;
#X connect 243 80 494 0;
#X connect 243 81 495 0;
#X connect 243 81 496 0;
#X connect 243 81 497 0;
#X connect 243 82 498 0;
#X connect 243 82 499 0;
#X connect 243 82 500 0;
#X connect 243 83 501 0;
#X connect 243 83 502 0;
#X connect 243 83 503 0;
#X connect 243 84 504 0;
#X connect 243 84 505 0;
#X connect 243 84 506 0;
#X connect 243 85 507 0;
#X connect 243 85 508 0;
#X connect 243 85 509 0;
#X connect 243 86 510 0;
#X connect 243 86 511 0;
#X connect 243 86 512 0;
#X connect 243 87 513 0;
#X connect 243 87 514 0;
#X connect 243 87 515 0;
#X connect 243 88 516 0;
#X connect 243 88 517 0;
#X connect 243 88 518 0;
#X connect 243 89 520 0;
#X connect 243 89 521 0;
#X connect 243 89 522 0;
#X connect 243 90 523 0;
#X connect 243 90 524 0;
#X connect 243 90 525 0;
#X connect 243 91 526 0;
#X connect 243 91 527 0;
#X connect 243 91 528 0;
#X connect 243 92 529 0;
#X connect 243 92 530 0;
#X connect 243 92 531 0;
#X connect 243 93 532 0;
#X connect 243 93 533 0;
#X connect 243 93 534 0;
#X connect 243 94 535 0;
#X connect 243 94 536 0;
#X connect 243 94 537 0;
#X connect 243 95 538 0;
#X connect 243 95 539 0;
#X connect 243 95 540 0;
#X connect 243 96 541 0;
#X connect 243 96 542 0;
#X connect 243 96 543 0;
#X connect 243 97 544 0;
#X connect 243 97 545 0;
#X connect 243 97 546 0;
#X connect 243 98 547 0;
#X connect 243 98 548 0;
#X connect 243 98 549 0;
#X connect 243 99 550 0;
#X connect 243 99 551 0;
#X connect 243 99 552 0;
#X connect 243 100 553 0;
#X connect 243 100 554 0;
#X connect 243 100 555 0;
#X connect 243 101 556 0;
#X connect 243 101 557 0;
#X connect 243 101 558 0;
#X connect 243 102 559 0;
#X connect 243 102 560 0;
#X connect 243 102 561 0;
#X connect 243 103 562 0;
#X connect 243 103 563 0;
#X connect 243 103 564 0;
#X connect 243 104 565 0;
#X connect 243 104 566 0;
#X connect 243 104 567 0;
#X connect 243 105 569 0;
#X connect 243 105 570 0;
#X connect 243 105 571 0;
#X connect 243 106 572 0;
#X connect 243 106 573 0;
#X connect 243 106 574 0;
#X connect 243 107 575 0;
#X connect 243 107 576 0;
#X connect 243 107 577 0;
#X connect 243 108 578 0;
#X connect 243 108 579 0;
#X connect 243 108 580 0;
#X connect 243 109 581 0;
#X connect 243 109 582 0;
#X connect 243 109 583 0;
#X connect 243 110 584 0;
#X connect 243 110 585 0;
#X connect 243 110 586 0;
#X connect 243 111 587 0;
#X connect 243 111 588 0;
#X connect 243 111 589 0;
#X connect 243 112 590 0;
#X connect 243 112 591 0;
#X connect 243 112 592 0;
#X connect 243 113 593 0;
#X connect 243 113 594 0;
#X connect 243 113 595 0;
#X connect 243 114 596 0;
#X connect 243 114 597 0;
#X connect 243 114 598 0;
#X connect 243 115 599 0;
#X connect 243 115 600 0;
#X connect 243 115 601 0;
#X connect 243 116 602 0;
#X connect 243 116 603 0;
#X connect 243 116 604 0;
#X connect 243 117 605 0;
#X connect 243 117 606 0;
#X connect 243 117 607 0;
#X connect 243 118 608 0;
#X connect 243 118 609 0;
#X connect 243 118 610 0;
#X connect 243 119 611 0;
#X connect 243 119 612 0;
#X connect 243 119 613 0;
#X connect 247 0 244 0;
#X connect 248 0 245 0;
#X connect 249 0 246 0;
#X connect 251 0 244 0;
#X connect 252 0 245 0;
#X connect 253 0 246 0;
#X connect 254 0 244 0;
#X connect 255 0 245 0;
#X connect 256 0 246 0;
#X connect 257 0 244 0;
#X connect 258 0 245 0;
#X connect 259 0 246 0;
#X connect 260 0 244 0;
#X connect 261 0 245 0;
#X connect 262 0 246 0;
#X connect 263 0 244 0;
#X connect 264 0 245 0;
#X connect 265 0 246 0;
#X connect 266 0 244 0;
#X connect 267 0 245 0;
#X connect 268 0 246 0;
#X connect 269 0 244 0;
#X connect 270 0 245 0;
#X connect 271 0 246 0;
#X connect 272 0 244 0;
#X connect 273 0 245 0;
#X connect 274 0 246 0;
#X connect 275 0 244 0;
#X connect 276 0 245 0;
#X connect 277 0 246 0;
#X connect 278 0 244 0;
#X connect 279 0 245 0;
#X connect 280 0 246 0;
#X connect 281 0 244 0;
#X connect 282 0 245 0;
#X connect 283 0 246 0;
#X connect 284 0 244 0;
#X connect 285 0 245 0;
#X connect 286 0 246 0;
#X connect 287 0 244 0;
#X connect 288 0 245 0;
#X connect 289 0 246 0;
#X connect 290 0 244 0;
#X connect 291 0 245 0;
#X connect 292 0 246 0;
#X connect 293 0 244 0;
#X connect 294 0 245 0;
#X connect 295 0 246 0;
#X connect 296 0 244 0;
#X connect 297 0 245 0;
#X connect 298 0 246 0;
#X connect 300 0 244 0;
#X connect 301 0 245 0;
#X connect 302 0 246 0;
#X connect 303 0 244 0;
#X connect 304 0 245 0;
#X connect 305 0 246 0;
#X connect 306 0 244 0;
#X connect 307 0 245 0;
#X connect 308 0 246 0;
#X connect 309 0 244 0;
#X connect 310 0 245 0;
#X connect 311 0 246 0;
#X connect 312 0 244 0;
#X connect 313 0 245 0;
#X connect 314 0 246 0;
#X connect 315 0 244 0;
#X connect 316 0 245 0;
#X connect 317 0 246 0;
#X connect 318 0 244 0;
#X connect 319 0 245 0;
#X connect 320 0 246 0;
#X connect 321 0 244 0;
#X connect 322 0 245 0;
#X connect 323 0 246 0;
#X connect 324 0 244 0;
#X connect 325 0 245 0;
#X connect 326 0 246 0;
#X connect 327 0 244 0;
#X connect 328 0 245 0;
#X connect 329 0 246 0;
#X connect 330 0 244 0;
#X connect 331 0 245 0;
#X connect 332 0 246 0;
#X connect 333 0 244 0;
#X connect 334 0 245 0;
#X connect 335 0 246 0;
#X connect 336 0 244 0;
#X connect 337 0 245 0;
#X connect 338 0 246 0;
#X connect 339 0 244 0;
#X connect 340 0 245 0;
#X connect 341 0 246 0;
#X connect 342 0 244 0;
#X connect 343 0 245 0;
#X connect 344 0 246 0;
#X connect 345 0 244 0;
#X connect 346 0 245 0;
#X connect 347 0 246 0;
#X connect 349 0 244 0;
#X connect 350 0 245 0;
#X connect 351 0 246 0;
#X connect 352 0 244 0;
#X connect 353 0 245 0;
#X connect 354 0 246 0;
#X connect 355 0 244 0;
#X connect 356 0 245 0;
#X connect 357 0 246 0;
#X connect 358 0 244 0;
#X connect 359 0 245 0;
#X connect 360 0 246 0;
#X connect 361 0 244 0;
#X connect 362 0 245 0;
#X connect 363 0 246 0;
#X connect 364 0 244 0;
#X connect 365 0 245 0;
#X connect 366 0 246 0;
#X connect 367 0 244 0;
#X connect 368 0 245 0;
#X connect 369 0 246 0;
#X connect 370 0 244 0;
#X connect 371 0 245 0;
#X connect 372 0 246 0;
#X connect 373 0 244 0;
#X connect 374 0 245 0;
#X connect 375 0 246 0;
#X connect 376 0 244 0;
#X connect 377 0 245 0;
#X connect 378 0 246 0;
#X connect 379 0 244 0;
#X connect 380 0 245 0;
#X connect 381 0 246 0;
#X connect 382 0 244 0;
#X connect 383 0 245 0;
#X connect 384 0 246 0;
#X connect 385 0 244 0;
#X connect 386 0 245 0;
#X connect 387 0 246 0;
#X connect 388 0 244 0;
#X connect 389 0 245 0;
#X connect 390 0 246 0;
#X connect 391 0 244 0;
#X connect 392 0 245 0;
#X connect 393 0 246 0;
#X connect 394 0 244 0;
#X connect 395 0 245 0;
#X connect 396 0 246 0;
#X connect 398 0 244 0;
#X connect 399 0 245 0;
#X connect 400 0 246 0;
#X connect 401 0 244 0;
#X connect 402 0 245 0;
#X connect 403 0 246 0;
#X connect 404 0 244 0;
#X connect 405 0 245 0;
#X connect 406 0 246 0;
#X connect 407 0 244 0;
#X connect 408 0 245 0;
#X connect 409 0 246 0;
#X connect 410 0 244 0;
#X connect 411 0 245 0;
#X connect 412 0 246 0;
#X connect 413 0 244 0;
#X connect 414 0 245 0;
#X connect 415 0 246 0;
#X connect 416 0 244 0;
#X connect 417 0 245 0;
#X connect 418 0 246 0;
#X connect 419 0 244 0;
#X connect 420 0 245 0;
#X connect 421 0 246 0;
#X connect 422 0 244 0;
#X connect 423 0 245 0;
#X connect 424 0 246 0;
#X connect 425 0 244 0;
#X connect 426 0 245 0;
#X connect 427 0 246 0;
#X connect 428 0 244 0;
#X connect 429 0 245 0;
#X connect 430 0 246 0;
#X connect 431 0 244 0;
#X connect 432 0 245 0;
#X connect 433 0 246 0;
#X connect 434 0 244 0;
#X connect 435 0 245 0;
#X connect 436 0 246 0;
#X connect 437 0 244 0;
#X connect 438 0 245 0;
#X connect 439 0 246 0;
#X connect 440 0 244 0;
#X connect 441 0 245 0;
#X connect 442 0 246 0;
#X connect 443 0 244 0;
#X connect 444 0 245 0;
#X connect 445 0 246 0;
#X connect 447 0 244 0;
#X connect 448 0 245 0;
#X connect 449 0 246 0;
#X connect 450 0 244 0;
#X connect 451 0 245 0;
#X connect 452 0 246 0;
#X connect 453 0 244 0;
#X connect 454 0 245 0;
#X connect 455 0 246 0;
#X connect 456 0 244 0;
#X connect 457 0 245 0;
#X connect 458 0 246 0;
#X connect 459 0 244 0;
#X connect 460 0 245 0;
#X connect 461 0 246 0;
#X connect 462 0 244 0;
#X connect 463 0 245 0;
#X connect 464 0 246 0;
#X connect 465 0 244 0;
#X connect 466 0 245 0;
#X connect 467 0 246 0;
#X connect 468 0 244 0;
#X connect 469 0 245 0;
#X connect 470 0 246 0;
#X connect 471 0 244 0;
#X connect 472 0 245 0;
#X connect 473 0 246 0;
#X connect 474 0 244 0;
#X connect 475 0 245 0;
#X connect 476 0 246 0;
#X connect 477 0 244 0;
#X connect 478 0 245 0;
#X connect 479 0 246 0;
#X connect 480 0 244 0;
#X connect 481 0 245 0;
#X connect 482 0 246 0;
#X connect 483 0 244 0;
#X connect 484 0 245 0;
#X connect 485 0 246 0;
#X connect 486 0 244 0;
#X connect 487 0 245 0;
#X connect 488 0 246 0;
#X connect 489 0 244 0;
#X connect 490 0 245 0;
#X connect 491 0 246 0;
#X connect 492 0 244 0;
#X connect 493 0 245 0;
#X connect 494 0 246 0;
#X connect 495 0 244 0;
#X connect 496 0 245 0;
#X connect 497 0 246 0;
#X connect 498 0 244 0;
#X connect 499 0 245 0;
#X connect 500 0 246 0;
#X connect 501 0 244 0;
#X connect 502 0 245 0;
#X connect 503 0 246 0;
#X connect 504 0 244 0;
#X connect 505 0 245 0;
#X connect 506 0 246 0;
#X connect 507 0 244 0;
#X connect 508 0 245 0;
#X connect 509 0 246 0;
#X connect 510 0 244 0;
#X connect 511 0 245 0;
#X connect 512 0 246 0;
#X connect 513 0 244 0;
#X connect 514 0 245 0;
#X connect 515 0 246 0;
#X connect 516 0 244 0;
#X connect 517 0 245 0;
#X connect 518 0 246 0;
#X connect 520 0 244 0;
#X connect 521 0 245 0;
#X connect 522 0 246 0;
#X connect 523 0 244 0;
#X connect 524 0 245 0;
#X connect 525 0 246 0;
#X connect 526 0 244 0;
#X connect 527 0 245 0;
#X connect 528 0 246 0;
#X connect 529 0 244 0;
#X connect 530 0 245 0;
#X connect 531 0 246 0;
#X connect 532 0 244 0;
#X connect 533 0 245 0;
#X connect 534 0 246 0;
#X connect 535 0 244 0;
#X connect 536 0 245 0;
#X connect 537 0 246 0;
#X connect 538 0 244 0;
#X connect 539 0 245 0;
#X connect 540 0 246 0;
#X connect 541 0 244 0;
#X connect 542 0 245 0;
#X connect 543 0 246 0;
#X connect 544 0 244 0;
#X connect 545 0 245 0;
#X connect 546 0 246 0;
#X connect 547 0 244 0;
#X connect 548 0 245 0;
#X connect 549 0 246 0;
#X connect 550 0 244 0;
#X connect 551 0 245 0;
#X connect 552 0 246 0;
#X connect 553 0 244 0;
#X connect 554 0 245 0;
#X connect 555 0 246 0;
#X connect 556 0 244 0;
#X connect 557 0 245 0;
#X connect 558 0 246 0;
#X connect 559 0 244 0;
#X connect 560 0 245 0;
#X connect 561 0 246 0;
#X connect 562 0 244 0;
#X connect 563 0 245 0;
#X connect 564 0 246 0;
#X connect 565 0 244 0;
#X connect 566 0 245 0;
#X connect 567 0 246 0;
#X connect 569 0 244 0;
#X connect 570 0 245 0;
#X connect 571 0 246 0;
#X connect 572 0 244 0;
#X connect 573 0 245 0;
#X connect 574 0 246 0;
#X connect 575 0 244 0;
#X connect 576 0 245 0;
#X connect 577 0 246 0;
#X connect 578 0 244 0;
#X connect 579 0 245 0;
#X connect 580 0 246 0;
#X connect 581 0 244 0;
#X connect 582 0 245 0;
#X connect 583 0 246 0;
#X connect 584 0 244 0;
#X connect 585 0 245 0;
#X connect 586 0 246 0;
#X connect 587 0 244 0;
#X connect 588 0 245 0;
#X connect 589 0 246 0;
#X connect 590 0 244 0;
#X connect 591 0 245 0;
#X connect 592 0 246 0;
#X connect 593 0 244 0;
#X connect 594 0 245 0;
#X connect 595 0 246 0;
#X connect 596 0 244 0;
#X connect 597 0 245 0;
#X connect 598 0 246 0;
#X connect 599 0 244 0;
#X connect 600 0 245 0;
#X connect 601 0 246 0;
#X connect 602 0 244 0;
#X connect 603 0 245 0;
#X connect 604 0 246 0;
#X connect 605 0 244 0;
#X connect 606 0 245 0;
#X connect 607 0 246 0;
#X connect 608 0 244 0;
#X connect 609 0 245 0;
#X connect 610 0 246 0;
#X connect 611 0 244 0;
#X connect 612 0 245 0;
#X connect 613 0 246 0;
#X connect 614 0 77 0;
#X connect 615 0 78 0;
