#N canvas 120 45 1240 980 12;
#X msg 446 86 \; pd dsp 1;
#X obj 72 86 bng 30 250 50 0 empty empty START 38 15 0 12 #fcfcfc #000000 #000000;
#X obj 212 86 bng 30 250 50 0 empty empty STOP 38 15 0 12 #fcfcfc #000000 #000000;
#X obj 72 142 t b b b b b b;
#X msg 166 186 1;
#X msg 212 186 0;
#X obj 166 232 metro 3300;
#X obj 304 232 metro 8500;
#X obj 60 316 noise~;
#X obj 60 355 lop~ 700;
#X obj 60 394 hip~ 90;
#X obj 60 433 *~ 0.045;
#X obj 60 472 throw~ \$0-mix;
#X obj 214 316 osc~ 110;
#X obj 304 316 osc~ 146.83;
#X obj 408 316 osc~ 196;
#X obj 214 355 *~ 0.065;
#X obj 304 355 *~ 0.045;
#X obj 408 355 *~ 0.035;
#X obj 214 394 throw~ \$0-mix;
#X obj 304 394 throw~ \$0-mix;
#X obj 408 394 throw~ \$0-mix;
#X obj 586 176 t b b b;
#X obj 674 176 random 7;
#X obj 674 215 select 0 1 2 3 4 5 6;
#X msg 544 258 57;
#X msg 584 258 60;
#X msg 624 258 62;
#X msg 664 258 64;
#X msg 704 258 67;
#X msg 744 258 69;
#X msg 784 258 72;
#X obj 666 306 mtof;
#X obj 666 345 pack f 80;
#X obj 666 384 line~;
#X obj 666 423 osc~;
#X msg 544 345 0 \, 0.28 30 \, 0 2200 30;
#X obj 544 384 vline~;
#X obj 666 462 *~;
#X obj 666 501 lop~ 2200;
#X obj 666 540 *~ 0.22;
#X obj 666 579 throw~ \$0-mix;
#X obj 586 632 t b b b;
#X obj 674 632 random 5;
#X obj 674 671 select 0 1 2 3 4;
#X msg 582 712 50;
#X msg 622 712 57;
#X msg 662 712 62;
#X msg 702 712 64;
#X msg 742 712 67;
#X obj 668 760 t f f;
#X obj 668 799 mtof;
#X obj 668 838 pack f 2500;
#X obj 668 877 line~;
#X obj 668 916 osc~;
#X msg 520 799 0 \, 0.18 1800 \, 0 6500 1800;
#X obj 520 838 vline~;
#X obj 668 955 *~;
#X obj 668 994 lop~ 1400;
#X obj 668 1033 *~ 0.25;
#X obj 668 1072 throw~ \$0-mix;
#X obj 756 799 s \$0-melodynote;
#X obj 230 500 catch~ \$0-mix;
#X obj 230 539 delwrite~ \$0-space 4000;
#X obj 412 539 delread~ \$0-space 1700;
#X obj 412 578 *~ 0.35;
#X obj 230 617 +~;
#X obj 230 656 hip~ 20;
#X obj 230 695 clip~ -0.9 0.9;
#X obj 230 734 *~ 0.75;
#X obj 364 734 vline~;
#X obj 230 773 *~;
#X obj 230 812 dac~;
#X msg 364 656 1 1500;
#X msg 464 656 0 1500;
#X msg 470 142 dimen 1280 720 \, color 0 0 0 \, create \, 1;
#X msg 666 142 destroy;
#X obj 455 221 gemwin;
#X obj 522 216 s \$0-bellvis;
#X obj 522 672 s \$0-linevis;
#X obj 880 80 r \$0-bellvis;
#X msg 880 119 0.35 \, 2.8 260 \, 1.1 2600 260;
#X obj 880 158 line;
#X obj 880 197 s \$0-ring-size;
#X obj 1042 80 r \$0-bellvis;
#X msg 1042 119 18 \, 2 1000;
#X obj 1042 158 line;
#X obj 1042 197 s \$0-source-rate;
#X obj 880 244 r \$0-linevis;
#X msg 880 283 0.2 \, 1.4 1800 \, 0.35 6500 1800;
#X obj 880 322 line;
#X obj 880 361 s \$0-orb-size;
#X obj 1042 244 r \$0-melodynote;
#X obj 1042 283 expr (($f1 - 50) / 17) * 6 - 3;
#X obj 1042 322 pack f 2500;
#X obj 1042 361 line;
#X obj 1042 400 s \$0-orb-x;
#X obj 880 408 r \$0-linevis;
#X obj 880 447 random 200;
#X obj 880 486 expr ($f1 / 100) - 1;
#X obj 880 525 pack f 2500;
#X obj 880 564 line;
#X obj 880 603 s \$0-orb-y;
#X obj 1042 448 loadbang;
#X msg 1042 487 draw line;
#X msg 1130 487 draw point;
#X obj 72 880 gemhead 10;
#X obj 72 919 color 1 1 1;
#X obj 72 958 circle 1;
#X obj 196 958 r \$0-ring-size;
#X obj 282 880 gemhead 11;
#X obj 282 919 color 1 1 1;
#X obj 282 958 circle 2.15;
#X obj 492 880 gemhead 12;
#X obj 492 919 color 1 1 1;
#X obj 492 958 circle 3.2;
#X obj 702 880 gemhead 13;
#X obj 702 919 color 1 1 1;
#X obj 702 958 translateXYZ 0 0 0;
#X obj 702 997 circle 0.25;
#X obj 874 958 r \$0-orb-x;
#X obj 992 958 r \$0-orb-y;
#X obj 874 997 r \$0-orb-size;
#X obj 72 1080 gemhead 20;
#X obj 72 1119 color 1 1 1;
#X obj 72 1158 part_head 1600;
#X obj 72 1197 part_size 0.8;
#X obj 72 1236 part_velocity sphere 0 0 0 0.025;
#X obj 72 1275 part_source 2;
#X obj 72 1314 part_killold 150;
#X obj 72 1353 part_draw;
#X obj 252 1275 r \$0-source-rate;
#X obj 452 1080 gemhead 21;
#X obj 452 1119 color 1 1 1;
#X obj 452 1158 part_head 800;
#X obj 452 1197 part_size 0.4;
#X obj 452 1236 part_velocity sphere 0 0 0 0.08;
#X obj 452 1275 part_source 0;
#X obj 452 1314 part_killold 60;
#X obj 452 1353 part_draw;
#X obj 632 1236 r \$0-bellvis;
#X msg 632 1275 25 \, 0 350;
#X obj 632 1314 line;
#X text 228 471 Mixer: dry signal plus one long non-feedback delay wash.;
#X connect 1 0 3 0;
#X connect 2 0 5 0;
#X connect 2 0 74 0;
#X connect 2 0 76 0;
#X connect 3 0 22 0;
#X connect 3 1 42 0;
#X connect 3 2 4 0;
#X connect 3 3 73 0;
#X connect 3 4 0 0;
#X connect 3 5 75 0;
#X connect 4 0 6 0;
#X connect 4 0 7 0;
#X connect 5 0 6 0;
#X connect 5 0 7 0;
#X connect 6 0 22 0;
#X connect 7 0 42 0;
#X connect 8 0 9 0;
#X connect 9 0 10 0;
#X connect 10 0 11 0;
#X connect 11 0 12 0;
#X connect 13 0 16 0;
#X connect 14 0 17 0;
#X connect 15 0 18 0;
#X connect 16 0 19 0;
#X connect 17 0 20 0;
#X connect 18 0 21 0;
#X connect 22 0 36 0;
#X connect 22 1 78 0;
#X connect 22 2 23 0;
#X connect 23 0 24 0;
#X connect 24 0 25 0;
#X connect 24 1 26 0;
#X connect 24 2 27 0;
#X connect 24 3 28 0;
#X connect 24 4 29 0;
#X connect 24 5 30 0;
#X connect 24 6 31 0;
#X connect 25 0 32 0;
#X connect 26 0 32 0;
#X connect 27 0 32 0;
#X connect 28 0 32 0;
#X connect 29 0 32 0;
#X connect 30 0 32 0;
#X connect 31 0 32 0;
#X connect 32 0 33 0;
#X connect 33 0 34 0;
#X connect 34 0 35 0;
#X connect 35 0 38 0;
#X connect 36 0 37 0;
#X connect 37 0 38 1;
#X connect 38 0 39 0;
#X connect 39 0 40 0;
#X connect 40 0 41 0;
#X connect 42 0 55 0;
#X connect 42 1 79 0;
#X connect 42 2 43 0;
#X connect 43 0 44 0;
#X connect 44 0 45 0;
#X connect 44 1 46 0;
#X connect 44 2 47 0;
#X connect 44 3 48 0;
#X connect 44 4 49 0;
#X connect 45 0 50 0;
#X connect 46 0 50 0;
#X connect 47 0 50 0;
#X connect 48 0 50 0;
#X connect 49 0 50 0;
#X connect 50 0 51 0;
#X connect 50 1 61 0;
#X connect 51 0 52 0;
#X connect 52 0 53 0;
#X connect 53 0 54 0;
#X connect 54 0 57 0;
#X connect 55 0 56 0;
#X connect 56 0 57 1;
#X connect 57 0 58 0;
#X connect 58 0 59 0;
#X connect 59 0 60 0;
#X connect 62 0 63 0;
#X connect 62 0 66 0;
#X connect 64 0 65 0;
#X connect 65 0 66 1;
#X connect 66 0 67 0;
#X connect 67 0 68 0;
#X connect 68 0 69 0;
#X connect 69 0 71 0;
#X connect 70 0 71 1;
#X connect 71 0 72 0;
#X connect 71 0 72 1;
#X connect 73 0 70 0;
#X connect 74 0 70 0;
#X connect 75 0 77 0;
#X connect 76 0 77 0;
#X connect 80 0 81 0;
#X connect 81 0 82 0;
#X connect 82 0 83 0;
#X connect 84 0 85 0;
#X connect 85 0 86 0;
#X connect 86 0 87 0;
#X connect 88 0 89 0;
#X connect 89 0 90 0;
#X connect 90 0 91 0;
#X connect 92 0 93 0;
#X connect 93 0 94 0;
#X connect 94 0 95 0;
#X connect 95 0 96 0;
#X connect 97 0 98 0;
#X connect 98 0 99 0;
#X connect 99 0 100 0;
#X connect 100 0 101 0;
#X connect 101 0 102 0;
#X connect 103 0 104 0;
#X connect 103 0 105 0;
#X connect 104 0 108 0;
#X connect 104 0 112 0;
#X connect 104 0 115 0;
#X connect 104 0 119 0;
#X connect 105 0 130 0;
#X connect 105 0 139 0;
#X connect 106 0 107 0;
#X connect 107 0 108 0;
#X connect 110 0 111 0;
#X connect 111 0 112 0;
#X connect 113 0 114 0;
#X connect 114 0 115 0;
#X connect 116 0 117 0;
#X connect 117 0 118 0;
#X connect 118 0 119 0;
#X connect 120 0 118 1;
#X connect 121 0 118 2;
#X connect 123 0 124 0;
#X connect 124 0 125 0;
#X connect 125 0 126 0;
#X connect 126 0 127 0;
#X connect 127 0 128 0;
#X connect 128 0 129 0;
#X connect 129 0 130 0;
#X connect 131 0 128 1;
#X connect 133 0 134 0;
#X connect 134 0 135 0;
#X connect 135 0 136 0;
#X connect 136 0 137 0;
#X connect 137 0 138 0;
#X connect 138 0 139 0;
#X connect 140 0 141 0;
#X connect 141 0 142 0;
#X connect 142 0 137 1;
