#N canvas 0 33 1512 921 12;
#X text 28 20 NO PAIN-inspired chord progression sketch - Pd Vanilla;
#X text 28 42 94 BPM \, one-bar chord slots \, full form loops \, synthesized band texture \, no samples.;
#X text 30 76 Transport: loadbang turns DSP on and starts the 16th-note sequencer.;
#X text 30 96 Click 0 to stop \, 1 to restart. The full form loops automatically.;
#X obj 30 126 loadbang;
#X msg 30 158 \; pd dsp 1;
#X msg 138 158 1;
#X msg 192 158 0;
#X obj 138 194 metro 159.574;
#X obj 138 230 f 0;
#X obj 198 230 + 1;
#X obj 258 230 mod 2048;
#X obj 138 266 s np_step_global;
#X obj 340 230 mod 16;
#X obj 340 266 s np_step16;
#X text 520 76 Timeline visualizer: each row is a section \; each bang is one bar/chord.;
#X symbolatom 520 108 14 0 0 0 np_section_name - - 0;
#X symbolatom 712 108 10 0 0 0 np_chord_name - - 0;
#X floatatom 862 108 4 0 0 0 np_section_id - - 0;
#X text 964 82 Beat pulse;
#X obj 964 108 bng 18 120 40 0 empty np_beat_1 1 5 26 0 9 #f2f2f2 #111111 #111111;
#X obj 998 108 bng 18 120 40 0 empty np_beat_2 2 5 26 0 9 #f2f2f2 #111111 #111111;
#X obj 1032 108 bng 18 120 40 0 empty np_beat_3 3 5 26 0 9 #f2f2f2 #111111 #111111;
#X obj 1066 108 bng 18 120 40 0 empty np_beat_4 4 5 26 0 9 #f2f2f2 #111111 #111111;
#X text 520 176 Intro;
#X obj 656 172 bng 16 120 35 0 empty np_vis_0 DbM7 0 24 0 8 #f7f7f7 #111111 #111111;
#X obj 690 172 bng 16 120 35 0 empty np_vis_1 Eb7 0 24 0 8 #f7f7f7 #111111 #111111;
#X obj 724 172 bng 16 120 35 0 empty np_vis_2 Cm7 0 24 0 8 #f7f7f7 #111111 #111111;
#X obj 758 172 bng 16 120 35 0 empty np_vis_3 Fm7 0 24 0 8 #f7f7f7 #111111 #111111;
#X obj 792 172 bng 16 120 35 0 empty np_vis_4 DbM7 0 24 0 8 #f7f7f7 #111111 #111111;
#X obj 826 172 bng 16 120 35 0 empty np_vis_5 Eb7 0 24 0 8 #f7f7f7 #111111 #111111;
#X obj 860 172 bng 16 120 35 0 empty np_vis_6 Cm7 0 24 0 8 #f7f7f7 #111111 #111111;
#X obj 894 172 bng 16 120 35 0 empty np_vis_7 Cm7 0 24 0 8 #f7f7f7 #111111 #111111;
#X obj 928 172 bng 16 120 35 0 empty np_vis_8 DbM7 0 24 0 8 #f7f7f7 #111111 #111111;
#X obj 962 172 bng 16 120 35 0 empty np_vis_9 Eb7 0 24 0 8 #f7f7f7 #111111 #111111;
#X obj 996 172 bng 16 120 35 0 empty np_vis_10 Cm7 0 24 0 8 #f7f7f7 #111111 #111111;
#X obj 1030 172 bng 16 120 35 0 empty np_vis_11 Fm7 0 24 0 8 #f7f7f7 #111111 #111111;
#X obj 1064 172 bng 16 120 35 0 empty np_vis_12 DbM7 0 24 0 8 #f7f7f7 #111111 #111111;
#X obj 1098 172 bng 16 120 35 0 empty np_vis_13 Eb7 0 24 0 8 #f7f7f7 #111111 #111111;
#X obj 1132 172 bng 16 120 35 0 empty np_vis_14 Cm7 0 24 0 8 #f7f7f7 #111111 #111111;
#X obj 1166 172 bng 16 120 35 0 empty np_vis_15 Cm7 0 24 0 8 #f7f7f7 #111111 #111111;
#X text 520 230 Verse_1;
#X obj 656 226 bng 16 120 35 0 empty np_vis_16 DbM7 0 24 0 8 #f7f7f7 #111111 #111111;
#X obj 690 226 bng 16 120 35 0 empty np_vis_17 Eb7 0 24 0 8 #f7f7f7 #111111 #111111;
#X obj 724 226 bng 16 120 35 0 empty np_vis_18 Cm7 0 24 0 8 #f7f7f7 #111111 #111111;
#X obj 758 226 bng 16 120 35 0 empty np_vis_19 Fm7 0 24 0 8 #f7f7f7 #111111 #111111;
#X obj 792 226 bng 16 120 35 0 empty np_vis_20 DbM7 0 24 0 8 #f7f7f7 #111111 #111111;
#X obj 826 226 bng 16 120 35 0 empty np_vis_21 Eb7 0 24 0 8 #f7f7f7 #111111 #111111;
#X obj 860 226 bng 16 120 35 0 empty np_vis_22 Cm7 0 24 0 8 #f7f7f7 #111111 #111111;
#X obj 894 226 bng 16 120 35 0 empty np_vis_23 Fm7 0 24 0 8 #f7f7f7 #111111 #111111;
#X text 520 284 Pre;
#X obj 656 280 bng 16 120 35 0 empty np_vis_24 Bbm7 0 24 0 8 #f7f7f7 #111111 #111111;
#X obj 690 280 bng 16 120 35 0 empty np_vis_25 Cm7 0 24 0 8 #f7f7f7 #111111 #111111;
#X obj 724 280 bng 16 120 35 0 empty np_vis_26 DbM7 0 24 0 8 #f7f7f7 #111111 #111111;
#X obj 758 280 bng 16 120 35 0 empty np_vis_27 DbM7 0 24 0 8 #f7f7f7 #111111 #111111;
#X obj 792 280 bng 16 120 35 0 empty np_vis_28 Bbm7 0 24 0 8 #f7f7f7 #111111 #111111;
#X obj 826 280 bng 16 120 35 0 empty np_vis_29 Cm7 0 24 0 8 #f7f7f7 #111111 #111111;
#X obj 860 280 bng 16 120 35 0 empty np_vis_30 DbM7 0 24 0 8 #f7f7f7 #111111 #111111;
#X obj 894 280 bng 16 120 35 0 empty np_vis_31 Eb7 0 24 0 8 #f7f7f7 #111111 #111111;
#X text 520 338 Chorus;
#X obj 656 334 bng 16 120 35 0 empty np_vis_32 DbM7 0 24 0 8 #f7f7f7 #111111 #111111;
#X obj 690 334 bng 16 120 35 0 empty np_vis_33 Eb7 0 24 0 8 #f7f7f7 #111111 #111111;
#X obj 724 334 bng 16 120 35 0 empty np_vis_34 Cm7 0 24 0 8 #f7f7f7 #111111 #111111;
#X obj 758 334 bng 16 120 35 0 empty np_vis_35 Fm7 0 24 0 8 #f7f7f7 #111111 #111111;
#X obj 792 334 bng 16 120 35 0 empty np_vis_36 DbM7 0 24 0 8 #f7f7f7 #111111 #111111;
#X obj 826 334 bng 16 120 35 0 empty np_vis_37 Eb7 0 24 0 8 #f7f7f7 #111111 #111111;
#X obj 860 334 bng 16 120 35 0 empty np_vis_38 Cm7 0 24 0 8 #f7f7f7 #111111 #111111;
#X obj 894 334 bng 16 120 35 0 empty np_vis_39 Fm7 0 24 0 8 #f7f7f7 #111111 #111111;
#X obj 928 334 bng 16 120 35 0 empty np_vis_40 DbM7 0 24 0 8 #f7f7f7 #111111 #111111;
#X obj 962 334 bng 16 120 35 0 empty np_vis_41 Eb7 0 24 0 8 #f7f7f7 #111111 #111111;
#X obj 996 334 bng 16 120 35 0 empty np_vis_42 Cm7 0 24 0 8 #f7f7f7 #111111 #111111;
#X obj 1030 334 bng 16 120 35 0 empty np_vis_43 Fm7 0 24 0 8 #f7f7f7 #111111 #111111;
#X obj 1064 334 bng 16 120 35 0 empty np_vis_44 DbM7 0 24 0 8 #f7f7f7 #111111 #111111;
#X obj 1098 334 bng 16 120 35 0 empty np_vis_45 Cm7 0 24 0 8 #f7f7f7 #111111 #111111;
#X obj 1132 334 bng 16 120 35 0 empty np_vis_46 Bbm7 0 24 0 8 #f7f7f7 #111111 #111111;
#X obj 1166 334 bng 16 120 35 0 empty np_vis_47 Eb7 0 24 0 8 #f7f7f7 #111111 #111111;
#X text 520 392 Interlude;
#X obj 656 388 bng 16 120 35 0 empty np_vis_48 DbM7 0 24 0 8 #f7f7f7 #111111 #111111;
#X obj 690 388 bng 16 120 35 0 empty np_vis_49 Eb7 0 24 0 8 #f7f7f7 #111111 #111111;
#X obj 724 388 bng 16 120 35 0 empty np_vis_50 Cm7 0 24 0 8 #f7f7f7 #111111 #111111;
#X obj 758 388 bng 16 120 35 0 empty np_vis_51 Fm7 0 24 0 8 #f7f7f7 #111111 #111111;
#X obj 792 388 bng 16 120 35 0 empty np_vis_52 DbM7 0 24 0 8 #f7f7f7 #111111 #111111;
#X obj 826 388 bng 16 120 35 0 empty np_vis_53 Eb7 0 24 0 8 #f7f7f7 #111111 #111111;
#X obj 860 388 bng 16 120 35 0 empty np_vis_54 Cm7 0 24 0 8 #f7f7f7 #111111 #111111;
#X obj 894 388 bng 16 120 35 0 empty np_vis_55 Cm7 0 24 0 8 #f7f7f7 #111111 #111111;
#X obj 928 388 bng 16 120 35 0 empty np_vis_56 DbM7 0 24 0 8 #f7f7f7 #111111 #111111;
#X obj 962 388 bng 16 120 35 0 empty np_vis_57 Eb7 0 24 0 8 #f7f7f7 #111111 #111111;
#X obj 996 388 bng 16 120 35 0 empty np_vis_58 Cm7 0 24 0 8 #f7f7f7 #111111 #111111;
#X obj 1030 388 bng 16 120 35 0 empty np_vis_59 Fm7 0 24 0 8 #f7f7f7 #111111 #111111;
#X obj 1064 388 bng 16 120 35 0 empty np_vis_60 DbM7 0 24 0 8 #f7f7f7 #111111 #111111;
#X obj 1098 388 bng 16 120 35 0 empty np_vis_61 Eb7 0 24 0 8 #f7f7f7 #111111 #111111;
#X obj 1132 388 bng 16 120 35 0 empty np_vis_62 Cm7 0 24 0 8 #f7f7f7 #111111 #111111;
#X obj 1166 388 bng 16 120 35 0 empty np_vis_63 Cm7 0 24 0 8 #f7f7f7 #111111 #111111;
#X text 520 446 Verse_2;
#X obj 656 442 bng 16 120 35 0 empty np_vis_64 DbM7 0 24 0 8 #f7f7f7 #111111 #111111;
#X obj 690 442 bng 16 120 35 0 empty np_vis_65 Eb7 0 24 0 8 #f7f7f7 #111111 #111111;
#X obj 724 442 bng 16 120 35 0 empty np_vis_66 Cm7 0 24 0 8 #f7f7f7 #111111 #111111;
#X obj 758 442 bng 16 120 35 0 empty np_vis_67 Fm7 0 24 0 8 #f7f7f7 #111111 #111111;
#X obj 792 442 bng 16 120 35 0 empty np_vis_68 DbM7 0 24 0 8 #f7f7f7 #111111 #111111;
#X obj 826 442 bng 16 120 35 0 empty np_vis_69 Eb7 0 24 0 8 #f7f7f7 #111111 #111111;
#X obj 860 442 bng 16 120 35 0 empty np_vis_70 Cm7 0 24 0 8 #f7f7f7 #111111 #111111;
#X obj 894 442 bng 16 120 35 0 empty np_vis_71 Fm7 0 24 0 8 #f7f7f7 #111111 #111111;
#X text 520 500 Pre_2;
#X obj 656 496 bng 16 120 35 0 empty np_vis_72 Bbm7 0 24 0 8 #f7f7f7 #111111 #111111;
#X obj 690 496 bng 16 120 35 0 empty np_vis_73 Cm7 0 24 0 8 #f7f7f7 #111111 #111111;
#X obj 724 496 bng 16 120 35 0 empty np_vis_74 DbM7 0 24 0 8 #f7f7f7 #111111 #111111;
#X obj 758 496 bng 16 120 35 0 empty np_vis_75 DbM7 0 24 0 8 #f7f7f7 #111111 #111111;
#X obj 792 496 bng 16 120 35 0 empty np_vis_76 Bbm7 0 24 0 8 #f7f7f7 #111111 #111111;
#X obj 826 496 bng 16 120 35 0 empty np_vis_77 Cm7 0 24 0 8 #f7f7f7 #111111 #111111;
#X obj 860 496 bng 16 120 35 0 empty np_vis_78 DbM7 0 24 0 8 #f7f7f7 #111111 #111111;
#X obj 894 496 bng 16 120 35 0 empty np_vis_79 Eb7 0 24 0 8 #f7f7f7 #111111 #111111;
#X text 520 554 Chorus_A7;
#X obj 656 550 bng 16 120 35 0 empty np_vis_80 DbM7 0 24 0 8 #f7f7f7 #111111 #111111;
#X obj 690 550 bng 16 120 35 0 empty np_vis_81 Eb7 0 24 0 8 #f7f7f7 #111111 #111111;
#X obj 724 550 bng 16 120 35 0 empty np_vis_82 Cm7 0 24 0 8 #f7f7f7 #111111 #111111;
#X obj 758 550 bng 16 120 35 0 empty np_vis_83 Fm7 0 24 0 8 #f7f7f7 #111111 #111111;
#X obj 792 550 bng 16 120 35 0 empty np_vis_84 DbM7 0 24 0 8 #f7f7f7 #111111 #111111;
#X obj 826 550 bng 16 120 35 0 empty np_vis_85 Eb7 0 24 0 8 #f7f7f7 #111111 #111111;
#X obj 860 550 bng 16 120 35 0 empty np_vis_86 Cm7 0 24 0 8 #f7f7f7 #111111 #111111;
#X obj 894 550 bng 16 120 35 0 empty np_vis_87 Fm7 0 24 0 8 #f7f7f7 #111111 #111111;
#X obj 928 550 bng 16 120 35 0 empty np_vis_88 DbM7 0 24 0 8 #f7f7f7 #111111 #111111;
#X obj 962 550 bng 16 120 35 0 empty np_vis_89 Eb7 0 24 0 8 #f7f7f7 #111111 #111111;
#X obj 996 550 bng 16 120 35 0 empty np_vis_90 Cm7 0 24 0 8 #f7f7f7 #111111 #111111;
#X obj 1030 550 bng 16 120 35 0 empty np_vis_91 Fm7 0 24 0 8 #f7f7f7 #111111 #111111;
#X obj 1064 550 bng 16 120 35 0 empty np_vis_92 Cm7 0 24 0 8 #f7f7f7 #111111 #111111;
#X obj 1098 550 bng 16 120 35 0 empty np_vis_93 Bbm7 0 24 0 8 #f7f7f7 #111111 #111111;
#X obj 1132 550 bng 16 120 35 0 empty np_vis_94 A7 0 24 0 8 #f7f7f7 #111111 #111111;
#X obj 1166 550 bng 16 120 35 0 empty np_vis_95 A7 0 24 0 8 #f7f7f7 #111111 #111111;
#X text 520 608 Chorus_2;
#X obj 656 604 bng 16 120 35 0 empty np_vis_96 DbM7 0 24 0 8 #f7f7f7 #111111 #111111;
#X obj 690 604 bng 16 120 35 0 empty np_vis_97 Eb7 0 24 0 8 #f7f7f7 #111111 #111111;
#X obj 724 604 bng 16 120 35 0 empty np_vis_98 Fm7 0 24 0 8 #f7f7f7 #111111 #111111;
#X obj 758 604 bng 16 120 35 0 empty np_vis_99 Cm7 0 24 0 8 #f7f7f7 #111111 #111111;
#X obj 792 604 bng 16 120 35 0 empty np_vis_100 DbM7 0 24 0 8 #f7f7f7 #111111 #111111;
#X obj 826 604 bng 16 120 35 0 empty np_vis_101 Eb7 0 24 0 8 #f7f7f7 #111111 #111111;
#X obj 860 604 bng 16 120 35 0 empty np_vis_102 Fm7 0 24 0 8 #f7f7f7 #111111 #111111;
#X obj 894 604 bng 16 120 35 0 empty np_vis_103 Cm7 0 24 0 8 #f7f7f7 #111111 #111111;
#X obj 928 604 bng 16 120 35 0 empty np_vis_104 DbM7 0 24 0 8 #f7f7f7 #111111 #111111;
#X obj 962 604 bng 16 120 35 0 empty np_vis_105 Eb7 0 24 0 8 #f7f7f7 #111111 #111111;
#X obj 996 604 bng 16 120 35 0 empty np_vis_106 Fm7 0 24 0 8 #f7f7f7 #111111 #111111;
#X obj 1030 604 bng 16 120 35 0 empty np_vis_107 Fm7 0 24 0 8 #f7f7f7 #111111 #111111;
#X obj 1064 604 bng 16 120 35 0 empty np_vis_108 DbM7 0 24 0 8 #f7f7f7 #111111 #111111;
#X obj 1098 604 bng 16 120 35 0 empty np_vis_109 Cm7 0 24 0 8 #f7f7f7 #111111 #111111;
#X obj 1132 604 bng 16 120 35 0 empty np_vis_110 Bbm7 0 24 0 8 #f7f7f7 #111111 #111111;
#X obj 1166 604 bng 16 120 35 0 empty np_vis_111 Eb7 0 24 0 8 #f7f7f7 #111111 #111111;
#X text 520 662 Outro;
#X obj 656 658 bng 16 120 35 0 empty np_vis_112 DbM7 0 24 0 8 #f7f7f7 #111111 #111111;
#X obj 690 658 bng 16 120 35 0 empty np_vis_113 Eb7 0 24 0 8 #f7f7f7 #111111 #111111;
#X obj 724 658 bng 16 120 35 0 empty np_vis_114 Cm7 0 24 0 8 #f7f7f7 #111111 #111111;
#X obj 758 658 bng 16 120 35 0 empty np_vis_115 Fm7 0 24 0 8 #f7f7f7 #111111 #111111;
#X obj 792 658 bng 16 120 35 0 empty np_vis_116 DbM7 0 24 0 8 #f7f7f7 #111111 #111111;
#X obj 826 658 bng 16 120 35 0 empty np_vis_117 Eb7 0 24 0 8 #f7f7f7 #111111 #111111;
#X obj 860 658 bng 16 120 35 0 empty np_vis_118 Cm7 0 24 0 8 #f7f7f7 #111111 #111111;
#X obj 894 658 bng 16 120 35 0 empty np_vis_119 Cm7 0 24 0 8 #f7f7f7 #111111 #111111;
#X obj 928 658 bng 16 120 35 0 empty np_vis_120 DbM7 0 24 0 8 #f7f7f7 #111111 #111111;
#X obj 962 658 bng 16 120 35 0 empty np_vis_121 Eb7 0 24 0 8 #f7f7f7 #111111 #111111;
#X obj 996 658 bng 16 120 35 0 empty np_vis_122 Cm7 0 24 0 8 #f7f7f7 #111111 #111111;
#X obj 1030 658 bng 16 120 35 0 empty np_vis_123 Fm7 0 24 0 8 #f7f7f7 #111111 #111111;
#X obj 1064 658 bng 16 120 35 0 empty np_vis_124 DbM7 0 24 0 8 #f7f7f7 #111111 #111111;
#X obj 1098 658 bng 16 120 35 0 empty np_vis_125 Eb7 0 24 0 8 #f7f7f7 #111111 #111111;
#X obj 1132 658 bng 16 120 35 0 empty np_vis_126 Cm7 0 24 0 8 #f7f7f7 #111111 #111111;
#X obj 1166 658 bng 16 120 35 0 empty np_vis_127 Cm7 0 24 0 8 #f7f7f7 #111111 #111111;
#X obj 30 318 r np_step16;
#X obj 30 352 sel 0 4 8 12;
#X obj 200 352 s np_beat_1;
#X obj 290 352 s np_beat_2;
#X obj 380 352 s np_beat_3;
#X obj 470 352 s np_beat_4;
#X text 30 700 Chord pad: bright saw-like synth voicing with a short swell per chord slot;
#X obj 30 730 r np_chord;
#X obj 30 764 t b l;
#X obj 130 798 unpack f f f f f;
#X obj 422 832 s np_root_midi;
#X msg 30 798 0 0 \, 0.5 38 \, 0.34 1450 54 \, 0 420 2050;
#X obj 30 832 vline~;
#X obj 30 874 mtof;
#X obj 30 906 pack f 70;
#X obj 30 938 line~;
#X obj 30 970 phasor~;
#X obj 30 1002 -~ 0.5;
#X obj 30 1034 lop~ 1800;
#X obj 30 1066 *~ 0.22;
#X obj 136 874 mtof;
#X obj 136 906 pack f 70;
#X obj 136 938 line~;
#X obj 136 970 phasor~;
#X obj 136 1002 -~ 0.5;
#X obj 136 1034 lop~ 1800;
#X obj 136 1066 *~ 0.22;
#X obj 242 874 mtof;
#X obj 242 906 pack f 70;
#X obj 242 938 line~;
#X obj 242 970 phasor~;
#X obj 242 1002 -~ 0.5;
#X obj 242 1034 lop~ 1800;
#X obj 242 1066 *~ 0.22;
#X obj 348 874 mtof;
#X obj 348 906 pack f 70;
#X obj 348 938 line~;
#X obj 348 970 phasor~;
#X obj 348 1002 -~ 0.5;
#X obj 348 1034 lop~ 1800;
#X obj 348 1066 *~ 0.22;
#X obj 82 1108 +~;
#X obj 188 1138 +~;
#X obj 294 1168 +~;
#X obj 404 1202 *~;
#X obj 494 1202 lop~ 2400;
#X obj 588 1202 *~ 0.22;
#X obj 680 1202 throw~ np_mix;
#X obj 588 1236 *~ 0.16;
#X obj 680 1236 throw~ np_fx;
#X text 840 700 Bass: root/fifth/octave pattern following the scheduler root;
#X obj 1090 726 r np_root_midi;
#X obj 1090 762 f;
#X obj 1180 762 f;
#X obj 1270 762 f;
#X obj 1180 726 + 7;
#X obj 1270 726 + 12;
#X obj 840 726 r np_step16;
#X obj 840 760 sel 0 8;
#X obj 840 794 sel 5 14;
#X obj 840 828 sel 11;
#X obj 1090 812 mtof;
#X obj 1090 846 pack f 18;
#X obj 1090 880 line~;
#X obj 1090 914 osc~;
#X obj 1182 914 phasor~;
#X obj 1182 948 lop~ 230;
#X obj 1090 982 *~ 0.78;
#X obj 1182 982 *~ 0.22;
#X obj 1136 1018 +~;
#X msg 1388 794 0.95 5 \, 0.7 88 8 \, 0 210 95;
#X obj 1388 828 vline~;
#X obj 1226 1054 *~;
#X obj 1316 1054 lop~ 320;
#X obj 1410 1054 *~ 0.42;
#X obj 1502 1054 throw~ np_mix;
#X obj 1410 1088 *~ 0.02;
#X obj 1502 1088 throw~ np_fx;
#X text 1470 700 Lead: original narrow hook \, filtered and clipped for a guitar/synth edge;
#X obj 1470 728 r np_step16;
#X obj 1470 762 sel 0 3 6 8 11 14;
#X obj 1732 796 mtof;
#X obj 1732 830 pack f 22;
#X obj 1732 864 line~;
#X obj 1732 898 phasor~;
#X obj 1732 932 -~ 0.5;
#X obj 1732 966 clip~ -0.24 0.24;
#X obj 1732 1000 bp~ 1700 4;
#X obj 1732 1034 lop~ 3600;
#X msg 1938 796 0.82 4 \, 0.24 120 8 \, 0 180 132;
#X obj 1938 830 vline~;
#X obj 1824 1072 *~;
#X msg 1512 800 68;
#X msg 1548 800 70;
#X msg 1584 800 72;
#X msg 1620 800 75;
#X msg 1656 800 72;
#X msg 1692 800 70;
#X obj 1920 1072 *~ 0.13;
#X obj 2012 1072 throw~ np_mix;
#X obj 1920 1106 *~ 0.17;
#X obj 2012 1106 throw~ np_fx;
#X text 30 1240 Drums: synthesized kick \, snare \, hats \, and section-boundary noise crash;
#X obj 30 1272 r np_step16;
#X obj 30 1306 sel 0 6 8 11;
#X msg 182 1306 92 0 \, 48 76 1;
#X obj 182 1340 vline~;
#X obj 182 1374 osc~;
#X msg 330 1306 1 2 \, 0 150 4;
#X obj 330 1340 vline~;
#X obj 258 1412 *~;
#X obj 258 1446 lop~ 220;
#X obj 348 1446 *~ 0.62;
#X obj 440 1446 throw~ np_mix;
#X obj 590 1272 r np_step16;
#X obj 590 1306 sel 4 12;
#X obj 590 1344 noise~;
#X obj 590 1378 bp~ 1900 3;
#X msg 734 1306 0.82 3 \, 0 150 8;
#X obj 734 1340 vline~;
#X obj 654 1416 *~;
#X obj 750 1416 *~ 0.18;
#X obj 842 1416 throw~ np_mix;
#X obj 750 1450 *~ 0.05;
#X obj 842 1450 throw~ np_fx;
#X obj 1060 1272 r np_step16;
#X obj 1060 1306 sel 2 4 6 10 12 14;
#X obj 1060 1344 noise~;
#X obj 1060 1378 hip~ 7200;
#X msg 1244 1306 0.45 2 \, 0 42 4;
#X obj 1244 1340 vline~;
#X obj 1124 1416 *~;
#X obj 1220 1416 *~ 0.08;
#X obj 1312 1416 throw~ np_mix;
#X obj 1220 1450 *~ 0.02;
#X obj 1312 1450 throw~ np_fx;
#X text 1500 1240 Section crash: filtered noise accents the form boundaries;
#X obj 1500 1270 r np_step_global;
#X obj 1500 1304 sel 0 256 384 512 768 1024 1152 1280 1536 1792;
#X obj 1810 1304 noise~;
#X obj 1810 1338 hip~ 4600;
#X msg 1670 1304 0.58 8 \, 0 1550 12;
#X obj 1670 1338 vline~;
#X obj 1810 1372 *~;
#X obj 1910 1372 *~ 0.05;
#X obj 2002 1372 throw~ np_mix;
#X obj 1910 1406 *~ 0.15;
#X obj 2002 1406 throw~ np_fx;
#X text 30 1660 Delay return: feed-forward delay only \, no feedback loop;
#X obj 30 1690 catch~ np_fx;
#X obj 30 1724 delwrite~ np_delay 900;
#X obj 280 1690 delread~ np_delay 319;
#X obj 280 1724 *~ 0.22;
#X obj 280 1760 delread~ np_delay 481;
#X obj 280 1794 *~ 0.14;
#X obj 406 1760 +~;
#X obj 510 1760 throw~ np_mix;
#X text 760 1660 Master: bus catch \, cleanup \, clip \, direct attenuation \, stereo dac;
#X obj 760 1690 catch~ np_mix;
#X obj 760 1724 hip~ 28;
#X obj 860 1724 clip~ -0.9 0.9;
#X obj 1080 1724 dac~;
#X text 30 1900 Chord scheduler: user progression \, enharmonic spelling Db/Eb for C#/D#.;
#X text 30 1920 Each message is four chord tones plus bass-root MIDI \; no audio samples are used.;
#X obj 30 1952 r np_step_global;
#X obj 30 1986 sel 0 16 32 48 64 80 96 112 128 144 160 176 192 208 224 240 256 272 288 304 320 336 352 368 384 400 416 432 448 464 480 496 512 528 544 560 576 592 608 624 640 656 672 688 704 720 736 752 768 784 800 816 832 848 864 880 896 912 928 944 960 976 992 1008 1024 1040 1056 1072 1088 1104 1120 1136 1152 1168 1184 1200 1216 1232 1248 1264 1280 1296 1312 1328 1344 1360 1376 1392 1408 1424 1440 1456 1472 1488 1504 1520 1536 1552 1568 1584 1600 1616 1632 1648 1664 1680 1696 1712 1728 1744 1760 1776 1792 1808 1824 1840 1856 1872 1888 1904 1920 1936 1952 1968 1984 2000 2016 2032;
#X obj 438 1986 s np_chord;
#X obj 438 2020 s np_chord_name;
#X obj 438 2054 s np_section_name;
#X obj 438 2088 s np_section_id;
#X msg 230 2026 61 65 68 72 37;
#X msg 230 2814 symbol Dbmaj7;
#X msg 570 2026 symbol Intro;
#X msg 904 2026 1;
#X obj 1110 2026 s np_vis_0;
#X text 1250 2026 Intro;
#X msg 308 2026 63 67 70 73 39;
#X msg 308 2814 symbol Eb7;
#X msg 724 2026 symbol Intro;
#X msg 948 2026 1;
#X obj 1188 2026 s np_vis_1;
#X msg 386 2026 60 63 67 70 36;
#X msg 386 2814 symbol Cm7;
#X msg 570 2050 symbol Intro;
#X msg 992 2026 1;
#X obj 1266 2026 s np_vis_2;
#X msg 464 2026 65 68 72 75 41;
#X msg 464 2814 symbol Fm7;
#X msg 724 2050 symbol Intro;
#X msg 1036 2026 1;
#X obj 1344 2026 s np_vis_3;
#X msg 230 2050 61 65 68 72 37;
#X msg 230 2838 symbol Dbmaj7;
#X msg 570 2074 symbol Intro;
#X msg 904 2050 1;
#X obj 1110 2050 s np_vis_4;
#X msg 308 2050 63 67 70 73 39;
#X msg 308 2838 symbol Eb7;
#X msg 724 2074 symbol Intro;
#X msg 948 2050 1;
#X obj 1188 2050 s np_vis_5;
#X msg 386 2050 60 63 67 70 36;
#X msg 386 2838 symbol Cm7;
#X msg 570 2098 symbol Intro;
#X msg 992 2050 1;
#X obj 1266 2050 s np_vis_6;
#X msg 464 2050 60 63 67 70 36;
#X msg 464 2838 symbol Cm7;
#X msg 724 2098 symbol Intro;
#X msg 1036 2050 1;
#X obj 1344 2050 s np_vis_7;
#X msg 230 2074 61 65 68 72 37;
#X msg 230 2862 symbol Dbmaj7;
#X msg 570 2122 symbol Intro;
#X msg 904 2074 1;
#X obj 1110 2074 s np_vis_8;
#X msg 308 2074 63 67 70 73 39;
#X msg 308 2862 symbol Eb7;
#X msg 724 2122 symbol Intro;
#X msg 948 2074 1;
#X obj 1188 2074 s np_vis_9;
#X msg 386 2074 60 63 67 70 36;
#X msg 386 2862 symbol Cm7;
#X msg 570 2146 symbol Intro;
#X msg 992 2074 1;
#X obj 1266 2074 s np_vis_10;
#X msg 464 2074 65 68 72 75 41;
#X msg 464 2862 symbol Fm7;
#X msg 724 2146 symbol Intro;
#X msg 1036 2074 1;
#X obj 1344 2074 s np_vis_11;
#X msg 230 2098 61 65 68 72 37;
#X msg 230 2886 symbol Dbmaj7;
#X msg 570 2170 symbol Intro;
#X msg 904 2098 1;
#X obj 1110 2098 s np_vis_12;
#X msg 308 2098 63 67 70 73 39;
#X msg 308 2886 symbol Eb7;
#X msg 724 2170 symbol Intro;
#X msg 948 2098 1;
#X obj 1188 2098 s np_vis_13;
#X msg 386 2098 60 63 67 70 36;
#X msg 386 2886 symbol Cm7;
#X msg 570 2194 symbol Intro;
#X msg 992 2098 1;
#X obj 1266 2098 s np_vis_14;
#X msg 464 2098 60 63 67 70 36;
#X msg 464 2886 symbol Cm7;
#X msg 724 2194 symbol Intro;
#X msg 1036 2098 1;
#X obj 1344 2098 s np_vis_15;
#X msg 230 2122 61 65 68 72 37;
#X msg 230 2910 symbol Dbmaj7;
#X msg 570 2218 symbol Verse_1;
#X msg 904 2122 2;
#X obj 1110 2122 s np_vis_16;
#X text 1250 2122 Verse 1;
#X msg 308 2122 63 67 70 73 39;
#X msg 308 2910 symbol Eb7;
#X msg 724 2218 symbol Verse_1;
#X msg 948 2122 2;
#X obj 1188 2122 s np_vis_17;
#X msg 386 2122 60 63 67 70 36;
#X msg 386 2910 symbol Cm7;
#X msg 570 2242 symbol Verse_1;
#X msg 992 2122 2;
#X obj 1266 2122 s np_vis_18;
#X msg 464 2122 65 68 72 75 41;
#X msg 464 2910 symbol Fm7;
#X msg 724 2242 symbol Verse_1;
#X msg 1036 2122 2;
#X obj 1344 2122 s np_vis_19;
#X msg 230 2146 61 65 68 72 37;
#X msg 230 2934 symbol Dbmaj7;
#X msg 570 2266 symbol Verse_1;
#X msg 904 2146 2;
#X obj 1110 2146 s np_vis_20;
#X msg 308 2146 63 67 70 73 39;
#X msg 308 2934 symbol Eb7;
#X msg 724 2266 symbol Verse_1;
#X msg 948 2146 2;
#X obj 1188 2146 s np_vis_21;
#X msg 386 2146 60 63 67 70 36;
#X msg 386 2934 symbol Cm7;
#X msg 570 2290 symbol Verse_1;
#X msg 992 2146 2;
#X obj 1266 2146 s np_vis_22;
#X msg 464 2146 65 68 72 75 41;
#X msg 464 2934 symbol Fm7;
#X msg 724 2290 symbol Verse_1;
#X msg 1036 2146 2;
#X obj 1344 2146 s np_vis_23;
#X msg 230 2170 58 61 65 68 34;
#X msg 230 2958 symbol Bbm7;
#X msg 570 2314 symbol Pre;
#X msg 904 2170 3;
#X obj 1110 2170 s np_vis_24;
#X text 1250 2170 Pre;
#X msg 308 2170 60 63 67 70 36;
#X msg 308 2958 symbol Cm7;
#X msg 724 2314 symbol Pre;
#X msg 948 2170 3;
#X obj 1188 2170 s np_vis_25;
#X msg 386 2170 61 65 68 72 37;
#X msg 386 2958 symbol Dbmaj7;
#X msg 570 2338 symbol Pre;
#X msg 992 2170 3;
#X obj 1266 2170 s np_vis_26;
#X msg 464 2170 61 65 68 72 37;
#X msg 464 2958 symbol Dbmaj7;
#X msg 724 2338 symbol Pre;
#X msg 1036 2170 3;
#X obj 1344 2170 s np_vis_27;
#X msg 230 2194 58 61 65 68 34;
#X msg 230 2982 symbol Bbm7;
#X msg 570 2362 symbol Pre;
#X msg 904 2194 3;
#X obj 1110 2194 s np_vis_28;
#X msg 308 2194 60 63 67 70 36;
#X msg 308 2982 symbol Cm7;
#X msg 724 2362 symbol Pre;
#X msg 948 2194 3;
#X obj 1188 2194 s np_vis_29;
#X msg 386 2194 61 65 68 72 37;
#X msg 386 2982 symbol Dbmaj7;
#X msg 570 2386 symbol Pre;
#X msg 992 2194 3;
#X obj 1266 2194 s np_vis_30;
#X msg 464 2194 63 67 70 73 39;
#X msg 464 2982 symbol Eb7;
#X msg 724 2386 symbol Pre;
#X msg 1036 2194 3;
#X obj 1344 2194 s np_vis_31;
#X msg 230 2218 61 65 68 72 37;
#X msg 230 3006 symbol Dbmaj7;
#X msg 570 2410 symbol Chorus;
#X msg 904 2218 4;
#X obj 1110 2218 s np_vis_32;
#X text 1250 2218 Chorus;
#X msg 308 2218 63 67 70 73 39;
#X msg 308 3006 symbol Eb7;
#X msg 724 2410 symbol Chorus;
#X msg 948 2218 4;
#X obj 1188 2218 s np_vis_33;
#X msg 386 2218 60 63 67 70 36;
#X msg 386 3006 symbol Cm7;
#X msg 570 2434 symbol Chorus;
#X msg 992 2218 4;
#X obj 1266 2218 s np_vis_34;
#X msg 464 2218 65 68 72 75 41;
#X msg 464 3006 symbol Fm7;
#X msg 724 2434 symbol Chorus;
#X msg 1036 2218 4;
#X obj 1344 2218 s np_vis_35;
#X msg 230 2242 61 65 68 72 37;
#X msg 230 3030 symbol Dbmaj7;
#X msg 570 2458 symbol Chorus;
#X msg 904 2242 4;
#X obj 1110 2242 s np_vis_36;
#X msg 308 2242 63 67 70 73 39;
#X msg 308 3030 symbol Eb7;
#X msg 724 2458 symbol Chorus;
#X msg 948 2242 4;
#X obj 1188 2242 s np_vis_37;
#X msg 386 2242 60 63 67 70 36;
#X msg 386 3030 symbol Cm7;
#X msg 570 2482 symbol Chorus;
#X msg 992 2242 4;
#X obj 1266 2242 s np_vis_38;
#X msg 464 2242 65 68 72 75 41;
#X msg 464 3030 symbol Fm7;
#X msg 724 2482 symbol Chorus;
#X msg 1036 2242 4;
#X obj 1344 2242 s np_vis_39;
#X msg 230 2266 61 65 68 72 37;
#X msg 230 3054 symbol Dbmaj7;
#X msg 570 2506 symbol Chorus;
#X msg 904 2266 4;
#X obj 1110 2266 s np_vis_40;
#X msg 308 2266 63 67 70 73 39;
#X msg 308 3054 symbol Eb7;
#X msg 724 2506 symbol Chorus;
#X msg 948 2266 4;
#X obj 1188 2266 s np_vis_41;
#X msg 386 2266 60 63 67 70 36;
#X msg 386 3054 symbol Cm7;
#X msg 570 2530 symbol Chorus;
#X msg 992 2266 4;
#X obj 1266 2266 s np_vis_42;
#X msg 464 2266 65 68 72 75 41;
#X msg 464 3054 symbol Fm7;
#X msg 724 2530 symbol Chorus;
#X msg 1036 2266 4;
#X obj 1344 2266 s np_vis_43;
#X msg 230 2290 61 65 68 72 37;
#X msg 230 3078 symbol Dbmaj7;
#X msg 570 2554 symbol Chorus;
#X msg 904 2290 4;
#X obj 1110 2290 s np_vis_44;
#X msg 308 2290 60 63 67 70 36;
#X msg 308 3078 symbol Cm7;
#X msg 724 2554 symbol Chorus;
#X msg 948 2290 4;
#X obj 1188 2290 s np_vis_45;
#X msg 386 2290 58 61 65 68 34;
#X msg 386 3078 symbol Bbm7;
#X msg 570 2578 symbol Chorus;
#X msg 992 2290 4;
#X obj 1266 2290 s np_vis_46;
#X msg 464 2290 63 67 70 73 39;
#X msg 464 3078 symbol Eb7;
#X msg 724 2578 symbol Chorus;
#X msg 1036 2290 4;
#X obj 1344 2290 s np_vis_47;
#X msg 230 2314 61 65 68 72 37;
#X msg 230 3102 symbol Dbmaj7;
#X msg 570 2602 symbol Interlude;
#X msg 904 2314 5;
#X obj 1110 2314 s np_vis_48;
#X text 1250 2314 Interlude;
#X msg 308 2314 63 67 70 73 39;
#X msg 308 3102 symbol Eb7;
#X msg 724 2602 symbol Interlude;
#X msg 948 2314 5;
#X obj 1188 2314 s np_vis_49;
#X msg 386 2314 60 63 67 70 36;
#X msg 386 3102 symbol Cm7;
#X msg 570 2626 symbol Interlude;
#X msg 992 2314 5;
#X obj 1266 2314 s np_vis_50;
#X msg 464 2314 65 68 72 75 41;
#X msg 464 3102 symbol Fm7;
#X msg 724 2626 symbol Interlude;
#X msg 1036 2314 5;
#X obj 1344 2314 s np_vis_51;
#X msg 230 2338 61 65 68 72 37;
#X msg 230 3126 symbol Dbmaj7;
#X msg 570 2650 symbol Interlude;
#X msg 904 2338 5;
#X obj 1110 2338 s np_vis_52;
#X msg 308 2338 63 67 70 73 39;
#X msg 308 3126 symbol Eb7;
#X msg 724 2650 symbol Interlude;
#X msg 948 2338 5;
#X obj 1188 2338 s np_vis_53;
#X msg 386 2338 60 63 67 70 36;
#X msg 386 3126 symbol Cm7;
#X msg 570 2674 symbol Interlude;
#X msg 992 2338 5;
#X obj 1266 2338 s np_vis_54;
#X msg 464 2338 60 63 67 70 36;
#X msg 464 3126 symbol Cm7;
#X msg 724 2674 symbol Interlude;
#X msg 1036 2338 5;
#X obj 1344 2338 s np_vis_55;
#X msg 230 2362 61 65 68 72 37;
#X msg 230 3150 symbol Dbmaj7;
#X msg 570 2698 symbol Interlude;
#X msg 904 2362 5;
#X obj 1110 2362 s np_vis_56;
#X msg 308 2362 63 67 70 73 39;
#X msg 308 3150 symbol Eb7;
#X msg 724 2698 symbol Interlude;
#X msg 948 2362 5;
#X obj 1188 2362 s np_vis_57;
#X msg 386 2362 60 63 67 70 36;
#X msg 386 3150 symbol Cm7;
#X msg 570 2722 symbol Interlude;
#X msg 992 2362 5;
#X obj 1266 2362 s np_vis_58;
#X msg 464 2362 65 68 72 75 41;
#X msg 464 3150 symbol Fm7;
#X msg 724 2722 symbol Interlude;
#X msg 1036 2362 5;
#X obj 1344 2362 s np_vis_59;
#X msg 230 2386 61 65 68 72 37;
#X msg 230 3174 symbol Dbmaj7;
#X msg 570 2746 symbol Interlude;
#X msg 904 2386 5;
#X obj 1110 2386 s np_vis_60;
#X msg 308 2386 63 67 70 73 39;
#X msg 308 3174 symbol Eb7;
#X msg 724 2746 symbol Interlude;
#X msg 948 2386 5;
#X obj 1188 2386 s np_vis_61;
#X msg 386 2386 60 63 67 70 36;
#X msg 386 3174 symbol Cm7;
#X msg 570 2770 symbol Interlude;
#X msg 992 2386 5;
#X obj 1266 2386 s np_vis_62;
#X msg 464 2386 60 63 67 70 36;
#X msg 464 3174 symbol Cm7;
#X msg 724 2770 symbol Interlude;
#X msg 1036 2386 5;
#X obj 1344 2386 s np_vis_63;
#X msg 230 2410 61 65 68 72 37;
#X msg 230 3198 symbol Dbmaj7;
#X msg 570 2794 symbol Verse_2;
#X msg 904 2410 6;
#X obj 1110 2410 s np_vis_64;
#X text 1250 2410 Verse 2;
#X msg 308 2410 63 67 70 73 39;
#X msg 308 3198 symbol Eb7;
#X msg 724 2794 symbol Verse_2;
#X msg 948 2410 6;
#X obj 1188 2410 s np_vis_65;
#X msg 386 2410 60 63 67 70 36;
#X msg 386 3198 symbol Cm7;
#X msg 570 2818 symbol Verse_2;
#X msg 992 2410 6;
#X obj 1266 2410 s np_vis_66;
#X msg 464 2410 65 68 72 75 41;
#X msg 464 3198 symbol Fm7;
#X msg 724 2818 symbol Verse_2;
#X msg 1036 2410 6;
#X obj 1344 2410 s np_vis_67;
#X msg 230 2434 61 65 68 72 37;
#X msg 230 3222 symbol Dbmaj7;
#X msg 570 2842 symbol Verse_2;
#X msg 904 2434 6;
#X obj 1110 2434 s np_vis_68;
#X msg 308 2434 63 67 70 73 39;
#X msg 308 3222 symbol Eb7;
#X msg 724 2842 symbol Verse_2;
#X msg 948 2434 6;
#X obj 1188 2434 s np_vis_69;
#X msg 386 2434 60 63 67 70 36;
#X msg 386 3222 symbol Cm7;
#X msg 570 2866 symbol Verse_2;
#X msg 992 2434 6;
#X obj 1266 2434 s np_vis_70;
#X msg 464 2434 65 68 72 75 41;
#X msg 464 3222 symbol Fm7;
#X msg 724 2866 symbol Verse_2;
#X msg 1036 2434 6;
#X obj 1344 2434 s np_vis_71;
#X msg 230 2458 58 61 65 68 34;
#X msg 230 3246 symbol Bbm7;
#X msg 570 2890 symbol Pre_2;
#X msg 904 2458 7;
#X obj 1110 2458 s np_vis_72;
#X text 1250 2458 Pre 2;
#X msg 308 2458 60 63 67 70 36;
#X msg 308 3246 symbol Cm7;
#X msg 724 2890 symbol Pre_2;
#X msg 948 2458 7;
#X obj 1188 2458 s np_vis_73;
#X msg 386 2458 61 65 68 72 37;
#X msg 386 3246 symbol Dbmaj7;
#X msg 570 2914 symbol Pre_2;
#X msg 992 2458 7;
#X obj 1266 2458 s np_vis_74;
#X msg 464 2458 61 65 68 72 37;
#X msg 464 3246 symbol Dbmaj7;
#X msg 724 2914 symbol Pre_2;
#X msg 1036 2458 7;
#X obj 1344 2458 s np_vis_75;
#X msg 230 2482 58 61 65 68 34;
#X msg 230 3270 symbol Bbm7;
#X msg 570 2938 symbol Pre_2;
#X msg 904 2482 7;
#X obj 1110 2482 s np_vis_76;
#X msg 308 2482 60 63 67 70 36;
#X msg 308 3270 symbol Cm7;
#X msg 724 2938 symbol Pre_2;
#X msg 948 2482 7;
#X obj 1188 2482 s np_vis_77;
#X msg 386 2482 61 65 68 72 37;
#X msg 386 3270 symbol Dbmaj7;
#X msg 570 2962 symbol Pre_2;
#X msg 992 2482 7;
#X obj 1266 2482 s np_vis_78;
#X msg 464 2482 63 67 70 73 39;
#X msg 464 3270 symbol Eb7;
#X msg 724 2962 symbol Pre_2;
#X msg 1036 2482 7;
#X obj 1344 2482 s np_vis_79;
#X msg 230 2506 61 65 68 72 37;
#X msg 230 3294 symbol Dbmaj7;
#X msg 570 2986 symbol Chorus_A7;
#X msg 904 2506 8;
#X obj 1110 2506 s np_vis_80;
#X text 1250 2506 Chorus A7;
#X msg 308 2506 63 67 70 73 39;
#X msg 308 3294 symbol Eb7;
#X msg 724 2986 symbol Chorus_A7;
#X msg 948 2506 8;
#X obj 1188 2506 s np_vis_81;
#X msg 386 2506 60 63 67 70 36;
#X msg 386 3294 symbol Cm7;
#X msg 570 3010 symbol Chorus_A7;
#X msg 992 2506 8;
#X obj 1266 2506 s np_vis_82;
#X msg 464 2506 65 68 72 75 41;
#X msg 464 3294 symbol Fm7;
#X msg 724 3010 symbol Chorus_A7;
#X msg 1036 2506 8;
#X obj 1344 2506 s np_vis_83;
#X msg 230 2530 61 65 68 72 37;
#X msg 230 3318 symbol Dbmaj7;
#X msg 570 3034 symbol Chorus_A7;
#X msg 904 2530 8;
#X obj 1110 2530 s np_vis_84;
#X msg 308 2530 63 67 70 73 39;
#X msg 308 3318 symbol Eb7;
#X msg 724 3034 symbol Chorus_A7;
#X msg 948 2530 8;
#X obj 1188 2530 s np_vis_85;
#X msg 386 2530 60 63 67 70 36;
#X msg 386 3318 symbol Cm7;
#X msg 570 3058 symbol Chorus_A7;
#X msg 992 2530 8;
#X obj 1266 2530 s np_vis_86;
#X msg 464 2530 65 68 72 75 41;
#X msg 464 3318 symbol Fm7;
#X msg 724 3058 symbol Chorus_A7;
#X msg 1036 2530 8;
#X obj 1344 2530 s np_vis_87;
#X msg 230 2554 61 65 68 72 37;
#X msg 230 3342 symbol Dbmaj7;
#X msg 570 3082 symbol Chorus_A7;
#X msg 904 2554 8;
#X obj 1110 2554 s np_vis_88;
#X msg 308 2554 63 67 70 73 39;
#X msg 308 3342 symbol Eb7;
#X msg 724 3082 symbol Chorus_A7;
#X msg 948 2554 8;
#X obj 1188 2554 s np_vis_89;
#X msg 386 2554 60 63 67 70 36;
#X msg 386 3342 symbol Cm7;
#X msg 570 3106 symbol Chorus_A7;
#X msg 992 2554 8;
#X obj 1266 2554 s np_vis_90;
#X msg 464 2554 65 68 72 75 41;
#X msg 464 3342 symbol Fm7;
#X msg 724 3106 symbol Chorus_A7;
#X msg 1036 2554 8;
#X obj 1344 2554 s np_vis_91;
#X msg 230 2578 60 63 67 70 36;
#X msg 230 3366 symbol Cm7;
#X msg 570 3130 symbol Chorus_A7;
#X msg 904 2578 8;
#X obj 1110 2578 s np_vis_92;
#X msg 308 2578 58 61 65 68 34;
#X msg 308 3366 symbol Bbm7;
#X msg 724 3130 symbol Chorus_A7;
#X msg 948 2578 8;
#X obj 1188 2578 s np_vis_93;
#X msg 386 2578 57 61 64 67 33;
#X msg 386 3366 symbol A7;
#X msg 570 3154 symbol Chorus_A7;
#X msg 992 2578 8;
#X obj 1266 2578 s np_vis_94;
#X msg 464 2578 57 61 64 67 33;
#X msg 464 3366 symbol A7;
#X msg 724 3154 symbol Chorus_A7;
#X msg 1036 2578 8;
#X obj 1344 2578 s np_vis_95;
#X msg 230 2602 61 65 68 72 37;
#X msg 230 3390 symbol Dbmaj7;
#X msg 570 3178 symbol Chorus_2;
#X msg 904 2602 9;
#X obj 1110 2602 s np_vis_96;
#X text 1250 2602 Chorus 2;
#X msg 308 2602 63 67 70 73 39;
#X msg 308 3390 symbol Eb7;
#X msg 724 3178 symbol Chorus_2;
#X msg 948 2602 9;
#X obj 1188 2602 s np_vis_97;
#X msg 386 2602 65 68 72 75 41;
#X msg 386 3390 symbol Fm7;
#X msg 570 3202 symbol Chorus_2;
#X msg 992 2602 9;
#X obj 1266 2602 s np_vis_98;
#X msg 464 2602 60 63 67 70 36;
#X msg 464 3390 symbol Cm7;
#X msg 724 3202 symbol Chorus_2;
#X msg 1036 2602 9;
#X obj 1344 2602 s np_vis_99;
#X msg 230 2626 61 65 68 72 37;
#X msg 230 3414 symbol Dbmaj7;
#X msg 570 3226 symbol Chorus_2;
#X msg 904 2626 9;
#X obj 1110 2626 s np_vis_100;
#X msg 308 2626 63 67 70 73 39;
#X msg 308 3414 symbol Eb7;
#X msg 724 3226 symbol Chorus_2;
#X msg 948 2626 9;
#X obj 1188 2626 s np_vis_101;
#X msg 386 2626 65 68 72 75 41;
#X msg 386 3414 symbol Fm7;
#X msg 570 3250 symbol Chorus_2;
#X msg 992 2626 9;
#X obj 1266 2626 s np_vis_102;
#X msg 464 2626 60 63 67 70 36;
#X msg 464 3414 symbol Cm7;
#X msg 724 3250 symbol Chorus_2;
#X msg 1036 2626 9;
#X obj 1344 2626 s np_vis_103;
#X msg 230 2650 61 65 68 72 37;
#X msg 230 3438 symbol Dbmaj7;
#X msg 570 3274 symbol Chorus_2;
#X msg 904 2650 9;
#X obj 1110 2650 s np_vis_104;
#X msg 308 2650 63 67 70 73 39;
#X msg 308 3438 symbol Eb7;
#X msg 724 3274 symbol Chorus_2;
#X msg 948 2650 9;
#X obj 1188 2650 s np_vis_105;
#X msg 386 2650 65 68 72 75 41;
#X msg 386 3438 symbol Fm7;
#X msg 570 3298 symbol Chorus_2;
#X msg 992 2650 9;
#X obj 1266 2650 s np_vis_106;
#X msg 464 2650 65 68 72 75 41;
#X msg 464 3438 symbol Fm7;
#X msg 724 3298 symbol Chorus_2;
#X msg 1036 2650 9;
#X obj 1344 2650 s np_vis_107;
#X msg 230 2674 61 65 68 72 37;
#X msg 230 3462 symbol Dbmaj7;
#X msg 570 3322 symbol Chorus_2;
#X msg 904 2674 9;
#X obj 1110 2674 s np_vis_108;
#X msg 308 2674 60 63 67 70 36;
#X msg 308 3462 symbol Cm7;
#X msg 724 3322 symbol Chorus_2;
#X msg 948 2674 9;
#X obj 1188 2674 s np_vis_109;
#X msg 386 2674 58 61 65 68 34;
#X msg 386 3462 symbol Bbm7;
#X msg 570 3346 symbol Chorus_2;
#X msg 992 2674 9;
#X obj 1266 2674 s np_vis_110;
#X msg 464 2674 63 67 70 73 39;
#X msg 464 3462 symbol Eb7;
#X msg 724 3346 symbol Chorus_2;
#X msg 1036 2674 9;
#X obj 1344 2674 s np_vis_111;
#X msg 230 2698 61 65 68 72 37;
#X msg 230 3486 symbol Dbmaj7;
#X msg 570 3370 symbol Outro;
#X msg 904 2698 10;
#X obj 1110 2698 s np_vis_112;
#X text 1250 2698 Outro;
#X msg 308 2698 63 67 70 73 39;
#X msg 308 3486 symbol Eb7;
#X msg 724 3370 symbol Outro;
#X msg 948 2698 10;
#X obj 1188 2698 s np_vis_113;
#X msg 386 2698 60 63 67 70 36;
#X msg 386 3486 symbol Cm7;
#X msg 570 3394 symbol Outro;
#X msg 992 2698 10;
#X obj 1266 2698 s np_vis_114;
#X msg 464 2698 65 68 72 75 41;
#X msg 464 3486 symbol Fm7;
#X msg 724 3394 symbol Outro;
#X msg 1036 2698 10;
#X obj 1344 2698 s np_vis_115;
#X msg 230 2722 61 65 68 72 37;
#X msg 230 3510 symbol Dbmaj7;
#X msg 570 3418 symbol Outro;
#X msg 904 2722 10;
#X obj 1110 2722 s np_vis_116;
#X msg 308 2722 63 67 70 73 39;
#X msg 308 3510 symbol Eb7;
#X msg 724 3418 symbol Outro;
#X msg 948 2722 10;
#X obj 1188 2722 s np_vis_117;
#X msg 386 2722 60 63 67 70 36;
#X msg 386 3510 symbol Cm7;
#X msg 570 3442 symbol Outro;
#X msg 992 2722 10;
#X obj 1266 2722 s np_vis_118;
#X msg 464 2722 60 63 67 70 36;
#X msg 464 3510 symbol Cm7;
#X msg 724 3442 symbol Outro;
#X msg 1036 2722 10;
#X obj 1344 2722 s np_vis_119;
#X msg 230 2746 61 65 68 72 37;
#X msg 230 3534 symbol Dbmaj7;
#X msg 570 3466 symbol Outro;
#X msg 904 2746 10;
#X obj 1110 2746 s np_vis_120;
#X msg 308 2746 63 67 70 73 39;
#X msg 308 3534 symbol Eb7;
#X msg 724 3466 symbol Outro;
#X msg 948 2746 10;
#X obj 1188 2746 s np_vis_121;
#X msg 386 2746 60 63 67 70 36;
#X msg 386 3534 symbol Cm7;
#X msg 570 3490 symbol Outro;
#X msg 992 2746 10;
#X obj 1266 2746 s np_vis_122;
#X msg 464 2746 65 68 72 75 41;
#X msg 464 3534 symbol Fm7;
#X msg 724 3490 symbol Outro;
#X msg 1036 2746 10;
#X obj 1344 2746 s np_vis_123;
#X msg 230 2770 61 65 68 72 37;
#X msg 230 3558 symbol Dbmaj7;
#X msg 570 3514 symbol Outro;
#X msg 904 2770 10;
#X obj 1110 2770 s np_vis_124;
#X msg 308 2770 63 67 70 73 39;
#X msg 308 3558 symbol Eb7;
#X msg 724 3514 symbol Outro;
#X msg 948 2770 10;
#X obj 1188 2770 s np_vis_125;
#X msg 386 2770 60 63 67 70 36;
#X msg 386 3558 symbol Cm7;
#X msg 570 3538 symbol Outro;
#X msg 992 2770 10;
#X obj 1266 2770 s np_vis_126;
#X msg 464 2770 60 63 67 70 36;
#X msg 464 3558 symbol Cm7;
#X msg 724 3538 symbol Outro;
#X msg 1036 2770 10;
#X obj 1344 2770 s np_vis_127;
#X obj 976 1724 *~ 1.25;
#X connect 4 0 5 0;
#X connect 4 0 6 0;
#X connect 6 0 8 0;
#X connect 7 0 8 0;
#X connect 8 0 9 0;
#X connect 9 0 12 0;
#X connect 9 0 13 0;
#X connect 9 0 10 0;
#X connect 10 0 11 0;
#X connect 11 0 9 1;
#X connect 13 0 14 0;
#X connect 162 0 163 0;
#X connect 163 0 164 0;
#X connect 163 1 165 0;
#X connect 163 2 166 0;
#X connect 163 3 167 0;
#X connect 169 0 170 0;
#X connect 170 0 173 0;
#X connect 170 1 171 0;
#X connect 171 0 175 0;
#X connect 171 1 182 0;
#X connect 171 2 189 0;
#X connect 171 3 196 0;
#X connect 171 4 172 0;
#X connect 173 0 174 0;
#X connect 174 0 206 1;
#X connect 175 0 176 0;
#X connect 176 0 177 0;
#X connect 177 0 178 0;
#X connect 178 0 179 0;
#X connect 179 0 180 0;
#X connect 180 0 181 0;
#X connect 181 0 203 0;
#X connect 182 0 183 0;
#X connect 183 0 184 0;
#X connect 184 0 185 0;
#X connect 185 0 186 0;
#X connect 186 0 187 0;
#X connect 187 0 188 0;
#X connect 188 0 203 1;
#X connect 189 0 190 0;
#X connect 190 0 191 0;
#X connect 191 0 192 0;
#X connect 192 0 193 0;
#X connect 193 0 194 0;
#X connect 194 0 195 0;
#X connect 195 0 204 1;
#X connect 196 0 197 0;
#X connect 197 0 198 0;
#X connect 198 0 199 0;
#X connect 199 0 200 0;
#X connect 200 0 201 0;
#X connect 201 0 202 0;
#X connect 202 0 205 1;
#X connect 203 0 204 0;
#X connect 204 0 205 0;
#X connect 205 0 206 0;
#X connect 206 0 207 0;
#X connect 207 0 208 0;
#X connect 207 0 210 0;
#X connect 208 0 209 0;
#X connect 210 0 211 0;
#X connect 213 0 214 1;
#X connect 213 0 217 0;
#X connect 213 0 218 0;
#X connect 214 0 223 0;
#X connect 215 0 223 0;
#X connect 216 0 223 0;
#X connect 217 0 215 1;
#X connect 218 0 216 1;
#X connect 219 0 220 0;
#X connect 219 0 221 0;
#X connect 219 0 222 0;
#X connect 220 0 214 0;
#X connect 220 0 232 0;
#X connect 220 1 214 0;
#X connect 220 1 232 0;
#X connect 221 0 216 0;
#X connect 221 0 232 0;
#X connect 221 1 216 0;
#X connect 221 1 232 0;
#X connect 222 0 215 0;
#X connect 222 0 232 0;
#X connect 223 0 224 0;
#X connect 224 0 225 0;
#X connect 225 0 226 0;
#X connect 225 0 227 0;
#X connect 226 0 229 0;
#X connect 227 0 228 0;
#X connect 228 0 230 0;
#X connect 229 0 231 0;
#X connect 230 0 231 1;
#X connect 231 0 234 0;
#X connect 232 0 233 0;
#X connect 233 0 234 1;
#X connect 234 0 235 0;
#X connect 235 0 236 0;
#X connect 235 0 238 0;
#X connect 236 0 237 0;
#X connect 238 0 239 0;
#X connect 241 0 242 0;
#X connect 242 0 254 0;
#X connect 242 0 251 0;
#X connect 242 1 255 0;
#X connect 242 1 251 0;
#X connect 242 2 256 0;
#X connect 242 2 251 0;
#X connect 242 3 257 0;
#X connect 242 3 251 0;
#X connect 242 4 258 0;
#X connect 242 4 251 0;
#X connect 242 5 259 0;
#X connect 242 5 251 0;
#X connect 243 0 244 0;
#X connect 244 0 245 0;
#X connect 245 0 246 0;
#X connect 246 0 247 0;
#X connect 247 0 248 0;
#X connect 248 0 249 0;
#X connect 249 0 250 0;
#X connect 250 0 253 0;
#X connect 251 0 252 0;
#X connect 252 0 253 1;
#X connect 253 0 260 0;
#X connect 253 0 262 0;
#X connect 254 0 243 0;
#X connect 255 0 243 0;
#X connect 256 0 243 0;
#X connect 257 0 243 0;
#X connect 258 0 243 0;
#X connect 259 0 243 0;
#X connect 260 0 261 0;
#X connect 262 0 263 0;
#X connect 265 0 266 0;
#X connect 266 0 267 0;
#X connect 266 0 270 0;
#X connect 266 1 267 0;
#X connect 266 1 270 0;
#X connect 266 2 267 0;
#X connect 266 2 270 0;
#X connect 266 3 267 0;
#X connect 266 3 270 0;
#X connect 267 0 268 0;
#X connect 268 0 269 0;
#X connect 269 0 272 0;
#X connect 270 0 271 0;
#X connect 271 0 272 1;
#X connect 272 0 273 0;
#X connect 273 0 274 0;
#X connect 274 0 275 0;
#X connect 276 0 277 0;
#X connect 277 0 280 0;
#X connect 277 1 280 0;
#X connect 278 0 279 0;
#X connect 279 0 282 0;
#X connect 280 0 281 0;
#X connect 281 0 282 1;
#X connect 282 0 283 0;
#X connect 282 0 285 0;
#X connect 283 0 284 0;
#X connect 285 0 286 0;
#X connect 287 0 288 0;
#X connect 288 0 291 0;
#X connect 288 1 291 0;
#X connect 288 2 291 0;
#X connect 288 3 291 0;
#X connect 288 4 291 0;
#X connect 288 5 291 0;
#X connect 289 0 290 0;
#X connect 290 0 293 0;
#X connect 291 0 292 0;
#X connect 292 0 293 1;
#X connect 293 0 294 0;
#X connect 293 0 296 0;
#X connect 294 0 295 0;
#X connect 296 0 297 0;
#X connect 299 0 300 0;
#X connect 300 0 303 0;
#X connect 300 1 303 0;
#X connect 300 2 303 0;
#X connect 300 3 303 0;
#X connect 300 4 303 0;
#X connect 300 5 303 0;
#X connect 300 6 303 0;
#X connect 300 7 303 0;
#X connect 300 8 303 0;
#X connect 300 9 303 0;
#X connect 301 0 302 0;
#X connect 302 0 305 0;
#X connect 303 0 304 0;
#X connect 304 0 305 1;
#X connect 305 0 306 0;
#X connect 305 0 308 0;
#X connect 306 0 307 0;
#X connect 308 0 309 0;
#X connect 311 0 312 0;
#X connect 313 0 314 0;
#X connect 314 0 317 0;
#X connect 315 0 316 0;
#X connect 316 0 317 1;
#X connect 317 0 318 0;
#X connect 320 0 321 0;
#X connect 321 0 322 0;
#X connect 322 0 982 0;
#X connect 326 0 327 0;
#X connect 327 0 332 0;
#X connect 327 0 333 0;
#X connect 327 0 334 0;
#X connect 327 0 335 0;
#X connect 327 0 336 0;
#X connect 327 1 338 0;
#X connect 327 1 339 0;
#X connect 327 1 340 0;
#X connect 327 1 341 0;
#X connect 327 1 342 0;
#X connect 327 2 343 0;
#X connect 327 2 344 0;
#X connect 327 2 345 0;
#X connect 327 2 346 0;
#X connect 327 2 347 0;
#X connect 327 3 348 0;
#X connect 327 3 349 0;
#X connect 327 3 350 0;
#X connect 327 3 351 0;
#X connect 327 3 352 0;
#X connect 327 4 353 0;
#X connect 327 4 354 0;
#X connect 327 4 355 0;
#X connect 327 4 356 0;
#X connect 327 4 357 0;
#X connect 327 5 358 0;
#X connect 327 5 359 0;
#X connect 327 5 360 0;
#X connect 327 5 361 0;
#X connect 327 5 362 0;
#X connect 327 6 363 0;
#X connect 327 6 364 0;
#X connect 327 6 365 0;
#X connect 327 6 366 0;
#X connect 327 6 367 0;
#X connect 327 7 368 0;
#X connect 327 7 369 0;
#X connect 327 7 370 0;
#X connect 327 7 371 0;
#X connect 327 7 372 0;
#X connect 327 8 373 0;
#X connect 327 8 374 0;
#X connect 327 8 375 0;
#X connect 327 8 376 0;
#X connect 327 8 377 0;
#X connect 327 9 378 0;
#X connect 327 9 379 0;
#X connect 327 9 380 0;
#X connect 327 9 381 0;
#X connect 327 9 382 0;
#X connect 327 10 383 0;
#X connect 327 10 384 0;
#X connect 327 10 385 0;
#X connect 327 10 386 0;
#X connect 327 10 387 0;
#X connect 327 11 388 0;
#X connect 327 11 389 0;
#X connect 327 11 390 0;
#X connect 327 11 391 0;
#X connect 327 11 392 0;
#X connect 327 12 393 0;
#X connect 327 12 394 0;
#X connect 327 12 395 0;
#X connect 327 12 396 0;
#X connect 327 12 397 0;
#X connect 327 13 398 0;
#X connect 327 13 399 0;
#X connect 327 13 400 0;
#X connect 327 13 401 0;
#X connect 327 13 402 0;
#X connect 327 14 403 0;
#X connect 327 14 404 0;
#X connect 327 14 405 0;
#X connect 327 14 406 0;
#X connect 327 14 407 0;
#X connect 327 15 408 0;
#X connect 327 15 409 0;
#X connect 327 15 410 0;
#X connect 327 15 411 0;
#X connect 327 15 412 0;
#X connect 327 16 413 0;
#X connect 327 16 414 0;
#X connect 327 16 415 0;
#X connect 327 16 416 0;
#X connect 327 16 417 0;
#X connect 327 17 419 0;
#X connect 327 17 420 0;
#X connect 327 17 421 0;
#X connect 327 17 422 0;
#X connect 327 17 423 0;
#X connect 327 18 424 0;
#X connect 327 18 425 0;
#X connect 327 18 426 0;
#X connect 327 18 427 0;
#X connect 327 18 428 0;
#X connect 327 19 429 0;
#X connect 327 19 430 0;
#X connect 327 19 431 0;
#X connect 327 19 432 0;
#X connect 327 19 433 0;
#X connect 327 20 434 0;
#X connect 327 20 435 0;
#X connect 327 20 436 0;
#X connect 327 20 437 0;
#X connect 327 20 438 0;
#X connect 327 21 439 0;
#X connect 327 21 440 0;
#X connect 327 21 441 0;
#X connect 327 21 442 0;
#X connect 327 21 443 0;
#X connect 327 22 444 0;
#X connect 327 22 445 0;
#X connect 327 22 446 0;
#X connect 327 22 447 0;
#X connect 327 22 448 0;
#X connect 327 23 449 0;
#X connect 327 23 450 0;
#X connect 327 23 451 0;
#X connect 327 23 452 0;
#X connect 327 23 453 0;
#X connect 327 24 454 0;
#X connect 327 24 455 0;
#X connect 327 24 456 0;
#X connect 327 24 457 0;
#X connect 327 24 458 0;
#X connect 327 25 460 0;
#X connect 327 25 461 0;
#X connect 327 25 462 0;
#X connect 327 25 463 0;
#X connect 327 25 464 0;
#X connect 327 26 465 0;
#X connect 327 26 466 0;
#X connect 327 26 467 0;
#X connect 327 26 468 0;
#X connect 327 26 469 0;
#X connect 327 27 470 0;
#X connect 327 27 471 0;
#X connect 327 27 472 0;
#X connect 327 27 473 0;
#X connect 327 27 474 0;
#X connect 327 28 475 0;
#X connect 327 28 476 0;
#X connect 327 28 477 0;
#X connect 327 28 478 0;
#X connect 327 28 479 0;
#X connect 327 29 480 0;
#X connect 327 29 481 0;
#X connect 327 29 482 0;
#X connect 327 29 483 0;
#X connect 327 29 484 0;
#X connect 327 30 485 0;
#X connect 327 30 486 0;
#X connect 327 30 487 0;
#X connect 327 30 488 0;
#X connect 327 30 489 0;
#X connect 327 31 490 0;
#X connect 327 31 491 0;
#X connect 327 31 492 0;
#X connect 327 31 493 0;
#X connect 327 31 494 0;
#X connect 327 32 495 0;
#X connect 327 32 496 0;
#X connect 327 32 497 0;
#X connect 327 32 498 0;
#X connect 327 32 499 0;
#X connect 327 33 501 0;
#X connect 327 33 502 0;
#X connect 327 33 503 0;
#X connect 327 33 504 0;
#X connect 327 33 505 0;
#X connect 327 34 506 0;
#X connect 327 34 507 0;
#X connect 327 34 508 0;
#X connect 327 34 509 0;
#X connect 327 34 510 0;
#X connect 327 35 511 0;
#X connect 327 35 512 0;
#X connect 327 35 513 0;
#X connect 327 35 514 0;
#X connect 327 35 515 0;
#X connect 327 36 516 0;
#X connect 327 36 517 0;
#X connect 327 36 518 0;
#X connect 327 36 519 0;
#X connect 327 36 520 0;
#X connect 327 37 521 0;
#X connect 327 37 522 0;
#X connect 327 37 523 0;
#X connect 327 37 524 0;
#X connect 327 37 525 0;
#X connect 327 38 526 0;
#X connect 327 38 527 0;
#X connect 327 38 528 0;
#X connect 327 38 529 0;
#X connect 327 38 530 0;
#X connect 327 39 531 0;
#X connect 327 39 532 0;
#X connect 327 39 533 0;
#X connect 327 39 534 0;
#X connect 327 39 535 0;
#X connect 327 40 536 0;
#X connect 327 40 537 0;
#X connect 327 40 538 0;
#X connect 327 40 539 0;
#X connect 327 40 540 0;
#X connect 327 41 541 0;
#X connect 327 41 542 0;
#X connect 327 41 543 0;
#X connect 327 41 544 0;
#X connect 327 41 545 0;
#X connect 327 42 546 0;
#X connect 327 42 547 0;
#X connect 327 42 548 0;
#X connect 327 42 549 0;
#X connect 327 42 550 0;
#X connect 327 43 551 0;
#X connect 327 43 552 0;
#X connect 327 43 553 0;
#X connect 327 43 554 0;
#X connect 327 43 555 0;
#X connect 327 44 556 0;
#X connect 327 44 557 0;
#X connect 327 44 558 0;
#X connect 327 44 559 0;
#X connect 327 44 560 0;
#X connect 327 45 561 0;
#X connect 327 45 562 0;
#X connect 327 45 563 0;
#X connect 327 45 564 0;
#X connect 327 45 565 0;
#X connect 327 46 566 0;
#X connect 327 46 567 0;
#X connect 327 46 568 0;
#X connect 327 46 569 0;
#X connect 327 46 570 0;
#X connect 327 47 571 0;
#X connect 327 47 572 0;
#X connect 327 47 573 0;
#X connect 327 47 574 0;
#X connect 327 47 575 0;
#X connect 327 48 576 0;
#X connect 327 48 577 0;
#X connect 327 48 578 0;
#X connect 327 48 579 0;
#X connect 327 48 580 0;
#X connect 327 49 582 0;
#X connect 327 49 583 0;
#X connect 327 49 584 0;
#X connect 327 49 585 0;
#X connect 327 49 586 0;
#X connect 327 50 587 0;
#X connect 327 50 588 0;
#X connect 327 50 589 0;
#X connect 327 50 590 0;
#X connect 327 50 591 0;
#X connect 327 51 592 0;
#X connect 327 51 593 0;
#X connect 327 51 594 0;
#X connect 327 51 595 0;
#X connect 327 51 596 0;
#X connect 327 52 597 0;
#X connect 327 52 598 0;
#X connect 327 52 599 0;
#X connect 327 52 600 0;
#X connect 327 52 601 0;
#X connect 327 53 602 0;
#X connect 327 53 603 0;
#X connect 327 53 604 0;
#X connect 327 53 605 0;
#X connect 327 53 606 0;
#X connect 327 54 607 0;
#X connect 327 54 608 0;
#X connect 327 54 609 0;
#X connect 327 54 610 0;
#X connect 327 54 611 0;
#X connect 327 55 612 0;
#X connect 327 55 613 0;
#X connect 327 55 614 0;
#X connect 327 55 615 0;
#X connect 327 55 616 0;
#X connect 327 56 617 0;
#X connect 327 56 618 0;
#X connect 327 56 619 0;
#X connect 327 56 620 0;
#X connect 327 56 621 0;
#X connect 327 57 622 0;
#X connect 327 57 623 0;
#X connect 327 57 624 0;
#X connect 327 57 625 0;
#X connect 327 57 626 0;
#X connect 327 58 627 0;
#X connect 327 58 628 0;
#X connect 327 58 629 0;
#X connect 327 58 630 0;
#X connect 327 58 631 0;
#X connect 327 59 632 0;
#X connect 327 59 633 0;
#X connect 327 59 634 0;
#X connect 327 59 635 0;
#X connect 327 59 636 0;
#X connect 327 60 637 0;
#X connect 327 60 638 0;
#X connect 327 60 639 0;
#X connect 327 60 640 0;
#X connect 327 60 641 0;
#X connect 327 61 642 0;
#X connect 327 61 643 0;
#X connect 327 61 644 0;
#X connect 327 61 645 0;
#X connect 327 61 646 0;
#X connect 327 62 647 0;
#X connect 327 62 648 0;
#X connect 327 62 649 0;
#X connect 327 62 650 0;
#X connect 327 62 651 0;
#X connect 327 63 652 0;
#X connect 327 63 653 0;
#X connect 327 63 654 0;
#X connect 327 63 655 0;
#X connect 327 63 656 0;
#X connect 327 64 657 0;
#X connect 327 64 658 0;
#X connect 327 64 659 0;
#X connect 327 64 660 0;
#X connect 327 64 661 0;
#X connect 327 65 663 0;
#X connect 327 65 664 0;
#X connect 327 65 665 0;
#X connect 327 65 666 0;
#X connect 327 65 667 0;
#X connect 327 66 668 0;
#X connect 327 66 669 0;
#X connect 327 66 670 0;
#X connect 327 66 671 0;
#X connect 327 66 672 0;
#X connect 327 67 673 0;
#X connect 327 67 674 0;
#X connect 327 67 675 0;
#X connect 327 67 676 0;
#X connect 327 67 677 0;
#X connect 327 68 678 0;
#X connect 327 68 679 0;
#X connect 327 68 680 0;
#X connect 327 68 681 0;
#X connect 327 68 682 0;
#X connect 327 69 683 0;
#X connect 327 69 684 0;
#X connect 327 69 685 0;
#X connect 327 69 686 0;
#X connect 327 69 687 0;
#X connect 327 70 688 0;
#X connect 327 70 689 0;
#X connect 327 70 690 0;
#X connect 327 70 691 0;
#X connect 327 70 692 0;
#X connect 327 71 693 0;
#X connect 327 71 694 0;
#X connect 327 71 695 0;
#X connect 327 71 696 0;
#X connect 327 71 697 0;
#X connect 327 72 698 0;
#X connect 327 72 699 0;
#X connect 327 72 700 0;
#X connect 327 72 701 0;
#X connect 327 72 702 0;
#X connect 327 73 704 0;
#X connect 327 73 705 0;
#X connect 327 73 706 0;
#X connect 327 73 707 0;
#X connect 327 73 708 0;
#X connect 327 74 709 0;
#X connect 327 74 710 0;
#X connect 327 74 711 0;
#X connect 327 74 712 0;
#X connect 327 74 713 0;
#X connect 327 75 714 0;
#X connect 327 75 715 0;
#X connect 327 75 716 0;
#X connect 327 75 717 0;
#X connect 327 75 718 0;
#X connect 327 76 719 0;
#X connect 327 76 720 0;
#X connect 327 76 721 0;
#X connect 327 76 722 0;
#X connect 327 76 723 0;
#X connect 327 77 724 0;
#X connect 327 77 725 0;
#X connect 327 77 726 0;
#X connect 327 77 727 0;
#X connect 327 77 728 0;
#X connect 327 78 729 0;
#X connect 327 78 730 0;
#X connect 327 78 731 0;
#X connect 327 78 732 0;
#X connect 327 78 733 0;
#X connect 327 79 734 0;
#X connect 327 79 735 0;
#X connect 327 79 736 0;
#X connect 327 79 737 0;
#X connect 327 79 738 0;
#X connect 327 80 739 0;
#X connect 327 80 740 0;
#X connect 327 80 741 0;
#X connect 327 80 742 0;
#X connect 327 80 743 0;
#X connect 327 81 745 0;
#X connect 327 81 746 0;
#X connect 327 81 747 0;
#X connect 327 81 748 0;
#X connect 327 81 749 0;
#X connect 327 82 750 0;
#X connect 327 82 751 0;
#X connect 327 82 752 0;
#X connect 327 82 753 0;
#X connect 327 82 754 0;
#X connect 327 83 755 0;
#X connect 327 83 756 0;
#X connect 327 83 757 0;
#X connect 327 83 758 0;
#X connect 327 83 759 0;
#X connect 327 84 760 0;
#X connect 327 84 761 0;
#X connect 327 84 762 0;
#X connect 327 84 763 0;
#X connect 327 84 764 0;
#X connect 327 85 765 0;
#X connect 327 85 766 0;
#X connect 327 85 767 0;
#X connect 327 85 768 0;
#X connect 327 85 769 0;
#X connect 327 86 770 0;
#X connect 327 86 771 0;
#X connect 327 86 772 0;
#X connect 327 86 773 0;
#X connect 327 86 774 0;
#X connect 327 87 775 0;
#X connect 327 87 776 0;
#X connect 327 87 777 0;
#X connect 327 87 778 0;
#X connect 327 87 779 0;
#X connect 327 88 780 0;
#X connect 327 88 781 0;
#X connect 327 88 782 0;
#X connect 327 88 783 0;
#X connect 327 88 784 0;
#X connect 327 89 785 0;
#X connect 327 89 786 0;
#X connect 327 89 787 0;
#X connect 327 89 788 0;
#X connect 327 89 789 0;
#X connect 327 90 790 0;
#X connect 327 90 791 0;
#X connect 327 90 792 0;
#X connect 327 90 793 0;
#X connect 327 90 794 0;
#X connect 327 91 795 0;
#X connect 327 91 796 0;
#X connect 327 91 797 0;
#X connect 327 91 798 0;
#X connect 327 91 799 0;
#X connect 327 92 800 0;
#X connect 327 92 801 0;
#X connect 327 92 802 0;
#X connect 327 92 803 0;
#X connect 327 92 804 0;
#X connect 327 93 805 0;
#X connect 327 93 806 0;
#X connect 327 93 807 0;
#X connect 327 93 808 0;
#X connect 327 93 809 0;
#X connect 327 94 810 0;
#X connect 327 94 811 0;
#X connect 327 94 812 0;
#X connect 327 94 813 0;
#X connect 327 94 814 0;
#X connect 327 95 815 0;
#X connect 327 95 816 0;
#X connect 327 95 817 0;
#X connect 327 95 818 0;
#X connect 327 95 819 0;
#X connect 327 96 820 0;
#X connect 327 96 821 0;
#X connect 327 96 822 0;
#X connect 327 96 823 0;
#X connect 327 96 824 0;
#X connect 327 97 826 0;
#X connect 327 97 827 0;
#X connect 327 97 828 0;
#X connect 327 97 829 0;
#X connect 327 97 830 0;
#X connect 327 98 831 0;
#X connect 327 98 832 0;
#X connect 327 98 833 0;
#X connect 327 98 834 0;
#X connect 327 98 835 0;
#X connect 327 99 836 0;
#X connect 327 99 837 0;
#X connect 327 99 838 0;
#X connect 327 99 839 0;
#X connect 327 99 840 0;
#X connect 327 100 841 0;
#X connect 327 100 842 0;
#X connect 327 100 843 0;
#X connect 327 100 844 0;
#X connect 327 100 845 0;
#X connect 327 101 846 0;
#X connect 327 101 847 0;
#X connect 327 101 848 0;
#X connect 327 101 849 0;
#X connect 327 101 850 0;
#X connect 327 102 851 0;
#X connect 327 102 852 0;
#X connect 327 102 853 0;
#X connect 327 102 854 0;
#X connect 327 102 855 0;
#X connect 327 103 856 0;
#X connect 327 103 857 0;
#X connect 327 103 858 0;
#X connect 327 103 859 0;
#X connect 327 103 860 0;
#X connect 327 104 861 0;
#X connect 327 104 862 0;
#X connect 327 104 863 0;
#X connect 327 104 864 0;
#X connect 327 104 865 0;
#X connect 327 105 866 0;
#X connect 327 105 867 0;
#X connect 327 105 868 0;
#X connect 327 105 869 0;
#X connect 327 105 870 0;
#X connect 327 106 871 0;
#X connect 327 106 872 0;
#X connect 327 106 873 0;
#X connect 327 106 874 0;
#X connect 327 106 875 0;
#X connect 327 107 876 0;
#X connect 327 107 877 0;
#X connect 327 107 878 0;
#X connect 327 107 879 0;
#X connect 327 107 880 0;
#X connect 327 108 881 0;
#X connect 327 108 882 0;
#X connect 327 108 883 0;
#X connect 327 108 884 0;
#X connect 327 108 885 0;
#X connect 327 109 886 0;
#X connect 327 109 887 0;
#X connect 327 109 888 0;
#X connect 327 109 889 0;
#X connect 327 109 890 0;
#X connect 327 110 891 0;
#X connect 327 110 892 0;
#X connect 327 110 893 0;
#X connect 327 110 894 0;
#X connect 327 110 895 0;
#X connect 327 111 896 0;
#X connect 327 111 897 0;
#X connect 327 111 898 0;
#X connect 327 111 899 0;
#X connect 327 111 900 0;
#X connect 327 112 901 0;
#X connect 327 112 902 0;
#X connect 327 112 903 0;
#X connect 327 112 904 0;
#X connect 327 112 905 0;
#X connect 327 113 907 0;
#X connect 327 113 908 0;
#X connect 327 113 909 0;
#X connect 327 113 910 0;
#X connect 327 113 911 0;
#X connect 327 114 912 0;
#X connect 327 114 913 0;
#X connect 327 114 914 0;
#X connect 327 114 915 0;
#X connect 327 114 916 0;
#X connect 327 115 917 0;
#X connect 327 115 918 0;
#X connect 327 115 919 0;
#X connect 327 115 920 0;
#X connect 327 115 921 0;
#X connect 327 116 922 0;
#X connect 327 116 923 0;
#X connect 327 116 924 0;
#X connect 327 116 925 0;
#X connect 327 116 926 0;
#X connect 327 117 927 0;
#X connect 327 117 928 0;
#X connect 327 117 929 0;
#X connect 327 117 930 0;
#X connect 327 117 931 0;
#X connect 327 118 932 0;
#X connect 327 118 933 0;
#X connect 327 118 934 0;
#X connect 327 118 935 0;
#X connect 327 118 936 0;
#X connect 327 119 937 0;
#X connect 327 119 938 0;
#X connect 327 119 939 0;
#X connect 327 119 940 0;
#X connect 327 119 941 0;
#X connect 327 120 942 0;
#X connect 327 120 943 0;
#X connect 327 120 944 0;
#X connect 327 120 945 0;
#X connect 327 120 946 0;
#X connect 327 121 947 0;
#X connect 327 121 948 0;
#X connect 327 121 949 0;
#X connect 327 121 950 0;
#X connect 327 121 951 0;
#X connect 327 122 952 0;
#X connect 327 122 953 0;
#X connect 327 122 954 0;
#X connect 327 122 955 0;
#X connect 327 122 956 0;
#X connect 327 123 957 0;
#X connect 327 123 958 0;
#X connect 327 123 959 0;
#X connect 327 123 960 0;
#X connect 327 123 961 0;
#X connect 327 124 962 0;
#X connect 327 124 963 0;
#X connect 327 124 964 0;
#X connect 327 124 965 0;
#X connect 327 124 966 0;
#X connect 327 125 967 0;
#X connect 327 125 968 0;
#X connect 327 125 969 0;
#X connect 327 125 970 0;
#X connect 327 125 971 0;
#X connect 327 126 972 0;
#X connect 327 126 973 0;
#X connect 327 126 974 0;
#X connect 327 126 975 0;
#X connect 327 126 976 0;
#X connect 327 127 977 0;
#X connect 327 127 978 0;
#X connect 327 127 979 0;
#X connect 327 127 980 0;
#X connect 327 127 981 0;
#X connect 332 0 328 0;
#X connect 333 0 329 0;
#X connect 334 0 330 0;
#X connect 335 0 331 0;
#X connect 338 0 328 0;
#X connect 339 0 329 0;
#X connect 340 0 330 0;
#X connect 341 0 331 0;
#X connect 343 0 328 0;
#X connect 344 0 329 0;
#X connect 345 0 330 0;
#X connect 346 0 331 0;
#X connect 348 0 328 0;
#X connect 349 0 329 0;
#X connect 350 0 330 0;
#X connect 351 0 331 0;
#X connect 353 0 328 0;
#X connect 354 0 329 0;
#X connect 355 0 330 0;
#X connect 356 0 331 0;
#X connect 358 0 328 0;
#X connect 359 0 329 0;
#X connect 360 0 330 0;
#X connect 361 0 331 0;
#X connect 363 0 328 0;
#X connect 364 0 329 0;
#X connect 365 0 330 0;
#X connect 366 0 331 0;
#X connect 368 0 328 0;
#X connect 369 0 329 0;
#X connect 370 0 330 0;
#X connect 371 0 331 0;
#X connect 373 0 328 0;
#X connect 374 0 329 0;
#X connect 375 0 330 0;
#X connect 376 0 331 0;
#X connect 378 0 328 0;
#X connect 379 0 329 0;
#X connect 380 0 330 0;
#X connect 381 0 331 0;
#X connect 383 0 328 0;
#X connect 384 0 329 0;
#X connect 385 0 330 0;
#X connect 386 0 331 0;
#X connect 388 0 328 0;
#X connect 389 0 329 0;
#X connect 390 0 330 0;
#X connect 391 0 331 0;
#X connect 393 0 328 0;
#X connect 394 0 329 0;
#X connect 395 0 330 0;
#X connect 396 0 331 0;
#X connect 398 0 328 0;
#X connect 399 0 329 0;
#X connect 400 0 330 0;
#X connect 401 0 331 0;
#X connect 403 0 328 0;
#X connect 404 0 329 0;
#X connect 405 0 330 0;
#X connect 406 0 331 0;
#X connect 408 0 328 0;
#X connect 409 0 329 0;
#X connect 410 0 330 0;
#X connect 411 0 331 0;
#X connect 413 0 328 0;
#X connect 414 0 329 0;
#X connect 415 0 330 0;
#X connect 416 0 331 0;
#X connect 419 0 328 0;
#X connect 420 0 329 0;
#X connect 421 0 330 0;
#X connect 422 0 331 0;
#X connect 424 0 328 0;
#X connect 425 0 329 0;
#X connect 426 0 330 0;
#X connect 427 0 331 0;
#X connect 429 0 328 0;
#X connect 430 0 329 0;
#X connect 431 0 330 0;
#X connect 432 0 331 0;
#X connect 434 0 328 0;
#X connect 435 0 329 0;
#X connect 436 0 330 0;
#X connect 437 0 331 0;
#X connect 439 0 328 0;
#X connect 440 0 329 0;
#X connect 441 0 330 0;
#X connect 442 0 331 0;
#X connect 444 0 328 0;
#X connect 445 0 329 0;
#X connect 446 0 330 0;
#X connect 447 0 331 0;
#X connect 449 0 328 0;
#X connect 450 0 329 0;
#X connect 451 0 330 0;
#X connect 452 0 331 0;
#X connect 454 0 328 0;
#X connect 455 0 329 0;
#X connect 456 0 330 0;
#X connect 457 0 331 0;
#X connect 460 0 328 0;
#X connect 461 0 329 0;
#X connect 462 0 330 0;
#X connect 463 0 331 0;
#X connect 465 0 328 0;
#X connect 466 0 329 0;
#X connect 467 0 330 0;
#X connect 468 0 331 0;
#X connect 470 0 328 0;
#X connect 471 0 329 0;
#X connect 472 0 330 0;
#X connect 473 0 331 0;
#X connect 475 0 328 0;
#X connect 476 0 329 0;
#X connect 477 0 330 0;
#X connect 478 0 331 0;
#X connect 480 0 328 0;
#X connect 481 0 329 0;
#X connect 482 0 330 0;
#X connect 483 0 331 0;
#X connect 485 0 328 0;
#X connect 486 0 329 0;
#X connect 487 0 330 0;
#X connect 488 0 331 0;
#X connect 490 0 328 0;
#X connect 491 0 329 0;
#X connect 492 0 330 0;
#X connect 493 0 331 0;
#X connect 495 0 328 0;
#X connect 496 0 329 0;
#X connect 497 0 330 0;
#X connect 498 0 331 0;
#X connect 501 0 328 0;
#X connect 502 0 329 0;
#X connect 503 0 330 0;
#X connect 504 0 331 0;
#X connect 506 0 328 0;
#X connect 507 0 329 0;
#X connect 508 0 330 0;
#X connect 509 0 331 0;
#X connect 511 0 328 0;
#X connect 512 0 329 0;
#X connect 513 0 330 0;
#X connect 514 0 331 0;
#X connect 516 0 328 0;
#X connect 517 0 329 0;
#X connect 518 0 330 0;
#X connect 519 0 331 0;
#X connect 521 0 328 0;
#X connect 522 0 329 0;
#X connect 523 0 330 0;
#X connect 524 0 331 0;
#X connect 526 0 328 0;
#X connect 527 0 329 0;
#X connect 528 0 330 0;
#X connect 529 0 331 0;
#X connect 531 0 328 0;
#X connect 532 0 329 0;
#X connect 533 0 330 0;
#X connect 534 0 331 0;
#X connect 536 0 328 0;
#X connect 537 0 329 0;
#X connect 538 0 330 0;
#X connect 539 0 331 0;
#X connect 541 0 328 0;
#X connect 542 0 329 0;
#X connect 543 0 330 0;
#X connect 544 0 331 0;
#X connect 546 0 328 0;
#X connect 547 0 329 0;
#X connect 548 0 330 0;
#X connect 549 0 331 0;
#X connect 551 0 328 0;
#X connect 552 0 329 0;
#X connect 553 0 330 0;
#X connect 554 0 331 0;
#X connect 556 0 328 0;
#X connect 557 0 329 0;
#X connect 558 0 330 0;
#X connect 559 0 331 0;
#X connect 561 0 328 0;
#X connect 562 0 329 0;
#X connect 563 0 330 0;
#X connect 564 0 331 0;
#X connect 566 0 328 0;
#X connect 567 0 329 0;
#X connect 568 0 330 0;
#X connect 569 0 331 0;
#X connect 571 0 328 0;
#X connect 572 0 329 0;
#X connect 573 0 330 0;
#X connect 574 0 331 0;
#X connect 576 0 328 0;
#X connect 577 0 329 0;
#X connect 578 0 330 0;
#X connect 579 0 331 0;
#X connect 582 0 328 0;
#X connect 583 0 329 0;
#X connect 584 0 330 0;
#X connect 585 0 331 0;
#X connect 587 0 328 0;
#X connect 588 0 329 0;
#X connect 589 0 330 0;
#X connect 590 0 331 0;
#X connect 592 0 328 0;
#X connect 593 0 329 0;
#X connect 594 0 330 0;
#X connect 595 0 331 0;
#X connect 597 0 328 0;
#X connect 598 0 329 0;
#X connect 599 0 330 0;
#X connect 600 0 331 0;
#X connect 602 0 328 0;
#X connect 603 0 329 0;
#X connect 604 0 330 0;
#X connect 605 0 331 0;
#X connect 607 0 328 0;
#X connect 608 0 329 0;
#X connect 609 0 330 0;
#X connect 610 0 331 0;
#X connect 612 0 328 0;
#X connect 613 0 329 0;
#X connect 614 0 330 0;
#X connect 615 0 331 0;
#X connect 617 0 328 0;
#X connect 618 0 329 0;
#X connect 619 0 330 0;
#X connect 620 0 331 0;
#X connect 622 0 328 0;
#X connect 623 0 329 0;
#X connect 624 0 330 0;
#X connect 625 0 331 0;
#X connect 627 0 328 0;
#X connect 628 0 329 0;
#X connect 629 0 330 0;
#X connect 630 0 331 0;
#X connect 632 0 328 0;
#X connect 633 0 329 0;
#X connect 634 0 330 0;
#X connect 635 0 331 0;
#X connect 637 0 328 0;
#X connect 638 0 329 0;
#X connect 639 0 330 0;
#X connect 640 0 331 0;
#X connect 642 0 328 0;
#X connect 643 0 329 0;
#X connect 644 0 330 0;
#X connect 645 0 331 0;
#X connect 647 0 328 0;
#X connect 648 0 329 0;
#X connect 649 0 330 0;
#X connect 650 0 331 0;
#X connect 652 0 328 0;
#X connect 653 0 329 0;
#X connect 654 0 330 0;
#X connect 655 0 331 0;
#X connect 657 0 328 0;
#X connect 658 0 329 0;
#X connect 659 0 330 0;
#X connect 660 0 331 0;
#X connect 663 0 328 0;
#X connect 664 0 329 0;
#X connect 665 0 330 0;
#X connect 666 0 331 0;
#X connect 668 0 328 0;
#X connect 669 0 329 0;
#X connect 670 0 330 0;
#X connect 671 0 331 0;
#X connect 673 0 328 0;
#X connect 674 0 329 0;
#X connect 675 0 330 0;
#X connect 676 0 331 0;
#X connect 678 0 328 0;
#X connect 679 0 329 0;
#X connect 680 0 330 0;
#X connect 681 0 331 0;
#X connect 683 0 328 0;
#X connect 684 0 329 0;
#X connect 685 0 330 0;
#X connect 686 0 331 0;
#X connect 688 0 328 0;
#X connect 689 0 329 0;
#X connect 690 0 330 0;
#X connect 691 0 331 0;
#X connect 693 0 328 0;
#X connect 694 0 329 0;
#X connect 695 0 330 0;
#X connect 696 0 331 0;
#X connect 698 0 328 0;
#X connect 699 0 329 0;
#X connect 700 0 330 0;
#X connect 701 0 331 0;
#X connect 704 0 328 0;
#X connect 705 0 329 0;
#X connect 706 0 330 0;
#X connect 707 0 331 0;
#X connect 709 0 328 0;
#X connect 710 0 329 0;
#X connect 711 0 330 0;
#X connect 712 0 331 0;
#X connect 714 0 328 0;
#X connect 715 0 329 0;
#X connect 716 0 330 0;
#X connect 717 0 331 0;
#X connect 719 0 328 0;
#X connect 720 0 329 0;
#X connect 721 0 330 0;
#X connect 722 0 331 0;
#X connect 724 0 328 0;
#X connect 725 0 329 0;
#X connect 726 0 330 0;
#X connect 727 0 331 0;
#X connect 729 0 328 0;
#X connect 730 0 329 0;
#X connect 731 0 330 0;
#X connect 732 0 331 0;
#X connect 734 0 328 0;
#X connect 735 0 329 0;
#X connect 736 0 330 0;
#X connect 737 0 331 0;
#X connect 739 0 328 0;
#X connect 740 0 329 0;
#X connect 741 0 330 0;
#X connect 742 0 331 0;
#X connect 745 0 328 0;
#X connect 746 0 329 0;
#X connect 747 0 330 0;
#X connect 748 0 331 0;
#X connect 750 0 328 0;
#X connect 751 0 329 0;
#X connect 752 0 330 0;
#X connect 753 0 331 0;
#X connect 755 0 328 0;
#X connect 756 0 329 0;
#X connect 757 0 330 0;
#X connect 758 0 331 0;
#X connect 760 0 328 0;
#X connect 761 0 329 0;
#X connect 762 0 330 0;
#X connect 763 0 331 0;
#X connect 765 0 328 0;
#X connect 766 0 329 0;
#X connect 767 0 330 0;
#X connect 768 0 331 0;
#X connect 770 0 328 0;
#X connect 771 0 329 0;
#X connect 772 0 330 0;
#X connect 773 0 331 0;
#X connect 775 0 328 0;
#X connect 776 0 329 0;
#X connect 777 0 330 0;
#X connect 778 0 331 0;
#X connect 780 0 328 0;
#X connect 781 0 329 0;
#X connect 782 0 330 0;
#X connect 783 0 331 0;
#X connect 785 0 328 0;
#X connect 786 0 329 0;
#X connect 787 0 330 0;
#X connect 788 0 331 0;
#X connect 790 0 328 0;
#X connect 791 0 329 0;
#X connect 792 0 330 0;
#X connect 793 0 331 0;
#X connect 795 0 328 0;
#X connect 796 0 329 0;
#X connect 797 0 330 0;
#X connect 798 0 331 0;
#X connect 800 0 328 0;
#X connect 801 0 329 0;
#X connect 802 0 330 0;
#X connect 803 0 331 0;
#X connect 805 0 328 0;
#X connect 806 0 329 0;
#X connect 807 0 330 0;
#X connect 808 0 331 0;
#X connect 810 0 328 0;
#X connect 811 0 329 0;
#X connect 812 0 330 0;
#X connect 813 0 331 0;
#X connect 815 0 328 0;
#X connect 816 0 329 0;
#X connect 817 0 330 0;
#X connect 818 0 331 0;
#X connect 820 0 328 0;
#X connect 821 0 329 0;
#X connect 822 0 330 0;
#X connect 823 0 331 0;
#X connect 826 0 328 0;
#X connect 827 0 329 0;
#X connect 828 0 330 0;
#X connect 829 0 331 0;
#X connect 831 0 328 0;
#X connect 832 0 329 0;
#X connect 833 0 330 0;
#X connect 834 0 331 0;
#X connect 836 0 328 0;
#X connect 837 0 329 0;
#X connect 838 0 330 0;
#X connect 839 0 331 0;
#X connect 841 0 328 0;
#X connect 842 0 329 0;
#X connect 843 0 330 0;
#X connect 844 0 331 0;
#X connect 846 0 328 0;
#X connect 847 0 329 0;
#X connect 848 0 330 0;
#X connect 849 0 331 0;
#X connect 851 0 328 0;
#X connect 852 0 329 0;
#X connect 853 0 330 0;
#X connect 854 0 331 0;
#X connect 856 0 328 0;
#X connect 857 0 329 0;
#X connect 858 0 330 0;
#X connect 859 0 331 0;
#X connect 861 0 328 0;
#X connect 862 0 329 0;
#X connect 863 0 330 0;
#X connect 864 0 331 0;
#X connect 866 0 328 0;
#X connect 867 0 329 0;
#X connect 868 0 330 0;
#X connect 869 0 331 0;
#X connect 871 0 328 0;
#X connect 872 0 329 0;
#X connect 873 0 330 0;
#X connect 874 0 331 0;
#X connect 876 0 328 0;
#X connect 877 0 329 0;
#X connect 878 0 330 0;
#X connect 879 0 331 0;
#X connect 881 0 328 0;
#X connect 882 0 329 0;
#X connect 883 0 330 0;
#X connect 884 0 331 0;
#X connect 886 0 328 0;
#X connect 887 0 329 0;
#X connect 888 0 330 0;
#X connect 889 0 331 0;
#X connect 891 0 328 0;
#X connect 892 0 329 0;
#X connect 893 0 330 0;
#X connect 894 0 331 0;
#X connect 896 0 328 0;
#X connect 897 0 329 0;
#X connect 898 0 330 0;
#X connect 899 0 331 0;
#X connect 901 0 328 0;
#X connect 902 0 329 0;
#X connect 903 0 330 0;
#X connect 904 0 331 0;
#X connect 907 0 328 0;
#X connect 908 0 329 0;
#X connect 909 0 330 0;
#X connect 910 0 331 0;
#X connect 912 0 328 0;
#X connect 913 0 329 0;
#X connect 914 0 330 0;
#X connect 915 0 331 0;
#X connect 917 0 328 0;
#X connect 918 0 329 0;
#X connect 919 0 330 0;
#X connect 920 0 331 0;
#X connect 922 0 328 0;
#X connect 923 0 329 0;
#X connect 924 0 330 0;
#X connect 925 0 331 0;
#X connect 927 0 328 0;
#X connect 928 0 329 0;
#X connect 929 0 330 0;
#X connect 930 0 331 0;
#X connect 932 0 328 0;
#X connect 933 0 329 0;
#X connect 934 0 330 0;
#X connect 935 0 331 0;
#X connect 937 0 328 0;
#X connect 938 0 329 0;
#X connect 939 0 330 0;
#X connect 940 0 331 0;
#X connect 942 0 328 0;
#X connect 943 0 329 0;
#X connect 944 0 330 0;
#X connect 945 0 331 0;
#X connect 947 0 328 0;
#X connect 948 0 329 0;
#X connect 949 0 330 0;
#X connect 950 0 331 0;
#X connect 952 0 328 0;
#X connect 953 0 329 0;
#X connect 954 0 330 0;
#X connect 955 0 331 0;
#X connect 957 0 328 0;
#X connect 958 0 329 0;
#X connect 959 0 330 0;
#X connect 960 0 331 0;
#X connect 962 0 328 0;
#X connect 963 0 329 0;
#X connect 964 0 330 0;
#X connect 965 0 331 0;
#X connect 967 0 328 0;
#X connect 968 0 329 0;
#X connect 969 0 330 0;
#X connect 970 0 331 0;
#X connect 972 0 328 0;
#X connect 973 0 329 0;
#X connect 974 0 330 0;
#X connect 975 0 331 0;
#X connect 977 0 328 0;
#X connect 978 0 329 0;
#X connect 979 0 330 0;
#X connect 980 0 331 0;
#X connect 982 0 323 0;
#X connect 982 0 323 1;
