#N canvas 20 20 2260 4080 12;
#X text 28 20 Nu-disco / house sequence - Wave Point sample pack - Pd Vanilla;
#X text 28 42 123 BPM \, 128-step arrangement: intro \, groove \, breakdown/build \, final hook;
#X text 28 62 Wave Point samples drive drums \, loops \, chords \, vocal chops \, FX \; synth bass/lead add sequence motion;
#X text 28 82 Stem mixer with per-source sliders is below the master section;
#X text 30 102 Transport: loadbang turns on DSP and starts. Click 0 to stop \, 1 to restart \, reset to bar 1.;
#X obj 30 130 loadbang;
#X msg 30 162 \; pd dsp 1;
#X msg 138 162 1;
#X msg 194 162 0;
#X msg 250 162 0;
#X obj 138 198 metro 121.951;
#X obj 138 234 f 0;
#X obj 198 234 + 1;
#X obj 258 234 mod 128;
#X obj 138 270 s nd_step;
#X obj 250 270 s nd_step_view;
#X text 30 326 Section display;
#X obj 30 354 r nd_step;
#X obj 30 386 sel 0 32 64 96;
#X obj 244 442 s nd_section;
#X msg 30 422 symbol intro;
#X msg 104 422 symbol groove;
#X msg 186 422 symbol build;
#X msg 260 422 symbol final_hook;
#X symbolatom 30 472 16 0 0 0 section nd_section - 0;
#X floatatom 30 502 5 0 0 0 step nd_step_view - 0;
#X text 184 472 Current form section;
#X text 112 502 0-127 step position;
#X text 520 92 Wave Point sample loader: copied to flat pd_ready names for stable Pd paths;
#X obj 1032 120 soundfiler;
#X msg 520 120 read -resize samples/wave_point_house_pd_ready/kick_909_1.wav nd_kick;
#X obj 1186 120 table nd_kick 44100;
#X text 1430 120 kick;
#X msg 520 145 read -resize samples/wave_point_house_pd_ready/kick_punchy.wav nd_kick_punch;
#X obj 1186 145 table nd_kick_punch 44100;
#X text 1430 145 kick_punch;
#X msg 520 170 read -resize samples/wave_point_house_pd_ready/clap_3.wav nd_clap;
#X obj 1186 170 table nd_clap 44100;
#X text 1430 170 clap;
#X msg 520 195 read -resize samples/wave_point_house_pd_ready/snare_machine_2.wav nd_snare;
#X obj 1186 195 table nd_snare 44100;
#X text 1430 195 snare;
#X msg 520 220 read -resize samples/wave_point_house_pd_ready/closed_hat_tight.wav nd_closed_hat;
#X obj 1186 220 table nd_closed_hat 44100;
#X text 1430 220 closed_hat;
#X msg 520 245 read -resize samples/wave_point_house_pd_ready/open_hat_live_2.wav nd_open_hat;
#X obj 1186 245 table nd_open_hat 44100;
#X text 1430 245 open_hat;
#X msg 520 270 read -resize samples/wave_point_house_pd_ready/shaker_2.wav nd_shaker;
#X obj 1186 270 table nd_shaker 44100;
#X text 1430 270 shaker;
#X msg 520 295 read -resize samples/wave_point_house_pd_ready/crash_909.wav nd_crash;
#X obj 1186 295 table nd_crash 44100;
#X text 1430 295 crash;
#X msg 520 320 read -resize samples/wave_point_house_pd_ready/top_loop_01_123.wav nd_top_loop;
#X obj 1186 320 table nd_top_loop 44100;
#X text 1430 320 top_loop;
#X msg 520 345 read -resize samples/wave_point_house_pd_ready/top_loop_16_123.wav nd_top_loop_alt;
#X obj 1186 345 table nd_top_loop_alt 44100;
#X text 1430 345 top_loop_alt;
#X msg 520 370 read -resize samples/wave_point_house_pd_ready/shaker_loop_02_123.wav nd_shaker_loop;
#X obj 1186 370 table nd_shaker_loop 44100;
#X text 1430 370 shaker_loop;
#X msg 520 395 read -resize samples/wave_point_house_pd_ready/conga_loop_05_123.wav nd_conga_loop;
#X obj 1186 395 table nd_conga_loop 44100;
#X text 1430 395 conga_loop;
#X msg 520 420 read -resize samples/wave_point_house_pd_ready/snare_build_03_123.wav nd_snare_build;
#X obj 1186 420 table nd_snare_build 44100;
#X text 1430 420 snare_build;
#X msg 520 445 read -resize samples/wave_point_house_pd_ready/chord_cmaj7.wav nd_chord_cmaj7;
#X obj 1186 445 table nd_chord_cmaj7 44100;
#X text 1430 445 chord_cmaj7;
#X msg 520 470 read -resize samples/wave_point_house_pd_ready/chord_amin7.wav nd_chord_amin7;
#X obj 1186 470 table nd_chord_amin7 44100;
#X text 1430 470 chord_amin7;
#X msg 520 495 read -resize samples/wave_point_house_pd_ready/chord_fmaj7.wav nd_chord_fmaj7;
#X obj 1186 495 table nd_chord_fmaj7 44100;
#X text 1430 495 chord_fmaj7;
#X msg 520 520 read -resize samples/wave_point_house_pd_ready/chord_dmin7.wav nd_chord_dmin7;
#X obj 1186 520 table nd_chord_dmin7 44100;
#X text 1430 520 chord_dmin7;
#X msg 520 545 read -resize samples/wave_point_house_pd_ready/bass_hit_10_c.wav nd_bass_hit_short;
#X obj 1186 545 table nd_bass_hit_short 44100;
#X text 1430 545 bass_hit_short;
#X msg 520 570 read -resize samples/wave_point_house_pd_ready/bass_hit_01_c.wav nd_bass_hit_round;
#X obj 1186 570 table nd_bass_hit_round 44100;
#X text 1430 570 bass_hit_round;
#X msg 520 595 read -resize samples/wave_point_house_pd_ready/bass_hit_05_c.wav nd_bass_hit_deep;
#X obj 1186 595 table nd_bass_hit_deep 44100;
#X text 1430 595 bass_hit_deep;
#X msg 520 620 read -resize samples/wave_point_house_pd_ready/vocal_chop_01_c.wav nd_vocal_1;
#X obj 1186 620 table nd_vocal_1 44100;
#X text 1430 620 vocal_1;
#X msg 520 645 read -resize samples/wave_point_house_pd_ready/vocal_chop_06_c.wav nd_vocal_6;
#X obj 1186 645 table nd_vocal_6 44100;
#X text 1430 645 vocal_6;
#X msg 520 670 read -resize samples/wave_point_house_pd_ready/vocal_chop_11_c.wav nd_vocal_11;
#X obj 1186 670 table nd_vocal_11 44100;
#X text 1430 670 vocal_11;
#X msg 520 695 read -resize samples/wave_point_house_pd_ready/vocal_chop_03_c.wav nd_vocal_3;
#X obj 1186 695 table nd_vocal_3 44100;
#X text 1430 695 vocal_3;
#X msg 520 720 read -resize samples/wave_point_house_pd_ready/vocal_chop_08_c.wav nd_vocal_8;
#X obj 1186 720 table nd_vocal_8 44100;
#X text 1430 720 vocal_8;
#X msg 520 745 read -resize samples/wave_point_house_pd_ready/vox_chop_stab_01.wav nd_vox_stab_1;
#X obj 1186 745 table nd_vox_stab_1 44100;
#X text 1430 745 vox_stab_1;
#X msg 520 770 read -resize samples/wave_point_house_pd_ready/vox_chop_14.wav nd_vox_chop_14;
#X obj 1186 770 table nd_vox_chop_14 44100;
#X text 1430 770 vox_chop_14;
#X msg 520 795 read -resize samples/wave_point_house_pd_ready/vocal_uh_02.wav nd_vocal_uh_2;
#X obj 1186 795 table nd_vocal_uh_2 44100;
#X text 1430 795 vocal_uh_2;
#X msg 520 820 read -resize samples/wave_point_house_pd_ready/pad_amin9_01.wav nd_pad_amin9;
#X obj 1186 820 table nd_pad_amin9 44100;
#X text 1430 820 pad_amin9;
#X msg 520 845 read -resize samples/wave_point_house_pd_ready/perc_cowbell_top.wav nd_perc_cowbell;
#X obj 1186 845 table nd_perc_cowbell 44100;
#X text 1430 845 perc_cowbell;
#X msg 520 870 read -resize samples/wave_point_house_pd_ready/perc_clave.wav nd_perc_clave;
#X obj 1186 870 table nd_perc_clave 44100;
#X text 1430 870 perc_clave;
#X msg 520 895 read -resize samples/wave_point_house_pd_ready/perc_rim_2.wav nd_perc_rim;
#X obj 1186 895 table nd_perc_rim 44100;
#X text 1430 895 perc_rim;
#X msg 520 920 read -resize samples/wave_point_house_pd_ready/perc_woodblock_1.wav nd_perc_wood;
#X obj 1186 920 table nd_perc_wood 44100;
#X text 1430 920 perc_wood;
#X msg 520 945 read -resize samples/wave_point_house_pd_ready/foley_vinyl_crackle_loop.wav nd_vinyl_loop;
#X obj 1186 945 table nd_vinyl_loop 44100;
#X text 1430 945 vinyl_loop;
#X msg 520 970 read -resize samples/wave_point_house_pd_ready/riser.wav nd_riser;
#X obj 1186 970 table nd_riser 44100;
#X text 1430 970 riser;
#X msg 520 995 read -resize samples/wave_point_house_pd_ready/downer_1.wav nd_downer;
#X obj 1186 995 table nd_downer 44100;
#X text 1430 995 downer;
#X msg 520 1020 read -resize samples/wave_point_house_pd_ready/pshew.wav nd_pshew;
#X obj 1186 1020 table nd_pshew 44100;
#X text 1430 1020 pshew;
#X text 30 680 Kick sample: four-on-floor expands after the intro;
#X obj 30 708 r nd_step;
#X obj 30 740 sel 0 8 16 24 32 36 40 44 48 52 56 60 80 84 88 92 96 100 104 108 112 116 120 124;
#X obj 312 774 tabplay~ nd_kick;
#X obj 434 774 *~ 0.8;
#X obj 530 774 throw~ nd_stem_kick;
#X text 560 680 Punch kick layer: only at section downbeats;
#X obj 560 708 r nd_step;
#X obj 560 740 sel 32 48 96 112;
#X obj 842 774 tabplay~ nd_kick_punch;
#X obj 964 774 *~ 0.32;
#X obj 1060 774 throw~ nd_stem_kick_punch;
#X text 1090 680 Clap sample: house backbeat with intro pickup;
#X obj 1090 708 r nd_step;
#X obj 1090 740 sel 28 36 44 52 60 92 100 108 116 124;
#X obj 1372 774 tabplay~ nd_clap;
#X obj 1494 774 *~ 0.52;
#X obj 1590 774 throw~ nd_stem_clap;
#X obj 1494 808 *~ 0.04;
#X obj 1590 808 throw~ nd_stemfx_clap;
#X text 1620 680 Snare machine: end-of-phrase fills;
#X obj 1620 708 r nd_step;
#X obj 1620 740 sel 31 47 63 79 95 111 127;
#X obj 1902 774 tabplay~ nd_snare;
#X obj 2024 774 *~ 0.34;
#X obj 2120 774 throw~ nd_stem_snare;
#X obj 2024 808 *~ 0.04;
#X obj 2120 808 throw~ nd_stemfx_snare;
#X text 30 850 Closed hat sample: offbeat drive with small skips;
#X obj 30 878 r nd_step;
#X obj 30 910 sel 34 38 42 46 50 54 58 62 82 86 90 94 98 102 106 110 114 118 122 126;
#X obj 312 944 tabplay~ nd_closed_hat;
#X obj 198 944 random 100;
#X obj 198 976 moses 92;
#X obj 312 976 t b;
#X obj 434 944 *~ 0.18;
#X obj 530 944 throw~ nd_stem_closed_hat;
#X obj 434 978 *~ 0.02;
#X obj 530 978 throw~ nd_stemfx_closed_hat;
#X text 560 850 Open hat sample: disco lift on selected offbeats;
#X obj 560 878 r nd_step;
#X obj 560 910 sel 18 26 34 42 50 58 90 98 106 114 122;
#X obj 842 944 tabplay~ nd_open_hat;
#X obj 964 944 *~ 0.23;
#X obj 1060 944 throw~ nd_stem_open_hat;
#X obj 964 978 *~ 0.05;
#X obj 1060 978 throw~ nd_stemfx_open_hat;
#X text 1090 850 Shaker one-shot: late bar sparkle;
#X obj 1090 878 r nd_step;
#X obj 1090 910 sel 35 43 51 59 83 91 99 107 115 123;
#X obj 1372 944 tabplay~ nd_shaker;
#X obj 1258 944 random 100;
#X obj 1258 976 moses 86;
#X obj 1372 976 t b;
#X obj 1494 944 *~ 0.16;
#X obj 1590 944 throw~ nd_stem_shaker;
#X obj 1494 978 *~ 0.03;
#X obj 1590 978 throw~ nd_stemfx_shaker;
#X text 1620 850 Crash sample: section arrivals;
#X obj 1620 878 r nd_step;
#X obj 1620 910 sel 32 96;
#X obj 1902 944 tabplay~ nd_crash;
#X obj 2024 944 *~ 0.26;
#X obj 2120 944 throw~ nd_stem_crash;
#X obj 2024 978 *~ 0.08;
#X obj 2120 978 throw~ nd_stemfx_crash;
#X text 30 1020 Top drum loop 1: intro and first groove bed;
#X obj 30 1048 r nd_step;
#X obj 30 1080 sel 0 32;
#X obj 312 1114 tabplay~ nd_top_loop;
#X obj 434 1114 *~ 0.25;
#X obj 530 1114 throw~ nd_stem_top_loop_1;
#X obj 434 1148 *~ 0.02;
#X obj 530 1148 throw~ nd_stemfx_top_loop_1;
#X text 560 1020 Top drum loop 16: four-bar build-to-final layer;
#X obj 560 1048 r nd_step;
#X obj 560 1080 sel 64;
#X obj 842 1114 tabplay~ nd_top_loop_alt;
#X obj 964 1114 *~ 0.22;
#X obj 1060 1114 throw~ nd_stem_top_loop_16;
#X obj 964 1148 *~ 0.01;
#X obj 1060 1148 throw~ nd_stemfx_top_loop_16;
#X text 1090 1020 Shaker loop: build and final movement;
#X obj 1090 1048 r nd_step;
#X obj 1090 1080 sel 64 96;
#X obj 1372 1114 tabplay~ nd_shaker_loop;
#X obj 1494 1114 *~ 0.2;
#X obj 1590 1114 throw~ nd_stem_shaker_loop;
#X obj 1494 1148 *~ 0.03;
#X obj 1590 1148 throw~ nd_stemfx_shaker_loop;
#X text 1620 1020 Conga loop: second half answer phrase;
#X obj 1620 1048 r nd_step;
#X obj 1620 1080 sel 48 96;
#X obj 1902 1114 tabplay~ nd_conga_loop;
#X obj 2024 1114 *~ 0.18;
#X obj 2120 1114 throw~ nd_stem_conga_loop;
#X obj 2024 1148 *~ 0.03;
#X obj 2120 1148 throw~ nd_stemfx_conga_loop;
#X text 30 1190 Cmaj7 sampled chord: I color;
#X obj 30 1218 r nd_step;
#X obj 30 1250 sel 0 64;
#X obj 312 1284 tabplay~ nd_chord_cmaj7;
#X obj 434 1284 *~ 0.3;
#X obj 530 1284 throw~ nd_stem_chord_cmaj7;
#X obj 434 1318 *~ 0.06;
#X obj 530 1318 throw~ nd_stemfx_chord_cmaj7;
#X text 560 1190 Amin7 sampled chord: vi answer;
#X obj 560 1218 r nd_step;
#X obj 560 1250 sel 16 80;
#X obj 842 1284 tabplay~ nd_chord_amin7;
#X obj 964 1284 *~ 0.28;
#X obj 1060 1284 throw~ nd_stem_chord_amin7;
#X obj 964 1318 *~ 0.06;
#X obj 1060 1318 throw~ nd_stemfx_chord_amin7;
#X text 1090 1190 Fmaj7 sampled chord: IV lift;
#X obj 1090 1218 r nd_step;
#X obj 1090 1250 sel 32 96;
#X obj 1372 1284 tabplay~ nd_chord_fmaj7;
#X obj 1494 1284 *~ 0.3;
#X obj 1590 1284 throw~ nd_stem_chord_fmaj7;
#X obj 1494 1318 *~ 0.07;
#X obj 1590 1318 throw~ nd_stemfx_chord_fmaj7;
#X text 1620 1190 Dmin7 sampled chord: ii turnaround;
#X obj 1620 1218 r nd_step;
#X obj 1620 1250 sel 48 112;
#X obj 1902 1284 tabplay~ nd_chord_dmin7;
#X obj 2024 1284 *~ 0.26;
#X obj 2120 1284 throw~ nd_stem_chord_dmin7;
#X obj 2024 1318 *~ 0.07;
#X obj 2120 1318 throw~ nd_stemfx_chord_dmin7;
#X text 560 1360 Vocal chop 1: call phrase;
#X obj 560 1388 r nd_step;
#X obj 560 1420 sel 40 56 104 120;
#X obj 842 1454 tabplay~ nd_vocal_1;
#X obj 964 1454 *~ 0.18;
#X obj 1060 1454 throw~ nd_stem_vocal_1;
#X obj 964 1488 *~ 0.08;
#X obj 1060 1488 throw~ nd_stemfx_vocal_1;
#X text 1090 1360 Vocal chop 6: response phrase;
#X obj 1090 1388 r nd_step;
#X obj 1090 1420 sel 46 62 110 126;
#X obj 1372 1454 tabplay~ nd_vocal_6;
#X obj 1494 1454 *~ 0.16;
#X obj 1590 1454 throw~ nd_stem_vocal_6;
#X obj 1494 1488 *~ 0.08;
#X obj 1590 1488 throw~ nd_stemfx_vocal_6;
#X text 1620 1360 Vocal chop 11: build hook pickup;
#X obj 1620 1388 r nd_step;
#X obj 1620 1420 sel 76 84 92 116 124;
#X obj 1902 1454 tabplay~ nd_vocal_11;
#X obj 2024 1454 *~ 0.15;
#X obj 2120 1454 throw~ nd_stem_vocal_11;
#X obj 2024 1488 *~ 0.08;
#X obj 2120 1488 throw~ nd_stemfx_vocal_11;
#X text 30 1518 Sample bass short: Wave Point C bass hit \, clipped to the house offbeat grid;
#X obj 30 1546 r nd_step;
#X obj 30 1578 sel 34 42 50 58 66 74 82 90 98 106 114 122;
#X obj 312 1612 tabplay~ nd_bass_hit_short;
#X msg 312 1578 0.95 3 \, 0.68 55 4 \, 0 105 118;
#X obj 434 1578 vline~;
#X obj 434 1612 *~;
#X obj 530 1612 *~ 0.34;
#X obj 626 1612 throw~ nd_stem_bass;
#X text 560 1518 Sample bass round: occasional lower answer \, also gated short;
#X obj 560 1546 r nd_step;
#X obj 560 1578 sel 38 54 86 102 118;
#X obj 842 1612 tabplay~ nd_bass_hit_round;
#X msg 842 1578 0.78 4 \, 0.48 65 6 \, 0 110 135;
#X obj 964 1578 vline~;
#X obj 964 1612 *~;
#X obj 1060 1612 *~ 0.2;
#X obj 1156 1612 throw~ nd_stem_bass;
#X text 1090 1518 Sample bass deep: final-hook weight on phrase pickups;
#X obj 1090 1546 r nd_step;
#X obj 1090 1578 sel 94 110 126;
#X obj 1372 1612 tabplay~ nd_bass_hit_deep;
#X msg 1372 1578 0.70 5 \, 0.46 80 8 \, 0 130 145;
#X obj 1494 1578 vline~;
#X obj 1494 1612 *~;
#X obj 1590 1612 *~ 0.16;
#X obj 1686 1612 throw~ nd_stem_bass;
#X obj 1590 1646 *~ 0.02;
#X obj 1686 1646 throw~ nd_stemfx_bass;
#X text 30 1712 Sample lead vocal chop 3: build/final call hook;
#X obj 30 1740 r nd_step;
#X obj 30 1772 sel 72 80 88 104 112 120;
#X obj 312 1806 tabplay~ nd_vocal_3;
#X obj 434 1806 *~ 0.18;
#X obj 530 1806 throw~ nd_stem_lead;
#X obj 434 1840 *~ 0.1;
#X obj 530 1840 throw~ nd_stemfx_lead;
#X text 560 1712 Sample lead vocal chop 8: short answer hook;
#X obj 560 1740 r nd_step;
#X obj 560 1772 sel 76 92 108 124;
#X obj 842 1806 tabplay~ nd_vocal_8;
#X obj 964 1806 *~ 0.16;
#X obj 1060 1806 throw~ nd_stem_lead;
#X obj 964 1840 *~ 0.1;
#X obj 1060 1840 throw~ nd_stemfx_lead;
#X text 1090 1712 Sample lead vox stab: phrase marker replacing Pd synth lead;
#X obj 1090 1740 r nd_step;
#X obj 1090 1772 sel 96 116;
#X obj 1372 1806 tabplay~ nd_vox_stab_1;
#X obj 1494 1806 *~ 0.16;
#X obj 1590 1806 throw~ nd_stem_lead;
#X obj 1494 1840 *~ 0.12;
#X obj 1590 1840 throw~ nd_stemfx_lead;
#X text 30 1888 Extra vox chop 14: richer sampled hook layer;
#X obj 30 1916 r nd_step;
#X obj 30 1948 sel 84 100 116 124;
#X obj 312 1982 tabplay~ nd_vox_chop_14;
#X obj 434 1982 *~ 0.14;
#X obj 530 1982 throw~ nd_stem_vox_chop_14;
#X obj 434 2016 *~ 0.08;
#X obj 530 2016 throw~ nd_stemfx_vox_chop_14;
#X text 560 1888 Vocal uh 2: human pickup before phrase turns;
#X obj 560 1916 r nd_step;
#X obj 560 1948 sel 60 92 124;
#X obj 842 1982 tabplay~ nd_vocal_uh_2;
#X obj 964 1982 *~ 0.12;
#X obj 1060 1982 throw~ nd_stem_vocal_uh;
#X obj 964 2016 *~ 0.07;
#X obj 1060 2016 throw~ nd_stemfx_vocal_uh;
#X text 1090 1888 Amin9 pad sample: warm sampled bed through the build and final hook;
#X obj 1090 1916 r nd_step;
#X obj 1090 1948 sel 64;
#X obj 1372 1982 tabplay~ nd_pad_amin9;
#X msg 1372 1948 0.10 650 \, 0.08 4200 650 \, 0 650 6850;
#X obj 1494 1948 vline~;
#X obj 1494 1982 *~;
#X obj 1590 1982 *~ 0.07;
#X obj 1686 1982 throw~ nd_stem_pad_amin9;
#X obj 1590 2016 *~ 0.1;
#X obj 1686 2016 throw~ nd_stemfx_pad_amin9;
#X text 30 2072 Cowbell top: disco accent layer;
#X obj 30 2100 r nd_step;
#X obj 30 2132 sel 66 74 82 90 98 106 114 122;
#X obj 312 2166 tabplay~ nd_perc_cowbell;
#X msg 312 2132 0.90 2 \, 0.34 70 4 \, 0 90 120;
#X obj 434 2132 vline~;
#X obj 434 2166 *~;
#X obj 530 2166 *~ 0.13;
#X obj 626 2166 throw~ nd_stem_cowbell;
#X obj 530 2200 *~ 0.03;
#X obj 626 2200 throw~ nd_stemfx_cowbell;
#X text 560 2072 Clave: tight syncopated wood accent;
#X obj 560 2100 r nd_step;
#X obj 560 2132 sel 39 55 71 87 103 119;
#X obj 842 2166 tabplay~ nd_perc_clave;
#X obj 964 2166 *~ 0.11;
#X obj 1060 2166 throw~ nd_stem_clave;
#X obj 964 2200 *~ 0.03;
#X obj 1060 2200 throw~ nd_stemfx_clave;
#X text 1090 2072 Rim: short phrase-end click;
#X obj 1090 2100 r nd_step;
#X obj 1090 2132 sel 63 95 127;
#X obj 1372 2166 tabplay~ nd_perc_rim;
#X obj 1494 2166 *~ 0.12;
#X obj 1590 2166 throw~ nd_stem_rim;
#X obj 1494 2200 *~ 0.04;
#X obj 1590 2200 throw~ nd_stemfx_rim;
#X text 1620 2072 Woodblock: extra sampled percussion color;
#X obj 1620 2100 r nd_step;
#X obj 1620 2132 sel 47 79 111;
#X obj 1902 2166 tabplay~ nd_perc_wood;
#X obj 2024 2166 *~ 0.11;
#X obj 2120 2166 throw~ nd_stem_woodblock;
#X obj 2024 2200 *~ 0.03;
#X obj 2120 2200 throw~ nd_stemfx_woodblock;
#X text 30 2248 Vinyl crackle loop: low sampled texture bed;
#X obj 30 2276 r nd_step;
#X obj 30 2308 sel 0 64;
#X obj 312 2342 tabplay~ nd_vinyl_loop;
#X obj 434 2342 *~ 0.045;
#X obj 530 2342 throw~ nd_stem_vinyl;
#X text 560 2248 Riser sample: gated so it supports the build without wrapping loosely;
#X obj 560 2276 r nd_step;
#X obj 560 2308 sel 64;
#X obj 842 2342 tabplay~ nd_riser;
#X msg 842 2308 0.02 800 \, 0.12 4300 800 \, 0 350 7300;
#X obj 964 2308 vline~;
#X obj 964 2342 *~;
#X obj 1060 2342 *~ 0.08;
#X obj 1156 2342 throw~ nd_stem_riser;
#X obj 1060 2376 *~ 0.1;
#X obj 1156 2376 throw~ nd_stemfx_riser;
#X text 1090 2248 Downer sample: short final-hook impact tail;
#X obj 1090 2276 r nd_step;
#X obj 1090 2308 sel 96;
#X obj 1372 2342 tabplay~ nd_downer;
#X msg 1372 2308 0.12 8 \, 0.09 760 8 \, 0 420 1050;
#X obj 1494 2308 vline~;
#X obj 1494 2342 *~;
#X obj 1590 2342 *~ 0.08;
#X obj 1686 2342 throw~ nd_stem_downer;
#X obj 1590 2376 *~ 0.07;
#X obj 1686 2376 throw~ nd_stemfx_downer;
#X text 30 2424 Snare build sample: four-bar build locked to loop end;
#X obj 30 2452 r nd_step;
#X obj 30 2484 sel 64;
#X obj 312 2518 tabplay~ nd_snare_build;
#X obj 434 2518 *~ 0.18;
#X obj 530 2518 throw~ nd_stem_snare_build;
#X obj 434 2552 *~ 0.03;
#X obj 530 2552 throw~ nd_stemfx_snare_build;
#X text 1620 2424 Short pshew FX: phrase punctuation without wraparound echo;
#X obj 1620 2452 r nd_step;
#X obj 1620 2484 sel 31 63 95;
#X obj 1902 2518 tabplay~ nd_pshew;
#X obj 2024 2518 *~ 0.12;
#X obj 2120 2518 throw~ nd_stem_pshew;
#X obj 2024 2552 *~ 0.06;
#X obj 2120 2552 throw~ nd_stemfx_pshew;
#X text 30 2668 Delay return: feed-forward only \, no feedback loop;
#X obj 30 2696 catch~ nd_fx;
#X obj 30 2730 delwrite~ nd_delay 920;
#X obj 260 2696 delread~ nd_delay 243.902;
#X obj 260 2730 *~ 0.20;
#X obj 360 2730 throw~ nd_stem_delay;
#X text 632 2668 Master: direct gain is kept present but not overly reduced;
#X obj 632 2696 catch~ nd_mix;
#X obj 632 2730 hip~ 24;
#X obj 730 2730 clip~ -0.98 0.98;
#X obj 860 2730 *~ 0.42;
#X obj 960 2730 dac~;
#X text 30 2830 Stem mixer: sliders set each source volume from mute to 150 percent;
#X text 30 2862 kick;
#X obj 30 2884 hsl 128 15 0 1.5 0 0 nd_vol_kick nd_vol_kick_set kick 4 8 0 10 #fcfcfc #000000 #000000 0 1;
#X msg 180 2882 1.0;
#X obj 234 2882 s nd_vol_kick_set;
#X obj 234 2910 s nd_vol_kick;
#X obj 360 2882 r nd_vol_kick;
#X obj 480 2882 pack f 35;
#X obj 570 2882 line~;
#X obj 360 2910 catch~ nd_stem_kick;
#X obj 480 2910 *~;
#X obj 570 2910 throw~ nd_mix;
#X obj 360 2936 catch~ nd_stemfx_kick;
#X obj 480 2936 *~;
#X obj 570 2936 throw~ nd_fx;
#X text 30 2962 kick_punch;
#X obj 30 2984 hsl 128 15 0 1.5 0 0 nd_vol_kick_punch nd_vol_kick_punch_set kick_punch 4 8 0 10 #fcfcfc #000000 #000000 0 1;
#X msg 180 2982 1.0;
#X obj 234 2982 s nd_vol_kick_punch_set;
#X obj 234 3010 s nd_vol_kick_punch;
#X obj 360 2982 r nd_vol_kick_punch;
#X obj 480 2982 pack f 35;
#X obj 570 2982 line~;
#X obj 360 3010 catch~ nd_stem_kick_punch;
#X obj 480 3010 *~;
#X obj 570 3010 throw~ nd_mix;
#X obj 360 3036 catch~ nd_stemfx_kick_punch;
#X obj 480 3036 *~;
#X obj 570 3036 throw~ nd_fx;
#X text 30 3062 clap;
#X obj 30 3084 hsl 128 15 0 1.5 0 0 nd_vol_clap nd_vol_clap_set clap 4 8 0 10 #fcfcfc #000000 #000000 0 1;
#X msg 180 3082 1.0;
#X obj 234 3082 s nd_vol_clap_set;
#X obj 234 3110 s nd_vol_clap;
#X obj 360 3082 r nd_vol_clap;
#X obj 480 3082 pack f 35;
#X obj 570 3082 line~;
#X obj 360 3110 catch~ nd_stem_clap;
#X obj 480 3110 *~;
#X obj 570 3110 throw~ nd_mix;
#X obj 360 3136 catch~ nd_stemfx_clap;
#X obj 480 3136 *~;
#X obj 570 3136 throw~ nd_fx;
#X text 30 3162 snare;
#X obj 30 3184 hsl 128 15 0 1.5 0 0 nd_vol_snare nd_vol_snare_set snare 4 8 0 10 #fcfcfc #000000 #000000 0 1;
#X msg 180 3182 1.0;
#X obj 234 3182 s nd_vol_snare_set;
#X obj 234 3210 s nd_vol_snare;
#X obj 360 3182 r nd_vol_snare;
#X obj 480 3182 pack f 35;
#X obj 570 3182 line~;
#X obj 360 3210 catch~ nd_stem_snare;
#X obj 480 3210 *~;
#X obj 570 3210 throw~ nd_mix;
#X obj 360 3236 catch~ nd_stemfx_snare;
#X obj 480 3236 *~;
#X obj 570 3236 throw~ nd_fx;
#X text 30 3262 closed_hat;
#X obj 30 3284 hsl 128 15 0 1.5 0 0 nd_vol_closed_hat nd_vol_closed_hat_set closed_hat 4 8 0 10 #fcfcfc #000000 #000000 0 1;
#X msg 180 3282 1.0;
#X obj 234 3282 s nd_vol_closed_hat_set;
#X obj 234 3310 s nd_vol_closed_hat;
#X obj 360 3282 r nd_vol_closed_hat;
#X obj 480 3282 pack f 35;
#X obj 570 3282 line~;
#X obj 360 3310 catch~ nd_stem_closed_hat;
#X obj 480 3310 *~;
#X obj 570 3310 throw~ nd_mix;
#X obj 360 3336 catch~ nd_stemfx_closed_hat;
#X obj 480 3336 *~;
#X obj 570 3336 throw~ nd_fx;
#X text 30 3362 open_hat;
#X obj 30 3384 hsl 128 15 0 1.5 0 0 nd_vol_open_hat nd_vol_open_hat_set open_hat 4 8 0 10 #fcfcfc #000000 #000000 0 1;
#X msg 180 3382 1.0;
#X obj 234 3382 s nd_vol_open_hat_set;
#X obj 234 3410 s nd_vol_open_hat;
#X obj 360 3382 r nd_vol_open_hat;
#X obj 480 3382 pack f 35;
#X obj 570 3382 line~;
#X obj 360 3410 catch~ nd_stem_open_hat;
#X obj 480 3410 *~;
#X obj 570 3410 throw~ nd_mix;
#X obj 360 3436 catch~ nd_stemfx_open_hat;
#X obj 480 3436 *~;
#X obj 570 3436 throw~ nd_fx;
#X text 30 3462 shaker;
#X obj 30 3484 hsl 128 15 0 1.5 0 0 nd_vol_shaker nd_vol_shaker_set shaker 4 8 0 10 #fcfcfc #000000 #000000 0 1;
#X msg 180 3482 1.0;
#X obj 234 3482 s nd_vol_shaker_set;
#X obj 234 3510 s nd_vol_shaker;
#X obj 360 3482 r nd_vol_shaker;
#X obj 480 3482 pack f 35;
#X obj 570 3482 line~;
#X obj 360 3510 catch~ nd_stem_shaker;
#X obj 480 3510 *~;
#X obj 570 3510 throw~ nd_mix;
#X obj 360 3536 catch~ nd_stemfx_shaker;
#X obj 480 3536 *~;
#X obj 570 3536 throw~ nd_fx;
#X text 30 3562 crash;
#X obj 30 3584 hsl 128 15 0 1.5 0 0 nd_vol_crash nd_vol_crash_set crash 4 8 0 10 #fcfcfc #000000 #000000 0 1;
#X msg 180 3582 1.0;
#X obj 234 3582 s nd_vol_crash_set;
#X obj 234 3610 s nd_vol_crash;
#X obj 360 3582 r nd_vol_crash;
#X obj 480 3582 pack f 35;
#X obj 570 3582 line~;
#X obj 360 3610 catch~ nd_stem_crash;
#X obj 480 3610 *~;
#X obj 570 3610 throw~ nd_mix;
#X obj 360 3636 catch~ nd_stemfx_crash;
#X obj 480 3636 *~;
#X obj 570 3636 throw~ nd_fx;
#X text 30 3662 top_loop_1;
#X obj 30 3684 hsl 128 15 0 1.5 0 0 nd_vol_top_loop_1 nd_vol_top_loop_1_set top_loop_1 4 8 0 10 #fcfcfc #000000 #000000 0 1;
#X msg 180 3682 1.0;
#X obj 234 3682 s nd_vol_top_loop_1_set;
#X obj 234 3710 s nd_vol_top_loop_1;
#X obj 360 3682 r nd_vol_top_loop_1;
#X obj 480 3682 pack f 35;
#X obj 570 3682 line~;
#X obj 360 3710 catch~ nd_stem_top_loop_1;
#X obj 480 3710 *~;
#X obj 570 3710 throw~ nd_mix;
#X obj 360 3736 catch~ nd_stemfx_top_loop_1;
#X obj 480 3736 *~;
#X obj 570 3736 throw~ nd_fx;
#X text 30 3762 top_loop_16;
#X obj 30 3784 hsl 128 15 0 1.5 0 0 nd_vol_top_loop_16 nd_vol_top_loop_16_set top_loop_16 4 8 0 10 #fcfcfc #000000 #000000 0 1;
#X msg 180 3782 1.0;
#X obj 234 3782 s nd_vol_top_loop_16_set;
#X obj 234 3810 s nd_vol_top_loop_16;
#X obj 360 3782 r nd_vol_top_loop_16;
#X obj 480 3782 pack f 35;
#X obj 570 3782 line~;
#X obj 360 3810 catch~ nd_stem_top_loop_16;
#X obj 480 3810 *~;
#X obj 570 3810 throw~ nd_mix;
#X obj 360 3836 catch~ nd_stemfx_top_loop_16;
#X obj 480 3836 *~;
#X obj 570 3836 throw~ nd_fx;
#X text 30 3862 shaker_loop;
#X obj 30 3884 hsl 128 15 0 1.5 0 0 nd_vol_shaker_loop nd_vol_shaker_loop_set shaker_loop 4 8 0 10 #fcfcfc #000000 #000000 0 1;
#X msg 180 3882 1.0;
#X obj 234 3882 s nd_vol_shaker_loop_set;
#X obj 234 3910 s nd_vol_shaker_loop;
#X obj 360 3882 r nd_vol_shaker_loop;
#X obj 480 3882 pack f 35;
#X obj 570 3882 line~;
#X obj 360 3910 catch~ nd_stem_shaker_loop;
#X obj 480 3910 *~;
#X obj 570 3910 throw~ nd_mix;
#X obj 360 3936 catch~ nd_stemfx_shaker_loop;
#X obj 480 3936 *~;
#X obj 570 3936 throw~ nd_fx;
#X text 30 3962 conga_loop;
#X obj 30 3984 hsl 128 15 0 1.5 0 0 nd_vol_conga_loop nd_vol_conga_loop_set conga_loop 4 8 0 10 #fcfcfc #000000 #000000 0 1;
#X msg 180 3982 1.0;
#X obj 234 3982 s nd_vol_conga_loop_set;
#X obj 234 4010 s nd_vol_conga_loop;
#X obj 360 3982 r nd_vol_conga_loop;
#X obj 480 3982 pack f 35;
#X obj 570 3982 line~;
#X obj 360 4010 catch~ nd_stem_conga_loop;
#X obj 480 4010 *~;
#X obj 570 4010 throw~ nd_mix;
#X obj 360 4036 catch~ nd_stemfx_conga_loop;
#X obj 480 4036 *~;
#X obj 570 4036 throw~ nd_fx;
#X text 750 2862 chord_cmaj7;
#X obj 750 2884 hsl 128 15 0 1.5 0 0 nd_vol_chord_cmaj7 nd_vol_chord_cmaj7_set chord_cmaj7 4 8 0 10 #fcfcfc #000000 #000000 0 1;
#X msg 900 2882 1.0;
#X obj 954 2882 s nd_vol_chord_cmaj7_set;
#X obj 954 2910 s nd_vol_chord_cmaj7;
#X obj 1080 2882 r nd_vol_chord_cmaj7;
#X obj 1200 2882 pack f 35;
#X obj 1290 2882 line~;
#X obj 1080 2910 catch~ nd_stem_chord_cmaj7;
#X obj 1200 2910 *~;
#X obj 1290 2910 throw~ nd_mix;
#X obj 1080 2936 catch~ nd_stemfx_chord_cmaj7;
#X obj 1200 2936 *~;
#X obj 1290 2936 throw~ nd_fx;
#X text 750 2962 chord_amin7;
#X obj 750 2984 hsl 128 15 0 1.5 0 0 nd_vol_chord_amin7 nd_vol_chord_amin7_set chord_amin7 4 8 0 10 #fcfcfc #000000 #000000 0 1;
#X msg 900 2982 1.0;
#X obj 954 2982 s nd_vol_chord_amin7_set;
#X obj 954 3010 s nd_vol_chord_amin7;
#X obj 1080 2982 r nd_vol_chord_amin7;
#X obj 1200 2982 pack f 35;
#X obj 1290 2982 line~;
#X obj 1080 3010 catch~ nd_stem_chord_amin7;
#X obj 1200 3010 *~;
#X obj 1290 3010 throw~ nd_mix;
#X obj 1080 3036 catch~ nd_stemfx_chord_amin7;
#X obj 1200 3036 *~;
#X obj 1290 3036 throw~ nd_fx;
#X text 750 3062 chord_fmaj7;
#X obj 750 3084 hsl 128 15 0 1.5 0 0 nd_vol_chord_fmaj7 nd_vol_chord_fmaj7_set chord_fmaj7 4 8 0 10 #fcfcfc #000000 #000000 0 1;
#X msg 900 3082 1.0;
#X obj 954 3082 s nd_vol_chord_fmaj7_set;
#X obj 954 3110 s nd_vol_chord_fmaj7;
#X obj 1080 3082 r nd_vol_chord_fmaj7;
#X obj 1200 3082 pack f 35;
#X obj 1290 3082 line~;
#X obj 1080 3110 catch~ nd_stem_chord_fmaj7;
#X obj 1200 3110 *~;
#X obj 1290 3110 throw~ nd_mix;
#X obj 1080 3136 catch~ nd_stemfx_chord_fmaj7;
#X obj 1200 3136 *~;
#X obj 1290 3136 throw~ nd_fx;
#X text 750 3162 chord_dmin7;
#X obj 750 3184 hsl 128 15 0 1.5 0 0 nd_vol_chord_dmin7 nd_vol_chord_dmin7_set chord_dmin7 4 8 0 10 #fcfcfc #000000 #000000 0 1;
#X msg 900 3182 1.0;
#X obj 954 3182 s nd_vol_chord_dmin7_set;
#X obj 954 3210 s nd_vol_chord_dmin7;
#X obj 1080 3182 r nd_vol_chord_dmin7;
#X obj 1200 3182 pack f 35;
#X obj 1290 3182 line~;
#X obj 1080 3210 catch~ nd_stem_chord_dmin7;
#X obj 1200 3210 *~;
#X obj 1290 3210 throw~ nd_mix;
#X obj 1080 3236 catch~ nd_stemfx_chord_dmin7;
#X obj 1200 3236 *~;
#X obj 1290 3236 throw~ nd_fx;
#X text 750 3262 vocal_1;
#X obj 750 3284 hsl 128 15 0 1.5 0 0 nd_vol_vocal_1 nd_vol_vocal_1_set vocal_1 4 8 0 10 #fcfcfc #000000 #000000 0 1;
#X msg 900 3282 1.0;
#X obj 954 3282 s nd_vol_vocal_1_set;
#X obj 954 3310 s nd_vol_vocal_1;
#X obj 1080 3282 r nd_vol_vocal_1;
#X obj 1200 3282 pack f 35;
#X obj 1290 3282 line~;
#X obj 1080 3310 catch~ nd_stem_vocal_1;
#X obj 1200 3310 *~;
#X obj 1290 3310 throw~ nd_mix;
#X obj 1080 3336 catch~ nd_stemfx_vocal_1;
#X obj 1200 3336 *~;
#X obj 1290 3336 throw~ nd_fx;
#X text 750 3362 vocal_6;
#X obj 750 3384 hsl 128 15 0 1.5 0 0 nd_vol_vocal_6 nd_vol_vocal_6_set vocal_6 4 8 0 10 #fcfcfc #000000 #000000 0 1;
#X msg 900 3382 1.0;
#X obj 954 3382 s nd_vol_vocal_6_set;
#X obj 954 3410 s nd_vol_vocal_6;
#X obj 1080 3382 r nd_vol_vocal_6;
#X obj 1200 3382 pack f 35;
#X obj 1290 3382 line~;
#X obj 1080 3410 catch~ nd_stem_vocal_6;
#X obj 1200 3410 *~;
#X obj 1290 3410 throw~ nd_mix;
#X obj 1080 3436 catch~ nd_stemfx_vocal_6;
#X obj 1200 3436 *~;
#X obj 1290 3436 throw~ nd_fx;
#X text 750 3462 vocal_11;
#X obj 750 3484 hsl 128 15 0 1.5 0 0 nd_vol_vocal_11 nd_vol_vocal_11_set vocal_11 4 8 0 10 #fcfcfc #000000 #000000 0 1;
#X msg 900 3482 1.0;
#X obj 954 3482 s nd_vol_vocal_11_set;
#X obj 954 3510 s nd_vol_vocal_11;
#X obj 1080 3482 r nd_vol_vocal_11;
#X obj 1200 3482 pack f 35;
#X obj 1290 3482 line~;
#X obj 1080 3510 catch~ nd_stem_vocal_11;
#X obj 1200 3510 *~;
#X obj 1290 3510 throw~ nd_mix;
#X obj 1080 3536 catch~ nd_stemfx_vocal_11;
#X obj 1200 3536 *~;
#X obj 1290 3536 throw~ nd_fx;
#X text 750 3562 bass;
#X obj 750 3584 hsl 128 15 0 1.5 0 0 nd_vol_bass nd_vol_bass_set bass 4 8 0 10 #fcfcfc #000000 #000000 0 1;
#X msg 900 3582 1.0;
#X obj 954 3582 s nd_vol_bass_set;
#X obj 954 3610 s nd_vol_bass;
#X obj 1080 3582 r nd_vol_bass;
#X obj 1200 3582 pack f 35;
#X obj 1290 3582 line~;
#X obj 1080 3610 catch~ nd_stem_bass;
#X obj 1200 3610 *~;
#X obj 1290 3610 throw~ nd_mix;
#X obj 1080 3636 catch~ nd_stemfx_bass;
#X obj 1200 3636 *~;
#X obj 1290 3636 throw~ nd_fx;
#X text 750 3662 lead;
#X obj 750 3684 hsl 128 15 0 1.5 0 0 nd_vol_lead nd_vol_lead_set lead 4 8 0 10 #fcfcfc #000000 #000000 0 1;
#X msg 900 3682 1.0;
#X obj 954 3682 s nd_vol_lead_set;
#X obj 954 3710 s nd_vol_lead;
#X obj 1080 3682 r nd_vol_lead;
#X obj 1200 3682 pack f 35;
#X obj 1290 3682 line~;
#X obj 1080 3710 catch~ nd_stem_lead;
#X obj 1200 3710 *~;
#X obj 1290 3710 throw~ nd_mix;
#X obj 1080 3736 catch~ nd_stemfx_lead;
#X obj 1200 3736 *~;
#X obj 1290 3736 throw~ nd_fx;
#X text 750 3762 vox_chop_14;
#X obj 750 3784 hsl 128 15 0 1.5 0 0 nd_vol_vox_chop_14 nd_vol_vox_chop_14_set vox_chop_14 4 8 0 10 #fcfcfc #000000 #000000 0 1;
#X msg 900 3782 1.0;
#X obj 954 3782 s nd_vol_vox_chop_14_set;
#X obj 954 3810 s nd_vol_vox_chop_14;
#X obj 1080 3782 r nd_vol_vox_chop_14;
#X obj 1200 3782 pack f 35;
#X obj 1290 3782 line~;
#X obj 1080 3810 catch~ nd_stem_vox_chop_14;
#X obj 1200 3810 *~;
#X obj 1290 3810 throw~ nd_mix;
#X obj 1080 3836 catch~ nd_stemfx_vox_chop_14;
#X obj 1200 3836 *~;
#X obj 1290 3836 throw~ nd_fx;
#X text 750 3862 vocal_uh;
#X obj 750 3884 hsl 128 15 0 1.5 0 0 nd_vol_vocal_uh nd_vol_vocal_uh_set vocal_uh 4 8 0 10 #fcfcfc #000000 #000000 0 1;
#X msg 900 3882 1.0;
#X obj 954 3882 s nd_vol_vocal_uh_set;
#X obj 954 3910 s nd_vol_vocal_uh;
#X obj 1080 3882 r nd_vol_vocal_uh;
#X obj 1200 3882 pack f 35;
#X obj 1290 3882 line~;
#X obj 1080 3910 catch~ nd_stem_vocal_uh;
#X obj 1200 3910 *~;
#X obj 1290 3910 throw~ nd_mix;
#X obj 1080 3936 catch~ nd_stemfx_vocal_uh;
#X obj 1200 3936 *~;
#X obj 1290 3936 throw~ nd_fx;
#X text 750 3962 pad_amin9;
#X obj 750 3984 hsl 128 15 0 1.5 0 0 nd_vol_pad_amin9 nd_vol_pad_amin9_set pad_amin9 4 8 0 10 #fcfcfc #000000 #000000 0 1;
#X msg 900 3982 1.0;
#X obj 954 3982 s nd_vol_pad_amin9_set;
#X obj 954 4010 s nd_vol_pad_amin9;
#X obj 1080 3982 r nd_vol_pad_amin9;
#X obj 1200 3982 pack f 35;
#X obj 1290 3982 line~;
#X obj 1080 4010 catch~ nd_stem_pad_amin9;
#X obj 1200 4010 *~;
#X obj 1290 4010 throw~ nd_mix;
#X obj 1080 4036 catch~ nd_stemfx_pad_amin9;
#X obj 1200 4036 *~;
#X obj 1290 4036 throw~ nd_fx;
#X text 1470 2862 cowbell;
#X obj 1470 2884 hsl 128 15 0 1.5 0 0 nd_vol_cowbell nd_vol_cowbell_set cowbell 4 8 0 10 #fcfcfc #000000 #000000 0 1;
#X msg 1620 2882 1.0;
#X obj 1674 2882 s nd_vol_cowbell_set;
#X obj 1674 2910 s nd_vol_cowbell;
#X obj 1800 2882 r nd_vol_cowbell;
#X obj 1920 2882 pack f 35;
#X obj 2010 2882 line~;
#X obj 1800 2910 catch~ nd_stem_cowbell;
#X obj 1920 2910 *~;
#X obj 2010 2910 throw~ nd_mix;
#X obj 1800 2936 catch~ nd_stemfx_cowbell;
#X obj 1920 2936 *~;
#X obj 2010 2936 throw~ nd_fx;
#X text 1470 2962 clave;
#X obj 1470 2984 hsl 128 15 0 1.5 0 0 nd_vol_clave nd_vol_clave_set clave 4 8 0 10 #fcfcfc #000000 #000000 0 1;
#X msg 1620 2982 1.0;
#X obj 1674 2982 s nd_vol_clave_set;
#X obj 1674 3010 s nd_vol_clave;
#X obj 1800 2982 r nd_vol_clave;
#X obj 1920 2982 pack f 35;
#X obj 2010 2982 line~;
#X obj 1800 3010 catch~ nd_stem_clave;
#X obj 1920 3010 *~;
#X obj 2010 3010 throw~ nd_mix;
#X obj 1800 3036 catch~ nd_stemfx_clave;
#X obj 1920 3036 *~;
#X obj 2010 3036 throw~ nd_fx;
#X text 1470 3062 rim;
#X obj 1470 3084 hsl 128 15 0 1.5 0 0 nd_vol_rim nd_vol_rim_set rim 4 8 0 10 #fcfcfc #000000 #000000 0 1;
#X msg 1620 3082 1.0;
#X obj 1674 3082 s nd_vol_rim_set;
#X obj 1674 3110 s nd_vol_rim;
#X obj 1800 3082 r nd_vol_rim;
#X obj 1920 3082 pack f 35;
#X obj 2010 3082 line~;
#X obj 1800 3110 catch~ nd_stem_rim;
#X obj 1920 3110 *~;
#X obj 2010 3110 throw~ nd_mix;
#X obj 1800 3136 catch~ nd_stemfx_rim;
#X obj 1920 3136 *~;
#X obj 2010 3136 throw~ nd_fx;
#X text 1470 3162 woodblock;
#X obj 1470 3184 hsl 128 15 0 1.5 0 0 nd_vol_woodblock nd_vol_woodblock_set woodblock 4 8 0 10 #fcfcfc #000000 #000000 0 1;
#X msg 1620 3182 1.0;
#X obj 1674 3182 s nd_vol_woodblock_set;
#X obj 1674 3210 s nd_vol_woodblock;
#X obj 1800 3182 r nd_vol_woodblock;
#X obj 1920 3182 pack f 35;
#X obj 2010 3182 line~;
#X obj 1800 3210 catch~ nd_stem_woodblock;
#X obj 1920 3210 *~;
#X obj 2010 3210 throw~ nd_mix;
#X obj 1800 3236 catch~ nd_stemfx_woodblock;
#X obj 1920 3236 *~;
#X obj 2010 3236 throw~ nd_fx;
#X text 1470 3262 vinyl;
#X obj 1470 3284 hsl 128 15 0 1.5 0 0 nd_vol_vinyl nd_vol_vinyl_set vinyl 4 8 0 10 #fcfcfc #000000 #000000 0 1;
#X msg 1620 3282 1.0;
#X obj 1674 3282 s nd_vol_vinyl_set;
#X obj 1674 3310 s nd_vol_vinyl;
#X obj 1800 3282 r nd_vol_vinyl;
#X obj 1920 3282 pack f 35;
#X obj 2010 3282 line~;
#X obj 1800 3310 catch~ nd_stem_vinyl;
#X obj 1920 3310 *~;
#X obj 2010 3310 throw~ nd_mix;
#X obj 1800 3336 catch~ nd_stemfx_vinyl;
#X obj 1920 3336 *~;
#X obj 2010 3336 throw~ nd_fx;
#X text 1470 3362 riser;
#X obj 1470 3384 hsl 128 15 0 1.5 0 0 nd_vol_riser nd_vol_riser_set riser 4 8 0 10 #fcfcfc #000000 #000000 0 1;
#X msg 1620 3382 1.0;
#X obj 1674 3382 s nd_vol_riser_set;
#X obj 1674 3410 s nd_vol_riser;
#X obj 1800 3382 r nd_vol_riser;
#X obj 1920 3382 pack f 35;
#X obj 2010 3382 line~;
#X obj 1800 3410 catch~ nd_stem_riser;
#X obj 1920 3410 *~;
#X obj 2010 3410 throw~ nd_mix;
#X obj 1800 3436 catch~ nd_stemfx_riser;
#X obj 1920 3436 *~;
#X obj 2010 3436 throw~ nd_fx;
#X text 1470 3462 downer;
#X obj 1470 3484 hsl 128 15 0 1.5 0 0 nd_vol_downer nd_vol_downer_set downer 4 8 0 10 #fcfcfc #000000 #000000 0 1;
#X msg 1620 3482 1.0;
#X obj 1674 3482 s nd_vol_downer_set;
#X obj 1674 3510 s nd_vol_downer;
#X obj 1800 3482 r nd_vol_downer;
#X obj 1920 3482 pack f 35;
#X obj 2010 3482 line~;
#X obj 1800 3510 catch~ nd_stem_downer;
#X obj 1920 3510 *~;
#X obj 2010 3510 throw~ nd_mix;
#X obj 1800 3536 catch~ nd_stemfx_downer;
#X obj 1920 3536 *~;
#X obj 2010 3536 throw~ nd_fx;
#X text 1470 3562 snare_build;
#X obj 1470 3584 hsl 128 15 0 1.5 0 0 nd_vol_snare_build nd_vol_snare_build_set snare_build 4 8 0 10 #fcfcfc #000000 #000000 0 1;
#X msg 1620 3582 1.0;
#X obj 1674 3582 s nd_vol_snare_build_set;
#X obj 1674 3610 s nd_vol_snare_build;
#X obj 1800 3582 r nd_vol_snare_build;
#X obj 1920 3582 pack f 35;
#X obj 2010 3582 line~;
#X obj 1800 3610 catch~ nd_stem_snare_build;
#X obj 1920 3610 *~;
#X obj 2010 3610 throw~ nd_mix;
#X obj 1800 3636 catch~ nd_stemfx_snare_build;
#X obj 1920 3636 *~;
#X obj 2010 3636 throw~ nd_fx;
#X text 1470 3662 pshew;
#X obj 1470 3684 hsl 128 15 0 1.5 0 0 nd_vol_pshew nd_vol_pshew_set pshew 4 8 0 10 #fcfcfc #000000 #000000 0 1;
#X msg 1620 3682 1.0;
#X obj 1674 3682 s nd_vol_pshew_set;
#X obj 1674 3710 s nd_vol_pshew;
#X obj 1800 3682 r nd_vol_pshew;
#X obj 1920 3682 pack f 35;
#X obj 2010 3682 line~;
#X obj 1800 3710 catch~ nd_stem_pshew;
#X obj 1920 3710 *~;
#X obj 2010 3710 throw~ nd_mix;
#X obj 1800 3736 catch~ nd_stemfx_pshew;
#X obj 1920 3736 *~;
#X obj 2010 3736 throw~ nd_fx;
#X text 1470 3762 delay_return;
#X obj 1470 3784 hsl 128 15 0 1.5 0 0 nd_vol_delay nd_vol_delay_set delay_return 4 8 0 10 #fcfcfc #000000 #000000 0 1;
#X msg 1620 3782 1.0;
#X obj 1674 3782 s nd_vol_delay_set;
#X obj 1674 3810 s nd_vol_delay;
#X obj 1800 3782 r nd_vol_delay;
#X obj 1920 3782 pack f 35;
#X obj 2010 3782 line~;
#X obj 1800 3810 catch~ nd_stem_delay;
#X obj 1920 3810 *~;
#X obj 2010 3810 throw~ nd_mix;
#X obj 1800 3836 catch~ nd_stemfx_delay;
#X obj 1920 3836 *~;
#X obj 2010 3836 throw~ nd_fx;
#X text 1510 92 Visualizer: waveform scope writes into the graph below;
#X obj 1510 122 metro 45;
#X msg 1606 122 1;
#X obj 1510 156 tabwrite~ nd_scope;
#N canvas 0 22 450 278 12;
#X array nd_scope 512 float 3;
#A 0 0 0 0 0 0 0 0 0 0 0 0 0 0 0 0 0 0 0 0 0 0 0 0 0 0 0 0 0 0 0 0 0 0 0 0 0 0 0 0 0 0 0 0 0 0 0 0 0 0 0 0 0 0 0 0 0 0 0 0 0 0 0 0 0 0 0 0 0 0 0 0 0 0 0 0 0 0 0 0 0 0 0 0 0 0 0 0 0 0 0 0 0 0 0 0 0 0 0 0 0 0 0 0 0 0 0 0 0 0 0 0 0 0 0 0 0 0 0 0 0 0 0 0 0 0 0 0 0 0 0 0 0 0 0 0 0 0 0 0 0 0 0 0 0 0 0 0 0 0 0 0 0 0 0 0 0 0 0 0 0 0 0 0 0 0 0 0 0 0 0 0 0 0 0 0 0 0 0 0 0 0 0 0 0 0 0 0 0 0 0 0 0 0 0 0 0 0 0 0 0 0 0 0 0 0 0 0 0 0 0 0 0 0 0 0 0 0 0 0 0 0 0 0 0 0 0 0 0 0 0 0 0 0 0 0 0 0 0 0 0 0 0 0 0 0 0 0 0 0 0 0 0 0 0 0 0 0 0 0 0 0 0 0 0 0 0 0 0 0 0 0 0 0 0 0 0 0 0 0 0 0 0 0 0 0 0 0 0 0 0 0 0 0 0 0 0 0 0 0 0 0 0 0 0 0 0 0 0 0 0 0 0 0 0 0 0 0 0 0 0 0 0 0 0 0 0 0 0 0 0 0 0 0 0 0 0 0 0 0 0 0 0 0 0 0 0 0 0 0 0 0 0 0 0 0 0 0 0 0 0 0 0 0 0 0 0 0 0 0 0 0 0 0 0 0 0 0 0 0 0 0 0 0 0 0 0 0 0 0 0 0 0 0 0 0 0 0 0 0 0 0 0 0 0 0 0 0 0 0 0 0 0 0 0 0 0 0 0 0 0 0 0 0 0 0 0 0 0 0 0 0 0 0 0 0 0 0 0 0 0 0 0 0 0 0 0 0 0 0 0 0 0 0 0 0 0 0 0 0 0 0 0 0 0 0 0 0 0 0 0 0 0 0 0 0 0 0 0 0 0 0 0 0 0 0 0 0 0 0 0 0 0 0 0 0 0 0 0 0 0 0 0 0 0 0 0 0 0 0 0 0 0;
#X coords 0 1 511 -1 320 110 1 0 0;
#X restore 1510 184 graph;
#X connect 5 0 6 0;
#X connect 5 0 9 0;
#X connect 5 0 7 0;
#X connect 7 0 10 0;
#X connect 8 0 10 0;
#X connect 9 0 11 1;
#X connect 10 0 11 0;
#X connect 11 0 14 0;
#X connect 11 0 15 0;
#X connect 11 0 12 0;
#X connect 12 0 13 0;
#X connect 13 0 11 1;
#X connect 17 0 18 0;
#X connect 18 0 20 0;
#X connect 20 0 19 0;
#X connect 18 1 21 0;
#X connect 21 0 19 0;
#X connect 18 2 22 0;
#X connect 22 0 19 0;
#X connect 18 3 23 0;
#X connect 23 0 19 0;
#X connect 5 0 30 0;
#X connect 30 0 29 0;
#X connect 5 0 33 0;
#X connect 33 0 29 0;
#X connect 5 0 36 0;
#X connect 36 0 29 0;
#X connect 5 0 39 0;
#X connect 39 0 29 0;
#X connect 5 0 42 0;
#X connect 42 0 29 0;
#X connect 5 0 45 0;
#X connect 45 0 29 0;
#X connect 5 0 48 0;
#X connect 48 0 29 0;
#X connect 5 0 51 0;
#X connect 51 0 29 0;
#X connect 5 0 54 0;
#X connect 54 0 29 0;
#X connect 5 0 57 0;
#X connect 57 0 29 0;
#X connect 5 0 60 0;
#X connect 60 0 29 0;
#X connect 5 0 63 0;
#X connect 63 0 29 0;
#X connect 5 0 66 0;
#X connect 66 0 29 0;
#X connect 5 0 69 0;
#X connect 69 0 29 0;
#X connect 5 0 72 0;
#X connect 72 0 29 0;
#X connect 5 0 75 0;
#X connect 75 0 29 0;
#X connect 5 0 78 0;
#X connect 78 0 29 0;
#X connect 5 0 81 0;
#X connect 81 0 29 0;
#X connect 5 0 84 0;
#X connect 84 0 29 0;
#X connect 5 0 87 0;
#X connect 87 0 29 0;
#X connect 5 0 90 0;
#X connect 90 0 29 0;
#X connect 5 0 93 0;
#X connect 93 0 29 0;
#X connect 5 0 96 0;
#X connect 96 0 29 0;
#X connect 5 0 99 0;
#X connect 99 0 29 0;
#X connect 5 0 102 0;
#X connect 102 0 29 0;
#X connect 5 0 105 0;
#X connect 105 0 29 0;
#X connect 5 0 108 0;
#X connect 108 0 29 0;
#X connect 5 0 111 0;
#X connect 111 0 29 0;
#X connect 5 0 114 0;
#X connect 114 0 29 0;
#X connect 5 0 117 0;
#X connect 117 0 29 0;
#X connect 5 0 120 0;
#X connect 120 0 29 0;
#X connect 5 0 123 0;
#X connect 123 0 29 0;
#X connect 5 0 126 0;
#X connect 126 0 29 0;
#X connect 5 0 129 0;
#X connect 129 0 29 0;
#X connect 5 0 132 0;
#X connect 132 0 29 0;
#X connect 5 0 135 0;
#X connect 135 0 29 0;
#X connect 5 0 138 0;
#X connect 138 0 29 0;
#X connect 142 0 143 0;
#X connect 143 0 144 0;
#X connect 143 1 144 0;
#X connect 143 2 144 0;
#X connect 143 3 144 0;
#X connect 143 4 144 0;
#X connect 143 5 144 0;
#X connect 143 6 144 0;
#X connect 143 7 144 0;
#X connect 143 8 144 0;
#X connect 143 9 144 0;
#X connect 143 10 144 0;
#X connect 143 11 144 0;
#X connect 143 12 144 0;
#X connect 143 13 144 0;
#X connect 143 14 144 0;
#X connect 143 15 144 0;
#X connect 143 16 144 0;
#X connect 143 17 144 0;
#X connect 143 18 144 0;
#X connect 143 19 144 0;
#X connect 143 20 144 0;
#X connect 143 21 144 0;
#X connect 143 22 144 0;
#X connect 143 23 144 0;
#X connect 144 0 145 0;
#X connect 145 0 146 0;
#X connect 148 0 149 0;
#X connect 149 0 150 0;
#X connect 149 1 150 0;
#X connect 149 2 150 0;
#X connect 149 3 150 0;
#X connect 150 0 151 0;
#X connect 151 0 152 0;
#X connect 154 0 155 0;
#X connect 155 0 156 0;
#X connect 155 1 156 0;
#X connect 155 2 156 0;
#X connect 155 3 156 0;
#X connect 155 4 156 0;
#X connect 155 5 156 0;
#X connect 155 6 156 0;
#X connect 155 7 156 0;
#X connect 155 8 156 0;
#X connect 155 9 156 0;
#X connect 156 0 157 0;
#X connect 157 0 158 0;
#X connect 156 0 159 0;
#X connect 159 0 160 0;
#X connect 162 0 163 0;
#X connect 163 0 164 0;
#X connect 163 1 164 0;
#X connect 163 2 164 0;
#X connect 163 3 164 0;
#X connect 163 4 164 0;
#X connect 163 5 164 0;
#X connect 163 6 164 0;
#X connect 164 0 165 0;
#X connect 165 0 166 0;
#X connect 164 0 167 0;
#X connect 167 0 168 0;
#X connect 170 0 171 0;
#X connect 171 0 173 0;
#X connect 171 1 173 0;
#X connect 171 2 173 0;
#X connect 171 3 173 0;
#X connect 171 4 173 0;
#X connect 171 5 173 0;
#X connect 171 6 173 0;
#X connect 171 7 173 0;
#X connect 171 8 173 0;
#X connect 171 9 173 0;
#X connect 171 10 173 0;
#X connect 171 11 173 0;
#X connect 171 12 173 0;
#X connect 171 13 173 0;
#X connect 171 14 173 0;
#X connect 171 15 173 0;
#X connect 171 16 173 0;
#X connect 171 17 173 0;
#X connect 171 18 173 0;
#X connect 171 19 173 0;
#X connect 173 0 174 0;
#X connect 174 0 175 0;
#X connect 175 0 172 0;
#X connect 172 0 176 0;
#X connect 176 0 177 0;
#X connect 172 0 178 0;
#X connect 178 0 179 0;
#X connect 181 0 182 0;
#X connect 182 0 183 0;
#X connect 182 1 183 0;
#X connect 182 2 183 0;
#X connect 182 3 183 0;
#X connect 182 4 183 0;
#X connect 182 5 183 0;
#X connect 182 6 183 0;
#X connect 182 7 183 0;
#X connect 182 8 183 0;
#X connect 182 9 183 0;
#X connect 182 10 183 0;
#X connect 183 0 184 0;
#X connect 184 0 185 0;
#X connect 183 0 186 0;
#X connect 186 0 187 0;
#X connect 189 0 190 0;
#X connect 190 0 192 0;
#X connect 190 1 192 0;
#X connect 190 2 192 0;
#X connect 190 3 192 0;
#X connect 190 4 192 0;
#X connect 190 5 192 0;
#X connect 190 6 192 0;
#X connect 190 7 192 0;
#X connect 190 8 192 0;
#X connect 190 9 192 0;
#X connect 192 0 193 0;
#X connect 193 0 194 0;
#X connect 194 0 191 0;
#X connect 191 0 195 0;
#X connect 195 0 196 0;
#X connect 191 0 197 0;
#X connect 197 0 198 0;
#X connect 200 0 201 0;
#X connect 201 0 202 0;
#X connect 201 1 202 0;
#X connect 202 0 203 0;
#X connect 203 0 204 0;
#X connect 202 0 205 0;
#X connect 205 0 206 0;
#X connect 208 0 209 0;
#X connect 209 0 210 0;
#X connect 209 1 210 0;
#X connect 210 0 211 0;
#X connect 211 0 212 0;
#X connect 210 0 213 0;
#X connect 213 0 214 0;
#X connect 216 0 217 0;
#X connect 217 0 218 0;
#X connect 218 0 219 0;
#X connect 219 0 220 0;
#X connect 218 0 221 0;
#X connect 221 0 222 0;
#X connect 224 0 225 0;
#X connect 225 0 226 0;
#X connect 225 1 226 0;
#X connect 226 0 227 0;
#X connect 227 0 228 0;
#X connect 226 0 229 0;
#X connect 229 0 230 0;
#X connect 232 0 233 0;
#X connect 233 0 234 0;
#X connect 233 1 234 0;
#X connect 234 0 235 0;
#X connect 235 0 236 0;
#X connect 234 0 237 0;
#X connect 237 0 238 0;
#X connect 240 0 241 0;
#X connect 241 0 242 0;
#X connect 241 1 242 0;
#X connect 242 0 243 0;
#X connect 243 0 244 0;
#X connect 242 0 245 0;
#X connect 245 0 246 0;
#X connect 248 0 249 0;
#X connect 249 0 250 0;
#X connect 249 1 250 0;
#X connect 250 0 251 0;
#X connect 251 0 252 0;
#X connect 250 0 253 0;
#X connect 253 0 254 0;
#X connect 256 0 257 0;
#X connect 257 0 258 0;
#X connect 257 1 258 0;
#X connect 258 0 259 0;
#X connect 259 0 260 0;
#X connect 258 0 261 0;
#X connect 261 0 262 0;
#X connect 264 0 265 0;
#X connect 265 0 266 0;
#X connect 265 1 266 0;
#X connect 266 0 267 0;
#X connect 267 0 268 0;
#X connect 266 0 269 0;
#X connect 269 0 270 0;
#X connect 272 0 273 0;
#X connect 273 0 274 0;
#X connect 273 1 274 0;
#X connect 273 2 274 0;
#X connect 273 3 274 0;
#X connect 274 0 275 0;
#X connect 275 0 276 0;
#X connect 274 0 277 0;
#X connect 277 0 278 0;
#X connect 280 0 281 0;
#X connect 281 0 282 0;
#X connect 281 1 282 0;
#X connect 281 2 282 0;
#X connect 281 3 282 0;
#X connect 282 0 283 0;
#X connect 283 0 284 0;
#X connect 282 0 285 0;
#X connect 285 0 286 0;
#X connect 288 0 289 0;
#X connect 289 0 290 0;
#X connect 289 1 290 0;
#X connect 289 2 290 0;
#X connect 289 3 290 0;
#X connect 289 4 290 0;
#X connect 290 0 291 0;
#X connect 291 0 292 0;
#X connect 290 0 293 0;
#X connect 293 0 294 0;
#X connect 296 0 297 0;
#X connect 297 0 298 0;
#X connect 297 1 298 0;
#X connect 297 2 298 0;
#X connect 297 3 298 0;
#X connect 297 4 298 0;
#X connect 297 5 298 0;
#X connect 297 6 298 0;
#X connect 297 7 298 0;
#X connect 297 8 298 0;
#X connect 297 9 298 0;
#X connect 297 10 298 0;
#X connect 297 11 298 0;
#X connect 297 0 299 0;
#X connect 297 1 299 0;
#X connect 297 2 299 0;
#X connect 297 3 299 0;
#X connect 297 4 299 0;
#X connect 297 5 299 0;
#X connect 297 6 299 0;
#X connect 297 7 299 0;
#X connect 297 8 299 0;
#X connect 297 9 299 0;
#X connect 297 10 299 0;
#X connect 297 11 299 0;
#X connect 299 0 300 0;
#X connect 298 0 301 0;
#X connect 300 0 301 1;
#X connect 301 0 302 0;
#X connect 302 0 303 0;
#X connect 305 0 306 0;
#X connect 306 0 307 0;
#X connect 306 1 307 0;
#X connect 306 2 307 0;
#X connect 306 3 307 0;
#X connect 306 4 307 0;
#X connect 306 0 308 0;
#X connect 306 1 308 0;
#X connect 306 2 308 0;
#X connect 306 3 308 0;
#X connect 306 4 308 0;
#X connect 308 0 309 0;
#X connect 307 0 310 0;
#X connect 309 0 310 1;
#X connect 310 0 311 0;
#X connect 311 0 312 0;
#X connect 314 0 315 0;
#X connect 315 0 316 0;
#X connect 315 1 316 0;
#X connect 315 2 316 0;
#X connect 315 0 317 0;
#X connect 315 1 317 0;
#X connect 315 2 317 0;
#X connect 317 0 318 0;
#X connect 316 0 319 0;
#X connect 318 0 319 1;
#X connect 319 0 320 0;
#X connect 320 0 321 0;
#X connect 319 0 322 0;
#X connect 322 0 323 0;
#X connect 325 0 326 0;
#X connect 326 0 327 0;
#X connect 326 1 327 0;
#X connect 326 2 327 0;
#X connect 326 3 327 0;
#X connect 326 4 327 0;
#X connect 326 5 327 0;
#X connect 327 0 328 0;
#X connect 328 0 329 0;
#X connect 327 0 330 0;
#X connect 330 0 331 0;
#X connect 333 0 334 0;
#X connect 334 0 335 0;
#X connect 334 1 335 0;
#X connect 334 2 335 0;
#X connect 334 3 335 0;
#X connect 335 0 336 0;
#X connect 336 0 337 0;
#X connect 335 0 338 0;
#X connect 338 0 339 0;
#X connect 341 0 342 0;
#X connect 342 0 343 0;
#X connect 342 1 343 0;
#X connect 343 0 344 0;
#X connect 344 0 345 0;
#X connect 343 0 346 0;
#X connect 346 0 347 0;
#X connect 349 0 350 0;
#X connect 350 0 351 0;
#X connect 350 1 351 0;
#X connect 350 2 351 0;
#X connect 350 3 351 0;
#X connect 351 0 352 0;
#X connect 352 0 353 0;
#X connect 351 0 354 0;
#X connect 354 0 355 0;
#X connect 357 0 358 0;
#X connect 358 0 359 0;
#X connect 358 1 359 0;
#X connect 358 2 359 0;
#X connect 359 0 360 0;
#X connect 360 0 361 0;
#X connect 359 0 362 0;
#X connect 362 0 363 0;
#X connect 365 0 366 0;
#X connect 366 0 367 0;
#X connect 366 0 368 0;
#X connect 368 0 369 0;
#X connect 367 0 370 0;
#X connect 369 0 370 1;
#X connect 370 0 371 0;
#X connect 371 0 372 0;
#X connect 370 0 373 0;
#X connect 373 0 374 0;
#X connect 376 0 377 0;
#X connect 377 0 378 0;
#X connect 377 1 378 0;
#X connect 377 2 378 0;
#X connect 377 3 378 0;
#X connect 377 4 378 0;
#X connect 377 5 378 0;
#X connect 377 6 378 0;
#X connect 377 7 378 0;
#X connect 377 0 379 0;
#X connect 377 1 379 0;
#X connect 377 2 379 0;
#X connect 377 3 379 0;
#X connect 377 4 379 0;
#X connect 377 5 379 0;
#X connect 377 6 379 0;
#X connect 377 7 379 0;
#X connect 379 0 380 0;
#X connect 378 0 381 0;
#X connect 380 0 381 1;
#X connect 381 0 382 0;
#X connect 382 0 383 0;
#X connect 381 0 384 0;
#X connect 384 0 385 0;
#X connect 387 0 388 0;
#X connect 388 0 389 0;
#X connect 388 1 389 0;
#X connect 388 2 389 0;
#X connect 388 3 389 0;
#X connect 388 4 389 0;
#X connect 388 5 389 0;
#X connect 389 0 390 0;
#X connect 390 0 391 0;
#X connect 389 0 392 0;
#X connect 392 0 393 0;
#X connect 395 0 396 0;
#X connect 396 0 397 0;
#X connect 396 1 397 0;
#X connect 396 2 397 0;
#X connect 397 0 398 0;
#X connect 398 0 399 0;
#X connect 397 0 400 0;
#X connect 400 0 401 0;
#X connect 403 0 404 0;
#X connect 404 0 405 0;
#X connect 404 1 405 0;
#X connect 404 2 405 0;
#X connect 405 0 406 0;
#X connect 406 0 407 0;
#X connect 405 0 408 0;
#X connect 408 0 409 0;
#X connect 411 0 412 0;
#X connect 412 0 413 0;
#X connect 412 1 413 0;
#X connect 413 0 414 0;
#X connect 414 0 415 0;
#X connect 417 0 418 0;
#X connect 418 0 419 0;
#X connect 418 0 420 0;
#X connect 420 0 421 0;
#X connect 419 0 422 0;
#X connect 421 0 422 1;
#X connect 422 0 423 0;
#X connect 423 0 424 0;
#X connect 422 0 425 0;
#X connect 425 0 426 0;
#X connect 428 0 429 0;
#X connect 429 0 430 0;
#X connect 429 0 431 0;
#X connect 431 0 432 0;
#X connect 430 0 433 0;
#X connect 432 0 433 1;
#X connect 433 0 434 0;
#X connect 434 0 435 0;
#X connect 433 0 436 0;
#X connect 436 0 437 0;
#X connect 439 0 440 0;
#X connect 440 0 441 0;
#X connect 441 0 442 0;
#X connect 442 0 443 0;
#X connect 441 0 444 0;
#X connect 444 0 445 0;
#X connect 447 0 448 0;
#X connect 448 0 449 0;
#X connect 448 1 449 0;
#X connect 448 2 449 0;
#X connect 449 0 450 0;
#X connect 450 0 451 0;
#X connect 449 0 452 0;
#X connect 452 0 453 0;
#X connect 455 0 456 0;
#X connect 457 0 458 0;
#X connect 458 0 459 0;
#X connect 461 0 462 0;
#X connect 462 0 463 0;
#X connect 463 0 464 0;
#X connect 464 0 465 0;
#X connect 464 0 465 1;
#X connect 5 0 469 0;
#X connect 469 0 470 0;
#X connect 469 0 471 0;
#X connect 472 0 473 0;
#X connect 473 0 474 0;
#X connect 475 0 476 0;
#X connect 474 0 476 1;
#X connect 476 0 477 0;
#X connect 478 0 479 0;
#X connect 474 0 479 1;
#X connect 479 0 480 0;
#X connect 5 0 483 0;
#X connect 483 0 484 0;
#X connect 483 0 485 0;
#X connect 486 0 487 0;
#X connect 487 0 488 0;
#X connect 489 0 490 0;
#X connect 488 0 490 1;
#X connect 490 0 491 0;
#X connect 492 0 493 0;
#X connect 488 0 493 1;
#X connect 493 0 494 0;
#X connect 5 0 497 0;
#X connect 497 0 498 0;
#X connect 497 0 499 0;
#X connect 500 0 501 0;
#X connect 501 0 502 0;
#X connect 503 0 504 0;
#X connect 502 0 504 1;
#X connect 504 0 505 0;
#X connect 506 0 507 0;
#X connect 502 0 507 1;
#X connect 507 0 508 0;
#X connect 5 0 511 0;
#X connect 511 0 512 0;
#X connect 511 0 513 0;
#X connect 514 0 515 0;
#X connect 515 0 516 0;
#X connect 517 0 518 0;
#X connect 516 0 518 1;
#X connect 518 0 519 0;
#X connect 520 0 521 0;
#X connect 516 0 521 1;
#X connect 521 0 522 0;
#X connect 5 0 525 0;
#X connect 525 0 526 0;
#X connect 525 0 527 0;
#X connect 528 0 529 0;
#X connect 529 0 530 0;
#X connect 531 0 532 0;
#X connect 530 0 532 1;
#X connect 532 0 533 0;
#X connect 534 0 535 0;
#X connect 530 0 535 1;
#X connect 535 0 536 0;
#X connect 5 0 539 0;
#X connect 539 0 540 0;
#X connect 539 0 541 0;
#X connect 542 0 543 0;
#X connect 543 0 544 0;
#X connect 545 0 546 0;
#X connect 544 0 546 1;
#X connect 546 0 547 0;
#X connect 548 0 549 0;
#X connect 544 0 549 1;
#X connect 549 0 550 0;
#X connect 5 0 553 0;
#X connect 553 0 554 0;
#X connect 553 0 555 0;
#X connect 556 0 557 0;
#X connect 557 0 558 0;
#X connect 559 0 560 0;
#X connect 558 0 560 1;
#X connect 560 0 561 0;
#X connect 562 0 563 0;
#X connect 558 0 563 1;
#X connect 563 0 564 0;
#X connect 5 0 567 0;
#X connect 567 0 568 0;
#X connect 567 0 569 0;
#X connect 570 0 571 0;
#X connect 571 0 572 0;
#X connect 573 0 574 0;
#X connect 572 0 574 1;
#X connect 574 0 575 0;
#X connect 576 0 577 0;
#X connect 572 0 577 1;
#X connect 577 0 578 0;
#X connect 5 0 581 0;
#X connect 581 0 582 0;
#X connect 581 0 583 0;
#X connect 584 0 585 0;
#X connect 585 0 586 0;
#X connect 587 0 588 0;
#X connect 586 0 588 1;
#X connect 588 0 589 0;
#X connect 590 0 591 0;
#X connect 586 0 591 1;
#X connect 591 0 592 0;
#X connect 5 0 595 0;
#X connect 595 0 596 0;
#X connect 595 0 597 0;
#X connect 598 0 599 0;
#X connect 599 0 600 0;
#X connect 601 0 602 0;
#X connect 600 0 602 1;
#X connect 602 0 603 0;
#X connect 604 0 605 0;
#X connect 600 0 605 1;
#X connect 605 0 606 0;
#X connect 5 0 609 0;
#X connect 609 0 610 0;
#X connect 609 0 611 0;
#X connect 612 0 613 0;
#X connect 613 0 614 0;
#X connect 615 0 616 0;
#X connect 614 0 616 1;
#X connect 616 0 617 0;
#X connect 618 0 619 0;
#X connect 614 0 619 1;
#X connect 619 0 620 0;
#X connect 5 0 623 0;
#X connect 623 0 624 0;
#X connect 623 0 625 0;
#X connect 626 0 627 0;
#X connect 627 0 628 0;
#X connect 629 0 630 0;
#X connect 628 0 630 1;
#X connect 630 0 631 0;
#X connect 632 0 633 0;
#X connect 628 0 633 1;
#X connect 633 0 634 0;
#X connect 5 0 637 0;
#X connect 637 0 638 0;
#X connect 637 0 639 0;
#X connect 640 0 641 0;
#X connect 641 0 642 0;
#X connect 643 0 644 0;
#X connect 642 0 644 1;
#X connect 644 0 645 0;
#X connect 646 0 647 0;
#X connect 642 0 647 1;
#X connect 647 0 648 0;
#X connect 5 0 651 0;
#X connect 651 0 652 0;
#X connect 651 0 653 0;
#X connect 654 0 655 0;
#X connect 655 0 656 0;
#X connect 657 0 658 0;
#X connect 656 0 658 1;
#X connect 658 0 659 0;
#X connect 660 0 661 0;
#X connect 656 0 661 1;
#X connect 661 0 662 0;
#X connect 5 0 665 0;
#X connect 665 0 666 0;
#X connect 665 0 667 0;
#X connect 668 0 669 0;
#X connect 669 0 670 0;
#X connect 671 0 672 0;
#X connect 670 0 672 1;
#X connect 672 0 673 0;
#X connect 674 0 675 0;
#X connect 670 0 675 1;
#X connect 675 0 676 0;
#X connect 5 0 679 0;
#X connect 679 0 680 0;
#X connect 679 0 681 0;
#X connect 682 0 683 0;
#X connect 683 0 684 0;
#X connect 685 0 686 0;
#X connect 684 0 686 1;
#X connect 686 0 687 0;
#X connect 688 0 689 0;
#X connect 684 0 689 1;
#X connect 689 0 690 0;
#X connect 5 0 693 0;
#X connect 693 0 694 0;
#X connect 693 0 695 0;
#X connect 696 0 697 0;
#X connect 697 0 698 0;
#X connect 699 0 700 0;
#X connect 698 0 700 1;
#X connect 700 0 701 0;
#X connect 702 0 703 0;
#X connect 698 0 703 1;
#X connect 703 0 704 0;
#X connect 5 0 707 0;
#X connect 707 0 708 0;
#X connect 707 0 709 0;
#X connect 710 0 711 0;
#X connect 711 0 712 0;
#X connect 713 0 714 0;
#X connect 712 0 714 1;
#X connect 714 0 715 0;
#X connect 716 0 717 0;
#X connect 712 0 717 1;
#X connect 717 0 718 0;
#X connect 5 0 721 0;
#X connect 721 0 722 0;
#X connect 721 0 723 0;
#X connect 724 0 725 0;
#X connect 725 0 726 0;
#X connect 727 0 728 0;
#X connect 726 0 728 1;
#X connect 728 0 729 0;
#X connect 730 0 731 0;
#X connect 726 0 731 1;
#X connect 731 0 732 0;
#X connect 5 0 735 0;
#X connect 735 0 736 0;
#X connect 735 0 737 0;
#X connect 738 0 739 0;
#X connect 739 0 740 0;
#X connect 741 0 742 0;
#X connect 740 0 742 1;
#X connect 742 0 743 0;
#X connect 744 0 745 0;
#X connect 740 0 745 1;
#X connect 745 0 746 0;
#X connect 5 0 749 0;
#X connect 749 0 750 0;
#X connect 749 0 751 0;
#X connect 752 0 753 0;
#X connect 753 0 754 0;
#X connect 755 0 756 0;
#X connect 754 0 756 1;
#X connect 756 0 757 0;
#X connect 758 0 759 0;
#X connect 754 0 759 1;
#X connect 759 0 760 0;
#X connect 5 0 763 0;
#X connect 763 0 764 0;
#X connect 763 0 765 0;
#X connect 766 0 767 0;
#X connect 767 0 768 0;
#X connect 769 0 770 0;
#X connect 768 0 770 1;
#X connect 770 0 771 0;
#X connect 772 0 773 0;
#X connect 768 0 773 1;
#X connect 773 0 774 0;
#X connect 5 0 777 0;
#X connect 777 0 778 0;
#X connect 777 0 779 0;
#X connect 780 0 781 0;
#X connect 781 0 782 0;
#X connect 783 0 784 0;
#X connect 782 0 784 1;
#X connect 784 0 785 0;
#X connect 786 0 787 0;
#X connect 782 0 787 1;
#X connect 787 0 788 0;
#X connect 5 0 791 0;
#X connect 791 0 792 0;
#X connect 791 0 793 0;
#X connect 794 0 795 0;
#X connect 795 0 796 0;
#X connect 797 0 798 0;
#X connect 796 0 798 1;
#X connect 798 0 799 0;
#X connect 800 0 801 0;
#X connect 796 0 801 1;
#X connect 801 0 802 0;
#X connect 5 0 805 0;
#X connect 805 0 806 0;
#X connect 805 0 807 0;
#X connect 808 0 809 0;
#X connect 809 0 810 0;
#X connect 811 0 812 0;
#X connect 810 0 812 1;
#X connect 812 0 813 0;
#X connect 814 0 815 0;
#X connect 810 0 815 1;
#X connect 815 0 816 0;
#X connect 5 0 819 0;
#X connect 819 0 820 0;
#X connect 819 0 821 0;
#X connect 822 0 823 0;
#X connect 823 0 824 0;
#X connect 825 0 826 0;
#X connect 824 0 826 1;
#X connect 826 0 827 0;
#X connect 828 0 829 0;
#X connect 824 0 829 1;
#X connect 829 0 830 0;
#X connect 5 0 833 0;
#X connect 833 0 834 0;
#X connect 833 0 835 0;
#X connect 836 0 837 0;
#X connect 837 0 838 0;
#X connect 839 0 840 0;
#X connect 838 0 840 1;
#X connect 840 0 841 0;
#X connect 842 0 843 0;
#X connect 838 0 843 1;
#X connect 843 0 844 0;
#X connect 5 0 847 0;
#X connect 847 0 848 0;
#X connect 847 0 849 0;
#X connect 850 0 851 0;
#X connect 851 0 852 0;
#X connect 853 0 854 0;
#X connect 852 0 854 1;
#X connect 854 0 855 0;
#X connect 856 0 857 0;
#X connect 852 0 857 1;
#X connect 857 0 858 0;
#X connect 5 0 861 0;
#X connect 861 0 862 0;
#X connect 861 0 863 0;
#X connect 864 0 865 0;
#X connect 865 0 866 0;
#X connect 867 0 868 0;
#X connect 866 0 868 1;
#X connect 868 0 869 0;
#X connect 870 0 871 0;
#X connect 866 0 871 1;
#X connect 871 0 872 0;
#X connect 5 0 875 0;
#X connect 875 0 876 0;
#X connect 875 0 877 0;
#X connect 878 0 879 0;
#X connect 879 0 880 0;
#X connect 881 0 882 0;
#X connect 880 0 882 1;
#X connect 882 0 883 0;
#X connect 884 0 885 0;
#X connect 880 0 885 1;
#X connect 885 0 886 0;
#X connect 5 0 889 0;
#X connect 889 0 890 0;
#X connect 889 0 891 0;
#X connect 892 0 893 0;
#X connect 893 0 894 0;
#X connect 895 0 896 0;
#X connect 894 0 896 1;
#X connect 896 0 897 0;
#X connect 898 0 899 0;
#X connect 894 0 899 1;
#X connect 899 0 900 0;
#X connect 5 0 903 0;
#X connect 903 0 904 0;
#X connect 903 0 905 0;
#X connect 906 0 907 0;
#X connect 907 0 908 0;
#X connect 909 0 910 0;
#X connect 908 0 910 1;
#X connect 910 0 911 0;
#X connect 912 0 913 0;
#X connect 908 0 913 1;
#X connect 913 0 914 0;
#X connect 5 0 917 0;
#X connect 917 0 918 0;
#X connect 917 0 919 0;
#X connect 920 0 921 0;
#X connect 921 0 922 0;
#X connect 923 0 924 0;
#X connect 922 0 924 1;
#X connect 924 0 925 0;
#X connect 926 0 927 0;
#X connect 922 0 927 1;
#X connect 927 0 928 0;
#X connect 5 0 931 0;
#X connect 931 0 932 0;
#X connect 931 0 933 0;
#X connect 934 0 935 0;
#X connect 935 0 936 0;
#X connect 937 0 938 0;
#X connect 936 0 938 1;
#X connect 938 0 939 0;
#X connect 940 0 941 0;
#X connect 936 0 941 1;
#X connect 941 0 942 0;
#X connect 5 0 945 0;
#X connect 945 0 944 0;
#X connect 944 0 946 0;
#X connect 464 0 946 0;
