#N canvas 0 0 220 170 12;
#X obj 40 20 inlet;
#X obj 120 20 inlet;
#X obj 40 60 t b f;
#X obj 40 100 f \$1;
#X obj 40 140 outlet;
#X obj 120 140 outlet;
#X connect 0 0 2 0;
#X connect 1 0 3 1;
#X connect 2 0 3 0;
#X connect 2 1 5 0;
#X connect 3 0 4 0;
