#N canvas 0 0 1500 1800 12;
#X text 20 20 =========================================================;
#X text 20 36 Frutiger Aero Chillout Sketch - Pure Data Vanilla;
#X text 20 52 Generated using Python pd_patch_builder;
#X text 20 68 =========================================================;
#X text 50 110 --- Transport & Clock (100 BPM) ---;
#X obj 50 136 loadbang;
#X msg 50 170 100;
#X obj 130 170 hsl 128 15 70 130 0 0 empty Tempo-BPM Tempo-BPM -2 -8 0 10 -262144 -1 -1 0 1;
#X obj 280 130 r Tempo-BPM @hv_param 70 130 100;
#X obj 280 170 swap 15000;
#X obj 360 170 /;
#X msg 50 210 1;
#X obj 130 210 metro;
#X obj 130 250 f 0;
#X obj 198 250 + 1;
#X obj 266 250 mod 16;
#X obj 266 290 mod 64;
#X floatatom 346 250 5 0 0 step - - 0;
#X text 50 350 --- Real-Time GUI Sliders ---;
#X msg 50 380 0;
#X obj 130 380 hsl 128 15 -12 12 0 0 empty Transpose-Key Transpose-Key -2 -8 0 10 -262144 -1 -1 0 1;
#X obj 280 340 r Transpose-Key @hv_param -12 12 0;
#X msg 50 420 0.60;
#X obj 130 420 hsl 128 15 0 1 0 0 empty SFX-Volume SFX-Volume -2 -8 0 10 -262144 -1 -1 0 1;
#X obj 280 420 r SFX-Volume @hv_param 0 1 0.60;
#X msg 50 460 0.65;
#X obj 130 460 hsl 128 15 0 0.9 0 0 empty Delay-Feedback Delay-Feedback -2 -8 0 10 -262144 -1 -1 0 1;
#X obj 280 460 r Delay-Feedback @hv_param 0 0.9 0.65;
#X msg 50 500 0.22;
#X obj 130 500 hsl 128 15 0 0.5 0 0 empty Master-Gain Master-Gain -2 -8 0 10 -262144 -1 -1 0 1;
#X obj 280 500 r Master-Gain @hv_param 0 0.5 0.22;
#X obj 50 820 change;
#X obj 50 860 t b;
#X obj 150 820 change;
#X obj 150 860 t b;
#X obj 100 900 b;
#X obj 100 940 random 12;
#X obj 100 980 + 88;
#X obj 100 1020 mtof;
#X obj 180 1020 osc~;
#X obj 180 1060 line~;
#X msg 130 1020 1.0 1.0;
#X msg 230 1020 0.0 50.0;
#X obj 230 980 del 2.0;
#X obj 260 1020 *~;
#X obj 260 1060 *~ 0.08;
#X obj 50 1120 *~ 0.50;
#X obj 130 1120 *~ 0.50;
#X text 430 100 --- Glassy Mallets (Composed Melody Line) ---;
#X obj 430 120 sel 2 4 6 10 12 14 18 20 22 26 28 30 34 36 38 42 44 46 50 52 54 58 60 62;
#X msg 430 160 76;
#X msg 480 160 77;
#X msg 530 160 79;
#X msg 580 160 81;
#X msg 630 160 83;
#X msg 680 160 84;
#X msg 730 160 86;
#X msg 780 160 88;
#X obj 430 200 + 0;
#X obj 510 200 mtof;
#X obj 590 180 osc~;
#X obj 590 240 osc~;
#X obj 510 240 * 4;
#X obj 660 240 *~ 0.22;
#X obj 720 200 +~;
#X obj 430 290 bang;
#X obj 510 300 line~;
#X msg 460 260 1.0 2.0;
#X msg 560 260 0.0 140.0;
#X obj 560 220 del 5.0;
#X obj 780 200 *~;
#X obj 430 360 delwrite~ mallet-del 600;
#X obj 430 400 delread~ mallet-del 333;
#X obj 430 440 *~;
#X obj 520 400 *~ 0.42;
#X obj 590 360 +~;
#X obj 670 360 *~ 0.16;
#X obj 430 500 f 0;
#X obj 430 530 == 0;
#X obj 430 560 sel 0 1;
#X msg 430 600 0.30 150;
#X msg 510 600 0.70 150;
#X obj 590 600 line;
#X obj 670 580 swap 1;
#X obj 740 580 -;
#X obj 750 360 *~;
#X obj 750 400 *~;
#X text 430 670 --- Soft Sine Pad (Sustained Chords) ---;
#X obj 430 690 sel 0 8 16 24 32 40 48 56;
#X msg 430 730 48;
#X msg 470 730 53;
#X msg 510 730 45;
#X msg 550 730 43;
#X obj 600 730 + 0;
#X obj 670 730 mtof;
#X obj 730 730 osc~;
#X msg 430 770 55;
#X msg 470 770 57;
#X msg 510 770 52;
#X msg 550 770 50;
#X obj 600 770 + 0;
#X obj 670 770 mtof;
#X obj 730 770 osc~;
#X msg 430 810 59;
#X msg 470 810 64;
#X msg 510 810 57;
#X msg 550 810 59;
#X obj 600 810 + 0;
#X obj 670 810 mtof;
#X obj 730 810 osc~;
#X obj 740 750 +~;
#X obj 740 790 +~;
#X obj 430 820 bang;
#X obj 530 860 line~;
#X msg 480 820 1.0 800.0;
#X obj 480 780 del 100.0;
#X msg 580 820 0.0 1500.0;
#X obj 580 780 del 7000.0;
#X obj 610 860 *~;
#X obj 680 860 lop~ 400;
#X obj 750 860 *~ 0.32;
#X obj 430 910 *~ 0.50;
#X obj 510 910 *~ 0.50;
#X text 430 1000 --- Warm Sub-Bass Line ---;
#X obj 430 1020 sel 0 6 8 14 16 22 24 30 32 38 40 46 48 54 56 62;
#X msg 430 1060 36;
#X msg 480 1060 33;
#X msg 530 1060 31;
#X obj 590 1060 + 0;
#X obj 670 1060 mtof;
#X obj 750 1060 osc~;
#X obj 750 1100 lop~ 180;
#X obj 430 1100 bang;
#X obj 510 1140 line~;
#X msg 460 1100 1.0 10.0;
#X msg 560 1100 0.0 160.0;
#X obj 560 1060 del 50.0;
#X obj 750 1140 *~;
#X obj 750 1180 *~ 0.35;
#X obj 430 1220 *~ 0.50;
#X obj 510 1220 *~ 0.50;
#X text 800 100 --- Nature Foley (Wind & Random Water Drops) ---;
#X obj 800 120 noise~;
#X obj 800 160 lop~;
#X obj 880 120 metro 6000;
#X obj 880 160 random 320;
#X obj 880 200 + 180;
#X msg 880 240 \$1 5500;
#X obj 880 280 line;
#X obj 800 240 *~;
#X obj 800 280 *~ 0.08;
#X obj 800 320 *~ 0.50;
#X obj 880 320 *~ 0.50;
#X obj 800 400 metro 300;
#X obj 800 440 random 15;
#X obj 800 480 sel 0;
#X obj 880 400 random 700;
#X obj 880 440 + 1100;
#X obj 960 440 t f f;
#X obj 1040 440 - 550;
#X obj 960 480 pack f f;
#X msg 960 520 \$1 \, \$2 30;
#X obj 960 560 line;
#X obj 960 600 osc~;
#X obj 880 560 line~;
#X msg 830 520 1.0 2.0;
#X msg 930 520 0.0 35.0;
#X obj 930 480 del 2.0;
#X obj 1040 600 *~;
#X obj 1040 640 *~;
#X obj 1040 680 *~ 0.20;
#X obj 800 540 random 100;
#X obj 800 580 / 100;
#X msg 800 620 \$1 150;
#X obj 800 660 line;
#X obj 800 700 swap 1;
#X obj 800 740 -;
#X obj 880 740 *~;
#X obj 960 740 *~;
#X obj 800 820 metro 100;
#X obj 800 860 random 3;
#X obj 800 900 sel 0;
#X obj 880 820 random 400;
#X obj 880 860 + 500;
#X obj 960 860 t f f;
#X obj 1040 860 + 400;
#X obj 960 900 pack f f;
#X msg 960 940 \$1 \, \$2 45;
#X obj 960 980 line;
#X obj 960 1020 osc~;
#X obj 880 980 line~;
#X msg 830 940 1.0 2.0;
#X msg 930 940 0.0 45.0;
#X obj 930 900 del 2.0;
#X obj 1040 1020 *~;
#X obj 1040 1060 *~;
#X obj 1040 1100 *~ 0.22;
#X obj 800 960 random 100;
#X obj 800 1000 / 100;
#X msg 800 1040 \$1 150;
#X obj 800 1080 line;
#X obj 800 1120 swap 1;
#X obj 800 1160 -;
#X obj 880 1160 *~;
#X obj 960 1160 *~;
#X obj 800 1240 mod 32;
#X obj 800 1280 sel 0;
#X obj 800 1320 f 0;
#X obj 800 1350 == 0;
#X obj 800 1380 sel 0 1;
#X obj 880 1240 delay 45;
#X obj 940 1240 delay 45;
#X obj 1000 1240 delay 45;
#X obj 1060 1240 delay 45;
#X obj 1120 1240 delay 45;
#X obj 880 1280 delay 45;
#X obj 940 1280 delay 45;
#X obj 1000 1280 delay 45;
#X obj 1060 1280 delay 45;
#X obj 1120 1280 delay 45;
#X msg 880 1320 91;
#X msg 940 1320 93;
#X msg 1000 1320 96;
#X msg 1060 1320 98;
#X msg 1120 1320 100;
#X msg 1180 1320 103;
#X obj 800 1400 + 0;
#X obj 800 1440 mtof;
#X obj 800 1480 osc~;
#X obj 880 1440 * 3;
#X obj 880 1480 osc~;
#X obj 880 1520 *~ 0.15;
#X obj 800 1520 +~;
#X obj 960 1360 bang;
#X obj 960 1440 line~;
#X msg 910 1400 1.0 2.0;
#X msg 1010 1400 0.0 80.0;
#X obj 1010 1360 del 5.0;
#X obj 1040 1480 *~;
#X obj 1040 1520 *~ 0.16;
#X msg 960 1480 0.1 0 \, 0.9 250;
#X msg 960 1520 0.9 0 \, 0.1 250;
#X obj 960 1560 line;
#X obj 960 1600 swap 1;
#X obj 1040 1600 -;
#X obj 1120 1480 *~;
#X obj 1120 1520 *~;
#X text 1200 100 --- Muted Chillout Drums ---;
#X obj 1200 120 sel 0 6 8 14 16 22 24 30 32 38 40 46 48 52 54 56 58 62;
#X obj 1280 80 bang;
#X obj 1360 120 line~;
#X msg 1310 80 1.0 6.0;
#X msg 1410 80 0.0 150.0;
#X obj 1410 40 del 15.0;
#X obj 1360 160 osc~ 48;
#X obj 1360 200 *~;
#X obj 1360 240 *~ 0.45;
#X obj 1200 300 sel 4 12 20 28 36 44 52 58 60 61 62 63;
#X obj 1280 260 bang;
#X obj 1360 300 line~;
#X msg 1310 260 1.0 2.0;
#X msg 1410 260 0.0 50.0;
#X obj 1410 220 del 2.0;
#X obj 1360 340 noise~;
#X obj 1360 380 bp~ 2500 12;
#X obj 1360 420 *~;
#X obj 1360 460 *~ 0.35;
#X obj 1200 520 sel 2 6 10 14 18 22 26 30 34 38 42 46 48 50 52 54 56 58 60 61 62 63;
#X obj 1280 480 bang;
#X obj 1360 520 line~;
#X msg 1310 480 1.0 1.0;
#X msg 1410 480 0.0 25.0;
#X obj 1410 440 del 1.0;
#X obj 1360 560 noise~;
#X obj 1360 600 hip~ 8000;
#X obj 1360 640 *~;
#X obj 1360 680 *~ 0.15;
#X text 50 1250 --- Audio Sampler (Cute Pitched-up Wave Files) ---;
#X obj 50 1280 array define sample_bloop 1000;
#X obj 50 1310 array define sample_water 1000;
#X obj 50 1340 array define sample_pop 1000;
#X obj 50 1370 array define sample_chirp 1000;
#X obj 200 1280 loadbang;
#X obj 200 1310 delay 100;
#X msg 200 1350 read -resize cute-bloop.wav sample_bloop;
#X msg 200 1390 read -resize cute-water.wav sample_water;
#X msg 200 1430 read -resize cute-pop.wav sample_pop;
#X msg 200 1470 read -resize cute-chirp.wav sample_chirp;
#X obj 200 1510 soundfiler;
#X obj 50 1420 sel 10 26 42 58;
#X obj 50 1450 sel 4 20 36 52;
#X obj 50 1480 sel 12 28 44 60;
#X obj 50 1510 sel 15 31 47 63;
#X obj 150 1420 bang;
#X obj 150 1450 bang;
#X obj 150 1480 bang;
#X obj 150 1510 bang;
#X obj 350 1280 tabplay~ sample_bloop;
#X obj 350 1320 tabplay~ sample_water;
#X obj 350 1360 tabplay~ sample_pop;
#X obj 350 1400 tabplay~ sample_chirp;
#X obj 500 1280 *~ 0.70;
#X obj 560 1280 *~ 0.30;
#X obj 500 1320 *~ 0.30;
#X obj 560 1320 *~ 0.70;
#X obj 500 1360 *~ 0.60;
#X obj 560 1360 *~ 0.40;
#X obj 500 1400 *~ 0.40;
#X obj 560 1400 *~ 0.60;
#X obj 660 1280 +~;
#X obj 660 1320 +~;
#X obj 660 1360 +~;
#X obj 720 1280 +~;
#X obj 720 1320 +~;
#X obj 720 1360 +~;
#X obj 800 1280 *~;
#X obj 800 1320 *~;
#X obj 800 1360 *~ 0.35;
#X obj 800 1400 *~ 0.35;
#X text 1200 740 --- Master Mixer ---;
#X obj 1200 760 +~;
#X obj 1200 800 +~;
#X obj 1200 840 +~;
#X obj 1200 880 +~;
#X obj 1200 920 +~;
#X obj 1200 960 +~;
#X obj 1200 1000 +~;
#X obj 1200 1040 +~;
#X obj 1200 1080 +~;
#X obj 1200 1120 +~;
#X obj 1200 1160 +~;
#X obj 1280 760 +~;
#X obj 1280 800 +~;
#X obj 1280 840 +~;
#X obj 1280 880 +~;
#X obj 1280 920 +~;
#X obj 1280 960 +~;
#X obj 1280 1000 +~;
#X obj 1280 1040 +~;
#X obj 1280 1080 +~;
#X obj 1280 1120 +~;
#X obj 1280 1160 +~;
#X obj 1200 1200 clip~ -0.9 0.9;
#X obj 1280 1200 clip~ -0.9 0.9;
#X obj 1200 1240 *~;
#X obj 1280 1240 *~;
#X obj 1240 1290 dac~;
#X connect 5 0 6 0;
#X connect 6 0 7 0;
#X connect 7 0 9 0;
#X connect 8 0 9 0;
#X connect 9 0 10 0;
#X connect 9 1 10 1;
#X connect 5 0 11 0;
#X connect 11 0 12 0;
#X connect 10 0 12 1;
#X connect 12 0 13 0;
#X connect 13 0 14 0;
#X connect 14 0 13 1;
#X connect 14 0 15 0;
#X connect 14 0 16 0;
#X connect 15 0 17 0;
#X connect 5 0 19 0;
#X connect 19 0 20 0;
#X connect 5 0 22 0;
#X connect 22 0 23 0;
#X connect 5 0 25 0;
#X connect 25 0 26 0;
#X connect 5 0 28 0;
#X connect 28 0 29 0;
#X connect 20 0 31 0;
#X connect 21 0 31 0;
#X connect 31 0 32 0;
#X connect 7 0 33 0;
#X connect 8 0 33 0;
#X connect 33 0 34 0;
#X connect 32 0 35 0;
#X connect 34 0 35 0;
#X connect 41 0 40 0;
#X connect 35 0 41 0;
#X connect 42 0 40 0;
#X connect 35 0 43 0;
#X connect 43 0 42 0;
#X connect 35 0 36 0;
#X connect 36 0 37 0;
#X connect 37 0 38 0;
#X connect 38 0 39 0;
#X connect 39 0 44 0;
#X connect 40 0 44 1;
#X connect 44 0 45 0;
#X connect 45 0 46 0;
#X connect 45 0 47 0;
#X connect 16 0 49 0;
#X connect 49 0 50 0;
#X connect 49 1 52 0;
#X connect 49 2 54 0;
#X connect 49 3 53 0;
#X connect 49 4 52 0;
#X connect 49 5 50 0;
#X connect 49 6 51 0;
#X connect 49 7 53 0;
#X connect 49 8 55 0;
#X connect 49 9 54 0;
#X connect 49 10 53 0;
#X connect 49 11 51 0;
#X connect 49 12 52 0;
#X connect 49 13 54 0;
#X connect 49 14 56 0;
#X connect 49 15 55 0;
#X connect 49 16 54 0;
#X connect 49 17 52 0;
#X connect 49 18 53 0;
#X connect 49 19 55 0;
#X connect 49 20 57 0;
#X connect 49 21 56 0;
#X connect 49 22 54 0;
#X connect 49 23 52 0;
#X connect 50 0 58 0;
#X connect 51 0 58 0;
#X connect 52 0 58 0;
#X connect 53 0 58 0;
#X connect 54 0 58 0;
#X connect 55 0 58 0;
#X connect 56 0 58 0;
#X connect 57 0 58 0;
#X connect 20 0 58 1;
#X connect 21 0 58 1;
#X connect 58 0 59 0;
#X connect 59 0 60 0;
#X connect 59 0 62 0;
#X connect 62 0 61 0;
#X connect 61 0 63 0;
#X connect 60 0 64 0;
#X connect 63 0 64 1;
#X connect 49 0 65 0;
#X connect 49 1 65 0;
#X connect 49 2 65 0;
#X connect 49 3 65 0;
#X connect 49 4 65 0;
#X connect 49 5 65 0;
#X connect 49 6 65 0;
#X connect 49 7 65 0;
#X connect 49 8 65 0;
#X connect 49 9 65 0;
#X connect 49 10 65 0;
#X connect 49 11 65 0;
#X connect 49 12 65 0;
#X connect 49 13 65 0;
#X connect 49 14 65 0;
#X connect 49 15 65 0;
#X connect 49 16 65 0;
#X connect 49 17 65 0;
#X connect 49 18 65 0;
#X connect 49 19 65 0;
#X connect 49 20 65 0;
#X connect 49 21 65 0;
#X connect 49 22 65 0;
#X connect 49 23 65 0;
#X connect 67 0 66 0;
#X connect 65 0 67 0;
#X connect 68 0 66 0;
#X connect 65 0 69 0;
#X connect 69 0 68 0;
#X connect 64 0 70 0;
#X connect 66 0 70 1;
#X connect 70 0 71 0;
#X connect 72 0 73 0;
#X connect 26 0 73 1;
#X connect 27 0 73 1;
#X connect 73 0 71 0;
#X connect 72 0 74 0;
#X connect 70 0 75 0;
#X connect 74 0 75 1;
#X connect 75 0 76 0;
#X connect 77 0 78 0;
#X connect 78 0 77 1;
#X connect 49 0 77 0;
#X connect 49 1 77 0;
#X connect 49 2 77 0;
#X connect 49 3 77 0;
#X connect 49 4 77 0;
#X connect 49 5 77 0;
#X connect 49 6 77 0;
#X connect 49 7 77 0;
#X connect 49 8 77 0;
#X connect 49 9 77 0;
#X connect 49 10 77 0;
#X connect 49 11 77 0;
#X connect 49 12 77 0;
#X connect 49 13 77 0;
#X connect 49 14 77 0;
#X connect 49 15 77 0;
#X connect 49 16 77 0;
#X connect 49 17 77 0;
#X connect 49 18 77 0;
#X connect 49 19 77 0;
#X connect 49 20 77 0;
#X connect 49 21 77 0;
#X connect 49 22 77 0;
#X connect 49 23 77 0;
#X connect 77 0 79 0;
#X connect 79 0 80 0;
#X connect 79 1 81 0;
#X connect 80 0 82 0;
#X connect 81 0 82 0;
#X connect 82 0 83 0;
#X connect 83 0 84 0;
#X connect 83 1 84 1;
#X connect 76 0 85 0;
#X connect 76 0 86 0;
#X connect 82 0 85 1;
#X connect 84 0 86 1;
#X connect 16 0 88 0;
#X connect 88 0 89 0;
#X connect 88 2 89 0;
#X connect 88 4 89 0;
#X connect 88 1 90 0;
#X connect 88 3 90 0;
#X connect 88 5 90 0;
#X connect 88 6 91 0;
#X connect 88 7 92 0;
#X connect 89 0 93 0;
#X connect 90 0 93 0;
#X connect 91 0 93 0;
#X connect 92 0 93 0;
#X connect 20 0 93 1;
#X connect 21 0 93 1;
#X connect 93 0 94 0;
#X connect 94 0 95 0;
#X connect 88 0 96 0;
#X connect 88 2 96 0;
#X connect 88 4 96 0;
#X connect 88 1 97 0;
#X connect 88 3 97 0;
#X connect 88 5 97 0;
#X connect 88 6 98 0;
#X connect 88 7 99 0;
#X connect 96 0 100 0;
#X connect 97 0 100 0;
#X connect 98 0 100 0;
#X connect 99 0 100 0;
#X connect 20 0 100 1;
#X connect 21 0 100 1;
#X connect 100 0 101 0;
#X connect 101 0 102 0;
#X connect 88 0 103 0;
#X connect 88 2 103 0;
#X connect 88 4 103 0;
#X connect 88 1 104 0;
#X connect 88 3 104 0;
#X connect 88 5 104 0;
#X connect 88 6 105 0;
#X connect 88 7 106 0;
#X connect 103 0 107 0;
#X connect 104 0 107 0;
#X connect 105 0 107 0;
#X connect 106 0 107 0;
#X connect 20 0 107 1;
#X connect 21 0 107 1;
#X connect 107 0 108 0;
#X connect 108 0 109 0;
#X connect 95 0 110 0;
#X connect 102 0 110 1;
#X connect 110 0 111 0;
#X connect 109 0 111 1;
#X connect 88 0 112 0;
#X connect 88 1 112 0;
#X connect 88 2 112 0;
#X connect 88 3 112 0;
#X connect 88 4 112 0;
#X connect 88 5 112 0;
#X connect 88 6 112 0;
#X connect 88 7 112 0;
#X connect 114 0 113 0;
#X connect 112 0 115 0;
#X connect 115 0 114 0;
#X connect 116 0 113 0;
#X connect 112 0 117 0;
#X connect 117 0 116 0;
#X connect 111 0 118 0;
#X connect 113 0 118 1;
#X connect 118 0 119 0;
#X connect 119 0 120 0;
#X connect 120 0 121 0;
#X connect 120 0 122 0;
#X connect 16 0 124 0;
#X connect 124 0 125 0;
#X connect 124 1 125 0;
#X connect 124 2 125 0;
#X connect 124 3 125 0;
#X connect 124 4 125 0;
#X connect 124 5 125 0;
#X connect 124 6 125 0;
#X connect 124 7 125 0;
#X connect 124 8 125 0;
#X connect 124 9 125 0;
#X connect 124 10 125 0;
#X connect 124 11 125 0;
#X connect 124 12 126 0;
#X connect 124 13 126 0;
#X connect 124 14 127 0;
#X connect 124 15 127 0;
#X connect 125 0 128 0;
#X connect 126 0 128 0;
#X connect 127 0 128 0;
#X connect 20 0 128 1;
#X connect 21 0 128 1;
#X connect 128 0 129 0;
#X connect 129 0 130 0;
#X connect 130 0 131 0;
#X connect 124 0 132 0;
#X connect 124 1 132 0;
#X connect 124 2 132 0;
#X connect 124 3 132 0;
#X connect 124 4 132 0;
#X connect 124 5 132 0;
#X connect 124 6 132 0;
#X connect 124 7 132 0;
#X connect 124 8 132 0;
#X connect 124 9 132 0;
#X connect 124 10 132 0;
#X connect 124 11 132 0;
#X connect 124 12 132 0;
#X connect 124 13 132 0;
#X connect 124 14 132 0;
#X connect 124 15 132 0;
#X connect 134 0 133 0;
#X connect 132 0 134 0;
#X connect 135 0 133 0;
#X connect 132 0 136 0;
#X connect 136 0 135 0;
#X connect 131 0 137 0;
#X connect 133 0 137 1;
#X connect 137 0 138 0;
#X connect 138 0 139 0;
#X connect 138 0 140 0;
#X connect 142 0 143 0;
#X connect 11 0 144 0;
#X connect 144 0 145 0;
#X connect 145 0 146 0;
#X connect 146 0 147 0;
#X connect 147 0 148 0;
#X connect 148 0 143 1;
#X connect 143 0 149 0;
#X connect 23 0 149 1;
#X connect 24 0 149 1;
#X connect 149 0 150 0;
#X connect 150 0 151 0;
#X connect 150 0 152 0;
#X connect 11 0 153 0;
#X connect 153 0 154 0;
#X connect 154 0 155 0;
#X connect 155 0 156 0;
#X connect 156 0 157 0;
#X connect 157 0 158 0;
#X connect 158 0 160 0;
#X connect 158 1 159 0;
#X connect 159 0 160 1;
#X connect 160 0 161 0;
#X connect 161 0 162 0;
#X connect 162 0 163 0;
#X connect 165 0 164 0;
#X connect 155 0 165 0;
#X connect 166 0 164 0;
#X connect 155 0 167 0;
#X connect 167 0 166 0;
#X connect 163 0 168 0;
#X connect 164 0 168 1;
#X connect 168 0 169 0;
#X connect 23 0 169 1;
#X connect 24 0 169 1;
#X connect 169 0 170 0;
#X connect 155 0 171 0;
#X connect 171 0 172 0;
#X connect 172 0 173 0;
#X connect 173 0 174 0;
#X connect 174 0 175 0;
#X connect 175 0 176 0;
#X connect 175 1 176 1;
#X connect 170 0 177 0;
#X connect 170 0 178 0;
#X connect 174 0 177 1;
#X connect 176 0 178 1;
#X connect 11 0 179 0;
#X connect 179 0 180 0;
#X connect 180 0 181 0;
#X connect 181 0 182 0;
#X connect 182 0 183 0;
#X connect 183 0 184 0;
#X connect 184 0 186 0;
#X connect 184 1 185 0;
#X connect 185 0 186 1;
#X connect 186 0 187 0;
#X connect 187 0 188 0;
#X connect 188 0 189 0;
#X connect 191 0 190 0;
#X connect 181 0 191 0;
#X connect 192 0 190 0;
#X connect 181 0 193 0;
#X connect 193 0 192 0;
#X connect 189 0 194 0;
#X connect 190 0 194 1;
#X connect 194 0 195 0;
#X connect 23 0 195 1;
#X connect 24 0 195 1;
#X connect 195 0 196 0;
#X connect 181 0 197 0;
#X connect 197 0 198 0;
#X connect 198 0 199 0;
#X connect 199 0 200 0;
#X connect 200 0 201 0;
#X connect 201 0 202 0;
#X connect 201 1 202 1;
#X connect 196 0 203 0;
#X connect 196 0 204 0;
#X connect 200 0 203 1;
#X connect 202 0 204 1;
#X connect 14 0 205 0;
#X connect 205 0 206 0;
#X connect 207 0 208 0;
#X connect 208 0 207 1;
#X connect 206 0 207 0;
#X connect 207 0 209 0;
#X connect 209 0 220 0;
#X connect 209 0 210 0;
#X connect 210 0 221 0;
#X connect 210 0 211 0;
#X connect 211 0 222 0;
#X connect 211 0 212 0;
#X connect 212 0 223 0;
#X connect 212 0 213 0;
#X connect 213 0 224 0;
#X connect 213 0 214 0;
#X connect 214 0 225 0;
#X connect 209 1 225 0;
#X connect 209 1 215 0;
#X connect 215 0 224 0;
#X connect 215 0 216 0;
#X connect 216 0 223 0;
#X connect 216 0 217 0;
#X connect 217 0 222 0;
#X connect 217 0 218 0;
#X connect 218 0 221 0;
#X connect 218 0 219 0;
#X connect 219 0 220 0;
#X connect 20 0 226 1;
#X connect 21 0 226 1;
#X connect 220 0 226 0;
#X connect 221 0 226 0;
#X connect 222 0 226 0;
#X connect 223 0 226 0;
#X connect 224 0 226 0;
#X connect 225 0 226 0;
#X connect 226 0 227 0;
#X connect 227 0 228 0;
#X connect 227 0 229 0;
#X connect 229 0 230 0;
#X connect 230 0 231 0;
#X connect 228 0 232 0;
#X connect 231 0 232 1;
#X connect 209 0 233 0;
#X connect 209 1 233 0;
#X connect 210 0 233 0;
#X connect 211 0 233 0;
#X connect 212 0 233 0;
#X connect 213 0 233 0;
#X connect 214 0 233 0;
#X connect 215 0 233 0;
#X connect 216 0 233 0;
#X connect 217 0 233 0;
#X connect 218 0 233 0;
#X connect 219 0 233 0;
#X connect 235 0 234 0;
#X connect 233 0 235 0;
#X connect 236 0 234 0;
#X connect 233 0 237 0;
#X connect 237 0 236 0;
#X connect 232 0 238 0;
#X connect 234 0 238 1;
#X connect 238 0 239 0;
#X connect 239 0 71 0;
#X connect 209 0 240 0;
#X connect 209 1 241 0;
#X connect 240 0 242 0;
#X connect 241 0 242 0;
#X connect 242 0 243 0;
#X connect 243 0 244 0;
#X connect 243 1 244 1;
#X connect 239 0 245 0;
#X connect 239 0 246 0;
#X connect 242 0 245 1;
#X connect 244 0 246 1;
#X connect 16 0 248 0;
#X connect 248 0 249 0;
#X connect 248 1 249 0;
#X connect 248 2 249 0;
#X connect 248 3 249 0;
#X connect 248 4 249 0;
#X connect 248 5 249 0;
#X connect 248 6 249 0;
#X connect 248 7 249 0;
#X connect 248 8 249 0;
#X connect 248 9 249 0;
#X connect 248 10 249 0;
#X connect 248 11 249 0;
#X connect 248 12 249 0;
#X connect 248 13 249 0;
#X connect 248 14 249 0;
#X connect 248 15 249 0;
#X connect 248 16 249 0;
#X connect 248 17 249 0;
#X connect 251 0 250 0;
#X connect 249 0 251 0;
#X connect 252 0 250 0;
#X connect 249 0 253 0;
#X connect 253 0 252 0;
#X connect 254 0 255 0;
#X connect 250 0 255 1;
#X connect 255 0 256 0;
#X connect 16 0 257 0;
#X connect 257 0 258 0;
#X connect 257 1 258 0;
#X connect 257 2 258 0;
#X connect 257 3 258 0;
#X connect 257 4 258 0;
#X connect 257 5 258 0;
#X connect 257 6 258 0;
#X connect 257 7 258 0;
#X connect 257 8 258 0;
#X connect 257 9 258 0;
#X connect 257 10 258 0;
#X connect 257 11 258 0;
#X connect 260 0 259 0;
#X connect 258 0 260 0;
#X connect 261 0 259 0;
#X connect 258 0 262 0;
#X connect 262 0 261 0;
#X connect 263 0 264 0;
#X connect 264 0 265 0;
#X connect 259 0 265 1;
#X connect 265 0 266 0;
#X connect 16 0 267 0;
#X connect 267 0 268 0;
#X connect 267 1 268 0;
#X connect 267 2 268 0;
#X connect 267 3 268 0;
#X connect 267 4 268 0;
#X connect 267 5 268 0;
#X connect 267 6 268 0;
#X connect 267 7 268 0;
#X connect 267 8 268 0;
#X connect 267 9 268 0;
#X connect 267 10 268 0;
#X connect 267 11 268 0;
#X connect 267 12 268 0;
#X connect 267 13 268 0;
#X connect 267 14 268 0;
#X connect 267 15 268 0;
#X connect 267 16 268 0;
#X connect 267 17 268 0;
#X connect 267 18 268 0;
#X connect 267 19 268 0;
#X connect 267 20 268 0;
#X connect 267 21 268 0;
#X connect 270 0 269 0;
#X connect 268 0 270 0;
#X connect 271 0 269 0;
#X connect 268 0 272 0;
#X connect 272 0 271 0;
#X connect 273 0 274 0;
#X connect 274 0 275 0;
#X connect 269 0 275 1;
#X connect 275 0 276 0;
#X connect 282 0 283 0;
#X connect 283 0 284 0;
#X connect 283 0 285 0;
#X connect 283 0 286 0;
#X connect 283 0 287 0;
#X connect 284 0 288 0;
#X connect 285 0 288 0;
#X connect 286 0 288 0;
#X connect 287 0 288 0;
#X connect 16 0 289 0;
#X connect 16 0 290 0;
#X connect 16 0 291 0;
#X connect 16 0 292 0;
#X connect 289 0 293 0;
#X connect 290 0 294 0;
#X connect 291 0 295 0;
#X connect 292 0 296 0;
#X connect 289 1 293 0;
#X connect 290 1 294 0;
#X connect 291 1 295 0;
#X connect 292 1 296 0;
#X connect 289 2 293 0;
#X connect 290 2 294 0;
#X connect 291 2 295 0;
#X connect 292 2 296 0;
#X connect 289 3 293 0;
#X connect 290 3 294 0;
#X connect 291 3 295 0;
#X connect 292 3 296 0;
#X connect 293 0 297 0;
#X connect 294 0 298 0;
#X connect 295 0 299 0;
#X connect 296 0 300 0;
#X connect 297 0 301 0;
#X connect 297 0 302 0;
#X connect 298 0 303 0;
#X connect 298 0 304 0;
#X connect 299 0 305 0;
#X connect 299 0 306 0;
#X connect 300 0 307 0;
#X connect 300 0 308 0;
#X connect 301 0 309 0;
#X connect 303 0 309 1;
#X connect 309 0 310 0;
#X connect 305 0 310 1;
#X connect 310 0 311 0;
#X connect 307 0 311 1;
#X connect 302 0 312 0;
#X connect 304 0 312 1;
#X connect 312 0 313 0;
#X connect 306 0 313 1;
#X connect 313 0 314 0;
#X connect 308 0 314 1;
#X connect 311 0 315 0;
#X connect 314 0 316 0;
#X connect 23 0 315 1;
#X connect 23 0 316 1;
#X connect 24 0 315 1;
#X connect 24 0 316 1;
#X connect 315 0 317 0;
#X connect 316 0 318 0;
#X connect 85 0 320 0;
#X connect 121 0 320 1;
#X connect 320 0 321 0;
#X connect 151 0 321 1;
#X connect 321 0 322 0;
#X connect 177 0 322 1;
#X connect 322 0 323 0;
#X connect 256 0 323 1;
#X connect 323 0 324 0;
#X connect 266 0 324 1;
#X connect 324 0 325 0;
#X connect 276 0 325 1;
#X connect 325 0 326 0;
#X connect 203 0 326 1;
#X connect 326 0 327 0;
#X connect 245 0 327 1;
#X connect 327 0 328 0;
#X connect 139 0 328 1;
#X connect 328 0 329 0;
#X connect 46 0 329 1;
#X connect 329 0 330 0;
#X connect 317 0 330 1;
#X connect 86 0 331 0;
#X connect 122 0 331 1;
#X connect 331 0 332 0;
#X connect 152 0 332 1;
#X connect 332 0 333 0;
#X connect 178 0 333 1;
#X connect 333 0 334 0;
#X connect 256 0 334 1;
#X connect 334 0 335 0;
#X connect 266 0 335 1;
#X connect 335 0 336 0;
#X connect 276 0 336 1;
#X connect 336 0 337 0;
#X connect 204 0 337 1;
#X connect 337 0 338 0;
#X connect 246 0 338 1;
#X connect 338 0 339 0;
#X connect 140 0 339 1;
#X connect 339 0 340 0;
#X connect 47 0 340 1;
#X connect 340 0 341 0;
#X connect 318 0 341 1;
#X connect 330 0 342 0;
#X connect 341 0 343 0;
#X connect 342 0 344 0;
#X connect 343 0 345 0;
#X connect 29 0 344 1;
#X connect 29 0 345 1;
#X connect 30 0 344 1;
#X connect 30 0 345 1;
#X connect 344 0 346 0;
#X connect 345 0 346 1;
