#N canvas 40 40 1120 760 12;
#X text 30 20 LOW CLASSICAL STRING DRONE AMBIENT - Pd Vanilla only;
#X text 30 42 Open this .pd file only. DSP turns on automatically. Sound starts within 1 second.;
#X text 30 64 Audible cello/viola-range drone: C2-G2-Eb3-Bb3-D4 layers stacked slowly.;
#X text 30 86 Master path: mixer -> clip~ -> *~ master gain -> dac~.;
#X obj 30 120 loadbang;
#X msg 30 150 \; pd dsp 1;
#X text 160 120 layer 1 C2: immediate low cello root;
#X obj 160 150 loadbang;
#X obj 160 180 delay 700;
#X msg 160 210 0 \, 0.85 4500;
#X obj 160 240 vline~;
#X obj 300 160 osc~ 65.406;
#X obj 300 190 osc~ 65.92;
#X obj 300 220 phasor~ 65.12;
#X obj 430 160 *~ 0.55;
#X obj 430 190 *~ 0.45;
#X obj 430 220 *~ 0.16;
#X obj 535 174 +~;
#X obj 535 210 +~;
#X obj 635 210 lop~ 1400;
#X obj 735 210 *~;
#X obj 820 210 *~ 0.34;
#X text 160 285 layer 2 G2: fifth fades in after 5 seconds;
#X obj 160 315 loadbang;
#X obj 160 345 delay 5000;
#X msg 160 375 0 \, 0.62 6500;
#X obj 160 405 vline~;
#X obj 300 325 osc~ 97.999;
#X obj 300 355 osc~ 98.46;
#X obj 300 385 phasor~ 97.54;
#X obj 430 325 *~ 0.52;
#X obj 430 355 *~ 0.42;
#X obj 430 385 *~ 0.14;
#X obj 535 339 +~;
#X obj 535 375 +~;
#X obj 635 375 lop~ 1550;
#X obj 735 375 *~;
#X obj 820 375 *~ 0.28;
#X text 160 450 layer 3 Eb3: minor third with classical dark color;
#X obj 160 480 loadbang;
#X obj 160 510 delay 10000;
#X msg 160 540 0 \, 0.48 8000;
#X obj 160 570 vline~;
#X obj 300 490 osc~ 155.563;
#X obj 300 520 osc~ 156.18;
#X obj 300 550 phasor~ 154.98;
#X obj 430 490 *~ 0.48;
#X obj 430 520 *~ 0.38;
#X obj 430 550 *~ 0.12;
#X obj 535 504 +~;
#X obj 535 540 +~;
#X obj 635 540 lop~ 1700;
#X obj 735 540 *~;
#X obj 820 540 *~ 0.22;
#X text 30 610 bow air: quiet filtered noise so it feels bowed rather than plain organ;
#X obj 30 640 loadbang;
#X obj 30 670 delay 1500;
#X msg 30 700 0 \, 0.28 7000;
#X obj 160 700 vline~;
#X obj 300 640 noise~;
#X obj 390 640 lop~ 1100;
#X obj 490 640 hip~ 180;
#X obj 590 640 *~;
#X obj 675 640 *~;
#X text 900 285 layer 4 Bb3: seventh pad after 16 seconds;
#X obj 900 315 loadbang;
#X obj 900 345 delay 16000;
#X msg 900 375 0 \, 0.34 9000;
#X obj 900 405 vline~;
#X obj 900 435 osc~ 233.082;
#X obj 900 465 osc~ 234.02;
#X obj 900 495 +~;
#X obj 1000 495 lop~ 1900;
#X obj 1000 525 *~;
#X obj 1000 555 *~ 0.16;
#X text 900 595 layer 5 D4: soft suspension after 23 seconds;
#X obj 900 625 loadbang;
#X obj 900 655 delay 23000;
#X msg 900 685 0 \, 0.25 10000;
#X obj 900 715 vline~;
#X obj 1040 625 osc~ 293.665;
#X obj 1040 655 osc~ 294.41;
#X obj 1040 685 +~;
#X obj 1140 685 lop~ 2100;
#X obj 1140 715 *~;
#X obj 1140 745 *~ 0.10;
#X text 30 250 mixer / space / master output;
#X obj 30 285 +~;
#X obj 30 320 +~;
#X obj 30 355 +~;
#X obj 30 390 +~;
#X obj 30 425 +~;
#X obj 30 460 +~;
#X obj 30 495 delwrite~ classical-string-space 2600;
#X obj 260 495 delread~ classical-string-space 1180;
#X obj 260 525 *~ 0.22;
#X obj 30 535 +~;
#X obj 30 570 clip~ -0.9 0.9;
#X obj 30 600 *~;
#X obj 30 630 dac~;
#X text 700 20 controls: Start Stop master drone noise LPF HPF;
#X obj 700 50 bng 22 250 50 0 empty empty Start 0 -10 0 12 -4034 -1 -1;
#X obj 780 50 bng 22 250 50 0 empty empty Stop 0 -10 0 12 -258113 -1 -1;
#X msg 700 82 \; pd dsp 1;
#X msg 780 82 \; pd dsp 0;
#X obj 700 125 hsl 260 18 0 1 0 0 empty empty master_gain 0 -8 0 10 -262144 -1 -1 0 1;
#X obj 700 165 hsl 260 18 0 1.3 0 0 empty empty drone_gain 0 -8 0 10 -262144 -1 -1 0 1;
#X obj 700 205 hsl 260 18 0 0.25 0 0 empty empty noise_gain 0 -8 0 10 -262144 -1 -1 0 1;
#X obj 700 245 hsl 260 18 400 5000 0 0 empty empty LPF_cutoff 0 -8 0 10 -262144 -1 -1 0 1;
#X obj 700 285 hsl 260 18 20 600 0 0 empty empty HPF_cutoff 0 -8 0 10 -262144 -1 -1 0 1;
#X obj 985 125 loadbang;
#X msg 985 155 0.62;
#X msg 985 185 1.05;
#X msg 985 215 0.025;
#X msg 985 245 2600;
#X msg 985 275 45;
#X obj 30 482 *~;
#X obj 30 548 hip~ 45;
#X obj 30 570 lop~ 2600;
#X text 700 330 fixed sample drone layers. Turn this down if one cello note feels stuck;
#X obj 700 360 loadbang;
#X obj 700 390 delay 1600;
#X msg 700 420 1;
#X obj 700 450 metro 3000;
#X obj 700 490 hsl 260 18 0 1 0 0 empty empty fixed_sample_drone_gain 0 -8 0 10 -262144 -1 -1 0 1;
#X obj 985 490 loadbang;
#X msg 985 520 0.08;
#X text 700 545 L1_root_C: instrument select 0=contrabass 1=cello 2=violin;
#X obj 700 569 hradio 18 1 0 3 empty empty L1_root_C_inst 0 -8 0 10 -262144 -1 -1 0;
#X obj 780 569 sel 0 1 2;
#X obj 920 569 loadbang;
#X msg 1010 569 1;
#X text 700 603 CB contrabass_C2.wav;
#X msg 700 627 open samples/string-drone/contrabass_C2.wav;
#X obj 700 657 delay 180;
#X msg 770 657 1;
#X obj 700 687 readsf~ 1;
#X obj 700 717 *~ 0.70;
#X obj 700 747 *~;
#X text 890 603 CELLO cello_C2.wav;
#X msg 890 627 open samples/string-drone/cello_C2.wav;
#X obj 890 657 delay 180;
#X msg 960 657 1;
#X obj 890 687 readsf~ 1;
#X obj 890 717 *~ 0.78;
#X obj 890 747 *~;
#X text 1080 603 VLN violin_C4.wav;
#X msg 1080 627 open samples/string-drone/violin_C4.wav;
#X obj 1080 657 delay 180;
#X msg 1150 657 1;
#X obj 1080 687 readsf~ 1;
#X obj 1080 717 *~ 0.32;
#X obj 1080 747 *~;
#X msg 780 629 0.9;
#X msg 825 629 0;
#X msg 870 629 0;
#X msg 780 653 0;
#X msg 825 653 0.9;
#X msg 870 653 0;
#X msg 780 677 0;
#X msg 825 677 0;
#X msg 870 677 0.75;
#X obj 1310 665 +~;
#X obj 1400 665 +~;
#X text 700 665 L2_fifth_G: instrument select 0=contrabass 1=cello 2=violin;
#X obj 700 689 hradio 18 1 0 3 empty empty L2_fifth_G_inst 0 -8 0 10 -262144 -1 -1 0;
#X obj 780 689 sel 0 1 2;
#X obj 920 689 loadbang;
#X msg 1010 689 1;
#X text 700 723 CB contrabass_G1.wav;
#X msg 700 747 open samples/string-drone/contrabass_G1.wav;
#X obj 700 777 delay 180;
#X msg 770 777 1;
#X obj 700 807 readsf~ 1;
#X obj 700 837 *~ 0.56;
#X obj 700 867 *~;
#X text 890 723 CELLO cello_G2.wav;
#X msg 890 747 open samples/string-drone/cello_G2.wav;
#X obj 890 777 delay 180;
#X msg 960 777 1;
#X obj 890 807 readsf~ 1;
#X obj 890 837 *~ 0.68;
#X obj 890 867 *~;
#X text 1080 723 VLN violin_G3.wav;
#X msg 1080 747 open samples/string-drone/violin_G3.wav;
#X obj 1080 777 delay 180;
#X msg 1150 777 1;
#X obj 1080 807 readsf~ 1;
#X obj 1080 837 *~ 0.30;
#X obj 1080 867 *~;
#X msg 780 749 0.9;
#X msg 825 749 0;
#X msg 870 749 0;
#X msg 780 773 0;
#X msg 825 773 0.9;
#X msg 870 773 0;
#X msg 780 797 0;
#X msg 825 797 0;
#X msg 870 797 0.75;
#X obj 1310 785 +~;
#X obj 1400 785 +~;
#X text 700 785 L3_minor_Eb: instrument select 0=contrabass 1=cello 2=violin;
#X obj 700 809 hradio 18 1 0 3 empty empty L3_minor_Eb_inst 0 -8 0 10 -262144 -1 -1 0;
#X obj 780 809 sel 0 1 2;
#X obj 920 809 loadbang;
#X msg 1010 809 1;
#X text 700 843 CB contrabass_E2.wav;
#X msg 700 867 open samples/string-drone/contrabass_E2.wav;
#X obj 700 897 delay 180;
#X msg 770 897 1;
#X obj 700 927 readsf~ 1;
#X obj 700 957 *~ 0.42;
#X obj 700 987 *~;
#X text 890 843 CELLO cello_Ds3.wav;
#X msg 890 867 open samples/string-drone/cello_Ds3.wav;
#X obj 890 897 delay 180;
#X msg 960 897 1;
#X obj 890 927 readsf~ 1;
#X obj 890 957 *~ 0.56;
#X obj 890 987 *~;
#X text 1080 843 VLN violin_E4.wav;
#X msg 1080 867 open samples/string-drone/violin_E4.wav;
#X obj 1080 897 delay 180;
#X msg 1150 897 1;
#X obj 1080 927 readsf~ 1;
#X obj 1080 957 *~ 0.26;
#X obj 1080 987 *~;
#X msg 780 869 0.9;
#X msg 825 869 0;
#X msg 870 869 0;
#X msg 780 893 0;
#X msg 825 893 0.9;
#X msg 870 893 0;
#X msg 780 917 0;
#X msg 825 917 0;
#X msg 870 917 0.75;
#X obj 1310 905 +~;
#X obj 1400 905 +~;
#X text 700 905 L4_seventh_Bb: instrument select 0=contrabass 1=cello 2=violin;
#X obj 700 929 hradio 18 1 0 3 empty empty L4_seventh_Bb_inst 0 -8 0 10 -262144 -1 -1 0;
#X obj 780 929 sel 0 1 2;
#X obj 920 929 loadbang;
#X msg 1010 929 1;
#X text 700 963 CB contrabass_As1.wav;
#X msg 700 987 open samples/string-drone/contrabass_As1.wav;
#X obj 700 1017 delay 180;
#X msg 770 1017 1;
#X obj 700 1047 readsf~ 1;
#X obj 700 1077 *~ 0.34;
#X obj 700 1107 *~;
#X text 890 963 CELLO cello_As3.wav;
#X msg 890 987 open samples/string-drone/cello_As3.wav;
#X obj 890 1017 delay 180;
#X msg 960 1017 1;
#X obj 890 1047 readsf~ 1;
#X obj 890 1077 *~ 0.44;
#X obj 890 1107 *~;
#X text 1080 963 VLN violin_A3.wav;
#X msg 1080 987 open samples/string-drone/violin_A3.wav;
#X obj 1080 1017 delay 180;
#X msg 1150 1017 1;
#X obj 1080 1047 readsf~ 1;
#X obj 1080 1077 *~ 0.24;
#X obj 1080 1107 *~;
#X msg 780 989 0.9;
#X msg 825 989 0;
#X msg 870 989 0;
#X msg 780 1013 0;
#X msg 825 1013 0.9;
#X msg 870 1013 0;
#X msg 780 1037 0;
#X msg 825 1037 0;
#X msg 870 1037 0.75;
#X obj 1310 1025 +~;
#X obj 1400 1025 +~;
#X text 700 1025 L5_susp_D: instrument select 0=contrabass 1=cello 2=violin;
#X obj 700 1049 hradio 18 1 0 3 empty empty L5_susp_D_inst 0 -8 0 10 -262144 -1 -1 0;
#X obj 780 1049 sel 0 1 2;
#X obj 920 1049 loadbang;
#X msg 1010 1049 1;
#X text 700 1083 CB contrabass_D2.wav;
#X msg 700 1107 open samples/string-drone/contrabass_D2.wav;
#X obj 700 1137 delay 180;
#X msg 770 1137 1;
#X obj 700 1167 readsf~ 1;
#X obj 700 1197 *~ 0.28;
#X obj 700 1227 *~;
#X text 890 1083 CELLO cello_D4.wav;
#X msg 890 1107 open samples/string-drone/cello_D4.wav;
#X obj 890 1137 delay 180;
#X msg 960 1137 1;
#X obj 890 1167 readsf~ 1;
#X obj 890 1197 *~ 0.34;
#X obj 890 1227 *~;
#X text 1080 1083 VLN violin_C5.wav;
#X msg 1080 1107 open samples/string-drone/violin_C5.wav;
#X obj 1080 1137 delay 180;
#X msg 1150 1137 1;
#X obj 1080 1167 readsf~ 1;
#X obj 1080 1197 *~ 0.20;
#X obj 1080 1227 *~;
#X msg 780 1109 0.9;
#X msg 825 1109 0;
#X msg 870 1109 0;
#X msg 780 1133 0;
#X msg 825 1133 0.9;
#X msg 870 1133 0;
#X msg 780 1157 0;
#X msg 825 1157 0;
#X msg 870 1157 0.75;
#X obj 1310 1145 +~;
#X obj 1400 1145 +~;
#X obj 1320 554 +~;
#X obj 1320 588 +~;
#X obj 1320 622 +~;
#X obj 1320 656 +~;
#X obj 1320 720 *~;
#X obj 1320 760 +~;
#X text 700 1220 slow melody layer: warmer C major pentatonic inner line over the drone;
#X obj 700 1250 hsl 260 18 0 1 0 0 empty empty melody_gain 0 -8 0 10 -262144 -1 -1 0 1;
#X obj 985 1250 loadbang;
#X msg 985 1280 0.24;
#X obj 700 1315 loadbang;
#X obj 700 1345 delay 1800;
#X obj 700 1375 t b b;
#X msg 780 1375 1;
#X obj 780 1405 metro 12000;
#X obj 700 1405 f 0;
#X obj 760 1435 + 1;
#X obj 820 1435 mod 8;
#X obj 700 1470 sel 0 1 2 3 4 5 6 7;
#X msg 700 1510 48 9500;
#X msg 778 1510 50 9500;
#X msg 856 1510 52 9500;
#X msg 934 1510 55 9500;
#X msg 700 1542 57 9500;
#X msg 778 1542 55 9500;
#X msg 856 1542 52 9500;
#X msg 934 1542 50 9500;
#X obj 700 1595 line;
#X obj 700 1630 mtof;
#X obj 790 1630 + 0.04;
#X obj 790 1660 mtof;
#X obj 700 1670 osc~;
#X obj 790 1700 osc~;
#X obj 700 1710 *~ 0.46;
#X obj 790 1740 *~ 0.20;
#X obj 700 1775 +~;
#X obj 700 1810 lop~ 2400;
#X msg 880 1510 0.08 2000 \, 0.42 6500 2000 \, 0.26 3000 8500;
#X obj 880 1545 vline~;
#X obj 700 1845 *~;
#X obj 700 1880 *~;
#X obj 1320 810 +~;
#X text 700 1930 sampled cello melody layer: vocalise-like cello line changing every 2 to 3 seconds;
#X obj 700 1960 hsl 260 18 0 1 0 0 empty empty sampled_melody_gain 0 -8 0 10 -262144 -1 -1 0 1;
#X obj 985 1960 loadbang;
#X msg 985 1990 0.62;
#X obj 700 2025 loadbang;
#X obj 700 2055 delay 2500;
#X obj 700 2085 t b b;
#X msg 785 2085 1;
#X obj 785 2115 metro 3000;
#X obj 700 2115 f 0;
#X obj 760 2145 + 1;
#X obj 820 2145 mod 16;
#X obj 700 2180 sel 0 1 2 3 4 5 6 7 8 9 10 11 12 13 14 15;
#X obj 1120 2180 delay 180;
#X msg 1200 2180 1;
#X obj 1120 2220 readsf~ 1;
#X obj 1120 2260 *~ 0.85;
#X obj 1120 2300 lop~ 2400;
#X obj 1120 2340 *~;
#X msg 700 2225 open samples/string-drone/cello_C3.wav;
#X msg 795 2225 open samples/string-drone/cello_D3.wav;
#X msg 890 2225 open samples/string-drone/cello_E3.wav;
#X msg 985 2225 open samples/string-drone/cello_F3.wav;
#X msg 700 2259 open samples/string-drone/cello_G3.wav;
#X msg 795 2259 open samples/string-drone/cello_Gs3.wav;
#X msg 890 2259 open samples/string-drone/cello_G3.wav;
#X msg 985 2259 open samples/string-drone/cello_F3.wav;
#X obj 1320 860 +~;
#X text 700 2410 fixed drone slow pitch drift: fixed sample drone changes to nearby notes every 21 seconds;
#X obj 700 2440 loadbang;
#X obj 700 2470 delay 1000;
#X obj 700 2500 t b b;
#X msg 785 2500 1;
#X obj 785 2530 metro 21000;
#X obj 700 2530 f 0;
#X obj 760 2560 + 1;
#X obj 820 2560 mod 3;
#X obj 700 2595 sel 0 1 2;
#X msg 700 2635 open samples/string-drone/contrabass_C2.wav;
#X msg 910 2635 open samples/string-drone/contrabass_D2.wav;
#X msg 1120 2635 open samples/string-drone/contrabass_As1.wav;
#X msg 700 2661 open samples/string-drone/cello_C2.wav;
#X msg 910 2661 open samples/string-drone/cello_G2.wav;
#X msg 1120 2661 open samples/string-drone/cello_Ds3.wav;
#X msg 700 2687 open samples/string-drone/violin_C4.wav;
#X msg 910 2687 open samples/string-drone/violin_G3.wav;
#X msg 1120 2687 open samples/string-drone/violin_E4.wav;
#X msg 700 2725 open samples/string-drone/contrabass_G1.wav;
#X msg 910 2725 open samples/string-drone/contrabass_C2.wav;
#X msg 1120 2725 open samples/string-drone/contrabass_D2.wav;
#X msg 700 2751 open samples/string-drone/cello_G2.wav;
#X msg 910 2751 open samples/string-drone/cello_C2.wav;
#X msg 1120 2751 open samples/string-drone/cello_As3.wav;
#X msg 700 2777 open samples/string-drone/violin_G3.wav;
#X msg 910 2777 open samples/string-drone/violin_A3.wav;
#X msg 1120 2777 open samples/string-drone/violin_C4.wav;
#X msg 700 2815 open samples/string-drone/contrabass_E2.wav;
#X msg 910 2815 open samples/string-drone/contrabass_D2.wav;
#X msg 1120 2815 open samples/string-drone/contrabass_C2.wav;
#X msg 700 2841 open samples/string-drone/cello_Ds3.wav;
#X msg 910 2841 open samples/string-drone/cello_D4.wav;
#X msg 1120 2841 open samples/string-drone/cello_C2.wav;
#X msg 700 2867 open samples/string-drone/violin_E4.wav;
#X msg 910 2867 open samples/string-drone/violin_C4.wav;
#X msg 1120 2867 open samples/string-drone/violin_G3.wav;
#X msg 700 2905 open samples/string-drone/contrabass_As1.wav;
#X msg 910 2905 open samples/string-drone/contrabass_G1.wav;
#X msg 1120 2905 open samples/string-drone/contrabass_C2.wav;
#X msg 700 2931 open samples/string-drone/cello_As3.wav;
#X msg 910 2931 open samples/string-drone/cello_G2.wav;
#X msg 1120 2931 open samples/string-drone/cello_D4.wav;
#X msg 700 2957 open samples/string-drone/violin_A3.wav;
#X msg 910 2957 open samples/string-drone/violin_G3.wav;
#X msg 1120 2957 open samples/string-drone/violin_C5.wav;
#X msg 700 2995 open samples/string-drone/contrabass_D2.wav;
#X msg 910 2995 open samples/string-drone/contrabass_E2.wav;
#X msg 1120 2995 open samples/string-drone/contrabass_C2.wav;
#X msg 700 3021 open samples/string-drone/cello_D4.wav;
#X msg 910 3021 open samples/string-drone/cello_As3.wav;
#X msg 1120 3021 open samples/string-drone/cello_Ds3.wav;
#X msg 700 3047 open samples/string-drone/violin_C5.wav;
#X msg 910 3047 open samples/string-drone/violin_E4.wav;
#X msg 1120 3047 open samples/string-drone/violin_C4.wav;
#X text 1120 2135 random 2 to 3 second sampled melody delay;
#X obj 1120 2165 t b b;
#X obj 1200 2165 random 2;
#X obj 1200 2195 * 1000;
#X obj 1120 2195 delay 0;
#X obj 1200 2180 + 2;
#X text 30 720 VISUALIZER SECTION - master waveform and melody note monitors;
#N canvas 0 22 450 278 (subpatch) 0;
#X array master_waveform 1024 float 3;
#A 0 0 0 0 0 0 0 0 0 0;
#X coords 0 1 1023 -1 360 120 1 0 0;
#X restore 30 750 graph;
#X obj 30 785 metro 80;
#X obj 30 815 loadbang;
#X msg 120 815 1;
#X obj 160 785 tabwrite~ master_waveform;
#X text 30 850 slow melody MIDI note. Warmer line: C D E G A G E D;
#X floatatom 30 880 5 0 0 0 slow_melody_midi - - 0;
#X text 210 850 sampled cello step 0-15. Vocalise-like arch C-D-E-F-G-Ab-G-F-E-D-C-B-A-B-C-D;
#X floatatom 210 880 5 0 0 0 sampled_cello_step - - 0;
#X text 30 920 pseudo piano-roll markers: current step lights one of eight toggles;
#X text 30 945 cello line: C3 D3 E3 F3 G3 Ab3 G3 F3 E3 D3 C3 B2 A2 B2 C3 D3;
#X text 30 1010 orchestral harmony layer: slow functional progression I V6 vi IV ii V iii I(add9);
#X obj 30 1040 hsl 260 18 0 1 0 0 empty empty orchestral_harmony_gain 0 -8 0 10 -262144 -1 -1 0 1;
#X obj 315 1040 loadbang;
#X msg 315 1070 0.34;
#X obj 30 1105 loadbang;
#X obj 30 1135 delay 3200;
#X obj 30 1165 t b b;
#X msg 110 1165 1;
#X obj 110 1195 metro 16000;
#X obj 30 1195 f 0;
#X obj 90 1225 + 1;
#X obj 150 1225 mod 8;
#X obj 30 1260 sel 0 1 2 3 4 5 6 7;
#X floatatom 315 1105 5 0 0 0 chord_step - - 0;
#X obj 30 1415 line;
#X obj 30 1450 mtof;
#X obj 30 1485 osc~;
#X obj 30 1520 *~ 0.34;
#X msg 30 1305 36 12000;
#X msg 106 1305 35 12000;
#X msg 182 1305 33 12000;
#X msg 258 1305 41 12000;
#X msg 334 1305 38 12000;
#X msg 410 1305 43 12000;
#X msg 486 1305 40 12000;
#X msg 562 1305 36 12000;
#X obj 185 1415 line;
#X obj 185 1450 mtof;
#X obj 185 1485 osc~;
#X obj 185 1520 *~ 0.24;
#X msg 30 1331 43 12000;
#X msg 106 1331 43 12000;
#X msg 182 1331 40 12000;
#X msg 258 1331 48 12000;
#X msg 334 1331 45 12000;
#X msg 410 1331 50 12000;
#X msg 486 1331 47 12000;
#X msg 562 1331 43 12000;
#X obj 340 1415 line;
#X obj 340 1450 mtof;
#X obj 340 1485 osc~;
#X obj 340 1520 *~ 0.19;
#X msg 30 1357 52 12000;
#X msg 106 1357 50 12000;
#X msg 182 1357 48 12000;
#X msg 258 1357 52 12000;
#X msg 334 1357 53 12000;
#X msg 410 1357 53 12000;
#X msg 486 1357 55 12000;
#X msg 562 1357 52 12000;
#X obj 495 1415 line;
#X obj 495 1450 mtof;
#X obj 495 1485 osc~;
#X obj 495 1520 *~ 0.14;
#X msg 30 1383 62 12000;
#X msg 106 1383 59 12000;
#X msg 182 1383 55 12000;
#X msg 258 1383 57 12000;
#X msg 334 1383 60 12000;
#X msg 410 1383 59 12000;
#X msg 486 1383 59 12000;
#X msg 562 1383 62 12000;
#X obj 660 1450 +~;
#X obj 760 1450 +~;
#X obj 860 1450 +~;
#X obj 960 1450 lop~ 2600;
#X obj 1070 1450 *~;
#X obj 1320 900 +~;
#X msg 700 2293 open samples/string-drone/cello_E3.wav;
#X msg 795 2293 open samples/string-drone/cello_D3.wav;
#X msg 890 2293 open samples/string-drone/cello_C3.wav;
#X msg 985 2293 open samples/string-drone/cello_B2.wav;
#X msg 700 2327 open samples/string-drone/cello_A2.wav;
#X msg 795 2327 open samples/string-drone/cello_B2.wav;
#X msg 890 2327 open samples/string-drone/cello_C3.wav;
#X msg 985 2327 open samples/string-drone/cello_D3.wav;
#X connect 4 0 5 0;
#X connect 7 0 8 0;
#X connect 8 0 9 0;
#X connect 9 0 10 0;
#X connect 11 0 14 0;
#X connect 12 0 15 0;
#X connect 13 0 16 0;
#X connect 14 0 17 0;
#X connect 15 0 17 1;
#X connect 17 0 18 0;
#X connect 16 0 18 1;
#X connect 18 0 19 0;
#X connect 19 0 20 0;
#X connect 10 0 20 1;
#X connect 20 0 21 0;
#X connect 23 0 24 0;
#X connect 24 0 25 0;
#X connect 25 0 26 0;
#X connect 27 0 30 0;
#X connect 28 0 31 0;
#X connect 29 0 32 0;
#X connect 30 0 33 0;
#X connect 31 0 33 1;
#X connect 33 0 34 0;
#X connect 32 0 34 1;
#X connect 34 0 35 0;
#X connect 35 0 36 0;
#X connect 26 0 36 1;
#X connect 36 0 37 0;
#X connect 39 0 40 0;
#X connect 40 0 41 0;
#X connect 41 0 42 0;
#X connect 43 0 46 0;
#X connect 44 0 47 0;
#X connect 45 0 48 0;
#X connect 46 0 49 0;
#X connect 47 0 49 1;
#X connect 49 0 50 0;
#X connect 48 0 50 1;
#X connect 50 0 51 0;
#X connect 51 0 52 0;
#X connect 42 0 52 1;
#X connect 52 0 53 0;
#X connect 55 0 56 0;
#X connect 56 0 57 0;
#X connect 57 0 58 0;
#X connect 59 0 60 0;
#X connect 60 0 61 0;
#X connect 61 0 62 0;
#X connect 58 0 62 1;
#X connect 62 0 63 0;
#X connect 65 0 66 0;
#X connect 66 0 67 0;
#X connect 67 0 68 0;
#X connect 69 0 71 0;
#X connect 70 0 71 1;
#X connect 71 0 72 0;
#X connect 72 0 73 0;
#X connect 68 0 73 1;
#X connect 73 0 74 0;
#X connect 76 0 77 0;
#X connect 77 0 78 0;
#X connect 78 0 79 0;
#X connect 80 0 82 0;
#X connect 81 0 82 1;
#X connect 82 0 83 0;
#X connect 83 0 84 0;
#X connect 79 0 84 1;
#X connect 84 0 85 0;
#X connect 21 0 87 0;
#X connect 37 0 87 1;
#X connect 87 0 88 0;
#X connect 53 0 88 1;
#X connect 88 0 89 0;
#X connect 63 0 89 1;
#X connect 89 0 90 0;
#X connect 74 0 90 1;
#X connect 90 0 91 0;
#X connect 85 0 91 1;
#X connect 91 0 116 0;
#X connect 92 0 93 0;
#X connect 116 0 96 0;
#X connect 94 0 95 0;
#X connect 95 0 96 1;
#X connect 97 0 98 0;
#X connect 98 0 99 0;
#X connect 98 0 99 1;
#X connect 101 0 103 0;
#X connect 102 0 104 0;
#X connect 105 0 98 1;
#X connect 106 0 116 1;
#X connect 107 0 63 1;
#X connect 108 0 118 1;
#X connect 109 0 117 1;
#X connect 110 0 111 0;
#X connect 110 0 112 0;
#X connect 110 0 113 0;
#X connect 110 0 114 0;
#X connect 110 0 115 0;
#X connect 111 0 105 0;
#X connect 111 0 98 1;
#X connect 112 0 106 0;
#X connect 112 0 116 1;
#X connect 113 0 107 0;
#X connect 113 0 63 1;
#X connect 114 0 108 0;
#X connect 114 0 118 1;
#X connect 115 0 109 0;
#X connect 115 0 117 1;
#X connect 116 0 92 0;
#X connect 117 0 118 0;
#X connect 118 0 97 0;
#X connect 120 0 121 0;
#X connect 121 0 122 0;
#X connect 122 0 123 0;
#X connect 125 0 126 0;
#X connect 126 0 124 0;
#X connect 128 0 129 0;
#X connect 130 0 131 0;
#X connect 131 0 128 0;
#X connect 131 0 129 0;
#X connect 123 0 134 0;
#X connect 133 0 136 0;
#X connect 134 0 135 0;
#X connect 135 0 136 0;
#X connect 136 0 137 0;
#X connect 137 0 138 0;
#X connect 123 0 141 0;
#X connect 140 0 143 0;
#X connect 141 0 142 0;
#X connect 142 0 143 0;
#X connect 143 0 144 0;
#X connect 144 0 145 0;
#X connect 123 0 148 0;
#X connect 147 0 150 0;
#X connect 148 0 149 0;
#X connect 149 0 150 0;
#X connect 150 0 151 0;
#X connect 151 0 152 0;
#X connect 129 0 153 0;
#X connect 153 0 138 1;
#X connect 129 0 154 0;
#X connect 154 0 145 1;
#X connect 129 0 155 0;
#X connect 155 0 152 1;
#X connect 129 1 156 0;
#X connect 156 0 138 1;
#X connect 129 1 157 0;
#X connect 157 0 145 1;
#X connect 129 1 158 0;
#X connect 158 0 152 1;
#X connect 129 2 159 0;
#X connect 159 0 138 1;
#X connect 129 2 160 0;
#X connect 160 0 145 1;
#X connect 129 2 161 0;
#X connect 161 0 152 1;
#X connect 138 0 162 0;
#X connect 145 0 162 1;
#X connect 162 0 163 0;
#X connect 152 0 163 1;
#X connect 165 0 166 0;
#X connect 167 0 168 0;
#X connect 168 0 165 0;
#X connect 168 0 166 0;
#X connect 123 0 171 0;
#X connect 170 0 173 0;
#X connect 171 0 172 0;
#X connect 172 0 173 0;
#X connect 173 0 174 0;
#X connect 174 0 175 0;
#X connect 123 0 178 0;
#X connect 177 0 180 0;
#X connect 178 0 179 0;
#X connect 179 0 180 0;
#X connect 180 0 181 0;
#X connect 181 0 182 0;
#X connect 123 0 185 0;
#X connect 184 0 187 0;
#X connect 185 0 186 0;
#X connect 186 0 187 0;
#X connect 187 0 188 0;
#X connect 188 0 189 0;
#X connect 166 0 190 0;
#X connect 190 0 175 1;
#X connect 166 0 191 0;
#X connect 191 0 182 1;
#X connect 166 0 192 0;
#X connect 192 0 189 1;
#X connect 166 1 193 0;
#X connect 193 0 175 1;
#X connect 166 1 194 0;
#X connect 194 0 182 1;
#X connect 166 1 195 0;
#X connect 195 0 189 1;
#X connect 166 2 196 0;
#X connect 196 0 175 1;
#X connect 166 2 197 0;
#X connect 197 0 182 1;
#X connect 166 2 198 0;
#X connect 198 0 189 1;
#X connect 175 0 199 0;
#X connect 182 0 199 1;
#X connect 199 0 200 0;
#X connect 189 0 200 1;
#X connect 202 0 203 0;
#X connect 204 0 205 0;
#X connect 205 0 202 0;
#X connect 205 0 203 0;
#X connect 123 0 208 0;
#X connect 207 0 210 0;
#X connect 208 0 209 0;
#X connect 209 0 210 0;
#X connect 210 0 211 0;
#X connect 211 0 212 0;
#X connect 123 0 215 0;
#X connect 214 0 217 0;
#X connect 215 0 216 0;
#X connect 216 0 217 0;
#X connect 217 0 218 0;
#X connect 218 0 219 0;
#X connect 123 0 222 0;
#X connect 221 0 224 0;
#X connect 222 0 223 0;
#X connect 223 0 224 0;
#X connect 224 0 225 0;
#X connect 225 0 226 0;
#X connect 203 0 227 0;
#X connect 227 0 212 1;
#X connect 203 0 228 0;
#X connect 228 0 219 1;
#X connect 203 0 229 0;
#X connect 229 0 226 1;
#X connect 203 1 230 0;
#X connect 230 0 212 1;
#X connect 203 1 231 0;
#X connect 231 0 219 1;
#X connect 203 1 232 0;
#X connect 232 0 226 1;
#X connect 203 2 233 0;
#X connect 233 0 212 1;
#X connect 203 2 234 0;
#X connect 234 0 219 1;
#X connect 203 2 235 0;
#X connect 235 0 226 1;
#X connect 212 0 236 0;
#X connect 219 0 236 1;
#X connect 236 0 237 0;
#X connect 226 0 237 1;
#X connect 239 0 240 0;
#X connect 241 0 242 0;
#X connect 242 0 239 0;
#X connect 242 0 240 0;
#X connect 123 0 245 0;
#X connect 244 0 247 0;
#X connect 245 0 246 0;
#X connect 246 0 247 0;
#X connect 247 0 248 0;
#X connect 248 0 249 0;
#X connect 123 0 252 0;
#X connect 251 0 254 0;
#X connect 252 0 253 0;
#X connect 253 0 254 0;
#X connect 254 0 255 0;
#X connect 255 0 256 0;
#X connect 123 0 259 0;
#X connect 258 0 261 0;
#X connect 259 0 260 0;
#X connect 260 0 261 0;
#X connect 261 0 262 0;
#X connect 262 0 263 0;
#X connect 240 0 264 0;
#X connect 264 0 249 1;
#X connect 240 0 265 0;
#X connect 265 0 256 1;
#X connect 240 0 266 0;
#X connect 266 0 263 1;
#X connect 240 1 267 0;
#X connect 267 0 249 1;
#X connect 240 1 268 0;
#X connect 268 0 256 1;
#X connect 240 1 269 0;
#X connect 269 0 263 1;
#X connect 240 2 270 0;
#X connect 270 0 249 1;
#X connect 240 2 271 0;
#X connect 271 0 256 1;
#X connect 240 2 272 0;
#X connect 272 0 263 1;
#X connect 249 0 273 0;
#X connect 256 0 273 1;
#X connect 273 0 274 0;
#X connect 263 0 274 1;
#X connect 276 0 277 0;
#X connect 278 0 279 0;
#X connect 279 0 276 0;
#X connect 279 0 277 0;
#X connect 123 0 282 0;
#X connect 281 0 284 0;
#X connect 282 0 283 0;
#X connect 283 0 284 0;
#X connect 284 0 285 0;
#X connect 285 0 286 0;
#X connect 123 0 289 0;
#X connect 288 0 291 0;
#X connect 289 0 290 0;
#X connect 290 0 291 0;
#X connect 291 0 292 0;
#X connect 292 0 293 0;
#X connect 123 0 296 0;
#X connect 295 0 298 0;
#X connect 296 0 297 0;
#X connect 297 0 298 0;
#X connect 298 0 299 0;
#X connect 299 0 300 0;
#X connect 277 0 301 0;
#X connect 301 0 286 1;
#X connect 277 0 302 0;
#X connect 302 0 293 1;
#X connect 277 0 303 0;
#X connect 303 0 300 1;
#X connect 277 1 304 0;
#X connect 304 0 286 1;
#X connect 277 1 305 0;
#X connect 305 0 293 1;
#X connect 277 1 306 0;
#X connect 306 0 300 1;
#X connect 277 2 307 0;
#X connect 307 0 286 1;
#X connect 277 2 308 0;
#X connect 308 0 293 1;
#X connect 277 2 309 0;
#X connect 309 0 300 1;
#X connect 286 0 310 0;
#X connect 293 0 310 1;
#X connect 310 0 311 0;
#X connect 300 0 311 1;
#X connect 163 0 312 0;
#X connect 200 0 312 1;
#X connect 312 0 313 0;
#X connect 237 0 313 1;
#X connect 313 0 314 0;
#X connect 274 0 314 1;
#X connect 314 0 315 0;
#X connect 311 0 315 1;
#X connect 315 0 316 0;
#X connect 124 0 316 1;
#X connect 96 0 317 0;
#X connect 316 0 317 1;
#X connect 320 0 321 0;
#X connect 321 0 319 0;
#X connect 322 0 323 0;
#X connect 323 0 324 0;
#X connect 324 0 327 0;
#X connect 324 1 325 0;
#X connect 325 0 326 0;
#X connect 326 0 327 0;
#X connect 327 0 328 0;
#X connect 328 0 327 1;
#X connect 328 0 329 0;
#X connect 329 0 330 0;
#X connect 330 0 331 0;
#X connect 330 1 332 0;
#X connect 330 2 333 0;
#X connect 330 3 334 0;
#X connect 330 4 335 0;
#X connect 330 5 336 0;
#X connect 330 6 337 0;
#X connect 330 7 338 0;
#X connect 331 0 339 0;
#X connect 332 0 339 0;
#X connect 333 0 339 0;
#X connect 334 0 339 0;
#X connect 335 0 339 0;
#X connect 336 0 339 0;
#X connect 337 0 339 0;
#X connect 338 0 339 0;
#X connect 339 0 340 0;
#X connect 339 0 341 0;
#X connect 341 0 342 0;
#X connect 340 0 343 0;
#X connect 342 0 344 0;
#X connect 343 0 345 0;
#X connect 344 0 346 0;
#X connect 345 0 347 0;
#X connect 346 0 347 1;
#X connect 347 0 348 0;
#X connect 330 0 349 0;
#X connect 330 1 349 0;
#X connect 330 2 349 0;
#X connect 330 3 349 0;
#X connect 330 4 349 0;
#X connect 330 5 349 0;
#X connect 330 6 349 0;
#X connect 330 7 349 0;
#X connect 349 0 350 0;
#X connect 348 0 351 0;
#X connect 350 0 351 1;
#X connect 351 0 352 0;
#X connect 319 0 352 1;
#X connect 317 0 353 0;
#X connect 352 0 353 1;
#X connect 356 0 357 0;
#X connect 357 0 355 0;
#X connect 358 0 359 0;
#X connect 359 0 360 0;
#X connect 360 0 363 0;
#X connect 360 1 361 0;
#X connect 361 0 362 0;
#X connect 363 0 364 0;
#X connect 364 0 363 1;
#X connect 364 0 365 0;
#X connect 365 0 366 0;
#X connect 366 0 373 0;
#X connect 366 0 367 0;
#X connect 373 0 369 0;
#X connect 366 1 374 0;
#X connect 366 1 367 0;
#X connect 374 0 369 0;
#X connect 366 2 375 0;
#X connect 366 2 367 0;
#X connect 375 0 369 0;
#X connect 366 3 376 0;
#X connect 366 3 367 0;
#X connect 376 0 369 0;
#X connect 366 4 377 0;
#X connect 366 4 367 0;
#X connect 377 0 369 0;
#X connect 366 5 378 0;
#X connect 366 5 367 0;
#X connect 378 0 369 0;
#X connect 366 6 379 0;
#X connect 366 6 367 0;
#X connect 379 0 369 0;
#X connect 366 7 380 0;
#X connect 366 7 367 0;
#X connect 380 0 369 0;
#X connect 367 0 368 0;
#X connect 368 0 369 0;
#X connect 369 0 370 0;
#X connect 370 0 371 0;
#X connect 371 0 372 0;
#X connect 355 0 372 1;
#X connect 353 0 381 0;
#X connect 372 0 381 1;
#X connect 383 0 384 0;
#X connect 384 0 385 0;
#X connect 385 0 388 0;
#X connect 385 1 386 0;
#X connect 386 0 387 0;
#X connect 387 0 388 0;
#X connect 388 0 389 0;
#X connect 389 0 388 1;
#X connect 389 0 390 0;
#X connect 390 0 391 0;
#X connect 391 0 392 0;
#X connect 392 0 136 0;
#X connect 391 1 393 0;
#X connect 393 0 136 0;
#X connect 391 2 394 0;
#X connect 394 0 136 0;
#X connect 391 0 395 0;
#X connect 395 0 143 0;
#X connect 391 1 396 0;
#X connect 396 0 143 0;
#X connect 391 2 397 0;
#X connect 397 0 143 0;
#X connect 391 0 398 0;
#X connect 398 0 150 0;
#X connect 391 1 399 0;
#X connect 399 0 150 0;
#X connect 391 2 400 0;
#X connect 400 0 150 0;
#X connect 391 0 401 0;
#X connect 401 0 173 0;
#X connect 391 1 402 0;
#X connect 402 0 173 0;
#X connect 391 2 403 0;
#X connect 403 0 173 0;
#X connect 391 0 404 0;
#X connect 404 0 180 0;
#X connect 391 1 405 0;
#X connect 405 0 180 0;
#X connect 391 2 406 0;
#X connect 406 0 180 0;
#X connect 391 0 407 0;
#X connect 407 0 187 0;
#X connect 391 1 408 0;
#X connect 408 0 187 0;
#X connect 391 2 409 0;
#X connect 409 0 187 0;
#X connect 391 0 410 0;
#X connect 410 0 210 0;
#X connect 391 1 411 0;
#X connect 411 0 210 0;
#X connect 391 2 412 0;
#X connect 412 0 210 0;
#X connect 391 0 413 0;
#X connect 413 0 217 0;
#X connect 391 1 414 0;
#X connect 414 0 217 0;
#X connect 391 2 415 0;
#X connect 415 0 217 0;
#X connect 391 0 416 0;
#X connect 416 0 224 0;
#X connect 391 1 417 0;
#X connect 417 0 224 0;
#X connect 391 2 418 0;
#X connect 418 0 224 0;
#X connect 391 0 419 0;
#X connect 419 0 247 0;
#X connect 391 1 420 0;
#X connect 420 0 247 0;
#X connect 391 2 421 0;
#X connect 421 0 247 0;
#X connect 391 0 422 0;
#X connect 422 0 254 0;
#X connect 391 1 423 0;
#X connect 423 0 254 0;
#X connect 391 2 424 0;
#X connect 424 0 254 0;
#X connect 391 0 425 0;
#X connect 425 0 261 0;
#X connect 391 1 426 0;
#X connect 426 0 261 0;
#X connect 391 2 427 0;
#X connect 427 0 261 0;
#X connect 391 0 428 0;
#X connect 428 0 284 0;
#X connect 391 1 429 0;
#X connect 429 0 284 0;
#X connect 391 2 430 0;
#X connect 430 0 284 0;
#X connect 391 0 431 0;
#X connect 431 0 291 0;
#X connect 391 1 432 0;
#X connect 432 0 291 0;
#X connect 391 2 433 0;
#X connect 433 0 291 0;
#X connect 391 0 434 0;
#X connect 434 0 298 0;
#X connect 391 1 435 0;
#X connect 435 0 298 0;
#X connect 391 2 436 0;
#X connect 436 0 298 0;
#X connect 362 0 438 0;
#X connect 438 1 439 0;
#X connect 440 0 441 1;
#X connect 438 0 441 0;
#X connect 441 0 363 0;
#X connect 439 0 442 0;
#X connect 442 0 440 0;
#X connect 446 0 447 0;
#X connect 447 0 445 0;
#X connect 445 0 448 0;
#X connect 98 0 448 0;
#X connect 339 0 450 0;
#X connect 365 0 452 0;
#X connect 457 0 458 0;
#X connect 458 0 456 0;
#X connect 459 0 460 0;
#X connect 460 0 461 0;
#X connect 461 0 464 0;
#X connect 461 1 462 0;
#X connect 462 0 463 0;
#X connect 463 0 464 0;
#X connect 464 0 465 0;
#X connect 465 0 464 1;
#X connect 465 0 466 0;
#X connect 466 0 467 0;
#X connect 466 0 468 0;
#X connect 469 0 470 0;
#X connect 470 0 471 0;
#X connect 471 0 472 0;
#X connect 467 0 473 0;
#X connect 473 0 469 0;
#X connect 467 1 474 0;
#X connect 474 0 469 0;
#X connect 467 2 475 0;
#X connect 475 0 469 0;
#X connect 467 3 476 0;
#X connect 476 0 469 0;
#X connect 467 4 477 0;
#X connect 477 0 469 0;
#X connect 467 5 478 0;
#X connect 478 0 469 0;
#X connect 467 6 479 0;
#X connect 479 0 469 0;
#X connect 467 7 480 0;
#X connect 480 0 469 0;
#X connect 481 0 482 0;
#X connect 482 0 483 0;
#X connect 483 0 484 0;
#X connect 467 0 485 0;
#X connect 485 0 481 0;
#X connect 467 1 486 0;
#X connect 486 0 481 0;
#X connect 467 2 487 0;
#X connect 487 0 481 0;
#X connect 467 3 488 0;
#X connect 488 0 481 0;
#X connect 467 4 489 0;
#X connect 489 0 481 0;
#X connect 467 5 490 0;
#X connect 490 0 481 0;
#X connect 467 6 491 0;
#X connect 491 0 481 0;
#X connect 467 7 492 0;
#X connect 492 0 481 0;
#X connect 493 0 494 0;
#X connect 494 0 495 0;
#X connect 495 0 496 0;
#X connect 467 0 497 0;
#X connect 497 0 493 0;
#X connect 467 1 498 0;
#X connect 498 0 493 0;
#X connect 467 2 499 0;
#X connect 499 0 493 0;
#X connect 467 3 500 0;
#X connect 500 0 493 0;
#X connect 467 4 501 0;
#X connect 501 0 493 0;
#X connect 467 5 502 0;
#X connect 502 0 493 0;
#X connect 467 6 503 0;
#X connect 503 0 493 0;
#X connect 467 7 504 0;
#X connect 504 0 493 0;
#X connect 505 0 506 0;
#X connect 506 0 507 0;
#X connect 507 0 508 0;
#X connect 467 0 509 0;
#X connect 509 0 505 0;
#X connect 467 1 510 0;
#X connect 510 0 505 0;
#X connect 467 2 511 0;
#X connect 511 0 505 0;
#X connect 467 3 512 0;
#X connect 512 0 505 0;
#X connect 467 4 513 0;
#X connect 513 0 505 0;
#X connect 467 5 514 0;
#X connect 514 0 505 0;
#X connect 467 6 515 0;
#X connect 515 0 505 0;
#X connect 467 7 516 0;
#X connect 516 0 505 0;
#X connect 472 0 517 0;
#X connect 484 0 517 1;
#X connect 517 0 518 0;
#X connect 496 0 518 1;
#X connect 518 0 519 0;
#X connect 508 0 519 1;
#X connect 519 0 520 0;
#X connect 520 0 521 0;
#X connect 456 0 521 1;
#X connect 381 0 522 0;
#X connect 521 0 522 1;
#X connect 522 0 117 0;
#X connect 366 8 523 0;
#X connect 366 8 367 0;
#X connect 523 0 369 0;
#X connect 366 9 524 0;
#X connect 366 9 367 0;
#X connect 524 0 369 0;
#X connect 366 10 525 0;
#X connect 366 10 367 0;
#X connect 525 0 369 0;
#X connect 366 11 526 0;
#X connect 366 11 367 0;
#X connect 526 0 369 0;
#X connect 366 12 527 0;
#X connect 366 12 367 0;
#X connect 527 0 369 0;
#X connect 366 13 528 0;
#X connect 366 13 367 0;
#X connect 528 0 369 0;
#X connect 366 14 529 0;
#X connect 366 14 367 0;
#X connect 529 0 369 0;
#X connect 366 15 530 0;
#X connect 366 15 367 0;
#X connect 530 0 369 0;

