#N canvas 20 20 1880 2600 12;
#X text 28 20 Kawaii future bass burst - Pd Vanilla;
#X text 28 42 160 BPM \, bright F major loop \, dense hats \, cute vocal shots \, sweep/crash candy \, pumping supersaws;
#X text 30 78 Transport: loadbang turns on DSP and starts the sequencer. Click 0 to stop \, 1 to restart.;
#X obj 30 106 loadbang;
#X msg 30 138 \; pd dsp 1;
#X msg 138 138 1;
#X msg 194 138 0;
#X obj 138 174 metro 93.75;
#X obj 138 210 f 0;
#X obj 198 210 + 1;
#X obj 258 210 mod 32;
#X obj 138 246 s kfb_step;
#X text 520 78 Sample loader: pd_ready files have safe names and 16-bit mono 44.1 kHz WAV format;
#X obj 940 106 soundfiler;
#X msg 520 106 read -resize samples/kawaii_future_bass/pd_ready/kick02.wav kfb_kick;
#X obj 1072 106 table kfb_kick 44100;
#X text 1300 106 kick;
#X msg 520 134 read -resize samples/kawaii_future_bass/pd_ready/snare03.wav kfb_snare;
#X obj 1072 134 table kfb_snare 44100;
#X text 1300 134 snare;
#X msg 520 162 read -resize samples/kawaii_future_bass/pd_ready/clap02.wav kfb_clap;
#X obj 1072 162 table kfb_clap 44100;
#X text 1300 162 clap;
#X msg 520 190 read -resize samples/kawaii_future_bass/pd_ready/hat02.wav kfb_hat;
#X obj 1072 190 table kfb_hat 44100;
#X text 1300 190 hat;
#X msg 520 218 read -resize samples/kawaii_future_bass/pd_ready/openhat02.wav kfb_openhat;
#X obj 1072 218 table kfb_openhat 44100;
#X text 1300 218 openhat;
#X msg 520 246 read -resize samples/kawaii_future_bass/pd_ready/perc01.wav kfb_perc_a;
#X obj 1072 246 table kfb_perc_a 44100;
#X text 1300 246 perc_a;
#X msg 520 274 read -resize samples/kawaii_future_bass/pd_ready/perc03.wav kfb_perc_b;
#X obj 1072 274 table kfb_perc_b 44100;
#X text 1300 274 perc_b;
#X msg 520 302 read -resize samples/kawaii_future_bass/pd_ready/crash01.wav kfb_crash;
#X obj 1072 302 table kfb_crash 44100;
#X text 1300 302 crash;
#X msg 520 330 read -resize samples/kawaii_future_bass/pd_ready/sfx_flash.wav kfb_flash;
#X obj 1072 330 table kfb_flash 44100;
#X text 1300 330 flash;
#X msg 520 358 read -resize samples/kawaii_future_bass/pd_ready/sfx_mario_sweep.wav kfb_sweep;
#X obj 1072 358 table kfb_sweep 44100;
#X text 1300 358 sweep;
#X msg 520 386 read -resize samples/kawaii_future_bass/pd_ready/sfx_cut_track.wav kfb_cut;
#X obj 1072 386 table kfb_cut 44100;
#X text 1300 386 cut;
#X msg 520 414 read -resize samples/kawaii_future_bass/pd_ready/vocal_konnichiwa.wav kfb_konnichiwa;
#X obj 1072 414 table kfb_konnichiwa 44100;
#X text 1300 414 konnichiwa;
#X msg 520 442 read -resize samples/kawaii_future_bass/pd_ready/vocal_giggle.wav kfb_giggle;
#X obj 1072 442 table kfb_giggle 44100;
#X text 1300 442 giggle;
#X msg 520 470 read -resize samples/kawaii_future_bass/pd_ready/vocal_who.wav kfb_who;
#X obj 1072 470 table kfb_who 44100;
#X text 1300 470 who;
#X text 30 520 Kick sample: quick bouncy future-bass pattern;
#X obj 30 548 r kfb_step;
#X obj 30 580 sel 0 3 6 10 16 19 22 27 30;
#X obj 284 610 tabplay~ kfb_kick;
#X obj 414 610 *~ 0.74;
#X obj 510 610 throw~ kfb_mix;
#X text 560 520 Snare sample: wide backbeat \, still fast at 160 BPM;
#X obj 560 548 r kfb_step;
#X obj 560 580 sel 8 24;
#X obj 814 610 tabplay~ kfb_snare;
#X obj 944 610 *~ 0.38;
#X obj 1040 610 throw~ kfb_mix;
#X obj 944 644 *~ 0.05;
#X obj 1040 644 throw~ kfb_fx;
#X text 1090 520 Clap sample: cute transient layer on the snare;
#X obj 1090 548 r kfb_step;
#X obj 1090 580 sel 8 24;
#X obj 1344 610 tabplay~ kfb_clap;
#X obj 1474 610 *~ 0.43;
#X obj 1570 610 throw~ kfb_mix;
#X obj 1474 644 *~ 0.06;
#X obj 1570 644 throw~ kfb_fx;
#X text 30 710 Closed hat sample: nearly constant 16ths with a few probabilistic skips;
#X obj 30 738 r kfb_step;
#X obj 30 770 sel 2 4 5 6 9 10 12 14 18 20 21 22 25 26 28 30;
#X obj 284 800 tabplay~ kfb_hat;
#X obj 284 738 random 100;
#X obj 284 770 moses 92;
#X obj 384 770 t b;
#X obj 414 800 *~ 0.18;
#X obj 510 800 throw~ kfb_mix;
#X obj 414 834 *~ 0.02;
#X obj 510 834 throw~ kfb_fx;
#X text 560 710 Open hat sample: bright offbeat lift;
#X obj 560 738 r kfb_step;
#X obj 560 770 sel 7 15 23 31;
#X obj 814 800 tabplay~ kfb_openhat;
#X obj 944 800 *~ 0.18;
#X obj 1040 800 throw~ kfb_mix;
#X obj 944 834 *~ 0.04;
#X obj 1040 834 throw~ kfb_fx;
#X text 1090 710 Perc samples: toy-like accents around the drums;
#X obj 1090 738 r kfb_step;
#X obj 1090 770 sel 5 13 18 29;
#X obj 1344 800 tabplay~ kfb_perc_a;
#X obj 1344 738 random 100;
#X obj 1344 770 moses 76;
#X obj 1444 770 t b;
#X obj 1474 800 *~ 0.22;
#X obj 1570 800 throw~ kfb_mix;
#X obj 1474 834 *~ 0.05;
#X obj 1570 834 throw~ kfb_fx;
#X text 30 900 Perc response sample: extra pops before phrase turns;
#X obj 30 928 r kfb_step;
#X obj 30 960 sel 11 14 21 30;
#X obj 284 990 tabplay~ kfb_perc_b;
#X obj 284 928 random 100;
#X obj 284 960 moses 70;
#X obj 384 960 t b;
#X obj 414 990 *~ 0.18;
#X obj 510 990 throw~ kfb_mix;
#X obj 414 1024 *~ 0.06;
#X obj 510 1024 throw~ kfb_fx;
#X text 560 900 Crash sample: bright downbeat candy;
#X obj 560 928 r kfb_step;
#X obj 560 960 sel 0 16;
#X obj 814 990 tabplay~ kfb_crash;
#X obj 944 990 *~ 0.1;
#X obj 1040 990 throw~ kfb_mix;
#X obj 944 1024 *~ 0.1;
#X obj 1040 1024 throw~ kfb_fx;
#X text 1090 900 SFX flash sample: sparkle impact before the hook loops;
#X obj 1090 928 r kfb_step;
#X obj 1090 960 sel 15 31;
#X obj 1344 990 tabplay~ kfb_flash;
#X obj 1474 990 *~ 0.14;
#X obj 1570 990 throw~ kfb_mix;
#X obj 1474 1024 *~ 0.1;
#X obj 1570 1024 throw~ kfb_fx;
#X text 30 1090 Mario sweep sample: long kawaii riser into the second half;
#X obj 30 1118 r kfb_step;
#X obj 30 1150 sel 24;
#X obj 284 1180 tabplay~ kfb_sweep;
#X obj 414 1180 *~ 0.12;
#X obj 510 1180 throw~ kfb_mix;
#X obj 414 1214 *~ 0.12;
#X obj 510 1214 throw~ kfb_fx;
#X text 560 1090 Cut-the-track sample: tiny transition punctuation;
#X obj 560 1118 r kfb_step;
#X obj 560 1150 sel 31;
#X obj 814 1180 tabplay~ kfb_cut;
#X obj 944 1180 *~ 0.18;
#X obj 1040 1180 throw~ kfb_mix;
#X obj 944 1214 *~ 0.08;
#X obj 1040 1214 throw~ kfb_fx;
#X text 1090 1090 Konnichiwa vocal: hook call at phrase starts;
#X obj 1090 1118 r kfb_step;
#X obj 1090 1150 sel 0 16;
#X obj 1344 1180 tabplay~ kfb_konnichiwa;
#X obj 1474 1180 *~ 0.22;
#X obj 1570 1180 throw~ kfb_mix;
#X obj 1474 1214 *~ 0.11;
#X obj 1570 1214 throw~ kfb_fx;
#X text 30 1280 Giggle vocal: playful answer near the second bar;
#X obj 30 1308 r kfb_step;
#X obj 30 1340 sel 12 28;
#X obj 284 1370 tabplay~ kfb_giggle;
#X obj 414 1370 *~ 0.18;
#X obj 510 1370 throw~ kfb_mix;
#X obj 414 1404 *~ 0.12;
#X obj 510 1404 throw~ kfb_fx;
#X text 560 1280 Who vocal: short fill into snare hits;
#X obj 560 1308 r kfb_step;
#X obj 560 1340 sel 6 22 30;
#X obj 814 1370 tabplay~ kfb_who;
#X obj 944 1370 *~ 0.16;
#X obj 1040 1370 throw~ kfb_mix;
#X obj 944 1404 *~ 0.1;
#X obj 1040 1404 throw~ kfb_fx;
#X text 1090 1280 Sub bass: F major bounce \, clipped low harmonics kept under the sample kick;
#X obj 1090 1308 r kfb_step;
#X obj 1090 1340 sel 0 4 8 12 16 20 24 28;
#X obj 1380 1340 mtof;
#X obj 1380 1374 pack f 18;
#X obj 1380 1408 line~;
#X obj 1380 1442 osc~;
#X obj 1476 1442 phasor~;
#X obj 1476 1476 lop~ 210;
#X obj 1476 1510 *~ 0.16;
#X obj 1380 1510 *~ 0.84;
#X obj 1430 1550 +~;
#X msg 1612 1340 0.78 5 \, 0.58 82 8 \, 0 210 110;
#X obj 1612 1374 vline~;
#X obj 1520 1586 *~;
#X obj 1610 1586 lop~ 240;
#X msg 1164 1380 41;
#X msg 1200 1380 41;
#X msg 1236 1380 36;
#X msg 1272 1380 43;
#X msg 1308 1380 38;
#X msg 1344 1380 45;
#X msg 1380 1380 34;
#X msg 1416 1380 36;
#X obj 1700 1586 *~ 0.28;
#X obj 1796 1586 throw~ kfb_mix;
#X text 30 1620 Pumping supersaw Fmaj9;
#X obj 30 1648 r kfb_step;
#X obj 30 1680 sel 0 4;
#X msg 206 1680 0 0 \, 0 18 \, 0.5 95 18 \, 0.22 150 115 \, 0 80 260;
#X obj 206 1716 vline~;
#X obj 30 1760 phasor~ 174.61;
#X obj 30 1792 -~ 0.5;
#X obj 72 1760 phasor~ 175.66;
#X obj 72 1792 -~ 0.5;
#X obj 46 1824 +~;
#X obj 46 1856 lop~ 4200;
#X obj 46 1888 *~ 0.15;
#X obj 122 1760 phasor~ 220.00;
#X obj 122 1792 -~ 0.5;
#X obj 164 1760 phasor~ 221.32;
#X obj 164 1792 -~ 0.5;
#X obj 138 1824 +~;
#X obj 138 1856 lop~ 4200;
#X obj 138 1888 *~ 0.15;
#X obj 214 1760 phasor~ 261.63;
#X obj 214 1792 -~ 0.5;
#X obj 256 1760 phasor~ 263.20;
#X obj 256 1792 -~ 0.5;
#X obj 230 1824 +~;
#X obj 230 1856 lop~ 4200;
#X obj 230 1888 *~ 0.15;
#X obj 306 1760 phasor~ 392.00;
#X obj 306 1792 -~ 0.5;
#X obj 348 1760 phasor~ 394.35;
#X obj 348 1792 -~ 0.5;
#X obj 322 1824 +~;
#X obj 322 1856 lop~ 4200;
#X obj 322 1888 *~ 0.15;
#X obj 108 1930 +~;
#X obj 200 1960 +~;
#X obj 292 1990 +~;
#X obj 390 2024 *~;
#X obj 480 2024 hip~ 120;
#X obj 570 2024 *~ 0.044;
#X obj 666 2024 throw~ kfb_mix;
#X obj 570 2058 *~ 0.08;
#X obj 666 2058 throw~ kfb_fx;
#X text 560 1620 Pumping supersaw Cadd9;
#X obj 560 1648 r kfb_step;
#X obj 560 1680 sel 8 12;
#X msg 736 1680 0 0 \, 0 18 \, 0.5 95 18 \, 0.22 150 115 \, 0 80 260;
#X obj 736 1716 vline~;
#X obj 560 1760 phasor~ 130.81;
#X obj 560 1792 -~ 0.5;
#X obj 602 1760 phasor~ 131.59;
#X obj 602 1792 -~ 0.5;
#X obj 576 1824 +~;
#X obj 576 1856 lop~ 4200;
#X obj 576 1888 *~ 0.15;
#X obj 652 1760 phasor~ 196.00;
#X obj 652 1792 -~ 0.5;
#X obj 694 1760 phasor~ 197.18;
#X obj 694 1792 -~ 0.5;
#X obj 668 1824 +~;
#X obj 668 1856 lop~ 4200;
#X obj 668 1888 *~ 0.15;
#X obj 744 1760 phasor~ 261.63;
#X obj 744 1792 -~ 0.5;
#X obj 786 1760 phasor~ 263.20;
#X obj 786 1792 -~ 0.5;
#X obj 760 1824 +~;
#X obj 760 1856 lop~ 4200;
#X obj 760 1888 *~ 0.15;
#X obj 836 1760 phasor~ 293.66;
#X obj 836 1792 -~ 0.5;
#X obj 878 1760 phasor~ 295.42;
#X obj 878 1792 -~ 0.5;
#X obj 852 1824 +~;
#X obj 852 1856 lop~ 4200;
#X obj 852 1888 *~ 0.15;
#X obj 638 1930 +~;
#X obj 730 1960 +~;
#X obj 822 1990 +~;
#X obj 920 2024 *~;
#X obj 1010 2024 hip~ 120;
#X obj 1100 2024 *~ 0.044;
#X obj 1196 2024 throw~ kfb_mix;
#X obj 1100 2058 *~ 0.08;
#X obj 1196 2058 throw~ kfb_fx;
#X text 1090 1620 Pumping supersaw Dm7 to Bbmaj9 color;
#X obj 1090 1648 r kfb_step;
#X obj 1090 1680 sel 16 20 24 28;
#X msg 1266 1680 0 0 \, 0 18 \, 0.5 95 18 \, 0.22 150 115 \, 0 80 260;
#X obj 1266 1716 vline~;
#X obj 1090 1760 phasor~ 146.83;
#X obj 1090 1792 -~ 0.5;
#X obj 1132 1760 phasor~ 147.71;
#X obj 1132 1792 -~ 0.5;
#X obj 1106 1824 +~;
#X obj 1106 1856 lop~ 4200;
#X obj 1106 1888 *~ 0.15;
#X obj 1182 1760 phasor~ 174.61;
#X obj 1182 1792 -~ 0.5;
#X obj 1224 1760 phasor~ 175.66;
#X obj 1224 1792 -~ 0.5;
#X obj 1198 1824 +~;
#X obj 1198 1856 lop~ 4200;
#X obj 1198 1888 *~ 0.15;
#X obj 1274 1760 phasor~ 220.00;
#X obj 1274 1792 -~ 0.5;
#X obj 1316 1760 phasor~ 221.32;
#X obj 1316 1792 -~ 0.5;
#X obj 1290 1824 +~;
#X obj 1290 1856 lop~ 4200;
#X obj 1290 1888 *~ 0.15;
#X obj 1366 1760 phasor~ 261.63;
#X obj 1366 1792 -~ 0.5;
#X obj 1408 1760 phasor~ 263.20;
#X obj 1408 1792 -~ 0.5;
#X obj 1382 1824 +~;
#X obj 1382 1856 lop~ 4200;
#X obj 1382 1888 *~ 0.15;
#X obj 1168 1930 +~;
#X obj 1260 1960 +~;
#X obj 1352 1990 +~;
#X obj 1450 2024 *~;
#X obj 1540 2024 hip~ 120;
#X obj 1630 2024 *~ 0.042;
#X obj 1726 2024 throw~ kfb_mix;
#X obj 1630 2058 *~ 0.08;
#X obj 1726 2058 throw~ kfb_fx;
#X text 30 2110 Sparkle arp: fast cute major-scale ping \, intentionally varied away from a plain grid;
#X obj 30 2138 r kfb_step;
#X obj 30 2170 sel 1 2 5 7 9 10 13 15 17 18 21 23 25 26 29 31;
#X obj 454 2170 mtof;
#X obj 454 2204 pack f 8;
#X obj 454 2238 line~;
#X obj 454 2272 osc~;
#X msg 628 2170 0.58 3 \, 0 94 12;
#X obj 628 2204 vline~;
#X obj 542 2312 *~;
#X obj 632 2312 hip~ 900;
#X msg 52 2214 77;
#X msg 94 2214 81;
#X msg 136 2214 84;
#X msg 178 2214 86;
#X msg 220 2214 88;
#X msg 262 2214 89;
#X msg 304 2214 84;
#X msg 346 2214 81;
#X msg 52 2246 79;
#X msg 94 2246 83;
#X msg 136 2246 86;
#X msg 178 2246 89;
#X msg 220 2246 91;
#X msg 262 2246 88;
#X msg 304 2246 84;
#X msg 346 2246 93;
#X obj 722 2312 *~ 0.075;
#X obj 818 2312 throw~ kfb_mix;
#X obj 722 2346 *~ 0.12;
#X obj 818 2346 throw~ kfb_fx;
#X text 30 2360 Delay return: bright feed-forward echo \, no feedback loop;
#X obj 30 2388 catch~ kfb_fx;
#X obj 30 2420 hip~ 700;
#X obj 30 2452 delwrite~ kfb_delay 620;
#X obj 260 2388 delread~ kfb_delay 187;
#X obj 260 2420 *~ 0.23;
#X obj 360 2420 throw~ kfb_mix;
#X text 760 2360 Master: mix bus \, clip \, direct attenuation \, dac;
#X obj 760 2388 catch~ kfb_mix;
#X obj 760 2420 hip~ 25;
#X obj 860 2420 clip~ -0.9 0.9;
#X obj 976 2420 *~ 0.13;
#X obj 1080 2420 dac~;
#X connect 3 0 4 0;
#X connect 3 0 5 0;
#X connect 5 0 7 0;
#X connect 6 0 7 0;
#X connect 7 0 8 0;
#X connect 8 0 11 0;
#X connect 8 0 9 0;
#X connect 9 0 10 0;
#X connect 10 0 8 1;
#X connect 3 0 14 0;
#X connect 14 0 13 0;
#X connect 3 0 17 0;
#X connect 17 0 13 0;
#X connect 3 0 20 0;
#X connect 20 0 13 0;
#X connect 3 0 23 0;
#X connect 23 0 13 0;
#X connect 3 0 26 0;
#X connect 26 0 13 0;
#X connect 3 0 29 0;
#X connect 29 0 13 0;
#X connect 3 0 32 0;
#X connect 32 0 13 0;
#X connect 3 0 35 0;
#X connect 35 0 13 0;
#X connect 3 0 38 0;
#X connect 38 0 13 0;
#X connect 3 0 41 0;
#X connect 41 0 13 0;
#X connect 3 0 44 0;
#X connect 44 0 13 0;
#X connect 3 0 47 0;
#X connect 47 0 13 0;
#X connect 3 0 50 0;
#X connect 50 0 13 0;
#X connect 3 0 53 0;
#X connect 53 0 13 0;
#X connect 57 0 58 0;
#X connect 58 0 59 0;
#X connect 58 1 59 0;
#X connect 58 2 59 0;
#X connect 58 3 59 0;
#X connect 58 4 59 0;
#X connect 58 5 59 0;
#X connect 58 6 59 0;
#X connect 58 7 59 0;
#X connect 58 8 59 0;
#X connect 59 0 60 0;
#X connect 60 0 61 0;
#X connect 63 0 64 0;
#X connect 64 0 65 0;
#X connect 64 1 65 0;
#X connect 65 0 66 0;
#X connect 66 0 67 0;
#X connect 65 0 68 0;
#X connect 68 0 69 0;
#X connect 71 0 72 0;
#X connect 72 0 73 0;
#X connect 72 1 73 0;
#X connect 73 0 74 0;
#X connect 74 0 75 0;
#X connect 73 0 76 0;
#X connect 76 0 77 0;
#X connect 79 0 80 0;
#X connect 80 0 82 0;
#X connect 80 1 82 0;
#X connect 80 2 82 0;
#X connect 80 3 82 0;
#X connect 80 4 82 0;
#X connect 80 5 82 0;
#X connect 80 6 82 0;
#X connect 80 7 82 0;
#X connect 80 8 82 0;
#X connect 80 9 82 0;
#X connect 80 10 82 0;
#X connect 80 11 82 0;
#X connect 80 12 82 0;
#X connect 80 13 82 0;
#X connect 80 14 82 0;
#X connect 80 15 82 0;
#X connect 82 0 83 0;
#X connect 83 0 84 0;
#X connect 84 0 81 0;
#X connect 81 0 85 0;
#X connect 85 0 86 0;
#X connect 81 0 87 0;
#X connect 87 0 88 0;
#X connect 90 0 91 0;
#X connect 91 0 92 0;
#X connect 91 1 92 0;
#X connect 91 2 92 0;
#X connect 91 3 92 0;
#X connect 92 0 93 0;
#X connect 93 0 94 0;
#X connect 92 0 95 0;
#X connect 95 0 96 0;
#X connect 98 0 99 0;
#X connect 99 0 101 0;
#X connect 99 1 101 0;
#X connect 99 2 101 0;
#X connect 99 3 101 0;
#X connect 101 0 102 0;
#X connect 102 0 103 0;
#X connect 103 0 100 0;
#X connect 100 0 104 0;
#X connect 104 0 105 0;
#X connect 100 0 106 0;
#X connect 106 0 107 0;
#X connect 109 0 110 0;
#X connect 110 0 112 0;
#X connect 110 1 112 0;
#X connect 110 2 112 0;
#X connect 110 3 112 0;
#X connect 112 0 113 0;
#X connect 113 0 114 0;
#X connect 114 0 111 0;
#X connect 111 0 115 0;
#X connect 115 0 116 0;
#X connect 111 0 117 0;
#X connect 117 0 118 0;
#X connect 120 0 121 0;
#X connect 121 0 122 0;
#X connect 121 1 122 0;
#X connect 122 0 123 0;
#X connect 123 0 124 0;
#X connect 122 0 125 0;
#X connect 125 0 126 0;
#X connect 128 0 129 0;
#X connect 129 0 130 0;
#X connect 129 1 130 0;
#X connect 130 0 131 0;
#X connect 131 0 132 0;
#X connect 130 0 133 0;
#X connect 133 0 134 0;
#X connect 136 0 137 0;
#X connect 137 0 138 0;
#X connect 138 0 139 0;
#X connect 139 0 140 0;
#X connect 138 0 141 0;
#X connect 141 0 142 0;
#X connect 144 0 145 0;
#X connect 145 0 146 0;
#X connect 146 0 147 0;
#X connect 147 0 148 0;
#X connect 146 0 149 0;
#X connect 149 0 150 0;
#X connect 152 0 153 0;
#X connect 153 0 154 0;
#X connect 153 1 154 0;
#X connect 154 0 155 0;
#X connect 155 0 156 0;
#X connect 154 0 157 0;
#X connect 157 0 158 0;
#X connect 160 0 161 0;
#X connect 161 0 162 0;
#X connect 161 1 162 0;
#X connect 162 0 163 0;
#X connect 163 0 164 0;
#X connect 162 0 165 0;
#X connect 165 0 166 0;
#X connect 168 0 169 0;
#X connect 169 0 170 0;
#X connect 169 1 170 0;
#X connect 169 2 170 0;
#X connect 170 0 171 0;
#X connect 171 0 172 0;
#X connect 170 0 173 0;
#X connect 173 0 174 0;
#X connect 176 0 177 0;
#X connect 177 0 191 0;
#X connect 191 0 178 0;
#X connect 177 0 187 0;
#X connect 177 1 192 0;
#X connect 192 0 178 0;
#X connect 177 1 187 0;
#X connect 177 2 193 0;
#X connect 193 0 178 0;
#X connect 177 2 187 0;
#X connect 177 3 194 0;
#X connect 194 0 178 0;
#X connect 177 3 187 0;
#X connect 177 4 195 0;
#X connect 195 0 178 0;
#X connect 177 4 187 0;
#X connect 177 5 196 0;
#X connect 196 0 178 0;
#X connect 177 5 187 0;
#X connect 177 6 197 0;
#X connect 197 0 178 0;
#X connect 177 6 187 0;
#X connect 177 7 198 0;
#X connect 198 0 178 0;
#X connect 177 7 187 0;
#X connect 178 0 179 0;
#X connect 179 0 180 0;
#X connect 180 0 181 0;
#X connect 180 0 182 0;
#X connect 181 0 185 0;
#X connect 182 0 183 0;
#X connect 183 0 184 0;
#X connect 185 0 186 0;
#X connect 184 0 186 1;
#X connect 187 0 188 0;
#X connect 186 0 189 0;
#X connect 188 0 189 1;
#X connect 189 0 190 0;
#X connect 190 0 199 0;
#X connect 199 0 200 0;
#X connect 202 0 203 0;
#X connect 203 0 204 0;
#X connect 203 1 204 0;
#X connect 204 0 205 0;
#X connect 206 0 207 0;
#X connect 208 0 209 0;
#X connect 207 0 210 0;
#X connect 209 0 210 1;
#X connect 210 0 211 0;
#X connect 211 0 212 0;
#X connect 213 0 214 0;
#X connect 215 0 216 0;
#X connect 214 0 217 0;
#X connect 216 0 217 1;
#X connect 217 0 218 0;
#X connect 218 0 219 0;
#X connect 220 0 221 0;
#X connect 222 0 223 0;
#X connect 221 0 224 0;
#X connect 223 0 224 1;
#X connect 224 0 225 0;
#X connect 225 0 226 0;
#X connect 227 0 228 0;
#X connect 229 0 230 0;
#X connect 228 0 231 0;
#X connect 230 0 231 1;
#X connect 231 0 232 0;
#X connect 232 0 233 0;
#X connect 212 0 234 0;
#X connect 219 0 234 1;
#X connect 234 0 235 0;
#X connect 226 0 235 1;
#X connect 235 0 236 0;
#X connect 233 0 236 1;
#X connect 236 0 237 0;
#X connect 205 0 237 1;
#X connect 237 0 238 0;
#X connect 238 0 239 0;
#X connect 239 0 240 0;
#X connect 238 0 241 0;
#X connect 241 0 242 0;
#X connect 244 0 245 0;
#X connect 245 0 246 0;
#X connect 245 1 246 0;
#X connect 246 0 247 0;
#X connect 248 0 249 0;
#X connect 250 0 251 0;
#X connect 249 0 252 0;
#X connect 251 0 252 1;
#X connect 252 0 253 0;
#X connect 253 0 254 0;
#X connect 255 0 256 0;
#X connect 257 0 258 0;
#X connect 256 0 259 0;
#X connect 258 0 259 1;
#X connect 259 0 260 0;
#X connect 260 0 261 0;
#X connect 262 0 263 0;
#X connect 264 0 265 0;
#X connect 263 0 266 0;
#X connect 265 0 266 1;
#X connect 266 0 267 0;
#X connect 267 0 268 0;
#X connect 269 0 270 0;
#X connect 271 0 272 0;
#X connect 270 0 273 0;
#X connect 272 0 273 1;
#X connect 273 0 274 0;
#X connect 274 0 275 0;
#X connect 254 0 276 0;
#X connect 261 0 276 1;
#X connect 276 0 277 0;
#X connect 268 0 277 1;
#X connect 277 0 278 0;
#X connect 275 0 278 1;
#X connect 278 0 279 0;
#X connect 247 0 279 1;
#X connect 279 0 280 0;
#X connect 280 0 281 0;
#X connect 281 0 282 0;
#X connect 280 0 283 0;
#X connect 283 0 284 0;
#X connect 286 0 287 0;
#X connect 287 0 288 0;
#X connect 287 1 288 0;
#X connect 287 2 288 0;
#X connect 287 3 288 0;
#X connect 288 0 289 0;
#X connect 290 0 291 0;
#X connect 292 0 293 0;
#X connect 291 0 294 0;
#X connect 293 0 294 1;
#X connect 294 0 295 0;
#X connect 295 0 296 0;
#X connect 297 0 298 0;
#X connect 299 0 300 0;
#X connect 298 0 301 0;
#X connect 300 0 301 1;
#X connect 301 0 302 0;
#X connect 302 0 303 0;
#X connect 304 0 305 0;
#X connect 306 0 307 0;
#X connect 305 0 308 0;
#X connect 307 0 308 1;
#X connect 308 0 309 0;
#X connect 309 0 310 0;
#X connect 311 0 312 0;
#X connect 313 0 314 0;
#X connect 312 0 315 0;
#X connect 314 0 315 1;
#X connect 315 0 316 0;
#X connect 316 0 317 0;
#X connect 296 0 318 0;
#X connect 303 0 318 1;
#X connect 318 0 319 0;
#X connect 310 0 319 1;
#X connect 319 0 320 0;
#X connect 317 0 320 1;
#X connect 320 0 321 0;
#X connect 289 0 321 1;
#X connect 321 0 322 0;
#X connect 322 0 323 0;
#X connect 323 0 324 0;
#X connect 322 0 325 0;
#X connect 325 0 326 0;
#X connect 328 0 329 0;
#X connect 329 0 338 0;
#X connect 338 0 330 0;
#X connect 329 0 334 0;
#X connect 329 1 339 0;
#X connect 339 0 330 0;
#X connect 329 1 334 0;
#X connect 329 2 340 0;
#X connect 340 0 330 0;
#X connect 329 2 334 0;
#X connect 329 3 341 0;
#X connect 341 0 330 0;
#X connect 329 3 334 0;
#X connect 329 4 342 0;
#X connect 342 0 330 0;
#X connect 329 4 334 0;
#X connect 329 5 343 0;
#X connect 343 0 330 0;
#X connect 329 5 334 0;
#X connect 329 6 344 0;
#X connect 344 0 330 0;
#X connect 329 6 334 0;
#X connect 329 7 345 0;
#X connect 345 0 330 0;
#X connect 329 7 334 0;
#X connect 329 8 346 0;
#X connect 346 0 330 0;
#X connect 329 8 334 0;
#X connect 329 9 347 0;
#X connect 347 0 330 0;
#X connect 329 9 334 0;
#X connect 329 10 348 0;
#X connect 348 0 330 0;
#X connect 329 10 334 0;
#X connect 329 11 349 0;
#X connect 349 0 330 0;
#X connect 329 11 334 0;
#X connect 329 12 350 0;
#X connect 350 0 330 0;
#X connect 329 12 334 0;
#X connect 329 13 351 0;
#X connect 351 0 330 0;
#X connect 329 13 334 0;
#X connect 329 14 352 0;
#X connect 352 0 330 0;
#X connect 329 14 334 0;
#X connect 329 15 353 0;
#X connect 353 0 330 0;
#X connect 329 15 334 0;
#X connect 330 0 331 0;
#X connect 331 0 332 0;
#X connect 332 0 333 0;
#X connect 334 0 335 0;
#X connect 333 0 336 0;
#X connect 335 0 336 1;
#X connect 336 0 337 0;
#X connect 337 0 354 0;
#X connect 354 0 355 0;
#X connect 337 0 356 0;
#X connect 356 0 357 0;
#X connect 359 0 360 0;
#X connect 360 0 361 0;
#X connect 362 0 363 0;
#X connect 363 0 364 0;
#X connect 366 0 367 0;
#X connect 367 0 368 0;
#X connect 368 0 369 0;
#X connect 369 0 370 0;
#X connect 369 0 370 1;
