#N canvas 0 0 1512 916 12;
#X obj 20 52 loadbang;
#X text 20 20 Organized ambient workstation / controls top / audio reactive wave graph;
#X text 20 86 Toggles;
#X obj 20 118 tgl 18 0 audio_on audio_on_r audio_on 0 -8 0 10 #fcfcfc #000000 #000000 0 1;
#X msg 3037 54 1;
#X obj 3127 52 s audio_on;
#X obj 3127 78 s audio_on_r;
#X obj 170 118 tgl 18 0 chord_loop chord_loop_r chord_loop 0 -8 0 10 #fcfcfc #000000 #000000 0 1;
#X msg 3037 86 1;
#X obj 3127 84 s chord_loop;
#X obj 3127 110 s chord_loop_r;
#X obj 320 118 tgl 18 0 chord_on chord_on_r chord_on 0 -8 0 10 #fcfcfc #000000 #000000 0 1;
#X msg 3037 118 1;
#X obj 3127 116 s chord_on;
#X obj 3127 142 s chord_on_r;
#X obj 470 118 tgl 18 0 pad_on pad_on_r pad_on 0 -8 0 10 #fcfcfc #000000 #000000 0 1;
#X msg 3037 150 1;
#X obj 3127 148 s pad_on;
#X obj 3127 174 s pad_on_r;
#X obj 620 118 tgl 18 0 texture_on texture_on_r texture_on 0 -8 0 10 #fcfcfc #000000 #000000 0 1;
#X msg 3037 182 1;
#X obj 3127 180 s texture_on;
#X obj 3127 206 s texture_on_r;
#X obj 770 118 tgl 18 0 remix_play remix_play_r remix_play 0 -8 0 10 #fcfcfc #000000 #000000 0 1;
#X msg 3037 246 0;
#X obj 3127 244 s remix_play;
#X obj 3127 270 s remix_play_r;
#X obj 1120 118 tgl 18 0 fx_on fx_on_r fx_on 0 -8 0 10 #fcfcfc #000000 #000000 0 1;
#X msg 3037 310 1;
#X obj 3127 308 s fx_on;
#X obj 3127 334 s fx_on_r;
#X text 20 176 Sliders;
#X obj 23 210 hsl 180 15 0 1.8 0 0 master_vol master_vol_r master_vol 0 -8 0 10 #fcfcfc #000000 #000000 0 1;
#X msg 3037 364 0.96;
#X obj 3127 362 s master_vol;
#X obj 3127 388 s master_vol_r;
#X obj 20 255 hsl 180 15 0 0.8 0 0 fx_vol fx_vol_r fx_vol 0 -8 0 10 #fcfcfc #000000 #000000 0 1;
#X msg 3037 396 0.34;
#X obj 3127 394 s fx_vol;
#X obj 3127 420 s fx_vol_r;
#X obj 20 300 hsl 180 15 250 6200 0 0 delay_time delay_time_r delay_time 0 -8 0 10 #fcfcfc #000000 #000000 0 1;
#X msg 3037 428 2600;
#X obj 3127 426 s delay_time;
#X obj 3127 452 s delay_time_r;
#X obj 270 210 hsl 180 15 0 0.58 0 0 chord_vol chord_vol_r chord_vol 0 -8 0 10 #fcfcfc #000000 #000000 0 1;
#X msg 3037 460 0.24;
#X obj 3127 458 s chord_vol;
#X obj 3127 484 s chord_vol_r;
#X obj 270 255 hsl 180 15 2 24 0 0 chord_speed chord_speed_r loop_speed_sec 0 -8 0 10 #fcfcfc #000000 #000000 0 1;
#X msg 3037 492 8;
#X obj 3127 490 s chord_speed;
#X obj 3127 516 s chord_speed_r;
#X obj 270 300 hsl 180 15 0 1 0 0 chord_brightness chord_brightness_r chord_bright 0 -8 0 10 #fcfcfc #000000 #000000 0 1;
#X msg 3037 524 0.44;
#X obj 3127 522 s chord_brightness;
#X obj 3127 548 s chord_brightness_r;
#X obj 520 210 hsl 180 15 0 0.55 0 0 pad_vol pad_vol_r flute_vol 0 -8 0 10 #fcfcfc #000000 #000000 0 1;
#X msg 3037 556 0.24;
#X obj 3127 554 s pad_vol;
#X obj 3127 580 s pad_vol_r;
#X obj 520 255 hsl 180 15 3000 8000 0 0 pad_release pad_release_r flute_release_ms 0 -8 0 10 #fcfcfc #000000 #000000 0 1;
#X msg 3037 588 6400;
#X obj 3127 586 s pad_release;
#X obj 3127 612 s pad_release_r;
#X obj 520 300 hsl 180 15 3000 6000 0 0 pad_filter pad_filter_r flute_lop_hz 0 -8 0 10 #fcfcfc #000000 #000000 0 1;
#X msg 3037 620 4200;
#X obj 3127 618 s pad_filter;
#X obj 3127 644 s pad_filter_r;
#X obj 520 345 hsl 180 15 0.985 1.015 0 0 pad_detune pad_detune_r flute_fine_pitch 0 -8 0 10 #fcfcfc #000000 #000000 0 1;
#X msg 3037 652 1;
#X obj 3127 650 s pad_detune;
#X obj 3127 676 s pad_detune_r;
#X obj 989 210 hsl 180 15 0 0.32 0 0 texture_vol texture_vol_r texture_vol 0 -8 0 10 #fcfcfc #000000 #000000 0 1;
#X msg 3037 684 0.09;
#X obj 3127 682 s texture_vol;
#X obj 3127 708 s texture_vol_r;
#X obj 989 255 hsl 180 15 40 520 0 0 texture_speed texture_speed_r texture_rate_ms 0 -8 0 10 #fcfcfc #000000 #000000 0 1;
#X msg 3037 716 135;
#X obj 3127 714 s texture_speed;
#X obj 3127 740 s texture_speed_r;
#X obj 989 300 hsl 180 15 0 100 0 0 crackle_chance crackle_chance_r crackle_chance 0 -8 0 10 #fcfcfc #000000 #000000 0 1;
#X msg 3037 748 5;
#X obj 3127 746 s crackle_chance;
#X obj 3127 772 s crackle_chance_r;
#X obj 20 720 r audio_on;
#X msg 120 720 \; pd dsp \$1;
#X text 20 395 Ambient Pad Grid: upper rows flute / lower rows piano;
#X text 160 425 root;
#X text 212 425 color;
#X text 264 425 fifth;
#X text 316 425 seventh;
#X text 368 425 ninth;
#X obj 3127 835 s pad_note;
#X text 20 461 Cmaj9;
#X obj 160 455 bng 26 250 50 0 pad_0_0 empty 1 5 -8 0 10 #fcfcfc #000000 #000000;
#X obj 2866 806 r pad_0_0;
#X msg 2956 806 60;
#X obj 212 455 bng 26 250 50 0 pad_0_1 empty 2 5 -8 0 10 #fcfcfc #000000 #000000;
#X obj 2866 830 r pad_0_1;
#X msg 2956 830 64;
#X obj 264 455 bng 26 250 50 0 pad_0_2 empty 3 5 -8 0 10 #fcfcfc #000000 #000000;
#X obj 2866 854 r pad_0_2;
#X msg 2956 854 67;
#X obj 316 455 bng 26 250 50 0 pad_0_3 empty 4 5 -8 0 10 #fcfcfc #000000 #000000;
#X obj 2866 878 r pad_0_3;
#X msg 2956 878 71;
#X obj 368 455 bng 26 250 50 0 pad_0_4 empty 5 5 -8 0 10 #fcfcfc #000000 #000000;
#X obj 2866 902 r pad_0_4;
#X msg 2956 902 74;
#X text 20 509 Dsus2add9;
#X obj 160 503 bng 26 250 50 0 pad_1_0 empty 1 5 -8 0 10 #fcfcfc #000000 #000000;
#X obj 2866 926 r pad_1_0;
#X msg 2956 926 62;
#X obj 212 503 bng 26 250 50 0 pad_1_1 empty 2 5 -8 0 10 #fcfcfc #000000 #000000;
#X obj 2866 950 r pad_1_1;
#X msg 2956 950 69;
#X obj 264 503 bng 26 250 50 0 pad_1_2 empty 3 5 -8 0 10 #fcfcfc #000000 #000000;
#X obj 2866 974 r pad_1_2;
#X msg 2956 974 74;
#X obj 316 503 bng 26 250 50 0 pad_1_3 empty 4 5 -8 0 10 #fcfcfc #000000 #000000;
#X obj 2866 998 r pad_1_3;
#X msg 2956 998 76;
#X obj 368 503 bng 26 250 50 0 pad_1_4 empty 5 5 -8 0 10 #fcfcfc #000000 #000000;
#X obj 2866 1022 r pad_1_4;
#X msg 2956 1022 81;
#X text 20 557 Am9;
#X obj 160 551 bng 26 250 50 0 pad_2_0 empty 1 5 -8 0 10 #fcfcfc #000000 #000000;
#X obj 2866 1046 r pad_2_0;
#X msg 2956 1046 57;
#X obj 212 551 bng 26 250 50 0 pad_2_1 empty 2 5 -8 0 10 #fcfcfc #000000 #000000;
#X obj 2866 1070 r pad_2_1;
#X msg 2956 1070 64;
#X obj 264 551 bng 26 250 50 0 pad_2_2 empty 3 5 -8 0 10 #fcfcfc #000000 #000000;
#X obj 2866 1094 r pad_2_2;
#X msg 2956 1094 67;
#X obj 316 551 bng 26 250 50 0 pad_2_3 empty 4 5 -8 0 10 #fcfcfc #000000 #000000;
#X obj 2866 1118 r pad_2_3;
#X msg 2956 1118 71;
#X obj 368 551 bng 26 250 50 0 pad_2_4 empty 5 5 -8 0 10 #fcfcfc #000000 #000000;
#X obj 2866 1142 r pad_2_4;
#X msg 2956 1142 76;
#X text 20 605 Fmaj7add9;
#X obj 160 599 bng 26 250 50 0 pad_3_0 empty 1 5 -8 0 10 #fcfcfc #000000 #000000;
#X obj 2866 1166 r pad_3_0;
#X msg 2956 1166 65;
#X obj 212 599 bng 26 250 50 0 pad_3_1 empty 2 5 -8 0 10 #fcfcfc #000000 #000000;
#X obj 2866 1190 r pad_3_1;
#X msg 2956 1190 69;
#X obj 264 599 bng 26 250 50 0 pad_3_2 empty 3 5 -8 0 10 #fcfcfc #000000 #000000;
#X obj 2866 1214 r pad_3_2;
#X msg 2956 1214 72;
#X obj 316 599 bng 26 250 50 0 pad_3_3 empty 4 5 -8 0 10 #fcfcfc #000000 #000000;
#X obj 2866 1238 r pad_3_3;
#X msg 2956 1238 76;
#X obj 368 599 bng 26 250 50 0 pad_3_4 empty 5 5 -8 0 10 #fcfcfc #000000 #000000;
#X obj 2866 1262 r pad_3_4;
#X msg 2956 1262 79;
#X text 20 653 Gsus2add9;
#X obj 160 647 bng 26 250 50 0 pad_4_0 empty 1 5 -8 0 10 #fcfcfc #000000 #000000;
#X obj 2866 1286 r pad_4_0;
#X msg 2956 1286 55;
#X obj 212 647 bng 26 250 50 0 pad_4_1 empty 2 5 -8 0 10 #fcfcfc #000000 #000000;
#X obj 2866 1310 r pad_4_1;
#X msg 2956 1310 62;
#X obj 264 647 bng 26 250 50 0 pad_4_2 empty 3 5 -8 0 10 #fcfcfc #000000 #000000;
#X obj 2866 1334 r pad_4_2;
#X msg 2956 1334 69;
#X obj 316 647 bng 26 250 50 0 pad_4_3 empty 4 5 -8 0 10 #fcfcfc #000000 #000000;
#X obj 2866 1358 r pad_4_3;
#X msg 2956 1358 74;
#X obj 368 647 bng 26 250 50 0 pad_4_4 empty 5 5 -8 0 10 #fcfcfc #000000 #000000;
#X obj 2866 1382 r pad_4_4;
#X msg 2956 1382 76;
#X text 20 701 Em9;
#X obj 160 695 bng 26 250 50 0 pad_5_0 empty 1 5 -8 0 10 #fcfcfc #000000 #000000;
#X obj 2866 1406 r pad_5_0;
#X msg 2956 1406 52;
#X obj 212 695 bng 26 250 50 0 pad_5_1 empty 2 5 -8 0 10 #fcfcfc #000000 #000000;
#X obj 2866 1430 r pad_5_1;
#X msg 2956 1430 59;
#X obj 264 695 bng 26 250 50 0 pad_5_2 empty 3 5 -8 0 10 #fcfcfc #000000 #000000;
#X obj 2866 1454 r pad_5_2;
#X msg 2956 1454 62;
#X obj 316 695 bng 26 250 50 0 pad_5_3 empty 4 5 -8 0 10 #fcfcfc #000000 #000000;
#X obj 2866 1478 r pad_5_3;
#X msg 2956 1478 67;
#X obj 368 695 bng 26 250 50 0 pad_5_4 empty 5 5 -8 0 10 #fcfcfc #000000 #000000;
#X obj 2866 1502 r pad_5_4;
#X msg 2956 1502 74;
#X text 20 790 Code Loop: maj7 add9 sus2 m9 sequence;
#X obj 20 830 r chord_loop;
#X obj 150 830 r chord_speed;
#X obj 280 830 * 1000;
#X obj 400 830 metro 8000;
#X obj 520 830 f 0;
#X obj 620 830 + 1;
#X obj 720 830 mod 6;
#X obj 840 830 sel 0 1 2 3 4 5;
#X obj 1220 900 t l b;
#X obj 1360 880 s chord_notes;
#X obj 1360 920 s chord_bang;
#X text 940 812 Cmaj9;
#X msg 1040 810 60 64 67 71 74;
#X text 940 848 Dsus2add9;
#X msg 1040 846 62 69 74 76 81;
#X text 940 884 Am9;
#X msg 1040 882 57 64 67 71 76;
#X text 940 920 Fmaj7add9;
#X msg 1040 918 65 69 72 76 79;
#X text 940 956 Gsus2add9;
#X msg 1040 954 55 62 69 74 76;
#X text 940 992 Em9;
#X msg 1040 990 52 59 62 67 74;
#X obj 20 1000 r chord_notes;
#X obj 140 1000 unpack f f f f f;
#X obj 20 1045 r chord_bang;
#X msg 140 1045 0 \, 0.28 80 \, 0.08 2200 120 \, 0 6500 2200;
#X obj 430 1045 vline~;
#X obj 20 1110 mtof;
#X obj 100 1110 pack f 160;
#X obj 210 1110 line~;
#X obj 320 1110 osc~;
#X obj 420 1110 *~ 0.22;
#X obj 280 1110 mtof;
#X obj 360 1110 pack f 160;
#X obj 470 1110 line~;
#X obj 580 1110 osc~;
#X obj 680 1110 *~ 0.2;
#X obj 540 1110 mtof;
#X obj 620 1110 pack f 160;
#X obj 730 1110 line~;
#X obj 840 1110 osc~;
#X obj 940 1110 *~ 0.17;
#X obj 800 1110 mtof;
#X obj 880 1110 pack f 160;
#X obj 990 1110 line~;
#X obj 1100 1110 osc~;
#X obj 1200 1110 *~ 0.14;
#X obj 1060 1110 mtof;
#X obj 1140 1110 pack f 160;
#X obj 1250 1110 line~;
#X obj 1360 1110 osc~;
#X obj 1460 1110 *~ 0.12;
#X obj 80 1190 +~;
#X obj 220 1190 +~;
#X obj 360 1190 +~;
#X obj 500 1190 +~;
#X obj 650 1190 *~;
#X obj 820 1110 r chord_brightness;
#X obj 950 1110 * 5600;
#X obj 1060 1110 + 500;
#X obj 1160 1110 pack f 700;
#X obj 1280 1110 line;
#X obj 820 1190 lop~ 2400;
#X obj 970 1190 r chord_vol;
#X obj 1080 1190 pack f 900;
#X obj 1200 1190 line~;
#X obj 1337 1190 *~;
#X obj 1480 1180 throw~ chordL;
#X obj 1480 1220 throw~ chordR;
#X text 20 1290 Legacy sine pad muted / celesta engine below;
#X obj 20 1330 r pad_note;
#X obj 140 1330 t f b;
#X obj 20 1380 mtof;
#X obj 120 1380 t f f;
#X obj 20 1430 pack f 140;
#X obj 140 1430 line~;
#X obj 260 1430 osc~;
#X obj 420 1330 r pad_detune;
#X obj 540 1330 * 0.0005776;
#X obj 670 1330 + 1;
#X obj 420 1380 *;
#X obj 420 1430 pack f 140;
#X obj 540 1430 line~;
#X obj 660 1430 osc~;
#X obj 820 1430 +~;
#X obj 820 1470 *~ 0.5;
#X obj 980 1330 r pad_release;
#X obj 1100 1330 f 4200;
#X msg 1100 1380 0 \, 0.42 90 \, 0.24 1600 90 \, 0 \$1 1700;
#X obj 1360 1380 vline~;
#X obj 980 1470 *~;
#X obj 20 1515 r pad_filter;
#X obj 140 1515 pack f 700;
#X obj 260 1515 line;
#X obj 980 1515 lop~ 3200;
#X obj 1160 1515 r pad_vol;
#X obj 1260 1515 pack f 700;
#X obj 1380 1515 line~;
#X obj 1160 1565 *~;
#X obj 1320 1555 *~ 0;
#X obj 1320 1595 *~ 0;
#X text 20 1670 Texture Layer: filtered noise and sparse crackle;
#X obj 20 1710 noise~;
#X obj 120 1710 lop~ 1200;
#X obj 230 1710 hip~ 80;
#X obj 340 1710 *~ 0.08;
#X obj 20 1760 noise~;
#X obj 120 1760 hip~ 7200;
#X obj 230 1760 *~ 0.018;
#X obj 20 1820 r audio_on;
#X obj 140 1820 r texture_speed;
#X obj 280 1820 metro 135;
#X obj 400 1820 random 100;
#X obj 520 1820 moses 5;
#X obj 520 1780 r crackle_chance;
#X msg 640 1820 0 \, 0.36 2 \, 0 28 3;
#X obj 820 1820 vline~;
#X obj 640 1870 noise~;
#X obj 740 1870 hip~ 5500;
#X obj 840 1870 *~;
#X obj 980 1750 +~;
#X obj 1120 1750 +~;
#X obj 1260 1750 r texture_vol;
#X obj 1380 1750 pack f 1600;
#X obj 1510 1750 line~;
#X obj 1260 1810 *~;
#X obj 1420 1800 throw~ textureL;
#X obj 1420 1840 throw~ textureR;
#X text 27 2015 Layer Mixer: instrument toggles;
#X obj 27 2055 r chord_on;
#X obj 27 2095 pack f 300;
#X obj 27 2135 line~;
#X obj 147 2055 catch~ chordL;
#X obj 147 2095 catch~ chordR;
#X obj 307 2055 *~;
#X obj 307 2095 *~;
#X obj 437 2055 throw~ mixL;
#X obj 437 2095 throw~ mixR;
#X obj 457 2055 r pad_on;
#X obj 457 2095 pack f 300;
#X obj 457 2135 line~;
#X obj 577 2055 catch~ padL;
#X obj 577 2095 catch~ padR;
#X obj 737 2055 *~;
#X obj 737 2095 *~;
#X obj 867 2055 throw~ mixL;
#X obj 867 2095 throw~ mixR;
#X obj 887 2055 r texture_on;
#X obj 887 2095 pack f 300;
#X obj 887 2135 line~;
#X obj 1007 2055 catch~ textureL;
#X obj 1007 2095 catch~ textureR;
#X obj 1167 2055 *~;
#X obj 1167 2095 *~;
#X obj 1297 2055 throw~ mixL;
#X obj 1297 2095 throw~ mixR;
#X obj 1317 2055 r remix_play;
#X obj 1317 2095 pack f 300;
#X obj 1317 2135 line~;
#X obj 1437 2055 catch~ remixL;
#X obj 1437 2095 catch~ remixR;
#X obj 1597 2055 *~;
#X obj 1597 2095 *~;
#X obj 1727 2055 throw~ mixL;
#X obj 1727 2095 throw~ mixR;
#X text 20 2363 FX and Safe Master Output;
#X obj 20 2403 catch~ mixL;
#X obj 20 2453 catch~ mixR;
#X obj 160 2403 lop~ 4200;
#X obj 160 2453 lop~ 4200;
#X obj 320 2403 delwrite~ main_fxL 12000;
#X obj 320 2453 delwrite~ main_fxR 12000;
#X obj 20 2523 r delay_time;
#X obj 140 2523 pack f 1200;
#X obj 260 2523 line~;
#X obj 440 2523 vd~ main_fxL;
#X obj 440 2573 vd~ main_fxR;
#X obj 620 2523 r fx_vol;
#X obj 740 2523 pack f 900;
#X obj 860 2523 line~;
#X obj 620 2573 r fx_on;
#X obj 740 2573 pack f 300;
#X obj 860 2573 line~;
#X obj 1020 2523 *~;
#X obj 1020 2573 *~;
#X obj 1160 2523 *~;
#X obj 1160 2573 *~;
#X obj 1300 2403 +~;
#X obj 1300 2453 +~;
#X obj 1440 2403 clip~ -0.9 0.9;
#X obj 1440 2453 clip~ -0.9 0.9;
#X obj 1440 2523 r master_vol;
#X obj 1560 2523 pack f 400;
#X obj 1680 2523 line~;
#X obj 1580 2403 *~;
#X obj 1580 2453 *~;
#X obj 1720 2428 dac~;
#X text 40 2808 Soft glockenspiel / music box / warm celesta engine;
#X obj 40 2848 r pad_note;
#X obj 160 2848 t b b f;
#X obj 40 2898 mtof;
#X obj 140 2898 t f f f f f;
#X obj 40 2948 pack f 60;
#X obj 160 2948 line~;
#X obj 280 2948 osc~;
#X obj 400 2948 *~ 0.42;
#X obj 540 2898 * 2.01;
#X obj 540 2948 pack f 60;
#X obj 660 2948 line~;
#X obj 780 2948 osc~;
#X obj 900 2948 *~ 0.24;
#X obj 1040 2898 * 3.02;
#X obj 1040 2948 pack f 60;
#X obj 1160 2948 line~;
#X obj 1280 2948 osc~;
#X obj 1400 2948 *~ 0.14;
#X obj 40 3028 * 4.18;
#X obj 40 3078 pack f 60;
#X obj 160 3078 line~;
#X obj 280 3078 osc~;
#X obj 400 3078 *~ 0.08;
#X obj 540 3028 r pad_detune;
#X obj 660 3028 * 0.0005776;
#X obj 780 3028 + 1;
#X obj 900 3028 *;
#X obj 900 3078 pack f 60;
#X obj 1020 3078 line~;
#X obj 1140 3078 osc~;
#X obj 1260 3078 *~ 0.1;
#X obj 540 3158 +~;
#X obj 680 3158 +~;
#X obj 820 3158 +~;
#X obj 960 3158 +~;
#X obj 40 3218 r pad_release;
#X obj 160 3218 f 5600;
#X msg 280 3218 0 \, 1 5 \, 0.34 360 5 \, 0.12 1800 360 \, 0 \$1 2100;
#X obj 640 3218 vline~;
#X obj 960 3218 *~;
#X obj 40 3288 noise~;
#X msg 160 3288 0 \, 0.1 2 \, 0 60 3;
#X obj 380 3288 vline~;
#X obj 40 3338 hip~ 4200;
#X obj 160 3338 lop~ 9000;
#X obj 280 3338 *~;
#X obj 400 3338 *~ 0.012;
#X obj 960 3288 +~;
#X obj 40 3418 r pad_filter;
#X obj 160 3418 pack f 500;
#X obj 280 3418 line;
#X obj 960 3418 lop~ 3200;
#X obj 40 3488 r pad_vol;
#X obj 160 3488 pack f 500;
#X obj 280 3488 line~;
#X obj 960 3488 *~;
#X obj 2216 2193 sel 1 0;
#X msg 2716 2243 0 \, destroy;
#X text 31 3828 Enhanced pad life: pitch velocity randomization / sparse hits / xylophone tabplay / pan and pad delay;
#X obj 31 3868 t f b;
#X obj 171 3868 random 9;
#X obj 291 3868 - 4;
#X obj 411 3868 * 0.012;
#X obj 531 3868 +;
#X obj 31 3928 random 35;
#X obj 171 3928 + 65;
#X obj 291 3928 / 100;
#X obj 411 3928 pack f 35;
#X obj 531 3928 line~;
#X obj 671 3928 *~;
#X obj 31 4008 table xylo_hit 88200;
#X msg 271 4008 read -resize samples/tonejs-piano/xylophone/C6.wav xylo_hit;
#X obj 771 4008 soundfiler;
#X obj 31 4068 tabplay~ xylo_hit;
#X obj 191 4068 *~ 0.08;
#X obj 371 4068 +~;
#X obj 531 4068 hip~ 650;
#X obj 691 4068 lop~ 7200;
#X obj 31 4148 osc~ 0.018;
#X obj 191 4148 *~ 0.22;
#X obj 351 4148 sig~ 0.62;
#X obj 511 4148 sig~ 0.62;
#X obj 351 4198 -~;
#X obj 511 4198 +~;
#X obj 691 4148 *~;
#X obj 691 4198 *~;
#X obj 891 4148 delwrite~ pad_spaceL 9000;
#X obj 891 4198 delwrite~ pad_spaceR 9000;
#X obj 1091 4148 vd~ pad_spaceL;
#X obj 1091 4198 vd~ pad_spaceR;
#X obj 1091 4088 sig~ 1450;
#X obj 1251 4148 *~ 0.34;
#X obj 1251 4198 *~ 0.34;
#X obj 1431 4148 +~;
#X obj 1431 4198 +~;
#X obj 1591 4148 throw~ padL;
#X obj 1591 4198 throw~ padR;
#X obj 51 4423 rev3~ 100 92 5200 35;
#X obj 291 4423 *~ 0.32;
#X obj 291 4473 *~ 0.32;
#X obj 471 4423 throw~ padL;
#X obj 471 4473 throw~ padR;
#X text 51 4691 Ambient flute sample pad: immediate attack / long release / dark filters / delay and reverb tail;
#X obj 51 4731 loadbang;
#X msg 191 4731 read -resize samples/tonejs-piano/flute/C5.wav flute_pad;
#X obj 731 4731 soundfiler;
#X obj 51 4771 table flute_pad 335000;
#X obj 51 4831 r pad_note;
#X obj 191 4831 t f b b;
#X obj 351 4791 r pad_detune;
#X obj 351 4831 f 1;
#X obj 511 4831 random 21;
#X obj 651 4831 - 10;
#X obj 771 4831 * 0;
#X obj 891 4831 + 1;
#X obj 1051 4831 pack f f f;
#X obj 1251 4831 expr pow(2 \, (($f1 - 72) / 12.0)) * $f2 * $f3;
#X obj 1531 4831 expr 7593 / $f1;
#X msg 1731 4831 0 \, 334860 \$1;
#X obj 1931 4831 vline~;
#X obj 2131 4831 tabread4~ flute_pad;
#X obj 51 4931 r pad_note;
#X obj 191 4931 t b b;
#X obj 351 4891 r pad_release;
#X obj 351 4931 clip 3000 8000;
#X obj 531 4931 f 6400;
#X obj 691 4931 random 31;
#X obj 851 4931 + 15;
#X obj 1011 4931 pack f f;
#X msg 1171 4931 0 \, 1 \$1 \, 0 \$2 \$1;
#X obj 1431 4931 vline~;
#X obj 51 5031 hip~ 220;
#X obj 211 5031 lop~ 4200;
#X obj 211 4991 r pad_filter;
#X obj 371 4991 pack f 80;
#X obj 531 4991 line;
#X obj 391 5031 *~;
#X obj 551 5031 *~ 0.2;
#X obj 711 4991 r pad_note;
#X obj 711 5031 random 41;
#X obj 851 5031 + 60;
#X obj 971 5031 / 100;
#X obj 1091 5031 pack f 35;
#X obj 1231 5031 line~;
#X obj 1391 5031 *~;
#X obj 1551 4991 r pad_vol;
#X obj 1551 5031 pack f 40;
#X obj 1691 5031 line~;
#X obj 1851 5031 *~;
#X obj 51 5131 r pad_note;
#X obj 191 5131 random 61;
#X obj 331 5131 + 20;
#X obj 451 5131 / 100;
#X obj 591 5131 t f f;
#X obj 731 5131 expr 1 - $f1;
#X obj 891 5131 pack f 80;
#X obj 1051 5131 line~;
#X obj 1211 5131 pack f 80;
#X obj 1371 5131 line~;
#X obj 1531 5131 *~;
#X obj 1691 5131 *~;
#X obj 51 5231 delwrite~ flute_delayL 12000;
#X obj 51 5281 delwrite~ flute_delayR 12000;
#X obj 291 5191 line~;
#X obj 291 5231 vd~ flute_delayL;
#X obj 291 5281 vd~ flute_delayR;
#X obj 491 5231 *~ 0.48;
#X obj 491 5281 *~ 0.48;
#X obj 691 5231 rev3~ 100 96 6200 55;
#X obj 931 5231 *~ 0.82;
#X obj 931 5281 *~ 0.82;
#X obj 1131 5231 *~ 0.08;
#X obj 1131 5281 *~ 0.08;
#X obj 1331 5231 +~;
#X obj 1331 5281 +~;
#X obj 1511 5231 +~;
#X obj 1511 5281 +~;
#X obj 1691 5231 throw~ padL;
#X obj 1691 5281 throw~ padR;
#X obj 851 4991 t b;
#X obj 191 5091 t b;
#X obj 551 4691 r audio_on;
#X obj 691 4691 sel 1;
#X obj 3127 867 s piano_pad_note;
#N canvas 100 100 2200 1050 ambient_piano_lower_pad 0;
#X text 20 20 Ambient piano lower pad: Fmaj7add9 / Gsus2add9 / Em9 grid rows;
#X obj 20 60 loadbang;
#X msg 160 60 read -resize samples/tonejs-piano/piano/C5.wav lower_piano_pad;
#X obj 700 60 soundfiler;
#X obj 20 105 table lower_piano_pad 323000;
#X obj 20 150 r audio_on;
#X obj 160 150 sel 1;
#X obj 20 220 r piano_pad_note;
#X obj 160 220 t f b b;
#X obj 20 290 expr pow(2 \, (($f1 - 72) / 12.0)) * $f2;
#X obj 20 340 expr 7320 / $f1;
#X msg 20 390 0 \, 322830 \$1;
#X obj 20 440 vline~;
#X obj 20 490 tabread4~ lower_piano_pad;
#X obj 20 540 hip~ 80;
#X obj 20 590 lop~ 4200;
#X obj 260 540 r piano_filter;
#X obj 260 590 pack f 90;
#X obj 380 590 line;
#X obj 520 240 r piano_release;
#X obj 520 290 clip 3500 9000;
#X obj 520 340 f 6800;
#X msg 520 390 0 \, 1 70 \, 0.34 1500 90 \, 0 \$1 1700;
#X obj 520 440 vline~;
#X obj 220 650 *~;
#X obj 220 700 *~ 0.46;
#X obj 520 650 r piano_vol;
#X obj 520 700 pack f 90;
#X obj 640 700 line~;
#X obj 420 760 *~;
#X obj 820 240 random 51;
#X obj 820 290 + 25;
#X obj 820 340 / 100;
#X obj 820 390 t f f;
#X obj 980 390 expr 1 - $f1;
#X obj 980 440 pack f 120;
#X obj 1100 440 line~;
#X obj 820 440 pack f 120;
#X obj 940 440 line~;
#X obj 420 830 *~;
#X obj 620 830 *~;
#X obj 20 900 delwrite~ lower_piano_delayL 12000;
#X obj 20 950 delwrite~ lower_piano_delayR 12000;
#X obj 260 860 line~;
#X obj 420 860 line~;
#X obj 260 900 vd~ lower_piano_delayL;
#X obj 420 950 vd~ lower_piano_delayR;
#X obj 620 900 *~ 0.38;
#X obj 620 950 *~ 0.38;
#X obj 820 900 rev3~ 100 94 6800 45;
#X obj 1060 900 *~ 0.66;
#X obj 1060 950 *~ 0.66;
#X obj 1240 900 *~ 0.12;
#X obj 1240 950 *~ 0.12;
#X obj 1420 900 +~;
#X obj 1420 950 +~;
#X obj 1600 900 +~;
#X obj 1600 950 +~;
#X obj 1780 900 throw~ padL;
#X obj 1780 950 throw~ padR;
#X obj 1180 240 r piano_detune;
#X obj 1180 290 r piano_delay;
#X obj 1180 340 t f f;
#X obj 1180 390 pack f 180;
#X obj 1360 390 + 1300;
#X obj 1360 440 pack f 180;
#X text 1420 480 piano_amp amp meter for TouchDesigner OSC;
#X obj 1420 520 +~;
#X obj 1420 560 *~ 0.5;
#X obj 1420 600 env~ 1024;
#X obj 1420 640 - 45;
#X obj 1420 680 / 45;
#X obj 1420 720 clip 0 1;
#X obj 1420 760 * 1;
#X obj 1530 760 r pad_on;
#X obj 1420 800 pack f 100;
#X obj 1420 840 line;
#X obj 1420 880 s piano_amp;
#X connect 1 0 2 0;
#X connect 2 0 3 0;
#X connect 5 0 6 0;
#X connect 6 0 2 0;
#X connect 7 0 8 0;
#X connect 8 0 9 0;
#X connect 8 1 21 0;
#X connect 8 2 30 0;
#X connect 9 0 10 0;
#X connect 10 0 11 0;
#X connect 11 0 12 0;
#X connect 12 0 13 0;
#X connect 13 0 14 0;
#X connect 14 0 15 0;
#X connect 15 0 24 0;
#X connect 16 0 17 0;
#X connect 17 0 18 0;
#X connect 18 0 15 1;
#X connect 19 0 20 0;
#X connect 20 0 21 1;
#X connect 21 0 22 0;
#X connect 22 0 23 0;
#X connect 23 0 24 1;
#X connect 24 0 25 0;
#X connect 25 0 29 0;
#X connect 26 0 27 0;
#X connect 27 0 28 0;
#X connect 28 0 29 1;
#X connect 29 0 39 0;
#X connect 29 0 40 0;
#X connect 30 0 31 0;
#X connect 31 0 32 0;
#X connect 32 0 33 0;
#X connect 33 0 34 0;
#X connect 33 1 37 0;
#X connect 34 0 35 0;
#X connect 35 0 36 0;
#X connect 36 0 39 1;
#X connect 37 0 38 0;
#X connect 38 0 40 1;
#X connect 39 0 41 0;
#X connect 39 0 49 0;
#X connect 39 0 52 0;
#X connect 40 0 42 0;
#X connect 40 0 49 1;
#X connect 40 0 53 0;
#X connect 43 0 45 0;
#X connect 44 0 46 0;
#X connect 45 0 47 0;
#X connect 46 0 48 0;
#X connect 47 0 54 1;
#X connect 48 0 55 1;
#X connect 49 0 50 0;
#X connect 49 1 51 0;
#X connect 50 0 54 0;
#X connect 51 0 55 0;
#X connect 52 0 56 1;
#X connect 53 0 57 1;
#X connect 54 0 56 0;
#X connect 55 0 57 0;
#X connect 56 0 67 0;
#X connect 56 0 58 0;
#X connect 57 0 67 1;
#X connect 57 0 59 0;
#X connect 60 0 9 1;
#X connect 61 0 62 0;
#X connect 62 0 63 0;
#X connect 62 1 64 0;
#X connect 63 0 43 0;
#X connect 64 0 65 0;
#X connect 65 0 44 0;
#X connect 67 0 68 0;
#X connect 68 0 69 0;
#X connect 69 0 70 0;
#X connect 70 0 71 0;
#X connect 71 0 72 0;
#X connect 72 0 73 0;
#X connect 73 0 75 0;
#X connect 74 0 73 1;
#X connect 75 0 76 0;
#X connect 76 0 77 0;
#X restore 51 5366 pd ambient_piano_lower_pad;
#X obj 756 210 hsl 180 15 0 0.65 0 0 piano_vol piano_vol_r piano_vol 0 -8 0 10 #fcfcfc #000000 #000000 0 1;
#X msg 3055 1244 0.24;
#X obj 3145 1242 s piano_vol;
#X obj 3145 1268 s piano_vol_r;
#X obj 756 255 hsl 180 15 3000 9000 0 0 piano_release piano_release_r piano_release_ms 0 -8 0 10 #fcfcfc #000000 #000000 0 1;
#X msg 3055 1276 6800;
#X obj 3145 1274 s piano_release;
#X obj 3145 1300 s piano_release_r;
#X obj 756 300 hsl 180 15 2500 6500 0 0 piano_filter piano_filter_r piano_lop_hz 0 -8 0 10 #fcfcfc #000000 #000000 0 1;
#X msg 3055 1308 4200;
#X obj 3145 1306 s piano_filter;
#X obj 3145 1332 s piano_filter_r;
#X obj 756 345 hsl 180 15 0.985 1.015 0 0 piano_detune piano_detune_r piano_fine_pitch 0 -8 0 10 #fcfcfc #000000 #000000 0 1;
#X msg 1550 1190 1;
#X obj 3145 1338 s piano_detune;
#X obj 3145 1364 s piano_detune_r;
#X obj 51 5423 r delay_time;
#X obj 191 5423 - 250;
#X obj 331 5423 / 5950;
#X obj 471 5423 clip 0 1;
#X obj 611 5423 * 0.11;
#X obj 751 5423 + 0.045;
#X obj 51 5473 r delay_time;
#X obj 191 5473 - 250;
#X obj 331 5473 / 5950;
#X obj 471 5473 clip 0 1;
#X obj 611 5473 * 0.18;
#X obj 751 5473 + 0.06;
#X obj 2051 2302 delay 150;
#X msg 2191 2302 1;
#X msg 2331 2302 stop;
#X obj 520 390 hsl 180 15 500 9000 0 0 flute_delay flute_delay_r flute_delay_ms 0 -8 0 10 #fcfcfc #000000 #000000 0 1;
#X msg 3055 1372 4300;
#X obj 3145 1370 s flute_delay;
#X obj 3145 1396 s flute_delay_r;
#X obj 756 390 hsl 180 15 500 9000 0 0 piano_delay piano_delay_r piano_delay_ms 0 -8 0 10 #fcfcfc #000000 #000000 0 1;
#X msg 3055 1404 3600;
#X obj 3145 1402 s piano_delay;
#X obj 3145 1428 s piano_delay_r;
#X text 1231 159 Remix Samples: four fixed WAV layers;
#X text 1231 175 rs1 kids_teacher;
#X obj 1234 210 hsl 180 15 0 0.7 0 0 rs1_master rs1_master_r rs1_master 0 -8 0 10 #fcfcfc #000000 #000000 0 1;
#X obj 1234 255 hsl 180 15 250 9000 0 0 rs1_delay rs1_delay_r rs1_delay_ms 0 -8 0 10 #fcfcfc #000000 #000000 0 1;
#X obj 1234 300 hsl 180 15 0 0.9 0 0 rs1_fx rs1_fx_r rs1_ambient_fx 0 -8 0 10 #fcfcfc #000000 #000000 0 1;
#X msg 3055 1459 0.16;
#X obj 3145 1457 s rs1_master;
#X obj 3145 1483 s rs1_master_r;
#X msg 3055 1491 3600;
#X obj 3145 1489 s rs1_delay;
#X obj 3145 1515 s rs1_delay_r;
#X msg 3055 1523 0.34;
#X obj 3145 1521 s rs1_fx;
#X obj 3145 1547 s rs1_fx_r;
#X text 1231 341 rs2 perc_fx;
#X obj 1234 375 hsl 180 15 0 0.7 0 0 rs2_master rs2_master_r rs2_master 0 -8 0 10 #fcfcfc #000000 #000000 0 1;
#X obj 1234 420 hsl 180 15 250 9000 0 0 rs2_delay rs2_delay_r rs2_delay_ms 0 -8 0 10 #fcfcfc #000000 #000000 0 1;
#X obj 1234 465 hsl 180 15 0 0.9 0 0 rs2_fx rs2_fx_r rs2_ambient_fx 0 -8 0 10 #fcfcfc #000000 #000000 0 1;
#X msg 3055 1579 0.12;
#X obj 3145 1577 s rs2_master;
#X obj 3145 1603 s rs2_master_r;
#X msg 3055 1611 2800;
#X obj 3145 1609 s rs2_delay;
#X obj 3145 1635 s rs2_delay_r;
#X msg 3055 1643 0.42;
#X obj 3145 1641 s rs2_fx;
#X obj 3145 1667 s rs2_fx_r;
#X text 1506 175 rs3 kids_laugh;
#X obj 1509 210 hsl 180 15 0 0.7 0 0 rs3_master rs3_master_r rs3_master 0 -8 0 10 #fcfcfc #000000 #000000 0 1;
#X obj 1509 255 hsl 180 15 250 9000 0 0 rs3_delay rs3_delay_r rs3_delay_ms 0 -8 0 10 #fcfcfc #000000 #000000 0 1;
#X obj 1509 300 hsl 180 15 0 0.9 0 0 rs3_fx rs3_fx_r rs3_ambient_fx 0 -8 0 10 #fcfcfc #000000 #000000 0 1;
#X msg 3055 1699 0.14;
#X obj 3145 1697 s rs3_master;
#X obj 3145 1723 s rs3_master_r;
#X msg 3055 1731 4400;
#X obj 3145 1729 s rs3_delay;
#X obj 3145 1755 s rs3_delay_r;
#X msg 3055 1763 0.38;
#X obj 3145 1761 s rs3_fx;
#X obj 3145 1787 s rs3_fx_r;
#X text 1506 341 rs4 drum_loop;
#X obj 1509 375 hsl 180 15 0 0.7 0 0 rs4_master rs4_master_r rs4_master 0 -8 0 10 #fcfcfc #000000 #000000 0 1;
#X obj 1509 420 hsl 180 15 250 9000 0 0 rs4_delay rs4_delay_r rs4_delay_ms 0 -8 0 10 #fcfcfc #000000 #000000 0 1;
#X obj 1509 465 hsl 180 15 0 0.9 0 0 rs4_fx rs4_fx_r rs4_ambient_fx 0 -8 0 10 #fcfcfc #000000 #000000 0 1;
#X msg 3055 1819 0.13;
#X obj 3145 1817 s rs4_master;
#X obj 3145 1843 s rs4_master_r;
#X msg 3055 1851 2200;
#X obj 3145 1849 s rs4_delay;
#X obj 3145 1875 s rs4_delay_r;
#X msg 3055 1883 0.28;
#X obj 3145 1881 s rs4_fx;
#X obj 3145 1907 s rs4_fx_r;
#X obj 491 5191 r flute_delay;
#X obj 631 5191 pack f 180;
#X obj 940 118 tgl 18 0 easter_egg_on easter_egg_on_r easter_egg 0 -8 0 10 #fcfcfc #000000 #000000 0 1;
#X msg 3055 1939 0;
#X obj 3145 1937 s easter_egg_on;
#X obj 3145 1963 s easter_egg_on_r;
#X obj 1750 210 hsl 180 15 0 0.7 0 0 egg_master egg_master_r egg_master 0 -8 0 10 #fcfcfc #000000 #000000 0 1;
#X obj 1750 255 hsl 180 15 250 9000 0 0 egg_delay egg_delay_r egg_delay_ms 0 -8 0 10 #fcfcfc #000000 #000000 0 1;
#X obj 1750 300 hsl 180 15 0 0.9 0 0 egg_fx egg_fx_r egg_ambient_fx 0 -8 0 10 #fcfcfc #000000 #000000 0 1;
#X msg 3055 1979 0.16;
#X obj 3145 1977 s egg_master;
#X obj 3145 2003 s egg_master_r;
#X msg 3055 2011 3600;
#X obj 3145 2009 s egg_delay;
#X obj 3145 2035 s egg_delay_r;
#X msg 3055 2043 0.42;
#X obj 3145 2041 s egg_fx;
#X obj 3145 2067 s egg_fx_r;
#X text 454 560 Audio Reactive Connected Wave Curve;
#N canvas 0 22 450 300 (subpatch) 0;
#X array chord_wave 128 float 3;
#A 0 0 0.148106 0.291428 0.426132 0.540186 0.629212 0.693876 0.731767 0.754499 0.753757 0.724311 0.634564 0.426026 0.331219 0.229323 0.117649 -4.33641e-06 -0.118583 -0.229499 -0.332068 -0.416226 -0.483087 -0.543437 -0.582351 -0.600014 -0.585337 -0.549797 -0.514624 -0.451613 -0.353716 -0.243412 -0.124849 9.51886e-06 0.129513 0.259295 0.380277 0.478369 0.577527 0.655138 0.699568 0.722048 0.717361 0.673875 0.60594 0.519218 0.407516 0.285937 0.149422 -1.67978e-05 -0.149176 -0.292635 -0.419276 -0.527123 -0.620895 -0.701698 -0.759427 -0.789599 -0.75181 -0.710932 -0.649589 -0.568223 -0.45546 -0.317584 -0.163452 2.44136e-05 0.161028 0.31382 0.451678 0.569149 0.672247 0.739264 0.784641 0.796306 0.776192 0.72477 0.649051 0.549265 0.428708 0.294163 0.149669 -2.73824e-05 -0.148104 -0.289677 -0.419959 -0.533089 -0.623882 -0.686521 -0.726675 -0.734981 -0.718718 -0.672655 -0.605465 -0.511249 -0.398602 -0.27312 -0.138369 3.06895e-05 0.135921 0.262828 0.382674 0.483511 0.570924 0.63012 0.664985 0.676031 0.66807 0.628193 0.572423 0.482916 0.370106 0.254594 0.129438 -3.445e-05 -0.133962 -0.262032 -0.377299 -0.484084 -0.573958 -0.657286 -0.720022 -0.757015 -0.750998 -0.700799 -0.627944 -0.531313 -0.421598 -0.290399 -0.147908;
#X coords 0 1 127 -1 420 140 1 0 0;
#X restore 454 590 graph;
#X text 2051 2382 Audio reactive wave graph engine: post-master level drives chord_wave height;
#X obj 2051 2422 env~ 1024;
#X obj 2191 2422 - 42;
#X obj 2331 2422 / 38;
#X obj 2471 2422 clip 0 1;
#X obj 2611 2422 * 0.88;
#X obj 2751 2422 + 0.06;
#X obj 2891 2422 pack f 120;
#X obj 3031 2422 line;
#X obj 3171 2422 s wave_amp;
#X obj 2051 2492 loadbang;
#X msg 2191 2492 1;
#X obj 2331 2492 metro 45;
#X obj 2471 2492 f 0;
#X obj 2611 2492 t f f f;
#X obj 2771 2492 + 1;
#X obj 2911 2492 mod 128;
#X obj 3051 2492 r wave_amp;
#X obj 2611 2552 expr sin($f1 * 0.19635) * $f2;
#X obj 2911 2552 tabwrite chord_wave;
#X text 1858 546 TouchDesigner OSC Amp Stream;
#X text 1858 566 Out 127.0.0.1:8000 / amp-only / no master;
#X obj 1858 602 tgl 18 0 td_osc_enable td_osc_enable_r osc_enable 0 -8 0 10 #fcfcfc #000000 #000000 0 1;
#X obj 1999 602 bng 18 250 50 0 td_osc_connect empty connect 0 -8 0 10 #fcfcfc #000000 #000000;
#X obj 2094 602 bng 18 250 50 0 td_osc_disconnect empty disconnect 0 -8 0 10 #fcfcfc #000000 #000000;
#X obj 1861 647 hsl 180 15 40 1000 0 0 td_osc_rate td_osc_rate_r osc_rate_ms 0 -8 0 10 #fcfcfc #000000 #000000 0 1;
#X obj 1861 692 hsl 180 15 0.1 2.5 0 0 td_osc_amp_scale td_osc_amp_scale_r osc_amp_scale 0 -8 0 10 #fcfcfc #000000 #000000 0 1;
#X text 2065 690 sends /pd/code_amp /pd/flute_amp /pd/piano_amp /pd/texture_amp;
#X text 2065 715 sends /pd/rs1_amp /pd/rs2_amp /pd/rs3_amp /pd/rs4_amp /pd/easter_egg_amp;
#N canvas 80 80 1450 980 touchdesigner_osc_bridge 0;
#X text 20 20 TouchDesigner OSC bridge: amp-only UDP stream / master excluded;
#X obj 20 60 loadbang;
#X msg 20 100 connect 127.0.0.1 8000;
#X obj 20 900 netsend -u -b;
#X obj 220 60 r td_osc_connect;
#X msg 220 100 connect 127.0.0.1 8000;
#X obj 420 60 r td_osc_disconnect;
#X msg 420 100 disconnect;
#X msg 20 140 1;
#X obj 120 140 s td_osc_enable;
#X obj 260 140 s td_osc_enable_r;
#X msg 20 180 80;
#X obj 120 180 s td_osc_rate;
#X obj 260 180 s td_osc_rate_r;
#X msg 20 220 1;
#X obj 120 220 s td_osc_amp_scale;
#X obj 280 220 s td_osc_amp_scale_r;
#X text 20 270 Outgoing OSC values: only audio amplitude meters;
#X obj 20 310 r td_osc_enable;
#X obj 170 310 r td_osc_rate;
#X obj 170 350 max 20;
#X obj 20 360 metro 80;
#X obj 1050 760 list prepend send;
#X obj 1050 805 list trim;
#X obj 20 430 r code_amp;
#X obj 165 430 r td_osc_amp_scale;
#X obj 20 470 * 1;
#X obj 20 510 f;
#X obj 20 550 oscformat pd code_amp;
#X obj 20 590 spigot;
#X obj 165 590 r td_osc_enable;
#X obj 260 430 r flute_amp;
#X obj 405 430 r td_osc_amp_scale;
#X obj 260 470 * 1;
#X obj 260 510 f;
#X obj 260 550 oscformat pd flute_amp;
#X obj 260 590 spigot;
#X obj 405 590 r td_osc_enable;
#X obj 500 430 r piano_amp;
#X obj 645 430 r td_osc_amp_scale;
#X obj 500 470 * 1;
#X obj 500 510 f;
#X obj 500 550 oscformat pd piano_amp;
#X obj 500 590 spigot;
#X obj 645 590 r td_osc_enable;
#X obj 740 430 r texture_amp;
#X obj 885 430 r td_osc_amp_scale;
#X obj 740 470 * 1;
#X obj 740 510 f;
#X obj 740 550 oscformat pd texture_amp;
#X obj 740 590 spigot;
#X obj 885 590 r td_osc_enable;
#X obj 20 660 r rs1_amp;
#X obj 165 660 r td_osc_amp_scale;
#X obj 20 700 * 1;
#X obj 20 740 f;
#X obj 20 780 oscformat pd rs1_amp;
#X obj 20 820 spigot;
#X obj 165 820 r td_osc_enable;
#X obj 260 660 r rs2_amp;
#X obj 405 660 r td_osc_amp_scale;
#X obj 260 700 * 1;
#X obj 260 740 f;
#X obj 260 780 oscformat pd rs2_amp;
#X obj 260 820 spigot;
#X obj 405 820 r td_osc_enable;
#X obj 500 660 r rs3_amp;
#X obj 645 660 r td_osc_amp_scale;
#X obj 500 700 * 1;
#X obj 500 740 f;
#X obj 500 780 oscformat pd rs3_amp;
#X obj 500 820 spigot;
#X obj 645 820 r td_osc_enable;
#X obj 740 660 r rs4_amp;
#X obj 885 660 r td_osc_amp_scale;
#X obj 740 700 * 1;
#X obj 740 740 f;
#X obj 740 780 oscformat pd rs4_amp;
#X obj 740 820 spigot;
#X obj 885 820 r td_osc_enable;
#X obj 980 660 r easter_egg_amp;
#X obj 1125 660 r td_osc_amp_scale;
#X obj 980 700 * 1;
#X obj 980 740 f;
#X obj 980 780 oscformat pd easter_egg_amp;
#X obj 980 820 spigot;
#X obj 1125 820 r td_osc_enable;
#X obj 1220 660 r td_audio_amp;
#X obj 1365 660 r td_osc_amp_scale;
#X obj 1220 700 * 1;
#X obj 1220 740 f;
#X obj 1220 780 oscformat pd td_audio_amp;
#X obj 1220 820 spigot;
#X obj 1365 820 r td_osc_enable;
#X connect 1 0 2 0;
#X connect 1 0 8 0;
#X connect 1 0 11 0;
#X connect 1 0 14 0;
#X connect 2 0 3 0;
#X connect 4 0 5 0;
#X connect 5 0 3 0;
#X connect 6 0 7 0;
#X connect 7 0 3 0;
#X connect 8 0 9 0;
#X connect 8 0 10 0;
#X connect 11 0 12 0;
#X connect 11 0 13 0;
#X connect 14 0 15 0;
#X connect 14 0 16 0;
#X connect 18 0 21 0;
#X connect 19 0 20 0;
#X connect 20 0 21 1;
#X connect 21 0 90 0;
#X connect 21 0 27 0;
#X connect 21 0 34 0;
#X connect 21 0 41 0;
#X connect 21 0 48 0;
#X connect 21 0 55 0;
#X connect 21 0 62 0;
#X connect 21 0 69 0;
#X connect 21 0 76 0;
#X connect 21 0 83 0;
#X connect 22 0 23 0;
#X connect 23 0 3 0;
#X connect 24 0 26 0;
#X connect 25 0 26 1;
#X connect 26 0 27 1;
#X connect 27 0 28 0;
#X connect 28 0 29 0;
#X connect 29 0 22 0;
#X connect 30 0 29 1;
#X connect 31 0 33 0;
#X connect 32 0 33 1;
#X connect 33 0 34 1;
#X connect 34 0 35 0;
#X connect 35 0 36 0;
#X connect 36 0 22 0;
#X connect 37 0 36 1;
#X connect 38 0 40 0;
#X connect 39 0 40 1;
#X connect 40 0 41 1;
#X connect 41 0 42 0;
#X connect 42 0 43 0;
#X connect 43 0 22 0;
#X connect 44 0 43 1;
#X connect 45 0 47 0;
#X connect 46 0 47 1;
#X connect 47 0 48 1;
#X connect 48 0 49 0;
#X connect 49 0 50 0;
#X connect 50 0 22 0;
#X connect 51 0 50 1;
#X connect 52 0 54 0;
#X connect 53 0 54 1;
#X connect 54 0 55 1;
#X connect 55 0 56 0;
#X connect 56 0 57 0;
#X connect 57 0 22 0;
#X connect 58 0 57 1;
#X connect 59 0 61 0;
#X connect 60 0 61 1;
#X connect 61 0 62 1;
#X connect 62 0 63 0;
#X connect 63 0 64 0;
#X connect 64 0 22 0;
#X connect 65 0 64 1;
#X connect 66 0 68 0;
#X connect 67 0 68 1;
#X connect 68 0 69 1;
#X connect 69 0 70 0;
#X connect 70 0 71 0;
#X connect 71 0 22 0;
#X connect 72 0 71 1;
#X connect 73 0 75 0;
#X connect 74 0 75 1;
#X connect 75 0 76 1;
#X connect 76 0 77 0;
#X connect 77 0 78 0;
#X connect 78 0 22 0;
#X connect 79 0 78 1;
#X connect 80 0 82 0;
#X connect 81 0 82 1;
#X connect 82 0 83 1;
#X connect 83 0 84 0;
#X connect 84 0 85 0;
#X connect 85 0 22 0;
#X connect 86 0 85 1;
#X connect 87 0 89 0;
#X connect 88 0 89 1;
#X connect 89 0 90 1;
#X connect 90 0 91 0;
#X connect 91 0 92 0;
#X connect 92 0 22 0;
#X connect 93 0 92 1;
#X restore 1858 732 pd touchdesigner_osc_bridge;
#X text 2311 3227 TouchDesigner layer amp meters: audio-only OSC sources;
#X obj 2311 3268 +~;
#X obj 2311 3308 *~ 0.5;
#X obj 2311 3348 env~ 1024;
#X obj 2311 3388 - 45;
#X obj 2311 3428 / 45;
#X obj 2311 3468 clip 0 1;
#X obj 2311 3508 pack f 100;
#X obj 2311 3548 line;
#X obj 2311 3588 s code_amp;
#X obj 2551 3268 +~;
#X obj 2551 3308 *~ 0.5;
#X obj 2551 3348 env~ 1024;
#X obj 2551 3388 - 45;
#X obj 2551 3428 / 45;
#X obj 2551 3468 clip 0 1;
#X obj 2551 3508 pack f 100;
#X obj 2551 3548 line;
#X obj 2551 3588 s texture_amp;
#X obj 2791 3268 +~;
#X obj 2791 3308 *~ 0.5;
#X obj 2791 3348 env~ 1024;
#X obj 2791 3388 - 45;
#X obj 2791 3428 / 45;
#X obj 2791 3468 clip 0 1;
#X obj 2791 3508 * 1;
#X obj 2901 3508 r pad_on;
#X obj 2791 3548 pack f 100;
#X obj 2791 3588 line;
#X obj 2791 3628 s flute_amp;
#X text 1750 176 Easter Egg;
#N canvas 80 80 1580 2460 remix_sample_players 0;
#X text 20 20 Fixed remix players - remix_play starts and loops WAV layers / easter_egg_on is independent;
#X text 20 80 rs1: BRS_Crowd_Kids_Play_w-Teacher_Field_1.wav;
#X obj 20 120 r remix_play;
#X obj 130 120 t f f;
#X obj 300 120 sel 1 0;
#X obj 470 120 t b b;
#X msg 660 90 open samples/remix-sample/BRS_Crowd_Kids_Play_w-Teacher_Field_1.wav;
#X msg 660 135 1;
#X msg 660 180 0;
#X obj 850 135 readsf~ 2;
#X obj 1040 200 spigot;
#X obj 1200 200 t b b;
#X obj 20 290 r rs1_master;
#X obj 160 290 pack f 260;
#X obj 300 290 line~;
#X obj 20 335 r remix_play;
#X obj 160 335 pack f 260;
#X obj 300 335 line~;
#X obj 660 260 *~;
#X obj 660 305 *~;
#X obj 800 260 *~;
#X obj 800 305 *~;
#X obj 940 260 hip~ 45;
#X obj 940 305 hip~ 45;
#X obj 1080 260 lop~ 6500;
#X obj 1080 305 lop~ 6500;
#X obj 1230 260 *~ 0.55;
#X obj 1230 305 *~ 0.55;
#X obj 1230 355 delwrite~ rs1_dlL 12000;
#X obj 1230 400 delwrite~ rs1_dlR 12000;
#X obj 20 410 r rs1_delay;
#X obj 160 410 pack f 260;
#X obj 300 410 line~;
#X obj 470 410 vd~ rs1_dlL;
#X obj 470 455 vd~ rs1_dlR;
#X obj 660 420 rev3~ 100 95 6500 35;
#X obj 20 500 r rs1_fx;
#X obj 160 500 pack f 480;
#X obj 300 500 line~;
#X obj 940 420 *~;
#X obj 940 465 *~;
#X obj 1080 420 +~;
#X obj 1080 465 +~;
#X obj 1230 420 throw~ remixL;
#X obj 1230 465 throw~ remixR;
#X text 20 550 rs2: FXZ_Percussive_FX_2.wav;
#X obj 20 590 r remix_play;
#X obj 130 590 t f f;
#X obj 300 590 sel 1 0;
#X obj 470 590 t b b;
#X msg 660 560 open samples/remix-sample/FXZ_Percussive_FX_2.wav;
#X msg 660 605 1;
#X msg 660 650 0;
#X obj 850 605 readsf~ 2;
#X obj 1040 670 spigot;
#X obj 1200 670 t b b;
#X obj 20 760 r rs2_master;
#X obj 160 760 pack f 260;
#X obj 300 760 line~;
#X obj 20 805 r remix_play;
#X obj 160 805 pack f 260;
#X obj 300 805 line~;
#X obj 660 730 *~;
#X obj 660 775 *~;
#X obj 800 730 *~;
#X obj 800 775 *~;
#X obj 940 730 hip~ 45;
#X obj 940 775 hip~ 45;
#X obj 1080 730 lop~ 6500;
#X obj 1080 775 lop~ 6500;
#X obj 1230 730 *~ 0.55;
#X obj 1230 775 *~ 0.55;
#X obj 1230 825 delwrite~ rs2_dlL 12000;
#X obj 1230 870 delwrite~ rs2_dlR 12000;
#X obj 20 880 r rs2_delay;
#X obj 160 880 pack f 260;
#X obj 300 880 line~;
#X obj 470 880 vd~ rs2_dlL;
#X obj 470 925 vd~ rs2_dlR;
#X obj 660 890 rev3~ 100 95 6500 35;
#X obj 20 970 r rs2_fx;
#X obj 160 970 pack f 480;
#X obj 300 970 line~;
#X obj 940 890 *~;
#X obj 940 935 *~;
#X obj 1080 890 +~;
#X obj 1080 935 +~;
#X obj 1230 890 throw~ remixL;
#X obj 1230 935 throw~ remixR;
#X text 20 1020 rs3: SC_SP_field_recording_kids_laugh.wav;
#X obj 20 1060 r remix_play;
#X obj 130 1060 t f f;
#X obj 300 1060 sel 1 0;
#X obj 470 1060 t b b;
#X msg 660 1030 open samples/remix-sample/SC_SP_field_recording_kids_laugh.wav;
#X msg 660 1075 1;
#X msg 660 1120 0;
#X obj 850 1075 readsf~ 2;
#X obj 1040 1140 spigot;
#X obj 1200 1140 t b b;
#X obj 20 1230 r rs3_master;
#X obj 160 1230 pack f 260;
#X obj 300 1230 line~;
#X obj 20 1275 r remix_play;
#X obj 160 1275 pack f 260;
#X obj 300 1275 line~;
#X obj 660 1200 *~;
#X obj 660 1245 *~;
#X obj 800 1200 *~;
#X obj 800 1245 *~;
#X obj 940 1200 hip~ 45;
#X obj 940 1245 hip~ 45;
#X obj 1080 1200 lop~ 6500;
#X obj 1080 1245 lop~ 6500;
#X obj 1230 1200 *~ 0.55;
#X obj 1230 1245 *~ 0.55;
#X obj 1230 1295 delwrite~ rs3_dlL 12000;
#X obj 1230 1340 delwrite~ rs3_dlR 12000;
#X obj 20 1350 r rs3_delay;
#X obj 160 1350 pack f 260;
#X obj 300 1350 line~;
#X obj 470 1350 vd~ rs3_dlL;
#X obj 470 1395 vd~ rs3_dlR;
#X obj 660 1360 rev3~ 100 95 6500 35;
#X obj 20 1440 r rs3_fx;
#X obj 160 1440 pack f 480;
#X obj 300 1440 line~;
#X obj 940 1360 *~;
#X obj 940 1405 *~;
#X obj 1080 1360 +~;
#X obj 1080 1405 +~;
#X obj 1230 1360 throw~ remixL;
#X obj 1230 1405 throw~ remixR;
#X text 20 1490 rs4: ma_drum_loop_form_percussion_100.wav;
#X obj 20 1530 r remix_play;
#X obj 130 1530 t f f;
#X obj 300 1530 sel 1 0;
#X obj 470 1530 t b b;
#X msg 660 1500 open samples/remix-sample/ma_drum_loop_form_percussion_100.wav;
#X msg 660 1545 1;
#X msg 660 1590 0;
#X obj 850 1545 readsf~ 2;
#X obj 1040 1610 spigot;
#X obj 1200 1610 t b b;
#X obj 20 1700 r rs4_master;
#X obj 160 1700 pack f 260;
#X obj 300 1700 line~;
#X obj 20 1745 r remix_play;
#X obj 160 1745 pack f 260;
#X obj 300 1745 line~;
#X obj 660 1670 *~;
#X obj 660 1715 *~;
#X obj 800 1670 *~;
#X obj 800 1715 *~;
#X obj 940 1670 hip~ 45;
#X obj 940 1715 hip~ 45;
#X obj 1080 1670 lop~ 6500;
#X obj 1080 1715 lop~ 6500;
#X obj 1230 1670 *~ 0.55;
#X obj 1230 1715 *~ 0.55;
#X obj 1230 1765 delwrite~ rs4_dlL 12000;
#X obj 1230 1810 delwrite~ rs4_dlR 12000;
#X obj 20 1820 r rs4_delay;
#X obj 160 1820 pack f 260;
#X obj 300 1820 line~;
#X obj 470 1820 vd~ rs4_dlL;
#X obj 470 1865 vd~ rs4_dlR;
#X obj 660 1830 rev3~ 100 95 6500 35;
#X obj 20 1910 r rs4_fx;
#X obj 160 1910 pack f 480;
#X obj 300 1910 line~;
#X obj 940 1830 *~;
#X obj 940 1875 *~;
#X obj 1080 1830 +~;
#X obj 1080 1875 +~;
#X obj 1230 1830 throw~ remixL;
#X obj 1230 1875 throw~ remixR;
#X text 20 1960 egg: easter_egg.wav independent layer;
#X obj 20 2000 r easter_egg_on;
#X obj 170 2000 t f f;
#X obj 330 2000 sel 1 0;
#X obj 500 2000 t b b;
#X msg 700 1970 open samples/easter_egg.wav;
#X msg 700 2015 1;
#X msg 700 2060 0;
#X obj 900 2015 readsf~ 2;
#X obj 20 2090 spigot;
#X obj 170 2090 r easter_egg_on;
#X obj 20 2170 r egg_master;
#X obj 170 2170 pack f 260;
#X obj 330 2170 line~;
#X obj 170 2215 pack f 260;
#X obj 330 2215 line~;
#X obj 660 2140 *~;
#X obj 660 2185 *~;
#X obj 800 2140 *~;
#X obj 800 2185 *~;
#X obj 940 2140 hip~ 45;
#X obj 940 2185 hip~ 45;
#X obj 1080 2140 lop~ 6200;
#X obj 1080 2185 lop~ 6200;
#X obj 1230 2140 *~ 0.5;
#X obj 1230 2185 *~ 0.5;
#X obj 1230 2235 delwrite~ egg_dlL 12000;
#X obj 1230 2280 delwrite~ egg_dlR 12000;
#X obj 20 2290 r egg_delay;
#X obj 170 2290 pack f 260;
#X obj 330 2290 line~;
#X obj 500 2290 vd~ egg_dlL;
#X obj 500 2335 vd~ egg_dlR;
#X obj 700 2300 rev3~ 100 95 6500 35;
#X obj 20 2380 r egg_fx;
#X obj 170 2380 pack f 480;
#X obj 330 2380 line~;
#X obj 980 2300 *~;
#X obj 980 2345 *~;
#X obj 1120 2300 +~;
#X obj 1120 2345 +~;
#X obj 1270 2300 throw~ mixL;
#X obj 1270 2345 throw~ mixR;
#X text 20 2420 Remix and easter egg amp meters for TouchDesigner OSC;
#X obj 20 2460 +~;
#X obj 20 2500 *~ 0.5;
#X obj 20 2540 env~ 1024;
#X obj 20 2580 - 45;
#X obj 20 2620 / 45;
#X obj 20 2660 clip 0 1;
#X obj 20 2700 pack f 100;
#X obj 20 2740 line;
#X obj 20 2780 s rs1_amp;
#X obj 260 2460 +~;
#X obj 260 2500 *~ 0.5;
#X obj 260 2540 env~ 1024;
#X obj 260 2580 - 45;
#X obj 260 2620 / 45;
#X obj 260 2660 clip 0 1;
#X obj 260 2700 pack f 100;
#X obj 260 2740 line;
#X obj 260 2780 s rs2_amp;
#X obj 500 2460 +~;
#X obj 500 2500 *~ 0.5;
#X obj 500 2540 env~ 1024;
#X obj 500 2580 - 45;
#X obj 500 2620 / 45;
#X obj 500 2660 clip 0 1;
#X obj 500 2700 pack f 100;
#X obj 500 2740 line;
#X obj 500 2780 s rs3_amp;
#X obj 740 2460 +~;
#X obj 740 2500 *~ 0.5;
#X obj 740 2540 env~ 1024;
#X obj 740 2580 - 45;
#X obj 740 2620 / 45;
#X obj 740 2660 clip 0 1;
#X obj 740 2700 pack f 100;
#X obj 740 2740 line;
#X obj 740 2780 s rs4_amp;
#X obj 980 2460 +~;
#X obj 980 2500 *~ 0.5;
#X obj 980 2540 env~ 1024;
#X obj 980 2580 - 45;
#X obj 980 2620 / 45;
#X obj 980 2660 clip 0 1;
#X obj 980 2700 pack f 100;
#X obj 980 2740 line;
#X obj 980 2780 s easter_egg_amp;
#X connect 2 0 3 0;
#X connect 3 0 4 0;
#X connect 3 1 10 1;
#X connect 4 0 5 0;
#X connect 4 1 8 0;
#X connect 5 0 7 0;
#X connect 5 1 6 0;
#X connect 6 0 9 0;
#X connect 7 0 9 0;
#X connect 8 0 9 0;
#X connect 9 0 18 0;
#X connect 9 1 19 0;
#X connect 9 2 10 0;
#X connect 10 0 11 0;
#X connect 11 0 7 0;
#X connect 11 1 6 0;
#X connect 12 0 13 0;
#X connect 13 0 14 0;
#X connect 14 0 18 1;
#X connect 14 0 19 1;
#X connect 15 0 16 0;
#X connect 16 0 17 0;
#X connect 17 0 20 1;
#X connect 17 0 21 1;
#X connect 18 0 20 0;
#X connect 19 0 21 0;
#X connect 20 0 22 0;
#X connect 21 0 23 0;
#X connect 22 0 24 0;
#X connect 23 0 25 0;
#X connect 24 0 26 0;
#X connect 24 0 28 0;
#X connect 25 0 27 0;
#X connect 25 0 29 0;
#X connect 26 0 41 0;
#X connect 27 0 42 0;
#X connect 30 0 31 0;
#X connect 31 0 32 0;
#X connect 32 0 33 0;
#X connect 32 0 34 0;
#X connect 33 0 35 0;
#X connect 34 0 35 1;
#X connect 35 0 39 0;
#X connect 35 1 40 0;
#X connect 36 0 37 0;
#X connect 37 0 38 0;
#X connect 38 0 39 1;
#X connect 38 0 40 1;
#X connect 39 0 41 1;
#X connect 40 0 42 1;
#X connect 41 0 221 0;
#X connect 41 0 43 0;
#X connect 42 0 221 1;
#X connect 42 0 44 0;
#X connect 46 0 47 0;
#X connect 47 0 48 0;
#X connect 47 1 54 1;
#X connect 48 0 49 0;
#X connect 48 1 52 0;
#X connect 49 0 51 0;
#X connect 49 1 50 0;
#X connect 50 0 53 0;
#X connect 51 0 53 0;
#X connect 52 0 53 0;
#X connect 53 0 62 0;
#X connect 53 1 63 0;
#X connect 53 2 54 0;
#X connect 54 0 55 0;
#X connect 55 0 51 0;
#X connect 55 1 50 0;
#X connect 56 0 57 0;
#X connect 57 0 58 0;
#X connect 58 0 62 1;
#X connect 58 0 63 1;
#X connect 59 0 60 0;
#X connect 60 0 61 0;
#X connect 61 0 64 1;
#X connect 61 0 65 1;
#X connect 62 0 64 0;
#X connect 63 0 65 0;
#X connect 64 0 66 0;
#X connect 65 0 67 0;
#X connect 66 0 68 0;
#X connect 67 0 69 0;
#X connect 68 0 70 0;
#X connect 68 0 72 0;
#X connect 69 0 71 0;
#X connect 69 0 73 0;
#X connect 70 0 85 0;
#X connect 71 0 86 0;
#X connect 74 0 75 0;
#X connect 75 0 76 0;
#X connect 76 0 77 0;
#X connect 76 0 78 0;
#X connect 77 0 79 0;
#X connect 78 0 79 1;
#X connect 79 0 83 0;
#X connect 79 1 84 0;
#X connect 80 0 81 0;
#X connect 81 0 82 0;
#X connect 82 0 83 1;
#X connect 82 0 84 1;
#X connect 83 0 85 1;
#X connect 84 0 86 1;
#X connect 85 0 230 0;
#X connect 85 0 87 0;
#X connect 86 0 230 1;
#X connect 86 0 88 0;
#X connect 90 0 91 0;
#X connect 91 0 92 0;
#X connect 91 1 98 1;
#X connect 92 0 93 0;
#X connect 92 1 96 0;
#X connect 93 0 95 0;
#X connect 93 1 94 0;
#X connect 94 0 97 0;
#X connect 95 0 97 0;
#X connect 96 0 97 0;
#X connect 97 0 106 0;
#X connect 97 1 107 0;
#X connect 97 2 98 0;
#X connect 98 0 99 0;
#X connect 99 0 95 0;
#X connect 99 1 94 0;
#X connect 100 0 101 0;
#X connect 101 0 102 0;
#X connect 102 0 106 1;
#X connect 102 0 107 1;
#X connect 103 0 104 0;
#X connect 104 0 105 0;
#X connect 105 0 108 1;
#X connect 105 0 109 1;
#X connect 106 0 108 0;
#X connect 107 0 109 0;
#X connect 108 0 110 0;
#X connect 109 0 111 0;
#X connect 110 0 112 0;
#X connect 111 0 113 0;
#X connect 112 0 114 0;
#X connect 112 0 116 0;
#X connect 113 0 115 0;
#X connect 113 0 117 0;
#X connect 114 0 129 0;
#X connect 115 0 130 0;
#X connect 118 0 119 0;
#X connect 119 0 120 0;
#X connect 120 0 121 0;
#X connect 120 0 122 0;
#X connect 121 0 123 0;
#X connect 122 0 123 1;
#X connect 123 0 127 0;
#X connect 123 1 128 0;
#X connect 124 0 125 0;
#X connect 125 0 126 0;
#X connect 126 0 127 1;
#X connect 126 0 128 1;
#X connect 127 0 129 1;
#X connect 128 0 130 1;
#X connect 129 0 239 0;
#X connect 129 0 131 0;
#X connect 130 0 239 1;
#X connect 130 0 132 0;
#X connect 134 0 135 0;
#X connect 135 0 136 0;
#X connect 135 1 142 1;
#X connect 136 0 137 0;
#X connect 136 1 140 0;
#X connect 137 0 139 0;
#X connect 137 1 138 0;
#X connect 138 0 141 0;
#X connect 139 0 141 0;
#X connect 140 0 141 0;
#X connect 141 0 150 0;
#X connect 141 1 151 0;
#X connect 141 2 142 0;
#X connect 142 0 143 0;
#X connect 143 0 139 0;
#X connect 143 1 138 0;
#X connect 144 0 145 0;
#X connect 145 0 146 0;
#X connect 146 0 150 1;
#X connect 146 0 151 1;
#X connect 147 0 148 0;
#X connect 148 0 149 0;
#X connect 149 0 152 1;
#X connect 149 0 153 1;
#X connect 150 0 152 0;
#X connect 151 0 153 0;
#X connect 152 0 154 0;
#X connect 153 0 155 0;
#X connect 154 0 156 0;
#X connect 155 0 157 0;
#X connect 156 0 158 0;
#X connect 156 0 160 0;
#X connect 157 0 159 0;
#X connect 157 0 161 0;
#X connect 158 0 173 0;
#X connect 159 0 174 0;
#X connect 162 0 163 0;
#X connect 163 0 164 0;
#X connect 164 0 165 0;
#X connect 164 0 166 0;
#X connect 165 0 167 0;
#X connect 166 0 167 1;
#X connect 167 0 171 0;
#X connect 167 1 172 0;
#X connect 168 0 169 0;
#X connect 169 0 170 0;
#X connect 170 0 171 1;
#X connect 170 0 172 1;
#X connect 171 0 173 1;
#X connect 172 0 174 1;
#X connect 173 0 248 0;
#X connect 173 0 175 0;
#X connect 174 0 248 1;
#X connect 174 0 176 0;
#X connect 178 0 179 0;
#X connect 179 0 180 0;
#X connect 179 1 191 0;
#X connect 180 0 181 0;
#X connect 180 1 184 0;
#X connect 181 0 183 0;
#X connect 181 1 182 0;
#X connect 182 0 185 0;
#X connect 183 0 185 0;
#X connect 184 0 185 0;
#X connect 185 0 193 0;
#X connect 185 1 194 0;
#X connect 185 2 186 0;
#X connect 186 0 181 0;
#X connect 187 0 186 1;
#X connect 188 0 189 0;
#X connect 189 0 190 0;
#X connect 190 0 193 1;
#X connect 190 0 194 1;
#X connect 191 0 192 0;
#X connect 192 0 195 1;
#X connect 192 0 196 1;
#X connect 193 0 195 0;
#X connect 194 0 196 0;
#X connect 195 0 197 0;
#X connect 196 0 198 0;
#X connect 197 0 199 0;
#X connect 198 0 200 0;
#X connect 199 0 201 0;
#X connect 199 0 203 0;
#X connect 200 0 202 0;
#X connect 200 0 204 0;
#X connect 201 0 216 0;
#X connect 202 0 217 0;
#X connect 205 0 206 0;
#X connect 206 0 207 0;
#X connect 207 0 208 0;
#X connect 207 0 209 0;
#X connect 208 0 210 0;
#X connect 209 0 210 1;
#X connect 210 0 214 0;
#X connect 210 1 215 0;
#X connect 211 0 212 0;
#X connect 212 0 213 0;
#X connect 213 0 214 1;
#X connect 213 0 215 1;
#X connect 214 0 216 1;
#X connect 215 0 217 1;
#X connect 216 0 257 0;
#X connect 216 0 218 0;
#X connect 217 0 257 1;
#X connect 217 0 219 0;
#X connect 221 0 222 0;
#X connect 222 0 223 0;
#X connect 223 0 224 0;
#X connect 224 0 225 0;
#X connect 225 0 226 0;
#X connect 226 0 227 0;
#X connect 227 0 228 0;
#X connect 228 0 229 0;
#X connect 230 0 231 0;
#X connect 231 0 232 0;
#X connect 232 0 233 0;
#X connect 233 0 234 0;
#X connect 234 0 235 0;
#X connect 235 0 236 0;
#X connect 236 0 237 0;
#X connect 237 0 238 0;
#X connect 239 0 240 0;
#X connect 240 0 241 0;
#X connect 241 0 242 0;
#X connect 242 0 243 0;
#X connect 243 0 244 0;
#X connect 244 0 245 0;
#X connect 245 0 246 0;
#X connect 246 0 247 0;
#X connect 248 0 249 0;
#X connect 249 0 250 0;
#X connect 250 0 251 0;
#X connect 251 0 252 0;
#X connect 252 0 253 0;
#X connect 253 0 254 0;
#X connect 254 0 255 0;
#X connect 255 0 256 0;
#X connect 257 0 258 0;
#X connect 258 0 259 0;
#X connect 259 0 260 0;
#X connect 260 0 261 0;
#X connect 261 0 262 0;
#X connect 262 0 263 0;
#X connect 263 0 264 0;
#X connect 264 0 265 0;
#X restore 2051 820 pd remix_sample_players;
#X text 1747 353 TD Movie Audio / BlackHole input;
#X obj 1750 390 tgl 18 0 td_audio_on td_audio_on_r td_audio_on 0 -8 0 10 #fcfcfc #000000 #000000 0 1;
#X obj 1750 430 hsl 180 15 0 0.7 0 0 td_audio_master td_audio_master_r td_audio_master 0 -8 0 10 #fcfcfc #000000 #000000 0 1;
#X obj 1750 475 hsl 180 15 250 9000 0 0 td_audio_delay td_audio_delay_r td_audio_delay_ms 0 -8 0 10 #fcfcfc #000000 #000000 0 1;
#X obj 1750 520 hsl 180 15 0 0.9 0 0 td_audio_fx td_audio_fx_r td_audio_ambient_fx 0 -8 0 10 #fcfcfc #000000 #000000 0 1;
#X text 2065 760 sends /pd/td_audio_amp from BlackHole input;
#X msg 3055 2080 0;
#X obj 3145 2078 s td_audio_on;
#X obj 3145 2104 s td_audio_on_r;
#X msg 3055 2120 0.18;
#X obj 3145 2118 s td_audio_master;
#X obj 3145 2144 s td_audio_master_r;
#X msg 3055 2152 3600;
#X obj 3145 2150 s td_audio_delay;
#X obj 3145 2176 s td_audio_delay_r;
#X msg 3055 2184 0.38;
#X obj 3145 2182 s td_audio_fx;
#X obj 3145 2208 s td_audio_fx_r;
#N canvas 100 100 2100 760 touchdesigner_blackhole_audio_in 0;
#X text 20 20 TouchDesigner Movie File In audio via BlackHole: set Pd audio input device to BlackHole;
#X obj 20 70 adc~ 1 2;
#X obj 20 130 r td_audio_on;
#X obj 160 130 pack f 260;
#X obj 300 130 line~;
#X obj 20 180 r td_audio_master;
#X obj 160 180 pack f 260;
#X obj 300 180 line~;
#X obj 20 245 *~;
#X obj 20 295 *~;
#X obj 170 245 *~;
#X obj 170 295 *~;
#X obj 330 245 hip~ 35;
#X obj 330 295 hip~ 35;
#X obj 480 245 lop~ 6800;
#X obj 480 295 lop~ 6800;
#X obj 650 245 delwrite~ td_movie_dlL 12000;
#X obj 650 295 delwrite~ td_movie_dlR 12000;
#X obj 20 390 r td_audio_delay;
#X obj 160 390 pack f 260;
#X obj 300 390 line~;
#X obj 470 390 vd~ td_movie_dlL;
#X obj 470 440 vd~ td_movie_dlR;
#X obj 650 400 rev3~ 100 95 6500 35;
#X obj 20 520 r td_audio_fx;
#X obj 160 520 pack f 480;
#X obj 300 520 line~;
#X obj 840 400 *~;
#X obj 840 450 *~;
#X obj 1000 400 +~;
#X obj 1000 450 +~;
#X obj 1170 400 throw~ mixL;
#X obj 1170 450 throw~ mixR;
#X obj 1000 520 +~;
#X obj 1120 520 *~ 0.5;
#X obj 1240 520 env~ 1024;
#X obj 1360 520 - 45;
#X obj 1460 520 / 45;
#X obj 1560 520 clip 0 1;
#X obj 1660 520 pack f 100;
#X obj 1780 520 line;
#X obj 1900 520 s td_audio_amp;
#X connect 1 0 8 0;
#X connect 1 1 9 0;
#X connect 2 0 3 0;
#X connect 3 0 4 0;
#X connect 4 0 8 1;
#X connect 4 0 9 1;
#X connect 5 0 6 0;
#X connect 6 0 7 0;
#X connect 7 0 10 1;
#X connect 7 0 11 1;
#X connect 8 0 10 0;
#X connect 9 0 11 0;
#X connect 10 0 12 0;
#X connect 11 0 13 0;
#X connect 12 0 14 0;
#X connect 13 0 15 0;
#X connect 14 0 16 0;
#X connect 14 0 23 0;
#X connect 14 0 29 0;
#X connect 15 0 17 0;
#X connect 15 0 23 1;
#X connect 15 0 30 0;
#X connect 18 0 19 0;
#X connect 19 0 20 0;
#X connect 20 0 21 0;
#X connect 20 0 22 0;
#X connect 21 0 23 0;
#X connect 21 0 27 0;
#X connect 22 0 23 1;
#X connect 22 0 28 0;
#X connect 23 0 27 0;
#X connect 23 1 28 0;
#X connect 24 0 25 0;
#X connect 25 0 26 0;
#X connect 26 0 27 1;
#X connect 26 0 28 1;
#X connect 27 0 29 1;
#X connect 28 0 30 1;
#X connect 29 0 31 0;
#X connect 29 0 33 0;
#X connect 30 0 32 0;
#X connect 30 0 33 1;
#X connect 33 0 34 0;
#X connect 34 0 35 0;
#X connect 35 0 36 0;
#X connect 36 0 37 0;
#X connect 37 0 38 0;
#X connect 38 0 39 0;
#X connect 39 0 40 0;
#X connect 40 0 41 0;
#X restore 2051 850 pd touchdesigner_blackhole_audio_in;
#X connect 0 0 754 0;
#X connect 0 0 757 0;
#X connect 0 0 760 0;
#X connect 0 0 763 0;
#X connect 0 0 460 0;
#X connect 0 0 4 0;
#X connect 0 0 8 0;
#X connect 0 0 12 0;
#X connect 0 0 16 0;
#X connect 0 0 20 0;
#X connect 0 0 24 0;
#X connect 0 0 28 0;
#X connect 0 0 33 0;
#X connect 0 0 37 0;
#X connect 0 0 41 0;
#X connect 0 0 45 0;
#X connect 0 0 49 0;
#X connect 0 0 53 0;
#X connect 0 0 57 0;
#X connect 0 0 61 0;
#X connect 0 0 65 0;
#X connect 0 0 69 0;
#X connect 0 0 73 0;
#X connect 0 0 77 0;
#X connect 0 0 81 0;
#X connect 0 0 202 0;
#X connect 0 0 493 0;
#X connect 0 0 575 0;
#X connect 0 0 579 0;
#X connect 0 0 583 0;
#X connect 0 0 587 0;
#X connect 0 0 618 0;
#X connect 0 0 621 0;
#X connect 0 0 624 0;
#X connect 0 0 631 0;
#X connect 0 0 634 0;
#X connect 0 0 637 0;
#X connect 0 0 644 0;
#X connect 0 0 647 0;
#X connect 0 0 650 0;
#X connect 0 0 657 0;
#X connect 0 0 660 0;
#X connect 0 0 663 0;
#X connect 0 0 606 0;
#X connect 0 0 610 0;
#X connect 0 0 669 0;
#X connect 0 0 675 0;
#X connect 0 0 678 0;
#X connect 0 0 681 0;
#X connect 4 0 6 0;
#X connect 4 0 5 0;
#X connect 8 0 9 0;
#X connect 8 0 10 0;
#X connect 12 0 13 0;
#X connect 12 0 14 0;
#X connect 16 0 17 0;
#X connect 16 0 18 0;
#X connect 20 0 21 0;
#X connect 20 0 22 0;
#X connect 24 0 25 0;
#X connect 24 0 26 0;
#X connect 28 0 29 0;
#X connect 28 0 30 0;
#X connect 33 0 34 0;
#X connect 33 0 35 0;
#X connect 37 0 38 0;
#X connect 37 0 39 0;
#X connect 41 0 42 0;
#X connect 41 0 43 0;
#X connect 45 0 46 0;
#X connect 45 0 47 0;
#X connect 49 0 50 0;
#X connect 49 0 51 0;
#X connect 53 0 54 0;
#X connect 53 0 55 0;
#X connect 57 0 58 0;
#X connect 57 0 59 0;
#X connect 61 0 62 0;
#X connect 61 0 63 0;
#X connect 65 0 66 0;
#X connect 65 0 67 0;
#X connect 69 0 70 0;
#X connect 69 0 71 0;
#X connect 73 0 74 0;
#X connect 73 0 75 0;
#X connect 77 0 78 0;
#X connect 77 0 79 0;
#X connect 81 0 82 0;
#X connect 81 0 83 0;
#X connect 84 0 85 0;
#X connect 95 0 96 0;
#X connect 96 0 92 0;
#X connect 98 0 99 0;
#X connect 99 0 92 0;
#X connect 101 0 102 0;
#X connect 102 0 92 0;
#X connect 104 0 105 0;
#X connect 105 0 92 0;
#X connect 107 0 108 0;
#X connect 108 0 92 0;
#X connect 111 0 112 0;
#X connect 112 0 92 0;
#X connect 114 0 115 0;
#X connect 115 0 92 0;
#X connect 117 0 118 0;
#X connect 118 0 92 0;
#X connect 120 0 121 0;
#X connect 121 0 92 0;
#X connect 123 0 124 0;
#X connect 124 0 92 0;
#X connect 127 0 128 0;
#X connect 128 0 92 0;
#X connect 130 0 131 0;
#X connect 131 0 92 0;
#X connect 133 0 134 0;
#X connect 134 0 92 0;
#X connect 136 0 137 0;
#X connect 137 0 92 0;
#X connect 139 0 140 0;
#X connect 140 0 92 0;
#X connect 143 0 144 0;
#X connect 144 0 572 0;
#X connect 146 0 147 0;
#X connect 147 0 572 0;
#X connect 149 0 150 0;
#X connect 150 0 572 0;
#X connect 152 0 153 0;
#X connect 153 0 572 0;
#X connect 155 0 156 0;
#X connect 156 0 572 0;
#X connect 159 0 160 0;
#X connect 160 0 572 0;
#X connect 162 0 163 0;
#X connect 163 0 572 0;
#X connect 165 0 166 0;
#X connect 166 0 572 0;
#X connect 168 0 169 0;
#X connect 169 0 572 0;
#X connect 171 0 172 0;
#X connect 172 0 572 0;
#X connect 175 0 176 0;
#X connect 176 0 572 0;
#X connect 178 0 179 0;
#X connect 179 0 572 0;
#X connect 181 0 182 0;
#X connect 182 0 572 0;
#X connect 184 0 185 0;
#X connect 185 0 572 0;
#X connect 187 0 188 0;
#X connect 188 0 572 0;
#X connect 190 0 193 0;
#X connect 191 0 192 0;
#X connect 192 0 193 1;
#X connect 193 0 194 0;
#X connect 194 0 195 0;
#X connect 195 0 196 0;
#X connect 196 0 194 1;
#X connect 196 0 197 0;
#X connect 197 0 202 0;
#X connect 197 1 204 0;
#X connect 197 2 206 0;
#X connect 197 3 208 0;
#X connect 197 4 210 0;
#X connect 197 5 212 0;
#X connect 198 0 199 0;
#X connect 198 1 200 0;
#X connect 202 0 198 0;
#X connect 204 0 198 0;
#X connect 206 0 198 0;
#X connect 208 0 198 0;
#X connect 210 0 198 0;
#X connect 212 0 198 0;
#X connect 213 0 214 0;
#X connect 214 0 218 0;
#X connect 214 1 223 0;
#X connect 214 2 228 0;
#X connect 214 3 233 0;
#X connect 214 4 238 0;
#X connect 215 0 216 0;
#X connect 216 0 217 0;
#X connect 217 0 247 1;
#X connect 218 0 219 0;
#X connect 219 0 220 0;
#X connect 220 0 221 0;
#X connect 221 0 222 0;
#X connect 222 0 243 0;
#X connect 223 0 224 0;
#X connect 224 0 225 0;
#X connect 225 0 226 0;
#X connect 226 0 227 0;
#X connect 227 0 243 1;
#X connect 228 0 229 0;
#X connect 229 0 230 0;
#X connect 230 0 231 0;
#X connect 231 0 232 0;
#X connect 232 0 244 1;
#X connect 233 0 234 0;
#X connect 234 0 235 0;
#X connect 235 0 236 0;
#X connect 236 0 237 0;
#X connect 237 0 245 1;
#X connect 238 0 239 0;
#X connect 239 0 240 0;
#X connect 240 0 241 0;
#X connect 241 0 242 0;
#X connect 242 0 246 1;
#X connect 243 0 244 0;
#X connect 244 0 245 0;
#X connect 245 0 246 0;
#X connect 246 0 247 0;
#X connect 247 0 253 0;
#X connect 248 0 249 0;
#X connect 249 0 250 0;
#X connect 250 0 251 0;
#X connect 251 0 252 0;
#X connect 252 0 253 1;
#X connect 253 0 257 0;
#X connect 254 0 255 0;
#X connect 255 0 256 0;
#X connect 256 0 257 1;
#X connect 257 0 258 0;
#X connect 257 0 259 0;
#X connect 261 0 262 0;
#X connect 262 0 263 0;
#X connect 262 1 278 0;
#X connect 263 0 264 0;
#X connect 264 0 265 0;
#X connect 264 1 271 0;
#X connect 265 0 266 0;
#X connect 266 0 267 0;
#X connect 267 0 275 0;
#X connect 268 0 269 0;
#X connect 269 0 270 0;
#X connect 270 0 271 1;
#X connect 271 0 272 0;
#X connect 272 0 273 0;
#X connect 273 0 274 0;
#X connect 274 0 275 0;
#X connect 275 0 276 0;
#X connect 276 0 281 0;
#X connect 277 0 278 1;
#X connect 278 0 279 0;
#X connect 279 0 280 0;
#X connect 280 0 281 1;
#X connect 281 0 285 0;
#X connect 282 0 283 0;
#X connect 283 0 284 0;
#X connect 284 0 285 1;
#X connect 285 0 289 0;
#X connect 286 0 287 0;
#X connect 287 0 288 0;
#X connect 288 0 289 1;
#X connect 289 0 290 0;
#X connect 289 0 291 0;
#X connect 293 0 294 0;
#X connect 294 0 295 0;
#X connect 295 0 296 0;
#X connect 296 0 311 0;
#X connect 297 0 298 0;
#X connect 298 0 299 0;
#X connect 299 0 311 1;
#X connect 300 0 302 0;
#X connect 301 0 302 1;
#X connect 302 0 303 0;
#X connect 303 0 304 0;
#X connect 304 0 306 0;
#X connect 305 0 304 1;
#X connect 306 0 307 0;
#X connect 307 0 310 1;
#X connect 308 0 309 0;
#X connect 309 0 310 0;
#X connect 310 0 312 1;
#X connect 311 0 312 0;
#X connect 312 0 316 0;
#X connect 313 0 314 0;
#X connect 314 0 315 0;
#X connect 315 0 316 1;
#X connect 316 0 317 0;
#X connect 316 0 318 0;
#X connect 320 0 321 0;
#X connect 321 0 322 0;
#X connect 322 0 325 1;
#X connect 322 0 326 1;
#X connect 323 0 325 0;
#X connect 324 0 326 0;
#X connect 325 0 717 0;
#X connect 325 0 327 0;
#X connect 326 0 717 1;
#X connect 326 0 328 0;
#X connect 329 0 330 0;
#X connect 330 0 331 0;
#X connect 331 0 334 1;
#X connect 331 0 335 1;
#X connect 332 0 334 0;
#X connect 333 0 335 0;
#X connect 334 0 336 0;
#X connect 335 0 337 0;
#X connect 338 0 339 0;
#X connect 339 0 340 0;
#X connect 340 0 343 1;
#X connect 340 0 344 1;
#X connect 341 0 343 0;
#X connect 342 0 344 0;
#X connect 343 0 726 0;
#X connect 343 0 345 0;
#X connect 344 0 726 1;
#X connect 344 0 346 0;
#X connect 347 0 348 0;
#X connect 348 0 349 0;
#X connect 349 0 352 1;
#X connect 349 0 353 1;
#X connect 350 0 352 0;
#X connect 351 0 353 0;
#X connect 352 0 354 0;
#X connect 353 0 355 0;
#X connect 357 0 359 0;
#X connect 358 0 360 0;
#X connect 359 0 361 0;
#X connect 359 0 378 0;
#X connect 360 0 362 0;
#X connect 360 0 379 0;
#X connect 363 0 364 0;
#X connect 364 0 365 0;
#X connect 365 0 366 0;
#X connect 365 0 367 0;
#X connect 366 0 374 0;
#X connect 367 0 375 0;
#X connect 368 0 369 0;
#X connect 369 0 370 0;
#X connect 370 0 374 1;
#X connect 370 0 375 1;
#X connect 371 0 372 0;
#X connect 372 0 373 0;
#X connect 373 0 376 1;
#X connect 373 0 377 1;
#X connect 374 0 376 0;
#X connect 375 0 377 0;
#X connect 376 0 378 1;
#X connect 377 0 379 1;
#X connect 378 0 380 0;
#X connect 379 0 381 0;
#X connect 380 0 385 0;
#X connect 381 0 386 0;
#X connect 382 0 383 0;
#X connect 383 0 384 0;
#X connect 384 0 385 1;
#X connect 384 0 386 1;
#X connect 385 0 387 0;
#X connect 385 0 687 0;
#X connect 386 0 387 1;
#X connect 389 0 390 0;
#X connect 390 0 453 0;
#X connect 390 0 462 0;
#X connect 390 0 425 0;
#X connect 390 1 430 0;
#X connect 390 2 448 0;
#X connect 391 0 392 0;
#X connect 392 0 393 0;
#X connect 392 1 397 0;
#X connect 392 2 402 0;
#X connect 392 3 407 0;
#X connect 392 4 415 0;
#X connect 393 0 394 0;
#X connect 394 0 395 0;
#X connect 395 0 396 0;
#X connect 396 0 420 0;
#X connect 397 0 398 0;
#X connect 398 0 399 0;
#X connect 399 0 400 0;
#X connect 400 0 401 0;
#X connect 401 0 420 1;
#X connect 402 0 403 0;
#X connect 403 0 404 0;
#X connect 404 0 405 0;
#X connect 405 0 406 0;
#X connect 406 0 421 1;
#X connect 407 0 408 0;
#X connect 408 0 409 0;
#X connect 409 0 410 0;
#X connect 410 0 411 0;
#X connect 411 0 422 1;
#X connect 412 0 413 0;
#X connect 413 0 414 0;
#X connect 414 0 415 1;
#X connect 415 0 416 0;
#X connect 416 0 417 0;
#X connect 417 0 418 0;
#X connect 418 0 419 0;
#X connect 419 0 423 1;
#X connect 420 0 421 0;
#X connect 421 0 422 0;
#X connect 422 0 423 0;
#X connect 423 0 428 0;
#X connect 424 0 425 1;
#X connect 425 0 426 0;
#X connect 426 0 427 0;
#X connect 427 0 428 1;
#X connect 428 0 436 0;
#X connect 429 0 432 0;
#X connect 430 0 431 0;
#X connect 431 0 434 1;
#X connect 432 0 433 0;
#X connect 433 0 434 0;
#X connect 434 0 435 0;
#X connect 435 0 436 1;
#X connect 436 0 440 0;
#X connect 437 0 438 0;
#X connect 438 0 439 0;
#X connect 439 0 440 1;
#X connect 440 0 444 0;
#X connect 441 0 442 0;
#X connect 442 0 443 0;
#X connect 443 0 444 1;
#X connect 444 0 458 0;
#X connect 445 0 602 0;
#X connect 445 1 604 0;
#X connect 445 1 446 0;
#X connect 448 0 452 0;
#X connect 448 1 449 0;
#X connect 449 0 450 0;
#X connect 450 0 451 0;
#X connect 451 0 452 1;
#X connect 452 0 391 0;
#X connect 453 0 454 0;
#X connect 454 0 455 0;
#X connect 455 0 456 0;
#X connect 456 0 457 0;
#X connect 457 0 458 1;
#X connect 458 0 464 0;
#X connect 460 0 461 0;
#X connect 462 0 463 0;
#X connect 463 0 464 1;
#X connect 464 0 465 0;
#X connect 465 0 466 0;
#X connect 466 0 473 0;
#X connect 466 0 474 0;
#X connect 467 0 468 0;
#X connect 468 0 471 1;
#X connect 468 0 472 1;
#X connect 469 0 471 0;
#X connect 470 0 472 0;
#X connect 471 0 473 1;
#X connect 472 0 474 1;
#X connect 473 0 486 0;
#X connect 473 0 475 0;
#X connect 473 0 482 0;
#X connect 474 0 486 1;
#X connect 474 0 476 0;
#X connect 474 0 483 0;
#X connect 477 0 480 0;
#X connect 478 0 481 0;
#X connect 479 0 477 0;
#X connect 479 0 478 0;
#X connect 480 0 482 1;
#X connect 481 0 483 1;
#X connect 486 0 487 0;
#X connect 486 1 488 0;
#X connect 492 0 493 0;
#X connect 493 0 494 0;
#X connect 496 0 497 0;
#X connect 497 0 504 0;
#X connect 497 1 499 0;
#X connect 497 2 500 0;
#X connect 498 0 499 1;
#X connect 499 0 504 1;
#X connect 500 0 501 0;
#X connect 501 0 502 0;
#X connect 502 0 503 0;
#X connect 503 0 504 2;
#X connect 504 0 505 0;
#X connect 505 0 506 0;
#X connect 506 0 507 0;
#X connect 507 0 508 0;
#X connect 508 0 509 0;
#X connect 509 0 520 0;
#X connect 510 0 511 0;
#X connect 511 0 515 0;
#X connect 511 1 514 0;
#X connect 512 0 513 0;
#X connect 513 0 514 1;
#X connect 514 0 517 1;
#X connect 515 0 516 0;
#X connect 516 0 517 0;
#X connect 517 0 518 0;
#X connect 518 0 519 0;
#X connect 519 0 525 1;
#X connect 520 0 521 0;
#X connect 521 0 525 0;
#X connect 522 0 523 0;
#X connect 523 0 524 0;
#X connect 524 0 521 1;
#X connect 525 0 526 0;
#X connect 526 0 533 0;
#X connect 527 0 568 0;
#X connect 528 0 529 0;
#X connect 529 0 530 0;
#X connect 530 0 531 0;
#X connect 531 0 532 0;
#X connect 532 0 533 1;
#X connect 533 0 537 0;
#X connect 534 0 535 0;
#X connect 535 0 536 0;
#X connect 536 0 537 1;
#X connect 537 0 548 0;
#X connect 537 0 549 0;
#X connect 538 0 569 0;
#X connect 539 0 540 0;
#X connect 540 0 541 0;
#X connect 541 0 542 0;
#X connect 542 0 543 0;
#X connect 542 1 546 0;
#X connect 543 0 544 0;
#X connect 544 0 545 0;
#X connect 545 0 548 1;
#X connect 546 0 547 0;
#X connect 547 0 549 1;
#X connect 548 0 550 0;
#X connect 548 0 557 0;
#X connect 548 0 560 0;
#X connect 549 0 551 0;
#X connect 549 0 557 1;
#X connect 549 0 561 0;
#X connect 552 0 553 0;
#X connect 552 0 554 0;
#X connect 553 0 555 0;
#X connect 554 0 556 0;
#X connect 555 0 562 1;
#X connect 556 0 563 1;
#X connect 557 0 558 0;
#X connect 557 1 559 0;
#X connect 558 0 562 0;
#X connect 559 0 563 0;
#X connect 560 0 564 1;
#X connect 561 0 565 1;
#X connect 562 0 564 0;
#X connect 563 0 565 0;
#X connect 564 0 735 0;
#X connect 564 0 566 0;
#X connect 565 0 735 1;
#X connect 565 0 567 0;
#X connect 568 0 528 0;
#X connect 569 0 539 0;
#X connect 570 0 571 0;
#X connect 571 0 493 0;
#X connect 575 0 577 0;
#X connect 575 0 576 0;
#X connect 579 0 580 0;
#X connect 579 0 581 0;
#X connect 583 0 584 0;
#X connect 583 0 585 0;
#X connect 587 0 589 0;
#X connect 587 0 588 0;
#X connect 590 0 591 0;
#X connect 591 0 592 0;
#X connect 592 0 593 0;
#X connect 593 0 594 0;
#X connect 594 0 595 0;
#X connect 596 0 597 0;
#X connect 597 0 598 0;
#X connect 598 0 599 0;
#X connect 599 0 600 0;
#X connect 600 0 601 0;
#X connect 602 0 603 0;
#X connect 604 0 602 0;
#X connect 606 0 607 0;
#X connect 606 0 608 0;
#X connect 610 0 611 0;
#X connect 610 0 612 0;
#X connect 618 0 619 0;
#X connect 618 0 620 0;
#X connect 621 0 622 0;
#X connect 621 0 623 0;
#X connect 624 0 625 0;
#X connect 624 0 626 0;
#X connect 631 0 632 0;
#X connect 631 0 633 0;
#X connect 634 0 635 0;
#X connect 634 0 636 0;
#X connect 637 0 638 0;
#X connect 637 0 639 0;
#X connect 644 0 645 0;
#X connect 644 0 646 0;
#X connect 647 0 648 0;
#X connect 647 0 649 0;
#X connect 650 0 651 0;
#X connect 650 0 652 0;
#X connect 657 0 658 0;
#X connect 657 0 659 0;
#X connect 660 0 661 0;
#X connect 660 0 662 0;
#X connect 663 0 664 0;
#X connect 663 0 665 0;
#X connect 666 0 667 0;
#X connect 667 0 552 0;
#X connect 669 0 670 0;
#X connect 669 0 671 0;
#X connect 675 0 676 0;
#X connect 675 0 677 0;
#X connect 678 0 679 0;
#X connect 678 0 680 0;
#X connect 681 0 683 0;
#X connect 681 0 682 0;
#X connect 687 0 688 0;
#X connect 688 0 689 0;
#X connect 689 0 690 0;
#X connect 690 0 691 0;
#X connect 691 0 692 0;
#X connect 692 0 693 0;
#X connect 693 0 694 0;
#X connect 694 0 695 0;
#X connect 696 0 697 0;
#X connect 697 0 698 0;
#X connect 698 0 699 0;
#X connect 699 0 700 0;
#X connect 700 0 704 0;
#X connect 700 1 701 0;
#X connect 700 2 705 1;
#X connect 701 0 702 0;
#X connect 702 0 699 1;
#X connect 703 0 704 1;
#X connect 704 0 705 0;
#X connect 717 0 718 0;
#X connect 718 0 719 0;
#X connect 719 0 720 0;
#X connect 720 0 721 0;
#X connect 721 0 722 0;
#X connect 722 0 723 0;
#X connect 723 0 724 0;
#X connect 724 0 725 0;
#X connect 726 0 727 0;
#X connect 727 0 728 0;
#X connect 728 0 729 0;
#X connect 729 0 730 0;
#X connect 730 0 731 0;
#X connect 731 0 732 0;
#X connect 732 0 733 0;
#X connect 733 0 734 0;
#X connect 735 0 736 0;
#X connect 736 0 737 0;
#X connect 737 0 738 0;
#X connect 738 0 739 0;
#X connect 739 0 740 0;
#X connect 740 0 741 0;
#X connect 741 0 743 0;
#X connect 742 0 741 1;
#X connect 743 0 744 0;
#X connect 744 0 745 0;
#X connect 754 0 755 0;
#X connect 754 0 756 0;
#X connect 757 0 758 0;
#X connect 757 0 759 0;
#X connect 760 0 761 0;
#X connect 760 0 762 0;
#X connect 763 0 764 0;
#X connect 763 0 765 0;
